<svg xml:space="preserve" style="enable-background:new 0 0 250.979 244.246;" viewBox="0 0 250.979 244.246" height="244.246px" width="250.979px" y="0px" x="0px" xmlns:xlink="http://www.w3.org/1999/xlink" xmlns="http://www.w3.org/2000/svg" id="Layer_1" version="1.1">
<g id="Layer_1_1_">
	<g id="Layer_4_1_">
		<path d="M250.979,109.715c0-40.701-33.074-73.693-73.871-73.693c-0.635,0-1.262,0.029-1.893,0.046
			C162.334,14.476,138.717,0,111.701,0C70.903,0,37.83,32.995,37.83,73.696c0,0.529,0.026,1.049,0.04,1.576
			C15.556,87.952,0.5,111.88,0.5,139.332c0,40.699,33.073,73.691,73.872,73.691c2.317,0,4.609-0.123,6.878-0.33
			c13.551,16.377,34.051,26.812,56.998,26.812c37.711,0,68.793-28.191,73.289-64.596
			C234.988,162.562,250.979,138.007,250.979,109.715z" style="fill:#D6F0FF;"></path>
	</g>
	<g id="Layer_2_2_">
		<rect height="148.542" width="117.768" style="fill:#FFFFFF;" y="52.671" x="46.401"></rect>
		<g style="opacity:0.33;">
			<g>
				<rect height="141.454" width="145.377" style="fill:#FFFFFF;" y="52.671" x="47.401"></rect>
				<path d="M192.778,195.625H47.401c-0.829,0-1.5-0.672-1.5-1.5V52.671c0-0.829,0.671-1.5,1.5-1.5h145.377
					c0.828,0,1.5,0.671,1.5,1.5v141.454C194.278,194.953,193.606,195.625,192.778,195.625z M48.901,192.625h142.377V54.171H48.901
					V192.625z" style="fill:#6E6E96;"></path>
			</g>
			<g>
				<rect height="24.311" width="15.658" style="fill:#BDDFFF;" y="101.244" x="144.564"></rect>
				<path d="M160.222,127.055h-15.658c-0.828,0-1.5-0.672-1.5-1.5v-24.311c0-0.829,0.672-1.5,1.5-1.5h15.658
					c0.828,0,1.5,0.671,1.5,1.5v24.311C161.722,126.383,161.05,127.055,160.222,127.055z M146.064,124.055h12.658v-21.311h-12.658
					V124.055z" style="fill:#6E6E96;"></path>
			</g>
			<g>
				<rect height="24.16" width="15.658" style="fill:#BDDFFF;" y="131.445" x="144.564"></rect>
				<path d="M160.222,157.105h-15.658c-0.828,0-1.5-0.672-1.5-1.5v-24.16c0-0.828,0.672-1.5,1.5-1.5h15.658
					c0.828,0,1.5,0.672,1.5,1.5v24.16C161.722,156.434,161.05,157.105,160.222,157.105z M146.064,154.105h12.658v-21.16h-12.658
					V154.105z" style="fill:#6E6E96;"></path>
			</g>
			<g>
				<rect height="24.677" width="15.66" style="fill:#BDDFFF;" y="70.671" x="122.5"></rect>
				<path d="M138.16,96.848H122.5c-0.829,0-1.5-0.671-1.5-1.5V70.671c0-0.829,0.671-1.5,1.5-1.5h15.66
					c0.828,0,1.5,0.671,1.5,1.5v24.677C139.66,96.177,138.989,96.848,138.16,96.848z M124,93.848h12.66V72.171H124V93.848z" style="fill:#6E6E96;"></path>
			</g>
			<g>
				<rect height="24.311" width="15.66" style="fill:#BDDFFF;" y="101.244" x="122.5"></rect>
				<path d="M138.16,127.055H122.5c-0.829,0-1.5-0.672-1.5-1.5v-24.311c0-0.829,0.671-1.5,1.5-1.5h15.66
					c0.828,0,1.5,0.671,1.5,1.5v24.311C139.66,126.383,138.989,127.055,138.16,127.055z M124,124.055h12.66v-21.311H124V124.055z" style="fill:#6E6E96;"></path>
			</g>
			<g>
				<rect height="24.311" width="18.425" style="fill:#BDDFFF;" y="101.244" x="166.629"></rect>
				<path d="M185.054,127.055h-18.425c-0.828,0-1.5-0.672-1.5-1.5v-24.311c0-0.829,0.672-1.5,1.5-1.5h18.425
					c0.828,0,1.5,0.671,1.5,1.5v24.311C186.554,126.383,185.882,127.055,185.054,127.055z M168.129,124.055h15.425v-21.311h-15.425
					V124.055z" style="fill:#6E6E96;"></path>
			</g>
			<g>
				<rect height="24.677" width="15.658" style="fill:#BDDFFF;" y="70.671" x="144.564"></rect>
				<path d="M160.222,96.848h-15.658c-0.828,0-1.5-0.671-1.5-1.5V70.671c0-0.829,0.672-1.5,1.5-1.5h15.658
					c0.828,0,1.5,0.671,1.5,1.5v24.677C161.722,96.177,161.05,96.848,160.222,96.848z M146.064,93.848h12.658V72.171h-12.658V93.848
					z" style="fill:#6E6E96;"></path>
			</g>
			<g>
				<rect height="24.16" width="15.66" style="fill:#BDDFFF;" y="131.445" x="122.5"></rect>
				<path d="M138.16,157.105H122.5c-0.829,0-1.5-0.672-1.5-1.5v-24.16c0-0.828,0.671-1.5,1.5-1.5h15.66
					c0.828,0,1.5,0.672,1.5,1.5v24.16C139.66,156.434,138.989,157.105,138.16,157.105z M124,154.105h12.66v-21.16H124V154.105z" style="fill:#6E6E96;"></path>
			</g>
			<g>
				<rect height="24.677" width="18.425" style="fill:#BDDFFF;" y="70.671" x="166.629"></rect>
				<path d="M185.054,96.848h-18.425c-0.828,0-1.5-0.671-1.5-1.5V70.671c0-0.829,0.672-1.5,1.5-1.5h18.425
					c0.828,0,1.5,0.671,1.5,1.5v24.677C186.554,96.177,185.882,96.848,185.054,96.848z M168.129,93.848h15.425V72.171h-15.425
					V93.848z" style="fill:#6E6E96;"></path>
			</g>
			<g>
				<rect height="24.16" width="18.425" style="fill:#BDDFFF;" y="131.445" x="166.629"></rect>
				<path d="M185.054,157.105h-18.425c-0.828,0-1.5-0.672-1.5-1.5v-24.16c0-0.828,0.672-1.5,1.5-1.5h18.425
					c0.828,0,1.5,0.672,1.5,1.5v24.16C186.554,156.434,185.882,157.105,185.054,157.105z M168.129,154.105h15.425v-21.16h-15.425
					V154.105z" style="fill:#6E6E96;"></path>
			</g>
			<g>
				<rect height="24.311" width="16.942" style="fill:#BDDFFF;" y="101.244" x="55.025"></rect>
				<path d="M71.967,127.055H55.025c-0.829,0-1.5-0.672-1.5-1.5v-24.311c0-0.829,0.671-1.5,1.5-1.5h16.942
					c0.829,0,1.5,0.671,1.5,1.5v24.311C73.467,126.383,72.796,127.055,71.967,127.055z M56.525,124.055h13.942v-21.311H56.525
					V124.055z" style="fill:#6E6E96;"></path>
			</g>
			<g>
				<rect height="24.677" width="16.942" style="fill:#BDDFFF;" y="70.671" x="55.025"></rect>
				<path d="M71.967,96.848H55.025c-0.829,0-1.5-0.671-1.5-1.5V70.671c0-0.829,0.671-1.5,1.5-1.5h16.942
					c0.829,0,1.5,0.671,1.5,1.5v24.677C73.467,96.177,72.796,96.848,71.967,96.848z M56.525,93.848h13.942V72.171H56.525V93.848z" style="fill:#6E6E96;"></path>
			</g>
			<g>
				<rect height="24.16" width="16.942" style="fill:#BDDFFF;" y="131.445" x="55.025"></rect>
				<path d="M71.967,157.105H55.025c-0.829,0-1.5-0.672-1.5-1.5v-24.16c0-0.828,0.671-1.5,1.5-1.5h16.942
					c0.829,0,1.5,0.672,1.5,1.5v24.16C73.467,156.434,72.796,157.105,71.967,157.105z M56.525,154.105h13.942v-21.16H56.525V154.105
					z" style="fill:#6E6E96;"></path>
			</g>
			<g>
				<rect height="24.16" width="15.655" style="fill:#BDDFFF;" y="131.445" x="78.373"></rect>
				<path d="M94.029,157.105H78.373c-0.829,0-1.5-0.672-1.5-1.5v-24.16c0-0.828,0.671-1.5,1.5-1.5h15.655
					c0.829,0,1.5,0.672,1.5,1.5v24.16C95.529,156.434,94.857,157.105,94.029,157.105z M79.873,154.105h12.655v-21.16H79.873V154.105
					z" style="fill:#6E6E96;"></path>
			</g>
			<g>
				<rect height="24.311" width="15.655" style="fill:#BDDFFF;" y="101.244" x="78.373"></rect>
				<path d="M94.029,127.055H78.373c-0.829,0-1.5-0.672-1.5-1.5v-24.311c0-0.829,0.671-1.5,1.5-1.5h15.655
					c0.829,0,1.5,0.671,1.5,1.5v24.311C95.529,126.383,94.857,127.055,94.029,127.055z M79.873,124.055h12.655v-21.311H79.873
					V124.055z" style="fill:#6E6E96;"></path>
			</g>
			<g>
				<rect height="24.16" width="15.659" style="fill:#BDDFFF;" y="131.445" x="100.437"></rect>
				<path d="M116.096,157.105h-15.659c-0.829,0-1.5-0.672-1.5-1.5v-24.16c0-0.828,0.671-1.5,1.5-1.5h15.659
					c0.829,0,1.5,0.672,1.5,1.5v24.16C117.596,156.434,116.925,157.105,116.096,157.105z M101.937,154.105h12.659v-21.16h-12.659
					V154.105z" style="fill:#6E6E96;"></path>
			</g>
			<g>
				<rect height="24.677" width="15.659" style="fill:#BDDFFF;" y="70.671" x="100.437"></rect>
				<path d="M116.096,96.848h-15.659c-0.829,0-1.5-0.671-1.5-1.5V70.671c0-0.829,0.671-1.5,1.5-1.5h15.659
					c0.829,0,1.5,0.671,1.5,1.5v24.677C117.596,96.177,116.925,96.848,116.096,96.848z M101.937,93.848h12.659V72.171h-12.659
					V93.848z" style="fill:#6E6E96;"></path>
			</g>
			<g>
				<rect height="24.311" width="15.659" style="fill:#BDDFFF;" y="101.244" x="100.437"></rect>
				<path d="M116.096,127.055h-15.659c-0.829,0-1.5-0.672-1.5-1.5v-24.311c0-0.829,0.671-1.5,1.5-1.5h15.659
					c0.829,0,1.5,0.671,1.5,1.5v24.311C117.596,126.383,116.925,127.055,116.096,127.055z M101.937,124.055h12.659v-21.311h-12.659
					V124.055z" style="fill:#6E6E96;"></path>
			</g>
			<g>
				<rect height="24.677" width="15.655" style="fill:#BDDFFF;" y="70.671" x="78.373"></rect>
				<path d="M94.029,96.848H78.373c-0.829,0-1.5-0.671-1.5-1.5V70.671c0-0.829,0.671-1.5,1.5-1.5h15.655
					c0.829,0,1.5,0.671,1.5,1.5v24.677C95.529,96.177,94.857,96.848,94.029,96.848z M79.873,93.848h12.655V72.171H79.873V93.848z" style="fill:#6E6E96;"></path>
			</g>
			<g>
				<rect height="7.074" width="153.227" style="fill:#D5B697;" y="52.671" x="43.483"></rect>
				<path d="M196.709,61.245H43.483c-0.829,0-1.5-0.671-1.5-1.5v-7.074c0-0.829,0.671-1.5,1.5-1.5h153.227
					c0.828,0,1.5,0.671,1.5,1.5v7.074C198.209,60.574,197.537,61.245,196.709,61.245z M44.983,58.245h150.227v-4.074H44.983V58.245z" style="fill:#6E6E96;"></path>
			</g>
			<g>
				<rect height="24.16" width="15.658" style="fill:#BDDFFF;" y="161.895" x="144.564"></rect>
				<path d="M160.222,187.555h-15.658c-0.828,0-1.5-0.672-1.5-1.5v-24.16c0-0.828,0.672-1.5,1.5-1.5h15.658
					c0.828,0,1.5,0.672,1.5,1.5v24.16C161.722,186.883,161.05,187.555,160.222,187.555z M146.064,184.555h12.658v-21.16h-12.658
					V184.555z" style="fill:#6E6E96;"></path>
			</g>
			<g>
				<rect height="24.16" width="18.425" style="fill:#BDDFFF;" y="161.895" x="166.629"></rect>
				<path d="M185.054,187.555h-18.425c-0.828,0-1.5-0.672-1.5-1.5v-24.16c0-0.828,0.672-1.5,1.5-1.5h18.425
					c0.828,0,1.5,0.672,1.5,1.5v24.16C186.554,186.883,185.882,187.555,185.054,187.555z M168.129,184.555h15.425v-21.16h-15.425
					V184.555z" style="fill:#6E6E96;"></path>
			</g>
			<g>
				<rect height="24.16" width="16.942" style="fill:#BDDFFF;" y="161.895" x="55.025"></rect>
				<path d="M71.967,187.555H55.025c-0.829,0-1.5-0.672-1.5-1.5v-24.16c0-0.828,0.671-1.5,1.5-1.5h16.942
					c0.829,0,1.5,0.672,1.5,1.5v24.16C73.467,186.883,72.796,187.555,71.967,187.555z M56.525,184.555h13.942v-21.16H56.525V184.555
					z" style="fill:#6E6E96;"></path>
			</g>
			<g>
				<rect height="24.16" width="15.655" style="fill:#BDDFFF;" y="161.895" x="78.373"></rect>
				<path d="M94.029,187.555H78.373c-0.829,0-1.5-0.672-1.5-1.5v-24.16c0-0.828,0.671-1.5,1.5-1.5h15.655
					c0.829,0,1.5,0.672,1.5,1.5v24.16C95.529,186.883,94.857,187.555,94.029,187.555z M79.873,184.555h12.655v-21.16H79.873V184.555
					z" style="fill:#6E6E96;"></path>
			</g>
			<g>
				<rect height="32.229" width="37.784" style="fill:#E4BC96;" y="161.895" x="100.437"></rect>
				<path d="M138.221,195.624h-37.784c-0.829,0-1.5-0.672-1.5-1.5v-32.229c0-0.828,0.671-1.5,1.5-1.5h37.784
					c0.828,0,1.5,0.672,1.5,1.5v32.229C139.721,194.952,139.049,195.624,138.221,195.624z M101.937,192.624h34.784v-29.229h-34.784
					V192.624z" style="fill:#6E6E96;"></path>
			</g>
			<path d="M119.113,195.625c-0.829,0-1.5-0.672-1.5-1.5v-32.23c0-0.828,0.671-1.5,1.5-1.5s1.5,0.672,1.5,1.5
				v32.23C120.613,194.953,119.941,195.625,119.113,195.625z" style="fill:#6E6E96;"></path>
		</g>
		<rect height="18" width="38" style="fill:#D6F0FF;" y="191.557" x="85.833"></rect>
		<path d="M101.625,21.598H80.5c-1.381,0-2.5-1.119-2.5-2.5s1.119-2.5,2.5-2.5h21.125
			c1.381,0,2.5,1.119,2.5,2.5S103.006,21.598,101.625,21.598z" style="fill:#FFFFFF;"></path>
		<path d="M115.465,32.525H90.698c-1.381,0-2.5-1.119-2.5-2.5s1.119-2.5,2.5-2.5h24.767
			c1.381,0,2.5,1.119,2.5,2.5S116.846,32.525,115.465,32.525z" style="fill:#FFFFFF;"></path>
	</g>
	<g id="Layer_3_1_">
		<g>
			<rect height="9.561" width="67.122" style="fill:#EBEBF7;" y="21.587" x="156.502"></rect>
			<path d="M223.624,32.648h-67.122c-0.828,0-1.5-0.671-1.5-1.5v-9.561c0-0.829,0.672-1.5,1.5-1.5h67.122
				c0.828,0,1.5,0.671,1.5,1.5v9.561C225.124,31.977,224.452,32.648,223.624,32.648z M158.002,29.648h64.122v-6.561h-64.122V29.648z" style="fill:#CCCCDE;"></path>
		</g>
		<g>
			<rect height="169.355" width="105.589" style="fill:#FFFFFF;" y="30.982" x="137.1"></rect>
			<path d="M242.689,201.837H137.1c-0.828,0-1.5-0.672-1.5-1.5V30.982c0-0.829,0.672-1.5,1.5-1.5h105.589
				c0.828,0,1.5,0.671,1.5,1.5v169.355C244.189,201.165,243.517,201.837,242.689,201.837z M138.6,198.837h102.589V32.482H138.6
				V198.837z" style="fill:#CCCCDE;"></path>
		</g>
		<g>
			<rect height="160.893" width="88.036" style="fill:#CFE7FF;" y="39.445" x="146.174"></rect>
			<path d="M234.21,201.838h-88.036c-0.828,0-1.5-0.672-1.5-1.5V39.445c0-0.829,0.672-1.5,1.5-1.5h88.036
				c0.828,0,1.5,0.671,1.5,1.5v160.893C235.71,201.166,235.038,201.838,234.21,201.838z M147.674,198.838h85.036V40.945h-85.036
				V198.838z" style="fill:#CCCCDE;"></path>
		</g>
		<polygon points="147.297,123.091 229.938,40.452 169.996,40.619 
			147.297,63.995" style="opacity:0.49;fill:#FFFFFF;enable-background:new    ;"></polygon>
		<polygon points="233.478,62.664 146.653,149.486 170.497,150.176 
			233.478,87.196" style="opacity:0.27;fill:#FFFFFF;enable-background:new    ;"></polygon>
		<g>
			<rect height="50.793" width="88.036" style="fill:#CFE7FF;" y="149.544" x="146.174"></rect>
			<path d="M234.21,201.837h-88.036c-0.828,0-1.5-0.672-1.5-1.5v-50.793c0-0.828,0.672-1.5,1.5-1.5h88.036
				c0.828,0,1.5,0.672,1.5,1.5v50.793C235.71,201.165,235.038,201.837,234.21,201.837z M147.674,198.837h85.036v-47.793h-85.036
				V198.837z" style="fill:#CCCCDE;"></path>
		</g>
		<g style="opacity:0.37;">
			<polygon points="169.293,162.003 147.475,183.188 
				147.475,196.125 169.293,174.939" style="opacity:0.49;fill:#FFFFFF;enable-background:new    ;"></polygon>
			<polyline points="147.349,173.376 159.062,162.003 
				147.349,162.003" style="opacity:0.49;fill:#FFFFFF;enable-background:new    ;"></polyline>
		</g>
		<g style="opacity:0.37;">
			<polygon points="200.758,162.003 179.573,183.188 
				179.573,196.125 200.758,174.939" style="opacity:0.49;fill:#FFFFFF;enable-background:new    ;"></polygon>
			<polyline points="180.294,173.376 191.667,162.003 
				180.294,162.003" style="opacity:0.49;fill:#FFFFFF;enable-background:new    ;"></polyline>
		</g>
		<g style="opacity:0.37;">
			<polygon points="233.018,162.003 209.48,183.188 209.48,196.125 
				233.018,174.939" style="opacity:0.49;fill:#FFFFFF;enable-background:new    ;"></polygon>
			<polyline points="210.28,173.376 222.918,162.003 210.28,162.003" style="opacity:0.49;fill:#FFFFFF;enable-background:new    ;"></polyline>
		</g>
		<rect height="110.099" width="3" style="fill:#CCCCDE;" y="39.445" x="155.893"></rect>
		<rect height="110.099" width="3" style="fill:#CCCCDE;" y="39.445" x="167.127"></rect>
		<rect height="110.099" width="3" style="fill:#CCCCDE;" y="39.445" x="178.079"></rect>
		<rect height="110.099" width="3" style="fill:#CCCCDE;" y="39.445" x="189.593"></rect>
		<rect height="110.099" width="3" style="fill:#CCCCDE;" y="39.445" x="200.545"></rect>
		<rect height="110.099" width="3" style="fill:#CCCCDE;" y="39.445" x="211.216"></rect>
		<rect height="110.099" width="3" style="fill:#CCCCDE;" y="39.445" x="221.888"></rect>
		<path d="M234.21,64.16h-88.036c-0.828,0-1.5-0.671-1.5-1.5s0.672-1.5,1.5-1.5h88.036
			c0.828,0,1.5,0.671,1.5,1.5S235.038,64.16,234.21,64.16z" style="fill:#CCCCDE;"></path>
		<path d="M234.21,86.625h-88.036c-0.828,0-1.5-0.671-1.5-1.5s0.672-1.5,1.5-1.5h88.036
			c0.828,0,1.5,0.671,1.5,1.5S235.038,86.625,234.21,86.625z" style="fill:#CCCCDE;"></path>
		<path d="M234.21,107.969h-88.036c-0.828,0-1.5-0.671-1.5-1.5s0.672-1.5,1.5-1.5h88.036
			c0.828,0,1.5,0.671,1.5,1.5S235.038,107.969,234.21,107.969z" style="fill:#CCCCDE;"></path>
		<rect height="3" width="88.036" style="fill:#CCCCDE;" y="126.311" x="146.174"></rect>
		<g>
			<rect height="42.618" width="8.981" style="fill:#F0F0FF;" y="157.719" x="170.592"></rect>
			<path d="M179.573,201.837h-8.981c-0.828,0-1.5-0.672-1.5-1.5v-42.618c0-0.828,0.672-1.5,1.5-1.5h8.981
				c0.828,0,1.5,0.672,1.5,1.5v42.618C181.073,201.165,180.402,201.837,179.573,201.837z M172.092,198.837h5.981v-39.618h-5.981
				V198.837z" style="fill:#CCCCDE;"></path>
		</g>
		<g>
			<rect height="44.562" width="8.425" style="fill:#F0F0FF;" y="155.773" x="200.5"></rect>
			<path d="M208.925,201.836H200.5c-0.828,0-1.5-0.672-1.5-1.5v-44.562c0-0.828,0.672-1.5,1.5-1.5h8.425
				c0.828,0,1.5,0.672,1.5,1.5v44.562C210.425,201.164,209.753,201.836,208.925,201.836z M202,198.836h5.425v-41.562H202V198.836z" style="fill:#CCCCDE;"></path>
		</g>
		<g>
			<rect height="12.459" width="88.036" style="fill:#F0F0FF;" y="149.544" x="146.174"></rect>
			<path d="M234.21,163.503h-88.036c-0.828,0-1.5-0.672-1.5-1.5v-12.459c0-0.828,0.672-1.5,1.5-1.5h88.036
				c0.828,0,1.5,0.672,1.5,1.5v12.459C235.71,162.831,235.038,163.503,234.21,163.503z M147.674,160.503h85.036v-9.459h-85.036
				V160.503z" style="fill:#CCCCDE;"></path>
		</g>
		<g>
			<rect height="7.509" width="29.486" style="fill:#EBEBF7;" y="14.078" x="175.319"></rect>
			<path d="M204.805,23.087h-29.486c-0.828,0-1.5-0.671-1.5-1.5v-7.509c0-0.829,0.672-1.5,1.5-1.5h29.486
				c0.828,0,1.5,0.671,1.5,1.5v7.509C206.305,22.416,205.633,23.087,204.805,23.087z M176.819,20.087h26.486v-4.509h-26.486V20.087z" style="fill:#CCCCDE;"></path>
		</g>
		<path d="M190.063,15.578c-0.828,0-1.5-0.671-1.5-1.5V1.826c0-0.829,0.672-1.5,1.5-1.5s1.5,0.671,1.5,1.5
			v12.252C191.563,14.907,190.891,15.578,190.063,15.578z" style="fill:#CCCCDE;"></path>
		<g>
			<rect height="8.706" width="114.727" style="fill:#F0F0FF;" y="196.051" x="133.373"></rect>
			<path d="M248.1,206.257H133.373c-0.828,0-1.5-0.672-1.5-1.5v-8.706c0-0.828,0.672-1.5,1.5-1.5H248.1
				c0.828,0,1.5,0.672,1.5,1.5v8.706C249.6,205.585,248.928,206.257,248.1,206.257z M134.873,203.257H246.6v-5.706H134.873V203.257z" style="fill:#CCCCDE;"></path>
		</g>
	</g>
	<g id="Layer_6_1_">
		<g>
			<polygon points="98.442,204.757 9.331,204.757 9.331,128.594 53.887,100.072 98.442,128.594" style="fill:#FFFFFF;"></polygon>
			<path d="M99.942,206.257H7.831v-78.484l46.056-29.481l46.055,29.481V206.257z M10.831,203.257h86.11
				v-73.842l-43.055-27.562l-43.056,27.562V203.257z" style="fill:#CCCCDE;"></path>
		</g>
		<g>
			<polygon points="53.887,95.235 1.5,127.083 1.5,132.32 9.331,132.32 53.887,104.815 98.321,132.684 
				105.193,132.791 105.193,127.083" style="fill:#E0E6FC;"></polygon>
			<path d="M105.193,134.291c-0.008,0-0.016,0-0.023,0l-6.872-0.107c-0.274-0.005-0.542-0.084-0.773-0.229
				l-43.643-27.373l-43.761,27.015c-0.237,0.146-0.51,0.224-0.788,0.224H1.5c-0.829,0-1.5-0.672-1.5-1.5v-5.237
				c0-0.523,0.273-1.01,0.721-1.281l52.387-31.849c0.482-0.293,1.09-0.291,1.57,0.007l51.306,31.848
				c0.441,0.273,0.709,0.756,0.709,1.274v5.708c0,0.402-0.161,0.787-0.448,1.069C105.964,134.137,105.586,134.291,105.193,134.291z
				 M98.763,131.19l4.93,0.077v-3.351L53.879,96.995L3,127.927v2.894h5.905l44.193-27.282c0.487-0.3,1.102-0.297,1.585,0.006
				L98.763,131.19z" style="fill:#CCCCDE;"></path>
		</g>
		<g>
			<rect height="19.961" width="30.25" style="fill:#D4EAFF;" y="166.613" x="17.744"></rect>
			<path d="M47.994,188.074h-30.25c-0.829,0-1.5-0.672-1.5-1.5v-19.961c0-0.828,0.671-1.5,1.5-1.5h30.25
				c0.829,0,1.5,0.672,1.5,1.5v19.961C49.494,187.402,48.823,188.074,47.994,188.074z M19.244,185.074h27.25v-16.961h-27.25V185.074
				z" style="fill:#CCCCDE;"></path>
		</g>
		<g>
			<rect height="12.131" width="89.109" style="fill:#FCEBE3;" y="192.626" x="9.331"></rect>
			<path d="M98.441,206.257H9.331c-0.829,0-1.5-0.672-1.5-1.5v-12.131c0-0.828,0.671-1.5,1.5-1.5h89.109
				c0.829,0,1.5,0.672,1.5,1.5v12.131C99.941,205.585,99.269,206.257,98.441,206.257z M10.831,203.257h86.109v-9.131H10.831V203.257
				z" style="fill:#CCCCDE;"></path>
		</g>
		<g>
			<path d="M49.257,204.757c0-0.022,0.004-0.045,0.004-0.069c0-3.756-2.626-6.801-5.865-6.801
				c-1.5,0-2.861,0.659-3.898,1.731c-0.809-4.466-4.22-7.817-8.31-7.817c-1.858,0-3.578,0.702-4.977,1.881
				c-1.759-2.806-4.604-4.638-7.822-4.638c-4.419,0-8.138,3.438-9.296,8.134c-0.435-0.111-0.884-0.177-1.348-0.177
				c-3.449,0-6.245,3.242-6.245,7.246c0,0.172,0.012,0.34,0.021,0.51H49.257L49.257,204.757z" style="fill:#CCE8D6;"></path>
			<path d="M49.257,206.257H1.521c-0.798,0-1.457-0.625-1.498-1.423C0.009,204.574,0,204.412,0,204.247
				c0-4.929,3.607-8.927,8.029-8.74c1.685-4.75,5.785-7.963,10.359-7.963c3.108,0,6.068,1.49,8.167,4.052
				c1.422-0.851,2.999-1.295,4.631-1.295c4.023,0,7.607,2.765,9.166,6.829c0.948-0.486,1.982-0.743,3.042-0.743
				c4.061,0,7.365,3.724,7.365,8.301c0,0.043-0.004,0.121-0.007,0.163C50.754,205.68,50.086,206.257,49.257,206.257z M3.071,203.257
				h44.543c-0.502-2.204-2.203-3.87-4.218-3.87c-1.312,0-2.258,0.693-2.82,1.274c-0.391,0.404-0.976,0.552-1.514,0.393
				c-0.538-0.164-0.94-0.614-1.04-1.168c-0.691-3.815-3.564-6.585-6.833-6.585c-1.438,0-2.824,0.528-4.01,1.527
				c-0.333,0.281-0.77,0.399-1.199,0.336c-0.429-0.067-0.808-0.317-1.039-0.686c-1.567-2.501-3.955-3.935-6.551-3.935
				c-3.6,0-6.824,2.876-7.839,6.993c-0.096,0.389-0.343,0.723-0.687,0.928c-0.344,0.206-0.755,0.266-1.142,0.166
				c-0.341-0.088-0.66-0.13-0.976-0.13C5.408,198.501,3.459,200.559,3.071,203.257z" style="fill:#CCCCDE;"></path>
		</g>
		<g>
			<rect height="38.145" width="23.24" style="fill:#FFDEDE;" y="166.613" x="61.471"></rect>
			<path d="M84.711,206.258h-23.24c-0.829,0-1.5-0.672-1.5-1.5v-38.145c0-0.828,0.671-1.5,1.5-1.5h23.24
				c0.829,0,1.5,0.672,1.5,1.5v38.145C86.211,205.586,85.54,206.258,84.711,206.258z M62.971,203.258h20.24v-35.145h-20.24V203.258z" style="fill:#CCCCDE;"></path>
		</g>
		<path d="M98.442,161.007H9.331c-0.829,0-1.5-0.672-1.5-1.5s0.671-1.5,1.5-1.5h89.11
			c0.829,0,1.5,0.672,1.5,1.5S99.27,161.007,98.442,161.007z" style="fill:#CCCCDE;"></path>
		<g>
			<g>
				<rect height="18.535" width="16.274" style="fill:#D4EAFF;" y="133.689" x="17.744"></rect>
				<path d="M34.019,153.725H17.744c-0.829,0-1.5-0.672-1.5-1.5v-18.535c0-0.828,0.671-1.5,1.5-1.5h16.274
					c0.829,0,1.5,0.672,1.5,1.5v18.535C35.519,153.053,34.847,153.725,34.019,153.725z M19.244,150.725h13.274v-15.535H19.244
					V150.725z" style="fill:#CCCCDE;"></path>
			</g>
			<path d="M34.021,144.457H17.744c-0.829,0-1.5-0.672-1.5-1.5s0.671-1.5,1.5-1.5h16.276
				c0.829,0,1.5,0.672,1.5,1.5S34.849,144.457,34.021,144.457z" style="fill:#CCCCDE;"></path>
		</g>
		<g>
			<g>
				<rect height="18.535" width="16.277" style="fill:#D4EAFF;" y="133.689" x="73.422"></rect>
				<path d="M89.699,153.725H73.422c-0.829,0-1.5-0.672-1.5-1.5v-18.535c0-0.828,0.671-1.5,1.5-1.5h16.277
					c0.829,0,1.5,0.672,1.5,1.5v18.535C91.199,153.053,90.528,153.725,89.699,153.725z M74.922,150.725h13.277v-15.535H74.922
					V150.725z" style="fill:#CCCCDE;"></path>
			</g>
			<path d="M89.699,144.457H73.422c-0.829,0-1.5-0.672-1.5-1.5s0.671-1.5,1.5-1.5h16.277
				c0.829,0,1.5,0.672,1.5,1.5S90.528,144.457,89.699,144.457z" style="fill:#CCCCDE;"></path>
		</g>
		<g>
			<g>
				<rect height="18.535" width="16.274" style="fill:#D4EAFF;" y="133.689" x="45.664"></rect>
				<path d="M61.939,153.725H45.664c-0.829,0-1.5-0.672-1.5-1.5v-18.535c0-0.828,0.671-1.5,1.5-1.5h16.274
					c0.829,0,1.5,0.672,1.5,1.5v18.535C63.439,153.053,62.767,153.725,61.939,153.725z M47.164,150.725h13.274v-15.535H47.164
					V150.725z" style="fill:#CCCCDE;"></path>
			</g>
			<path d="M61.941,144.457H45.664c-0.829,0-1.5-0.672-1.5-1.5s0.671-1.5,1.5-1.5h16.276
				c0.829,0,1.5,0.672,1.5,1.5S62.769,144.457,61.941,144.457z" style="fill:#CCCCDE;"></path>
		</g>
		<path d="M32.906,188.074c-0.829,0-1.5-0.672-1.5-1.5v-19.961c0-0.828,0.671-1.5,1.5-1.5s1.5,0.672,1.5,1.5
			v19.961C34.406,187.402,33.735,188.074,32.906,188.074z" style="fill:#CCCCDE;"></path>
		<g>
			<rect height="4.355" width="29.531" style="fill:#F0F0FF;" y="200.4" x="58.325"></rect>
			<path d="M87.857,206.256H58.325c-0.829,0-1.5-0.672-1.5-1.5V200.4c0-0.828,0.671-1.5,1.5-1.5h29.531
				c0.829,0,1.5,0.672,1.5,1.5v4.355C89.357,205.584,88.685,206.256,87.857,206.256z M59.825,203.256h26.531V201.9H59.825V203.256z" style="fill:#CCCCDE;"></path>
		</g>
		<g>
			<path d="M111.875,204.757c0-0.017,0.003-0.03,0.003-0.047c0-2.513-1.756-4.549-3.924-4.549
				c-1.002,0-1.916,0.44-2.609,1.157c-0.539-2.985-2.82-5.229-5.556-5.229c-1.244,0-2.395,0.472-3.328,1.259
				c-1.176-1.878-3.079-3.103-5.231-3.103c-2.955,0-5.44,2.301-6.217,5.438c-0.291-0.074-0.592-0.115-0.901-0.115
				c-2.308,0-4.177,2.168-4.177,4.846c0,0.113,0.007,0.229,0.018,0.342L111.875,204.757L111.875,204.757z" style="fill:#CCE8D6;"></path>
			<path d="M111.875,206.257L111.875,206.257l-31.923-0.001c-0.773,0-1.42-0.588-1.493-1.358
				c-0.015-0.16-0.024-0.323-0.024-0.483c0-3.441,2.464-6.252,5.523-6.344c1.268-3.191,4.11-5.325,7.272-5.325
				c2.098,0,4.098,0.941,5.575,2.576c0.93-0.482,1.941-0.732,2.985-0.732c2.736,0,5.187,1.763,6.391,4.404
				c0.565-0.219,1.164-0.332,1.774-0.332c2.991,0,5.424,2.714,5.424,6.049c0,0.036-0.002,0.084-0.005,0.127
				c-0.02,0.368-0.175,0.718-0.438,0.98C112.655,206.099,112.273,206.257,111.875,206.257z M81.6,203.256l28.484,0.001
				c-0.411-0.95-1.212-1.596-2.13-1.596c-0.706,0-1.222,0.381-1.531,0.7c-0.392,0.404-0.977,0.553-1.514,0.393
				c-0.539-0.164-0.94-0.615-1.04-1.169c-0.418-2.315-2.134-3.996-4.08-3.996c-0.842,0-1.659,0.313-2.361,0.905
				c-0.333,0.28-0.768,0.403-1.199,0.335c-0.429-0.066-0.808-0.317-1.039-0.686c-0.954-1.524-2.397-2.398-3.96-2.398
				c-2.177,0-4.134,1.768-4.761,4.299c-0.096,0.388-0.343,0.722-0.686,0.927c-0.343,0.206-0.754,0.267-1.141,0.166
				C83.277,200.795,82.035,201.788,81.6,203.256z" style="fill:#CCCCDE;"></path>
		</g>
		<path d="M65.345,187.375c-0.829,0-1.5-0.672-1.5-1.5v-4.84c0-0.828,0.671-1.5,1.5-1.5s1.5,0.672,1.5,1.5
			v4.84C66.845,186.703,66.174,187.375,65.345,187.375z" style="fill:#CCCCDE;"></path>
	</g>
</g>
<g id="Layer_2_1_">
	<path d="M96.521,134.2c0,0,0.562-12.408,12.657-12.408
		C121.274,121.79,94.272,146.605,96.521,134.2z" style="opacity:0.54;fill:#FFFFFF;enable-background:new    ;"></path>
	<g>
		<path d="M89.502,172.135c-9.1,0-14.963-8.751-13.037-17.468l7.877-31.547
			c1.927-8.715,10.947-15.846,20.046-15.846h73.056c9.101,0,17.656,7.213,19.015,16.033l5.434,31.172
			c1.357,8.817-4.973,17.651-14.072,17.651L89.502,172.135z" style="fill:#FFE35F;"></path>
		<path d="M89.502,173.635L89.502,173.635c-4.519,0-8.562-1.937-11.385-5.451
			c-3.032-3.775-4.197-8.949-3.117-13.84l7.886-31.587c2.066-9.347,11.716-16.983,21.501-16.983h73.056
			c9.833,0,19.027,7.763,20.497,17.304l5.429,31.143c0.769,4.987-0.714,10.205-3.959,13.988c-2.999,3.496-7.115,5.421-11.591,5.421
			L89.502,173.635z M104.388,108.774c-8.458,0-16.793,6.581-18.581,14.67l-7.886,31.586c-0.877,3.972,0.067,8.201,2.535,11.274
			c2.243,2.792,5.456,4.33,9.046,4.33l98.317-0.005c3.586,0,6.894-1.554,9.313-4.374c2.684-3.128,3.908-7.445,3.276-11.549
			l-5.429-31.143c-1.259-8.169-9.123-14.791-17.537-14.791H104.388z" style="fill:#6E6E96;"></path>
	</g>
	<g>
		<path d="M92.324,127.021l-1.742,8.805c-1.514,6.605-1.348,12.016,5.789,12.016h39.951v-32.836h-28.271
			C100.416,115.003,94.338,118.223,92.324,127.021z M190.112,135.682l-1.6-8.521c-1.062-6.688-4.604-12.16-14.053-12.16h-29.389
			v32.836h38.393C190.602,147.839,191.18,142.368,190.112,135.682z" style="fill:#AADBF7;"></path>
		<path d="M136.323,149.342H96.371c-2.953,0-5.135-0.86-6.486-2.557c-2.308-2.896-1.621-7.558-0.765-11.294
			l1.732-8.761c1.983-8.667,7.923-13.225,17.189-13.225h28.281c0.828,0,1.5,0.671,1.5,1.5v32.836
			C137.823,148.67,137.151,149.342,136.323,149.342z M108.052,116.506c-7.932,0-12.594,3.549-14.265,10.851l-1.733,8.761
			c-1.044,4.559-0.985,7.34,0.177,8.799c0.765,0.959,2.119,1.426,4.14,1.426h38.451v-29.836H108.052z M183.468,149.337
			L183.468,149.337h-0.005h-38.393c-0.828,0-1.5-0.672-1.5-1.5v-32.836c0-0.829,0.672-1.5,1.5-1.5h29.389
			c8.893,0,14.119,4.517,15.534,13.425l1.593,8.479c0.606,3.791,0.977,8.47-1.502,11.375
			C188.637,148.477,186.41,149.337,183.468,149.337z M146.571,146.337h36.893h0.004h0.001c2.053,0,3.471-0.492,4.333-1.504
			c1.295-1.518,1.559-4.351,0.829-8.915l-1.593-8.48c-1.188-7.475-5.183-10.937-12.578-10.937h-27.889V146.337z" style="fill:#6E6E96;"></path>
	</g>
	<path d="M78.522,158.077l7.604-30.449c1.859-8.413,10.567-15.297,19.351-15.297h70.52
		c8.78,0,17.045,6.963,18.354,15.476l5.241,30.094c0.021,0.121,0.031,0.244,0.047,0.369c0.182-1.398,0.177-2.838-0.047-4.277
		l-5.241-30.09c-1.312-8.513-9.573-15.478-18.354-15.478h-70.52c-8.782,0-17.489,6.883-19.351,15.298l-7.604,30.448
		c-0.387,1.752-0.442,3.502-0.221,5.181C78.359,158.926,78.429,158.501,78.522,158.077z" style="fill:#FFF1B0;"></path>
	<g>
		<path d="M49.367,215.905c0,0-8.675-0.021-12.34-0.048c-3.663-0.026-6.638-3.342-6.608-7.368l0.125-26.839
			l0.061-4.209c0-7.838,6.429-12.78,14.614-14.638l29.457-6.146l128.812-0.002c3.797,1.35,16.029,1.596,16.029,16.908l0.221,36.069
			c0.036,4.029-3.232,7.302-7.26,7.273l-7.396-0.054" style="fill:#FFE35F;"></path>
		<path d="M212.531,218.407c-0.021,0-0.042,0-0.063,0l-7.396-0.054l0.021-3l7.396,0.054
			c0.014,0,0.028,0,0.042,0c1.527,0,2.961-0.594,4.04-1.676c1.089-1.091,1.681-2.541,1.667-4.084l-0.221-36.074
			c0-11.884-7.654-13.688-12.719-14.882c-0.782-0.185-1.472-0.348-2.057-0.535l-128.411,0.002l-29.306,6.114
			c-8.394,1.904-13.42,6.83-13.42,13.169l-0.061,4.23l-0.125,26.824c-0.012,1.577,0.534,3.059,1.536,4.176
			c0.966,1.077,2.239,1.676,3.583,1.686c3.663,0.026,12.333,0.048,12.333,0.048l-0.008,3c0,0-8.68-0.021-12.347-0.048
			c-2.199-0.016-4.257-0.969-5.795-2.683c-1.502-1.674-2.32-3.875-2.303-6.196l0.125-26.835l0.061-4.224
			c0-7.817,5.9-13.837,15.782-16.079l29.789-6.183l129.07-0.002l0.243,0.087c0.48,0.17,1.184,0.336,1.997,0.528
			c4.879,1.149,15.03,3.543,15.03,17.793l0.221,36.061c0.021,2.349-0.882,4.562-2.544,6.226
			C217.047,217.501,214.861,218.407,212.531,218.407z" style="fill:#6E6E96;"></path>
	</g>
	<g>
		<path d="M218.088,175.114c0-17.453-12.088-15.49-15.838-16.834L75,158.282L45.9,164.4
			c-8.088,1.851-14.438,4.563-14.438,14.57l-0.06,4.189l-0.125,26.722c-0.027,4.011,2.911,7.312,6.53,7.337
			c3.622,0.025,12.189,0.047,12.189,0.047l153.826,0.953l7.307,0.053c3.98,0.023,7.207-3.231,7.176-7.243L218.088,175.114z
			 M199.746,206.161l-6.664-0.041L52.76,205.357c0,0-7.816-0.018-11.12-0.034c-3.303-0.021-5.98-2.658-5.956-5.857l0.114-17.295
			l0.054-6.567c0-6.229,5.792-10.158,13.17-11.631l26.546-4.888l116.081-0.002c3.421,1.074,14.44,1.271,14.44,13.438l0.201,27.854
			C206.321,203.585,203.379,206.182,199.746,206.161z" style="fill:#EDCA4C;"></path>
	</g>
	<g style="opacity:0.44;">
		<path d="M40.884,190.941l0.059-8.077c0-7.664,6.284-8.443,14.289-10.259l26.088-5.44l128.68-0.565
			c1.309,0.461,3.642,0.797,6.112,1.688c-2.786-8.949-11.72-9.305-14.835-10.408L75.319,157.88l-28.807,6.008
			c-8.005,1.814-14.29,6.65-14.29,14.313l-0.06,4.025l-0.124,26.242c-0.027,3.938,2.88,7.184,6.464,7.207
			c0.628,0.003,1.409,0.01,2.263,0.014L40.884,190.941z" style="fill:#FFFFFF;"></path>
	</g>
	<g>
		<path d="M91.939,219.225h61.889l0,0c1.568,0,2.84-1.271,2.84-2.837c0-1.565-1.271-2.838-2.84-2.838l0,0
			H91.939l0,0c-1.566,0-2.837,1.271-2.837,2.838C89.101,217.954,90.373,219.225,91.939,219.225L91.939,219.225z" style="fill:#6E6E96;"></path>
	</g>
	<g>
		<path d="M40.005,205.538c0,0,3.999-21.836,29.537-21.836c25.541,0,31.623,22.144,31.623,22.144
			L40.005,205.538z" style="fill:#EDCA4C;"></path>
	</g>
	<rect height="8.211" width="57.521" style="fill:#EDCA4C;" y="195.04" x="95.146"></rect>
	<g>
		<path d="M146.213,206.35c0,0,5.619-23.457,31.16-23.457c30.811,0,30,23.764,30,23.764L146.213,206.35z" style="fill:#EDCA4C;"></path>
	</g>
	<g>
		<path d="M224.764,216.114c0,2.229-1.822,4.055-4.053,4.055H30.448c-2.229,0-4.054-1.824-4.054-4.055v-7.979
			c0-2.229,1.824-4.055,4.054-4.055h190.264c2.229,0,4.055,1.822,4.055,4.055L224.764,216.114L224.764,216.114z" style="fill:#F0F0FF;"></path>
		<path d="M220.711,221.669H30.448c-3.062,0-5.554-2.492-5.554-5.555v-7.979c0-3.062,2.491-5.555,5.554-5.555
			h190.264c3.062,0,5.555,2.492,5.555,5.555l-0.003,7.98C226.264,219.177,223.773,221.669,220.711,221.669z M30.448,205.58
			c-1.408,0-2.554,1.146-2.554,2.555v7.979c0,1.408,1.146,2.555,2.554,2.555h190.263c1.407,0,2.553-1.146,2.553-2.555l0.003-7.98
			c0-1.407-1.146-2.554-2.555-2.554H30.448z" style="fill:#6E6E96;"></path>
	</g>
	<g style="opacity:0.15;enable-background:new    ;">
		<rect height="5.679" width="197.188" style="fill:#6E6E96;" y="213.419" x="26.395"></rect>
	</g>
	<g>
		<rect height="15.812" width="8.258" style="fill:#FFFF00;" y="188.251" x="27.902"></rect>
		<path d="M36.159,205.562h-8.258c-0.829,0-1.5-0.672-1.5-1.5v-15.812c0-0.828,0.671-1.5,1.5-1.5h8.258
			c0.829,0,1.5,0.672,1.5,1.5v15.812C37.659,204.891,36.988,205.562,36.159,205.562z M29.402,202.562h5.258v-12.812h-5.258V202.562z" style="fill:#6E6E96;"></path>
	</g>
	<path d="M83.323,166.95h49.083v-3.466H83.323V166.95z
		 M142.334,163.484v3.466h49.769v-3.466H142.334z" style="opacity:0.6;fill:#FFFFFF;enable-background:new    ;"></path>
	<g>
		<rect height="17.432" width="9.32" style="fill:#FF5F5F;" y="186.631" x="213.924"></rect>
		<path d="M223.244,205.562h-9.32c-0.828,0-1.5-0.672-1.5-1.5v-17.432c0-0.828,0.672-1.5,1.5-1.5h9.32
			c0.828,0,1.5,0.672,1.5,1.5v17.432C224.744,204.891,224.073,205.562,223.244,205.562z M215.424,202.562h6.32v-14.432h-6.32
			V202.562z" style="fill:#6E6E96;"></path>
	</g>
	<g>
		<rect height="9.321" width="9.32" style="fill:#FFFF00;" y="186.631" x="213.924"></rect>
		<path d="M223.244,197.452h-9.32c-0.828,0-1.5-0.672-1.5-1.5v-9.321c0-0.828,0.672-1.5,1.5-1.5h9.32
			c0.828,0,1.5,0.672,1.5,1.5v9.321C224.744,196.78,224.073,197.452,223.244,197.452z M215.424,194.452h6.32v-6.321h-6.32V194.452z" style="fill:#6E6E96;"></path>
	</g>
	<g>
		<rect height="7.908" width="7.984" style="fill:#FFFFFF;" y="188.251" x="27.902"></rect>
		<path d="M35.886,197.659h-7.984c-0.829,0-1.5-0.672-1.5-1.5v-7.908c0-0.828,0.671-1.5,1.5-1.5h7.984
			c0.829,0,1.5,0.672,1.5,1.5v7.908C37.386,196.987,36.715,197.659,35.886,197.659z M29.402,194.659h4.984v-4.908h-4.984V194.659z" style="fill:#6E6E96;"></path>
	</g>
	<g>
		<g>
			<path d="M106.431,219.905c-0.123-21.834-14.085-38.647-36.107-38.523
				c-22.024,0.124-34.959,17.07-34.838,38.927L106.431,219.905z" style="fill:#9C9CA8;"></path>
			<path d="M33.994,221.817l-0.008-1.5c-0.133-24.062,14.466-40.312,36.33-40.436l0.25-0.001
				c21.868,0,37.233,16.455,37.366,40.016l0.008,1.5L33.994,221.817z M70.565,182.881l-0.233,0.001
				c-19.614,0.11-32.859,14.479-33.334,35.918l67.902-0.386C104.153,197.414,90.213,182.881,70.565,182.881z" style="fill:#6E6E96;"></path>
		</g>
		<g>
			<circle r="21.531" cy="216.153" cx="70.795" style="fill:#F0F0FF;"></circle>
		</g>
		<g>
			<path d="M70.795,199.489c9.189,0,16.667,7.478,16.667,16.663c0,4.449-1.734,8.638-4.883,11.785
				c-3.146,3.146-7.333,4.881-11.785,4.881c-9.189,0-16.666-7.478-16.666-16.666C54.13,206.965,61.605,199.489,70.795,199.489z
				 M44.4,216.152c0,14.558,11.84,26.396,26.396,26.396c14.556,0,26.396-11.84,26.396-26.396c0-14.555-11.84-26.395-26.396-26.395
				C56.24,189.758,44.4,201.6,44.4,216.152z" style="fill:#CCCCDE;"></path>
			<path d="M70.796,244.049c-15.382,0-27.896-12.515-27.896-27.896c0-15.381,12.514-27.895,27.896-27.895
				c15.382,0,27.896,12.514,27.896,27.895C98.692,231.534,86.178,244.049,70.796,244.049z M70.796,191.258
				c-13.728,0-24.896,11.168-24.896,24.895c0,13.728,11.168,24.896,24.896,24.896c13.728,0,24.896-11.169,24.896-24.896
				C95.692,202.426,84.524,191.258,70.796,191.258z M70.794,234.318c-10.017,0-18.166-8.149-18.166-18.166
				c0.002-10.016,8.152-18.163,18.167-18.163c10.017,0,18.167,8.147,18.167,18.163c0,4.853-1.89,9.415-5.322,12.846
				C80.209,232.429,75.647,234.318,70.794,234.318z M70.795,200.989c-8.361,0-15.165,6.803-15.167,15.163
				c0,8.362,6.803,15.166,15.166,15.166c4.052,0,7.86-1.577,10.725-4.441c2.865-2.864,4.443-6.673,4.443-10.725
				C85.962,207.791,79.158,200.989,70.795,200.989z" style="fill:#6E6E96;"></path>
		</g>
		<path d="M71.108,190.999c-13.586-0.002-24.64,11.055-24.64,24.642c0,0.717,0.037,1.422,0.096,2.122
			c1.082-12.596,10.171-24.02,23.042-24.02c15.993,0,24.965,11.422,26.046,24.02c0.061-0.7,0.098-1.405,0.098-2.122
			C95.75,202.051,84.696,190.999,71.108,190.999z" style="fill:#E6E6FA;"></path>
		<g style="opacity:0.15;enable-background:new    ;">
			<path d="M69.909,204.667c8.354,0,15.368,5.74,17.316,13.49c0.354-1.4,0.541-2.861,0.541-4.373
				c0-9.863-7.996-17.857-17.857-17.857c-9.863,0-17.86,7.994-17.86,17.857c0,1.508,0.188,2.973,0.542,4.373
				C54.54,210.407,61.554,204.667,69.909,204.667z" style="fill:#6E6E96;"></path>
		</g>
		<g>
			<circle r="5.851" cy="216.454" cx="70.353" style="fill:#CCCCDE;"></circle>
			<path d="M70.353,223.805c-4.053,0-7.351-3.298-7.351-7.351s3.297-7.351,7.351-7.351
				c4.054,0,7.352,3.298,7.352,7.351S74.406,223.805,70.353,223.805z M70.353,212.104c-2.399,0-4.351,1.952-4.351,4.351
				s1.952,4.351,4.351,4.351c2.399,0,4.352-1.952,4.352-4.351S72.752,212.104,70.353,212.104z" style="fill:#6E6E96;"></path>
		</g>
		<path d="M70.753,200.864c8.268,0,15.095,6.006,16.019,13.709
			c0.068-0.586,0.115-1.181,0.115-1.779c0-8.541-7.238-15.489-16.133-15.489c-8.896,0-16.133,6.948-16.135,15.489
			c0,0.604,0.046,1.197,0.116,1.781C55.658,206.87,62.484,200.864,70.753,200.864z M96.231,214.575
			c-0.954,12.698-12.012,22.754-25.478,22.754c-13.465,0-24.524-10.056-25.478-22.754c-0.045,0.588-0.075,1.183-0.075,1.78
			c0,13.527,11.463,24.531,25.553,24.531c14.089,0,25.553-11.004,25.553-24.531C96.307,215.756,96.276,215.163,96.231,214.575z" style="opacity:0.2;fill:#6E6E96;enable-background:new    ;"></path>
		<path d="M39.479,220.284c0,0,0.138-34.191,34.193-34.191
			s27.852,34.47,27.852,34.47l4.908-0.654c0,0-0.719-38.524-36.107-38.524c-35.39,0-34.838,38.927-34.838,38.927L39.479,220.284z" style="opacity:0.2;fill:#6E6E96;enable-background:new    ;"></path>
	</g>
	<g>
		<path d="M216.1,219.905c-0.123-21.834-14.085-38.647-36.104-38.523
			c-22.023,0.124-34.959,17.07-34.838,38.927L216.1,219.905z" style="fill:#9C9CA8;"></path>
		<path d="M143.666,221.817l-0.009-1.5c-0.133-24.062,14.467-40.312,36.329-40.436l0.251-0.001
			c21.865,0,37.229,16.455,37.362,40.016l0.009,1.5L143.666,221.817z M180.238,182.881l-0.233,0.001
			c-19.615,0.11-32.859,14.479-33.334,35.918l67.898-0.386C213.822,197.414,199.883,182.881,180.238,182.881z" style="fill:#6E6E96;"></path>
	</g>
	<g>
		<circle r="21.531" cy="216.153" cx="180.465" style="fill:#F0F0FF;"></circle>
	</g>
	<g>
		<path d="M180.465,199.489c9.188,0,16.666,7.478,16.666,16.663c0,4.449-1.734,8.638-4.881,11.785
			c-3.147,3.146-7.334,4.881-11.785,4.881c-9.191,0-16.666-7.478-16.666-16.666C163.799,206.966,171.274,199.489,180.465,199.489z
			 M154.07,216.152c0,14.558,11.84,26.396,26.396,26.396s26.396-11.84,26.396-26.396c0-14.555-11.841-26.395-26.396-26.395
			C165.908,189.758,154.07,201.6,154.07,216.152z" style="fill:#CCCCDE;"></path>
		<path d="M180.466,244.049c-15.382,0-27.896-12.515-27.896-27.896c0-15.381,12.515-27.895,27.896-27.895
			s27.896,12.514,27.896,27.895C208.362,231.534,195.848,244.049,180.466,244.049z M180.466,191.258
			c-13.728,0-24.896,11.168-24.896,24.895c0,13.728,11.169,24.896,24.896,24.896s24.896-11.169,24.896-24.896
			C205.362,202.426,194.194,191.258,180.466,191.258z M180.465,234.318c-10.017,0-18.166-8.149-18.166-18.166
			c0-10.016,8.149-18.163,18.166-18.163s18.166,8.147,18.166,18.163c0,4.852-1.89,9.414-5.32,12.846
			C189.879,232.429,185.317,234.318,180.465,234.318z M180.465,200.989c-8.362,0-15.166,6.802-15.166,15.163
			c0,8.362,6.804,15.166,15.166,15.166c4.051,0,7.859-1.577,10.725-4.441c2.864-2.865,4.441-6.674,4.441-10.725
			C195.631,207.791,188.827,200.989,180.465,200.989z" style="fill:#6E6E96;"></path>
	</g>
	<path d="M180.779,190.999c-13.588-0.002-24.642,11.055-24.642,24.642c0,0.717,0.039,1.422,0.1,2.122
		c1.08-12.596,10.169-24.02,23.04-24.02c15.992,0,24.967,11.422,26.047,24.02c0.061-0.7,0.096-1.405,0.096-2.122
		C205.418,202.051,194.365,190.999,180.779,190.999z" style="fill:#E6E6FA;"></path>
	<g style="opacity:0.15;enable-background:new    ;">
		<path d="M179.578,204.667c8.355,0,15.369,5.74,17.316,13.49c0.354-1.4,0.542-2.861,0.542-4.373
			c0-9.863-7.995-17.857-17.858-17.857c-9.861,0-17.857,7.994-17.857,17.857c0,1.508,0.188,2.973,0.54,4.373
			C164.211,210.407,171.224,204.667,179.578,204.667z" style="fill:#6E6E96;"></path>
	</g>
	<g>
		<circle r="5.851" cy="216.454" cx="180.022" style="fill:#CCCCDE;"></circle>
		<path d="M180.022,223.805c-4.053,0-7.351-3.298-7.351-7.351s3.298-7.351,7.351-7.351
			c4.054,0,7.352,3.298,7.352,7.351S184.075,223.805,180.022,223.805z M180.022,212.104c-2.398,0-4.351,1.952-4.351,4.351
			s1.952,4.351,4.351,4.351c2.399,0,4.352-1.952,4.352-4.351S182.421,212.104,180.022,212.104z" style="fill:#6E6E96;"></path>
	</g>
	<path d="M180.422,200.864c8.269,0,15.096,6.006,16.02,13.709
		c0.07-0.586,0.114-1.181,0.114-1.779c0-8.541-7.237-15.489-16.134-15.489c-8.897,0-16.133,6.948-16.135,15.489
		c0,0.604,0.047,1.197,0.114,1.781C165.328,206.87,172.154,200.864,180.422,200.864z M205.902,214.575
		c-0.951,12.698-12.013,22.754-25.479,22.754c-13.465,0-24.521-10.056-25.478-22.754c-0.044,0.588-0.075,1.183-0.075,1.78
		c0,13.527,11.463,24.531,25.553,24.531c14.092,0,25.556-11.004,25.556-24.531C205.977,215.756,205.946,215.163,205.902,214.575z" style="opacity:0.2;fill:#6E6E96;enable-background:new    ;"></path>
	<path d="M149.149,220.284c0,0,0.138-34.191,34.191-34.191
		c34.057,0,27.854,34.47,27.854,34.47l4.906-0.654c0,0-0.717-38.524-36.104-38.524c-35.393,0-34.838,38.927-34.838,38.927
		L149.149,220.284z" style="opacity:0.2;fill:#6E6E96;enable-background:new    ;"></path>
	<path d="M136.323,196.54h-29.011c-0.581,0-1.109-0.335-1.356-0.859
		c-8.99-19.042-29.631-19.938-29.838-19.944c-0.809-0.026-1.453-0.689-1.453-1.499v-17.578c0-0.828,0.671-1.5,1.5-1.5
		s1.5,0.672,1.5,1.5v16.204c5.07,0.581,22.095,3.769,30.585,20.677h26.573v-36.881c0-0.828,0.672-1.5,1.5-1.5s1.5,0.672,1.5,1.5
		v38.381C137.823,195.868,137.151,196.54,136.323,196.54z" style="fill:#6E6E96;"></path>
	<path d="M143.296,196.54h-6.973c-0.828,0-1.5-0.672-1.5-1.5s0.672-1.5,1.5-1.5h6.062
		c2.175-3.964,12.331-19.978,34.415-19.978c14.471,0,20.839,0.266,23.729,0.582V157.87c0-0.828,0.672-1.5,1.5-1.5s1.5,0.672,1.5,1.5
		v18.021c0,0.607-0.366,1.154-0.928,1.387c-0.375,0.155-0.791,0.147-1.153-0.004c-0.487-0.115-4.014-0.711-24.647-0.711
		c-23.103,0-31.781,18.321-32.14,19.102C144.415,196.196,143.882,196.54,143.296,196.54z" style="fill:#6E6E96;"></path>
	<path d="M129.647,168.45h-9.098c-0.829,0-1.5-0.672-1.5-1.5s0.671-1.5,1.5-1.5h9.098
		c0.828,0,1.5,0.672,1.5,1.5S130.475,168.45,129.647,168.45z" style="fill:#6E6E96;"></path>
	<path d="M195.824,168.157h-9.513c-0.828,0-1.5-0.672-1.5-1.5s0.672-1.5,1.5-1.5h9.513
		c0.828,0,1.5,0.672,1.5,1.5S196.653,168.157,195.824,168.157z" style="fill:#6E6E96;"></path>
	<path d="M190.112,135.682l-1.6-8.521
		c-1.062-6.688-4.604-12.16-14.053-12.16h-29.389v5.791h29.389c9.445,0,12.988,5.472,14.054,12.158l1.6,8.521
		c0.071,0.438,0.137,0.86,0.188,1.285C190.69,140.758,190.533,138.316,190.112,135.682z M92.324,127.021l-1.74,8.805
		c-0.713,3.109-1.041,5.943-0.457,8.084c0.123-0.744,0.274-1.51,0.457-2.295l1.74-8.805c2.014-8.798,8.092-12.019,15.729-12.019
		h28.271v-5.791h-28.271C100.416,115.003,94.338,118.223,92.324,127.021z" style="opacity:0.15;fill:#6E6E96;enable-background:new    ;"></path>
	<polyline points="99.869,138.807 111.311,127.364 119.446,127.364 
		108.002,138.807" style="opacity:0.47;fill:#FFFFFF;enable-background:new    ;"></polyline>
	<polyline points="150.326,138.807 161.77,127.364 169.906,127.364 
		158.459,138.807" style="opacity:0.47;fill:#FFFFFF;enable-background:new    ;"></polyline>
	<polyline points="112.826,138.807 124.271,127.364 127.442,127.364 
		115.998,138.807" style="opacity:0.23;fill:#FFFFFF;enable-background:new    ;"></polyline>
	<polyline points="164.94,138.807 176.383,127.364 179.554,127.364 
		168.113,138.807" style="opacity:0.23;fill:#FFFFFF;enable-background:new    ;"></polyline>
	<polygon points="49.133,174.062 73.496,163.527 74.51,168.239" style="opacity:0.6;fill:#FFFFFF;enable-background:new    ;"></polygon>
</g>
</svg>
