<svg xml:space="preserve" style="enable-background:new 0 0 250.979 244.246;" viewBox="0 0 250.979 244.246" height="244.246px" width="250.979px" y="0px" x="0px" xmlns:xlink="http://www.w3.org/1999/xlink" xmlns="http://www.w3.org/2000/svg" id="Layer_1" version="1.1">
<g id="Layer_4">
	<path d="M241.276,114.868c0-39.125-31.793-70.838-71.009-70.838c-0.609,0-1.213,0.028-1.818,0.044
		c-12.383-20.755-35.086-34.67-61.055-34.67c-39.218,0-71.01,31.717-71.01,70.841c0,0.509,0.026,1.009,0.039,1.515
		C14.973,93.948,0.5,116.949,0.5,143.337c0,39.123,31.792,70.837,71.01,70.837c2.229,0,4.432-0.117,6.612-0.316
		c13.025,15.742,32.73,25.774,54.79,25.774c36.25,0,66.128-27.101,70.449-62.094C225.905,165.668,241.276,142.062,241.276,114.868z" style="fill:#D6F0FF;"></path>
</g>
<g id="Layer_2">
	<rect height="142.788" width="113.205" style="fill:#FFFFFF;" y="60.033" x="44.623"></rect>
	<g style="opacity:0.33;">
		<g>
			<rect height="135.975" width="139.746" style="fill:#FFFFFF;" y="60.033" x="45.584"></rect>
			<path d="M185.33,197.508H45.584c-0.829,0-1.5-0.672-1.5-1.5V60.033c0-0.829,0.671-1.5,1.5-1.5H185.33
				c0.828,0,1.5,0.671,1.5,1.5v135.975C186.83,196.836,186.158,197.508,185.33,197.508z M47.084,194.508H183.83V61.533H47.084
				V194.508z" style="fill:#6E6E96;"></path>
		</g>
		<g>
			<rect height="23.369" width="15.053" style="fill:#BDDFFF;" y="106.725" x="138.983"></rect>
			<path d="M154.035,131.594h-15.053c-0.828,0-1.5-0.672-1.5-1.5v-23.369c0-0.829,0.672-1.5,1.5-1.5h15.053
				c0.828,0,1.5,0.671,1.5,1.5v23.369C155.535,130.922,154.864,131.594,154.035,131.594z M140.483,128.594h12.053v-20.369h-12.053
				V128.594z" style="fill:#6E6E96;"></path>
		</g>
		<g>
			<rect height="23.225" width="15.053" style="fill:#BDDFFF;" y="135.756" x="138.983"></rect>
			<path d="M154.035,160.48h-15.053c-0.828,0-1.5-0.672-1.5-1.5v-23.225c0-0.828,0.672-1.5,1.5-1.5h15.053
				c0.828,0,1.5,0.672,1.5,1.5v23.225C155.535,159.809,154.864,160.48,154.035,160.48z M140.483,157.48h12.053v-20.225h-12.053
				V157.48z" style="fill:#6E6E96;"></path>
		</g>
		<g>
			<rect height="23.721" width="15.054" style="fill:#BDDFFF;" y="77.336" x="117.774"></rect>
			<path d="M132.827,102.557h-15.054c-0.829,0-1.5-0.671-1.5-1.5V77.336c0-0.829,0.671-1.5,1.5-1.5h15.054
				c0.828,0,1.5,0.671,1.5,1.5v23.721C134.327,101.886,133.656,102.557,132.827,102.557z M119.274,99.557h12.054V78.836h-12.054
				V99.557z" style="fill:#6E6E96;"></path>
		</g>
		<g>
			<rect height="23.369" width="15.054" style="fill:#BDDFFF;" y="106.725" x="117.774"></rect>
			<path d="M132.827,131.594h-15.054c-0.829,0-1.5-0.672-1.5-1.5v-23.369c0-0.829,0.671-1.5,1.5-1.5h15.054
				c0.828,0,1.5,0.671,1.5,1.5v23.369C134.327,130.922,133.656,131.594,132.827,131.594z M119.274,128.594h12.054v-20.369h-12.054
				V128.594z" style="fill:#6E6E96;"></path>
		</g>
		<g>
			<rect height="23.369" width="17.711" style="fill:#BDDFFF;" y="106.725" x="160.194"></rect>
			<path d="M177.905,131.594h-17.711c-0.828,0-1.5-0.672-1.5-1.5v-23.369c0-0.829,0.672-1.5,1.5-1.5h17.711
				c0.828,0,1.5,0.671,1.5,1.5v23.369C179.405,130.922,178.733,131.594,177.905,131.594z M161.694,128.594h14.711v-20.369h-14.711
				V128.594z" style="fill:#6E6E96;"></path>
		</g>
		<g>
			<rect height="23.721" width="15.053" style="fill:#BDDFFF;" y="77.336" x="138.983"></rect>
			<path d="M154.035,102.557h-15.053c-0.828,0-1.5-0.671-1.5-1.5V77.336c0-0.829,0.672-1.5,1.5-1.5h15.053
				c0.828,0,1.5,0.671,1.5,1.5v23.721C155.535,101.886,154.864,102.557,154.035,102.557z M140.483,99.557h12.053V78.836h-12.053
				V99.557z" style="fill:#6E6E96;"></path>
		</g>
		<g>
			<rect height="23.225" width="15.054" style="fill:#BDDFFF;" y="135.756" x="117.774"></rect>
			<path d="M132.827,160.48h-15.054c-0.829,0-1.5-0.672-1.5-1.5v-23.225c0-0.828,0.671-1.5,1.5-1.5h15.054
				c0.828,0,1.5,0.672,1.5,1.5v23.225C134.327,159.809,133.656,160.48,132.827,160.48z M119.274,157.48h12.054v-20.225h-12.054
				V157.48z" style="fill:#6E6E96;"></path>
		</g>
		<g>
			<rect height="23.721" width="17.711" style="fill:#BDDFFF;" y="77.336" x="160.194"></rect>
			<path d="M177.905,102.557h-17.711c-0.828,0-1.5-0.671-1.5-1.5V77.336c0-0.829,0.672-1.5,1.5-1.5h17.711
				c0.828,0,1.5,0.671,1.5,1.5v23.721C179.405,101.886,178.733,102.557,177.905,102.557z M161.694,99.557h14.711V78.836h-14.711
				V99.557z" style="fill:#6E6E96;"></path>
		</g>
		<g>
			<rect height="23.225" width="17.711" style="fill:#BDDFFF;" y="135.756" x="160.194"></rect>
			<path d="M177.905,160.48h-17.711c-0.828,0-1.5-0.672-1.5-1.5v-23.225c0-0.828,0.672-1.5,1.5-1.5h17.711
				c0.828,0,1.5,0.672,1.5,1.5v23.225C179.405,159.809,178.733,160.48,177.905,160.48z M161.694,157.48h14.711v-20.225h-14.711
				V157.48z" style="fill:#6E6E96;"></path>
		</g>
		<g>
			<rect height="23.369" width="16.286" style="fill:#BDDFFF;" y="106.725" x="52.912"></rect>
			<path d="M69.198,131.594H52.912c-0.829,0-1.5-0.672-1.5-1.5v-23.369c0-0.829,0.671-1.5,1.5-1.5h16.286
				c0.829,0,1.5,0.671,1.5,1.5v23.369C70.698,130.922,70.027,131.594,69.198,131.594z M54.412,128.594h13.286v-20.369H54.412
				V128.594z" style="fill:#6E6E96;"></path>
		</g>
		<g>
			<rect height="23.721" width="16.286" style="fill:#BDDFFF;" y="77.336" x="52.912"></rect>
			<path d="M69.198,102.557H52.912c-0.829,0-1.5-0.671-1.5-1.5V77.336c0-0.829,0.671-1.5,1.5-1.5h16.286
				c0.829,0,1.5,0.671,1.5,1.5v23.721C70.698,101.886,70.027,102.557,69.198,102.557z M54.412,99.557h13.286V78.836H54.412V99.557z" style="fill:#6E6E96;"></path>
		</g>
		<g>
			<rect height="23.225" width="16.286" style="fill:#BDDFFF;" y="135.756" x="52.912"></rect>
			<path d="M69.198,160.48H52.912c-0.829,0-1.5-0.672-1.5-1.5v-23.225c0-0.828,0.671-1.5,1.5-1.5h16.286
				c0.829,0,1.5,0.672,1.5,1.5v23.225C70.698,159.809,70.027,160.48,69.198,160.48z M54.412,157.48h13.286v-20.225H54.412V157.48z" style="fill:#6E6E96;"></path>
		</g>
		<g>
			<rect height="23.225" width="15.051" style="fill:#BDDFFF;" y="135.756" x="75.357"></rect>
			<path d="M90.407,160.48H75.357c-0.829,0-1.5-0.672-1.5-1.5v-23.225c0-0.828,0.671-1.5,1.5-1.5h15.051
				c0.829,0,1.5,0.672,1.5,1.5v23.225C91.907,159.809,91.236,160.48,90.407,160.48z M76.857,157.48h12.051v-20.225H76.857V157.48z" style="fill:#6E6E96;"></path>
		</g>
		<g>
			<rect height="23.369" width="15.051" style="fill:#BDDFFF;" y="106.725" x="75.357"></rect>
			<path d="M90.407,131.594H75.357c-0.829,0-1.5-0.672-1.5-1.5v-23.369c0-0.829,0.671-1.5,1.5-1.5h15.051
				c0.829,0,1.5,0.671,1.5,1.5v23.369C91.907,130.922,91.236,131.594,90.407,131.594z M76.857,128.594h12.051v-20.369H76.857
				V128.594z" style="fill:#6E6E96;"></path>
		</g>
		<g>
			<rect height="23.225" width="15.053" style="fill:#BDDFFF;" y="135.756" x="96.566"></rect>
			<path d="M111.618,160.48H96.566c-0.829,0-1.5-0.672-1.5-1.5v-23.225c0-0.828,0.671-1.5,1.5-1.5h15.053
				c0.829,0,1.5,0.672,1.5,1.5v23.225C113.118,159.809,112.447,160.48,111.618,160.48z M98.066,157.48h12.053v-20.225H98.066V157.48
				z" style="fill:#6E6E96;"></path>
		</g>
		<g>
			<rect height="23.721" width="15.053" style="fill:#BDDFFF;" y="77.336" x="96.566"></rect>
			<path d="M111.618,102.557H96.566c-0.829,0-1.5-0.671-1.5-1.5V77.336c0-0.829,0.671-1.5,1.5-1.5h15.053
				c0.829,0,1.5,0.671,1.5,1.5v23.721C113.118,101.886,112.447,102.557,111.618,102.557z M98.066,99.557h12.053V78.836H98.066
				V99.557z" style="fill:#6E6E96;"></path>
		</g>
		<g>
			<rect height="23.369" width="15.053" style="fill:#BDDFFF;" y="106.725" x="96.566"></rect>
			<path d="M111.618,131.594H96.566c-0.829,0-1.5-0.672-1.5-1.5v-23.369c0-0.829,0.671-1.5,1.5-1.5h15.053
				c0.829,0,1.5,0.671,1.5,1.5v23.369C113.118,130.922,112.447,131.594,111.618,131.594z M98.066,128.594h12.053v-20.369H98.066
				V128.594z" style="fill:#6E6E96;"></path>
		</g>
		<g>
			<rect height="23.721" width="15.051" style="fill:#BDDFFF;" y="77.336" x="75.357"></rect>
			<path d="M90.407,102.557H75.357c-0.829,0-1.5-0.671-1.5-1.5V77.336c0-0.829,0.671-1.5,1.5-1.5h15.051
				c0.829,0,1.5,0.671,1.5,1.5v23.721C91.907,101.886,91.236,102.557,90.407,102.557z M76.857,99.557h12.051V78.836H76.857V99.557z" style="fill:#6E6E96;"></path>
		</g>
		<g>
			<rect height="6.8" width="147.29" style="fill:#D5B697;" y="60.033" x="41.818"></rect>
			<path d="M189.108,68.333H41.818c-0.829,0-1.5-0.671-1.5-1.5v-6.8c0-0.829,0.671-1.5,1.5-1.5h147.29
				c0.828,0,1.5,0.671,1.5,1.5v6.8C190.608,67.662,189.936,68.333,189.108,68.333z M43.318,65.333h144.29v-3.8H43.318V65.333z" style="fill:#6E6E96;"></path>
		</g>
		<g>
			<rect height="23.225" width="15.053" style="fill:#BDDFFF;" y="165.025" x="138.983"></rect>
			<path d="M154.035,189.75h-15.053c-0.828,0-1.5-0.672-1.5-1.5v-23.225c0-0.828,0.672-1.5,1.5-1.5h15.053
				c0.828,0,1.5,0.672,1.5,1.5v23.225C155.535,189.078,154.864,189.75,154.035,189.75z M140.483,186.75h12.053v-20.225h-12.053
				V186.75z" style="fill:#6E6E96;"></path>
		</g>
		<g>
			<rect height="23.225" width="17.711" style="fill:#BDDFFF;" y="165.025" x="160.194"></rect>
			<path d="M177.905,189.75h-17.711c-0.828,0-1.5-0.672-1.5-1.5v-23.225c0-0.828,0.672-1.5,1.5-1.5h17.711
				c0.828,0,1.5,0.672,1.5,1.5v23.225C179.405,189.078,178.733,189.75,177.905,189.75z M161.694,186.75h14.711v-20.225h-14.711
				V186.75z" style="fill:#6E6E96;"></path>
		</g>
		<g>
			<rect height="23.225" width="16.286" style="fill:#BDDFFF;" y="165.025" x="52.912"></rect>
			<path d="M69.198,189.75H52.912c-0.829,0-1.5-0.672-1.5-1.5v-23.225c0-0.828,0.671-1.5,1.5-1.5h16.286
				c0.829,0,1.5,0.672,1.5,1.5v23.225C70.698,189.078,70.027,189.75,69.198,189.75z M54.412,186.75h13.286v-20.225H54.412V186.75z" style="fill:#6E6E96;"></path>
		</g>
		<g>
			<rect height="23.225" width="15.051" style="fill:#BDDFFF;" y="165.025" x="75.357"></rect>
			<path d="M90.407,189.75H75.357c-0.829,0-1.5-0.672-1.5-1.5v-23.225c0-0.828,0.671-1.5,1.5-1.5h15.051
				c0.829,0,1.5,0.672,1.5,1.5v23.225C91.907,189.078,91.236,189.75,90.407,189.75z M76.857,186.75h12.051v-20.225H76.857V186.75z" style="fill:#6E6E96;"></path>
		</g>
		<g>
			<rect height="30.98" width="36.32" style="fill:#E4BC96;" y="165.025" x="96.566"></rect>
			<path d="M132.886,197.506h-36.32c-0.829,0-1.5-0.672-1.5-1.5v-30.98c0-0.828,0.671-1.5,1.5-1.5h36.32
				c0.828,0,1.5,0.672,1.5,1.5v30.98C134.386,196.834,133.714,197.506,132.886,197.506z M98.066,194.506h33.32v-27.98h-33.32
				V194.506z" style="fill:#6E6E96;"></path>
		</g>
		<path d="M114.518,197.508c-0.829,0-1.5-0.672-1.5-1.5v-30.982c0-0.828,0.671-1.5,1.5-1.5s1.5,0.672,1.5,1.5
			v30.982C116.018,196.836,115.346,197.508,114.518,197.508z" style="fill:#6E6E96;"></path>
	</g>
	<rect height="17.303" width="36.528" style="fill:#D6F0FF;" y="193.539" x="82.528"></rect>
	<path d="M97.708,30.261H77.401c-1.381,0-2.5-1.119-2.5-2.5s1.119-2.5,2.5-2.5h20.308
		c1.381,0,2.5,1.119,2.5,2.5S99.089,30.261,97.708,30.261z" style="fill:#FFFFFF;"></path>
	<path d="M111.011,40.765H87.204c-1.381,0-2.5-1.119-2.5-2.5s1.119-2.5,2.5-2.5h23.807
		c1.381,0,2.5,1.119,2.5,2.5S112.392,40.765,111.011,40.765z" style="fill:#FFFFFF;"></path>
</g>
<g id="Layer_3">
	<g>
		<rect height="9.191" width="64.521" style="fill:#EBEBF7;" y="30.153" x="150.459"></rect>
		<path d="M214.98,40.844h-64.521c-0.828,0-1.5-0.671-1.5-1.5v-9.191c0-0.829,0.672-1.5,1.5-1.5h64.521
			c0.828,0,1.5,0.671,1.5,1.5v9.191C216.48,40.172,215.808,40.844,214.98,40.844z M151.959,37.844h61.521v-6.191h-61.521V37.844z" style="fill:#CCCCDE;"></path>
	</g>
	<g>
		<rect height="162.795" width="101.498" style="fill:#FFFFFF;" y="39.185" x="131.809"></rect>
		<path d="M233.307,203.48H131.809c-0.828,0-1.5-0.672-1.5-1.5V39.185c0-0.829,0.672-1.5,1.5-1.5h101.498
			c0.828,0,1.5,0.671,1.5,1.5V201.98C234.807,202.809,234.135,203.48,233.307,203.48z M133.309,200.48h98.498V40.685h-98.498V200.48
			z" style="fill:#CCCCDE;"></path>
	</g>
	<g>
		<rect height="154.662" width="84.626" style="fill:#CFE7FF;" y="47.319" x="140.531"></rect>
		<path d="M225.157,203.48h-84.626c-0.828,0-1.5-0.672-1.5-1.5V47.319c0-0.829,0.672-1.5,1.5-1.5h84.626
			c0.828,0,1.5,0.671,1.5,1.5V201.98C226.657,202.809,225.986,203.48,225.157,203.48z M142.031,200.48h81.626V48.819h-81.626V200.48
			z" style="fill:#CCCCDE;"></path>
	</g>
	<polygon points="141.611,127.727 221.05,48.288 163.431,48.448 
		141.611,70.919" style="opacity:0.49;fill:#FFFFFF;enable-background:new    ;"></polygon>
	<polygon points="224.453,69.639 140.991,153.1 163.912,153.761 
		224.453,93.221" style="opacity:0.27;fill:#FFFFFF;enable-background:new    ;"></polygon>
	<g>
		<rect height="48.826" width="84.626" style="fill:#CFE7FF;" y="153.152" x="140.531"></rect>
		<path d="M225.157,203.479h-84.626c-0.828,0-1.5-0.672-1.5-1.5v-48.826c0-0.828,0.672-1.5,1.5-1.5h84.626
			c0.828,0,1.5,0.672,1.5,1.5v48.826C226.657,202.807,225.986,203.479,225.157,203.479z M142.031,200.479h81.626v-45.826h-81.626
			V200.479z" style="fill:#CCCCDE;"></path>
	</g>
	<g style="opacity:0.37;">
		<polygon points="162.755,165.13 141.781,185.494 141.781,197.932 
			162.755,177.564" style="opacity:0.49;fill:#FFFFFF;enable-background:new    ;"></polygon>
		<polyline points="141.66,176.062 152.919,165.13 141.66,165.13" style="opacity:0.49;fill:#FFFFFF;enable-background:new    ;"></polyline>
	</g>
	<g style="opacity:0.37;">
		<polygon points="193,165.13 172.637,185.494 172.637,197.932 
			193,177.564" style="opacity:0.49;fill:#FFFFFF;enable-background:new    ;"></polygon>
		<polyline points="173.329,176.062 184.262,165.13 173.329,165.13" style="opacity:0.49;fill:#FFFFFF;enable-background:new    ;"></polyline>
	</g>
	<g style="opacity:0.37;">
		<polygon points="224.011,165.13 201.384,185.494 201.384,197.932 
			224.011,177.564" style="opacity:0.49;fill:#FFFFFF;enable-background:new    ;"></polygon>
		<polyline points="202.154,176.062 214.302,165.13 202.154,165.13" style="opacity:0.49;fill:#FFFFFF;enable-background:new    ;"></polyline>
	</g>
	<rect height="105.833" width="3" style="fill:#CCCCDE;" y="47.319" x="149.816"></rect>
	<rect height="105.833" width="3" style="fill:#CCCCDE;" y="47.319" x="160.615"></rect>
	<rect height="105.833" width="3" style="fill:#CCCCDE;" y="47.319" x="171.143"></rect>
	<rect height="105.833" width="3" style="fill:#CCCCDE;" y="47.319" x="182.21"></rect>
	<rect height="105.833" width="3" style="fill:#CCCCDE;" y="47.319" x="192.738"></rect>
	<rect height="105.833" width="3" style="fill:#CCCCDE;" y="47.319" x="202.995"></rect>
	<rect height="105.833" width="3" style="fill:#CCCCDE;" y="47.319" x="213.254"></rect>
	<path d="M225.157,71.136h-84.626c-0.828,0-1.5-0.671-1.5-1.5s0.672-1.5,1.5-1.5h84.626
		c0.828,0,1.5,0.671,1.5,1.5S225.986,71.136,225.157,71.136z" style="fill:#CCCCDE;"></path>
	<path d="M225.157,92.73h-84.626c-0.828,0-1.5-0.671-1.5-1.5s0.672-1.5,1.5-1.5h84.626
		c0.828,0,1.5,0.671,1.5,1.5S225.986,92.73,225.157,92.73z" style="fill:#CCCCDE;"></path>
	<path d="M225.157,113.248h-84.626c-0.828,0-1.5-0.671-1.5-1.5s0.672-1.5,1.5-1.5h84.626
		c0.828,0,1.5,0.671,1.5,1.5S225.986,113.248,225.157,113.248z" style="fill:#CCCCDE;"></path>
	<rect height="3" width="84.626" style="fill:#CCCCDE;" y="130.762" x="140.531"></rect>
	<g>
		<rect height="40.969" width="8.634" style="fill:#F0F0FF;" y="161.012" x="164.003"></rect>
		<path d="M172.637,203.48h-8.634c-0.828,0-1.5-0.672-1.5-1.5v-40.969c0-0.828,0.672-1.5,1.5-1.5h8.634
			c0.828,0,1.5,0.672,1.5,1.5v40.969C174.137,202.809,173.465,203.48,172.637,203.48z M165.503,200.48h5.634v-37.969h-5.634V200.48z" style="fill:#CCCCDE;"></path>
	</g>
	<g>
		<rect height="42.838" width="8.098" style="fill:#F0F0FF;" y="159.143" x="192.753"></rect>
		<path d="M200.851,203.48h-8.098c-0.828,0-1.5-0.672-1.5-1.5v-42.838c0-0.828,0.672-1.5,1.5-1.5h8.098
			c0.828,0,1.5,0.672,1.5,1.5v42.838C202.351,202.809,201.679,203.48,200.851,203.48z M194.253,200.48h5.098v-39.838h-5.098V200.48z" style="fill:#CCCCDE;"></path>
	</g>
	<g>
		<rect height="11.978" width="84.626" style="fill:#F0F0FF;" y="153.152" x="140.531"></rect>
		<path d="M225.157,166.63h-84.626c-0.828,0-1.5-0.672-1.5-1.5v-11.978c0-0.828,0.672-1.5,1.5-1.5h84.626
			c0.828,0,1.5,0.672,1.5,1.5v11.978C226.657,165.958,225.986,166.63,225.157,166.63z M142.031,163.63h81.626v-8.978h-81.626V163.63
			z" style="fill:#CCCCDE;"></path>
	</g>
	<g>
		<rect height="7.218" width="28.344" style="fill:#EBEBF7;" y="22.936" x="168.547"></rect>
		<path d="M196.891,31.654h-28.344c-0.828,0-1.5-0.671-1.5-1.5v-7.218c0-0.829,0.672-1.5,1.5-1.5h28.344
			c0.828,0,1.5,0.671,1.5,1.5v7.218C198.391,30.983,197.719,31.654,196.891,31.654z M170.047,28.654h25.344v-4.218h-25.344V28.654z" style="fill:#CCCCDE;"></path>
	</g>
	<path d="M182.72,24.436c-0.828,0-1.5-0.671-1.5-1.5V11.158c0-0.829,0.672-1.5,1.5-1.5s1.5,0.671,1.5,1.5
		v11.778C184.22,23.765,183.548,24.436,182.72,24.436z" style="fill:#CCCCDE;"></path>
	<g>
		<rect height="8.367" width="110.283" style="fill:#F0F0FF;" y="197.859" x="128.226"></rect>
		<path d="M238.509,207.727H128.226c-0.828,0-1.5-0.672-1.5-1.5v-8.367c0-0.828,0.672-1.5,1.5-1.5h110.283
			c0.828,0,1.5,0.672,1.5,1.5v8.367C240.009,207.055,239.337,207.727,238.509,207.727z M129.726,204.727h107.283v-5.367H129.726
			V204.727z" style="fill:#CCCCDE;"></path>
	</g>
</g>
<g id="Layer_1_copy">
</g>
<g id="Layer_6">
	<g>
		<polygon points="94.648,206.229 8.989,206.229 8.989,133.016 51.819,105.598 94.648,133.016" style="fill:#FFFFFF;"></polygon>
		<path d="M96.148,207.729H7.489v-75.533l44.33-28.378l44.329,28.378V207.729z M10.489,204.729h82.659
			v-70.893l-41.329-26.457l-41.33,26.458V204.729z" style="fill:#CCCCDE;"></path>
	</g>
	<g>
		<polygon points="51.819,100.948 1.462,131.562 1.462,136.598 8.989,136.598 51.819,110.157 94.531,136.946 
			101.137,137.05 101.137,131.562" style="fill:#E0E6FC;"></polygon>
		<path d="M101.137,138.55c-0.008,0-0.016,0-0.023,0l-6.605-0.104c-0.274-0.005-0.542-0.084-0.773-0.229
			l-41.922-26.293l-42.036,25.95c-0.237,0.146-0.51,0.224-0.788,0.224H1.462c-0.829,0-1.5-0.672-1.5-1.5v-5.035
			c0-0.523,0.273-1.01,0.721-1.281l50.356-30.615c0.482-0.293,1.09-0.291,1.57,0.007l49.318,30.614
			c0.441,0.273,0.709,0.756,0.709,1.274v5.487c0,0.402-0.161,0.787-0.448,1.069C101.908,138.396,101.531,138.55,101.137,138.55z
			 M94.974,135.453l4.663,0.073v-3.13L51.81,102.708L2.962,132.406v2.691h5.601l42.468-26.217c0.487-0.299,1.102-0.298,1.585,0.006
			L94.974,135.453z" style="fill:#CCCCDE;"></path>
	</g>
	<g>
		<rect height="19.188" width="29.077" style="fill:#D4EAFF;" y="169.562" x="17.076"></rect>
		<path d="M46.154,190.25H17.076c-0.829,0-1.5-0.672-1.5-1.5v-19.188c0-0.828,0.671-1.5,1.5-1.5h29.077
			c0.829,0,1.5,0.672,1.5,1.5v19.188C47.654,189.578,46.982,190.25,46.154,190.25z M18.576,187.25h26.077v-16.188H18.576V187.25z" style="fill:#CCCCDE;"></path>
	</g>
	<g>
		<rect height="11.66" width="85.659" style="fill:#FCEBE3;" y="194.566" x="8.989"></rect>
		<path d="M94.648,207.727H8.989c-0.829,0-1.5-0.672-1.5-1.5v-11.66c0-0.828,0.671-1.5,1.5-1.5h85.659
			c0.829,0,1.5,0.672,1.5,1.5v11.66C96.148,207.055,95.476,207.727,94.648,207.727z M10.489,204.727h82.659v-8.66H10.489V204.727z" style="fill:#CCCCDE;"></path>
	</g>
	<g>
		<path d="M47.368,206.229c0-0.021,0.004-0.043,0.004-0.066c0-3.61-2.524-6.537-5.639-6.537
			c-1.441,0-2.751,0.634-3.749,1.664c-0.775-4.293-4.055-7.516-7.986-7.516c-1.787,0-3.439,0.676-4.784,1.81
			c-1.69-2.697-4.426-4.458-7.52-4.458c-4.248,0-7.822,3.305-8.936,7.818c-0.417-0.107-0.85-0.17-1.295-0.17
			c-3.315,0-6.003,3.115-6.003,6.966c0,0.165,0.011,0.325,0.02,0.489H47.368L47.368,206.229z" style="fill:#CCE8D6;"></path>
		<path d="M47.368,207.729H1.481c-0.797,0-1.455-0.624-1.498-1.42c-0.013-0.241-0.021-0.403-0.021-0.569
			c0-4.755,3.475-8.608,7.735-8.462c1.636-4.566,5.589-7.652,9.998-7.652c2.99,0,5.837,1.425,7.864,3.877
			c1.366-0.808,2.875-1.229,4.439-1.229c3.874,0,7.324,2.646,8.842,6.543c0.904-0.453,1.887-0.691,2.894-0.691
			c3.936,0,7.139,3.605,7.139,8.037c0,0.035-0.002,0.092-0.005,0.137C48.83,207.095,48.174,207.729,47.368,207.729z M3.038,204.729
			h42.679c-0.496-2.054-2.094-3.604-3.983-3.604c-1.241,0-2.138,0.657-2.672,1.208c-0.391,0.403-0.977,0.556-1.514,0.391
			c-0.538-0.163-0.939-0.614-1.04-1.168c-0.658-3.641-3.396-6.282-6.51-6.282c-1.367,0-2.688,0.504-3.817,1.456
			c-0.333,0.279-0.771,0.399-1.199,0.336c-0.429-0.067-0.808-0.317-1.039-0.686c-1.496-2.387-3.773-3.755-6.249-3.755
			c-3.434,0-6.509,2.746-7.479,6.678c-0.096,0.389-0.344,0.723-0.688,0.929c-0.343,0.205-0.755,0.267-1.143,0.164
			c-0.316-0.081-0.625-0.122-0.921-0.122C5.266,200.273,3.43,202.196,3.038,204.729z" style="fill:#CCCCDE;"></path>
	</g>
	<g>
		<rect height="36.666" width="22.341" style="fill:#FFDEDE;" y="169.562" x="59.109"></rect>
		<path d="M81.449,207.729H59.109c-0.829,0-1.5-0.672-1.5-1.5v-36.666c0-0.828,0.671-1.5,1.5-1.5h22.341
			c0.829,0,1.5,0.672,1.5,1.5v36.666C82.949,207.057,82.278,207.729,81.449,207.729z M60.609,204.729h19.341v-33.666H60.609V204.729
			z" style="fill:#CCCCDE;"></path>
	</g>
	<path d="M94.648,164.23H8.989c-0.829,0-1.5-0.672-1.5-1.5s0.671-1.5,1.5-1.5h85.659
		c0.829,0,1.5,0.672,1.5,1.5S95.476,164.23,94.648,164.23z" style="fill:#CCCCDE;"></path>
	<g>
		<g>
			<rect height="17.817" width="15.645" style="fill:#D4EAFF;" y="137.913" x="17.076"></rect>
			<path d="M32.721,157.23H17.076c-0.829,0-1.5-0.672-1.5-1.5v-17.817c0-0.828,0.671-1.5,1.5-1.5h15.645
				c0.829,0,1.5,0.672,1.5,1.5v17.817C34.221,156.559,33.55,157.23,32.721,157.23z M18.576,154.23h12.645v-14.817H18.576V154.23z" style="fill:#CCCCDE;"></path>
		</g>
		<path d="M32.722,148.322H17.076c-0.829,0-1.5-0.672-1.5-1.5s0.671-1.5,1.5-1.5h15.646
			c0.829,0,1.5,0.672,1.5,1.5S33.551,148.322,32.722,148.322z" style="fill:#CCCCDE;"></path>
	</g>
	<g>
		<g>
			<rect height="17.817" width="15.647" style="fill:#D4EAFF;" y="137.913" x="70.597"></rect>
			<path d="M86.244,157.23H70.597c-0.829,0-1.5-0.672-1.5-1.5v-17.817c0-0.828,0.671-1.5,1.5-1.5h15.647
				c0.829,0,1.5,0.672,1.5,1.5v17.817C87.744,156.559,87.073,157.23,86.244,157.23z M72.097,154.23h12.647v-14.817H72.097V154.23z" style="fill:#CCCCDE;"></path>
		</g>
		<path d="M86.244,148.322H70.597c-0.829,0-1.5-0.672-1.5-1.5s0.671-1.5,1.5-1.5h15.647
			c0.829,0,1.5,0.672,1.5,1.5S87.073,148.322,86.244,148.322z" style="fill:#CCCCDE;"></path>
	</g>
	<g>
		<g>
			<rect height="17.817" width="15.645" style="fill:#D4EAFF;" y="137.913" x="43.915"></rect>
			<path d="M59.56,157.23H43.915c-0.829,0-1.5-0.672-1.5-1.5v-17.817c0-0.828,0.671-1.5,1.5-1.5H59.56
				c0.829,0,1.5,0.672,1.5,1.5v17.817C61.06,156.559,60.388,157.23,59.56,157.23z M45.415,154.23H58.06v-14.817H45.415V154.23z" style="fill:#CCCCDE;"></path>
		</g>
		<path d="M59.561,148.322H43.915c-0.829,0-1.5-0.672-1.5-1.5s0.671-1.5,1.5-1.5h15.646
			c0.829,0,1.5,0.672,1.5,1.5S60.389,148.322,59.561,148.322z" style="fill:#CCCCDE;"></path>
	</g>
	<path d="M31.65,190.25c-0.829,0-1.5-0.672-1.5-1.5v-19.188c0-0.828,0.671-1.5,1.5-1.5s1.5,0.672,1.5,1.5
		v19.188C33.15,189.578,32.478,190.25,31.65,190.25z" style="fill:#CCCCDE;"></path>
	<g>
		<rect height="4.188" width="28.388" style="fill:#F0F0FF;" y="202.04" x="56.086"></rect>
		<path d="M84.474,207.729H56.086c-0.829,0-1.5-0.672-1.5-1.5v-4.188c0-0.828,0.671-1.5,1.5-1.5h28.388
			c0.829,0,1.5,0.672,1.5,1.5v4.188C85.974,207.057,85.302,207.729,84.474,207.729z M57.586,204.729h25.388v-1.188H57.586V204.729z" style="fill:#CCCCDE;"></path>
	</g>
	<g>
		<path d="M107.561,206.229c0-0.017,0.003-0.028,0.003-0.045c0-2.416-1.688-4.373-3.771-4.373
			c-0.963,0-1.842,0.424-2.508,1.112c-0.519-2.87-2.711-5.026-5.341-5.026c-1.195,0-2.301,0.453-3.198,1.209
			c-1.13-1.804-2.96-2.98-5.029-2.98c-2.84,0-5.23,2.212-5.976,5.229c-0.28-0.072-0.569-0.111-0.866-0.111
			c-2.218,0-4.016,2.084-4.016,4.658c0,0.107,0.008,0.22,0.017,0.328H107.561L107.561,206.229z" style="fill:#CCE8D6;"></path>
		<path d="M107.561,207.729H76.875c-0.781,0-1.432-0.6-1.495-1.379c-0.012-0.148-0.021-0.302-0.021-0.449
			c0-3.325,2.373-6.044,5.328-6.154c1.233-3.07,3.978-5.121,7.03-5.121c2.02,0,3.945,0.899,5.372,2.461
			c0.891-0.454,1.858-0.689,2.855-0.689c2.636,0,4.999,1.686,6.173,4.218c0.535-0.2,1.1-0.304,1.675-0.304
			c2.907,0,5.271,2.635,5.271,5.873c0,0.036-0.002,0.084-0.005,0.127C109.016,207.101,108.362,207.729,107.561,207.729z
			 M78.538,204.729h27.212c-0.396-0.848-1.125-1.418-1.958-1.418c-0.658,0-1.141,0.356-1.43,0.655
			c-0.392,0.404-0.977,0.553-1.514,0.393c-0.539-0.164-0.94-0.615-1.04-1.169c-0.397-2.198-2.022-3.793-3.865-3.793
			c-0.795,0-1.567,0.296-2.232,0.856c-0.333,0.28-0.769,0.403-1.199,0.334c-0.429-0.067-0.808-0.317-1.039-0.686
			c-0.907-1.446-2.276-2.276-3.758-2.276c-2.066,0-3.925,1.681-4.52,4.088c-0.096,0.389-0.343,0.724-0.687,0.929
			c-0.345,0.205-0.755,0.265-1.144,0.164C80.131,202.488,78.967,203.387,78.538,204.729z" style="fill:#CCCCDE;"></path>
	</g>
	<path d="M62.833,189.577c-0.829,0-1.5-0.672-1.5-1.5v-4.652c0-0.828,0.671-1.5,1.5-1.5s1.5,0.672,1.5,1.5
		v4.652C64.333,188.905,63.662,189.577,62.833,189.577z" style="fill:#CCCCDE;"></path>
</g>
<g>
	<g>
		<path d="M2.028,155.234v45.252c0.019-1.795-2.257,21.169,23.744,21.169
			c21.06,0,20.019-27.554,20.019-27.554s0-41.666,0-51.746c0-12.177,8.512-10.114,12.097-10.08h12.096l-1.423-10.514H56.461
			c-3.583,0.434-20.159-1.023-20.159,18.145c0,10.081,0,50.402,0,50.402c0.258,8.959,0.672,22.176-10.754,22.176
			c-18.591,0-14.783-18.814-14.783-18.814v-44.02" style="fill:#BCBCCC;"></path>
		<path d="M25.772,223.155c-14.906,0-21.021-7.262-23.525-13.353c-1.162-2.824-1.969-7.067-1.716-9.249
			c0.049,0.623,0.607,1.29,1.416,1.331l0.07-1.391l-1.477-0.008c0-0.005,0.001-0.011,0.002-0.016H0.528c0,0.005,0,0.011,0,0.016h0
			v-45.252h3v45.268l-0.787-0.004l0.759,0.117c-0.007,0.071-0.431,7.442,4.686,13.13c3.827,4.253,9.744,6.41,17.586,6.41
			c5.635,0,10.07-1.76,13.182-5.229c6.697-7.467,5.36-20.529,5.345-20.66l-0.009-0.164v-51.746c0-4.377,1.017-7.459,3.108-9.423
			c2.793-2.623,6.659-2.379,9.22-2.219c0.474,0.03,0.907,0.058,1.283,0.062h10.365l-1.017-7.514H56.546
			c-0.394,0.042-0.915,0.068-1.536,0.099c-5.585,0.266-17.208,0.818-17.208,16.546v50.402c0.193,6.691,0.456,15.807-4.167,20.563
			c-2.007,2.065-4.728,3.112-8.087,3.112c-5.012,0-8.984-1.584-11.806-4.707c-5.194-5.749-4.567-14.666-4.477-15.678V149.65h3
			l-0.007,44.169c-0.008,0.085-0.783,8.486,3.72,13.457c2.229,2.461,5.449,3.708,9.57,3.708c2.554,0,4.496-0.721,5.936-2.203
			c3.739-3.848,3.498-12.23,3.321-18.351l-0.003-0.122v-50.402c0-18.588,14.578-19.282,20.066-19.543
			c0.583-0.027,1.064-0.048,1.413-0.091l0.18-0.011H69.87l1.829,13.514H57.887c-0.437-0.004-0.925-0.034-1.458-0.067
			c-2.287-0.146-5.131-0.323-6.978,1.412c-1.434,1.347-2.161,3.781-2.161,7.235v51.668c0.133,1.317,1.273,14.668-6.093,22.895
			C37.491,221.057,32.301,223.155,25.772,223.155z" style="fill:#6E6E96;"></path>
		<path d="M56.421,239.8V114.802c0-10.977,4.258-13.441,13.44-13.441h50.402
			c10.979,0,13.442,2.464,13.442,13.441V239.8H56.421z" style="fill:#FF8F8F;"></path>
		<g>
			<rect height="35.03" width="51.188" style="fill:#B0E4FF;" y="115.141" x="69.318"></rect>
			<path d="M120.505,150.671H69.318c-0.276,0-0.5-0.224-0.5-0.5v-35.03c0-0.276,0.224-0.5,0.5-0.5h51.188
				c0.276,0,0.5,0.224,0.5,0.5v35.03C121.005,150.447,120.781,150.671,120.505,150.671z M69.818,149.671h50.188v-34.03H69.818
				V149.671z" style="fill:#6E6E96;"></path>
		</g>
		<path d="M56.198,115.026v4.48c0-10.977,4.256-13.441,13.44-13.441
			h50.402c4.309,0,7.301,0.382,9.352,1.508v113.298h4.313V110.098l-0.514-0.3c-0.907-6.57-4.193-8.213-13.152-8.213H69.638
			C60.454,101.585,56.198,104.049,56.198,115.026z M129.397,107.575c0.123,0.068,0.242,0.137,0.358,0.21L129.397,107.575z" style="opacity:0.28;fill:#FFFFFF;enable-background:new    ;"></path>
		<g>
			<path d="M1.97,147.793v16.74h9.04v-7.7l1.537,1.537l7.432-7.433c4.462-4.459,0.001-9.928,0.001-9.928
				l-0.855-0.854l6.05-6.125c1.15-1.164,1.145-3.063-0.011-4.219l-0.606-0.606c-1.156-1.157-3.049-1.157-4.207,0L1.97,147.793z" style="fill:#FF8F8F;"></path>
			<path d="M11.01,166.033H1.97c-0.829,0-1.5-0.672-1.5-1.5v-16.74c0-0.395,0.156-0.773,0.434-1.055
				l18.38-18.587c0.85-0.85,1.974-1.313,3.171-1.313s2.321,0.465,3.164,1.308l0.606,0.606c1.741,1.74,1.749,4.582,0.017,6.334
				l-5.017,5.078c1.826,2.312,4.039,7.613-0.185,11.834l-7.432,7.433c-0.29,0.29-0.688,0.437-1.098,0.439v4.663
				C12.51,165.361,11.839,166.033,11.01,166.033z M3.47,163.033h6.04v-6.2c0-0.606,0.365-1.153,0.926-1.386
				c0.561-0.234,1.206-0.104,1.635,0.325l0.477,0.477l6.371-6.372c3.269-3.267,0.351-7.33-0.062-7.869l-0.792-0.79
				c-0.584-0.583-0.588-1.528-0.008-2.115l6.05-6.125c0.566-0.573,0.564-1.536-0.004-2.104l-0.606-0.606
				c-0.554-0.555-1.534-0.554-2.086,0.001L3.47,148.409V163.033z" style="fill:#6E6E96;"></path>
		</g>
		<path d="M135.206,241.3H54.921V114.802c0-12.441,5.717-14.941,14.94-14.941h50.402
			c11.87,0,14.942,3.072,14.942,14.941V241.3z M57.921,238.3h74.285V114.802c0-10.155-1.786-11.941-11.942-11.941H69.862
			c-8.257,0-11.94,1.724-11.94,11.941V238.3z" style="fill:#6E6E96;"></path>
		<rect height="15.457" width="86.693" style="fill:#BEBEC9;" y="225.352" x="51.189"></rect>
		<g>
			<rect height="6.16" width="9.04" style="fill:#FFFFFF;" y="164.533" x="2.028"></rect>
			<path d="M11.068,172.193h-9.04c-0.829,0-1.5-0.672-1.5-1.5v-6.16c0-0.828,0.671-1.5,1.5-1.5h9.04
				c0.829,0,1.5,0.672,1.5,1.5v6.16C12.568,171.521,11.896,172.193,11.068,172.193z M3.528,169.193h6.04v-3.16h-6.04V169.193z" style="fill:#6E6E96;"></path>
		</g>
		<g>
			<rect height="24.642" width="10.305" style="fill:#E9F2F5;" y="160.163" x="69.111"></rect>
			<path d="M79.415,186.305H69.111c-0.829,0-1.5-0.672-1.5-1.5v-24.642c0-0.828,0.671-1.5,1.5-1.5h10.305
				c0.829,0,1.5,0.672,1.5,1.5v24.642C80.915,185.633,80.244,186.305,79.415,186.305z M70.611,183.305h7.305v-21.642h-7.305V183.305
				z" style="fill:#6E6E96;"></path>
		</g>
		<rect height="7.843" width="10.305" style="opacity:0.25;fill:#6E6E96;enable-background:new    ;" y="160.163" x="69.111"></rect>
		<rect height="3.693" width="51.188" style="opacity:0.15;fill:#6E6E96;enable-background:new    ;" y="115.141" x="69.318"></rect>
		<polygon points="120.505,142.02 97.32,118.834 86.471,118.834 
			117.808,150.171 120.505,150.171" style="opacity:0.53;fill:#FFFFFF;enable-background:new    ;"></polygon>
		<polygon points="108.993,150.171 77.656,118.834 73.367,118.834 
			104.704,150.171" style="opacity:0.25;fill:#FFFFFF;enable-background:new    ;"></polygon>
		<path d="M120.505,151.671H69.318c-0.829,0-1.5-0.672-1.5-1.5v-35.03c0-0.829,0.671-1.5,1.5-1.5h51.188
			c0.829,0,1.5,0.671,1.5,1.5v35.03C122.005,150.999,121.334,151.671,120.505,151.671z M70.818,148.671h48.188v-32.03H70.818
			V148.671z" style="fill:#6E6E96;"></path>
		<rect height="4.479" width="77.286" style="opacity:0.15;fill:#6E6E96;enable-background:new    ;" y="220.872" x="56.421"></rect>
		<rect height="4.479" width="86.693" style="opacity:0.25;fill:#6E6E96;enable-background:new    ;" y="236.328" x="51.189"></rect>
		<rect height="4.479" width="86.693" style="opacity:0.15;fill:#FFFFFF;enable-background:new    ;" y="225.352" x="51.189"></rect>
		<path d="M137.882,242.309H51.189c-0.829,0-1.5-0.672-1.5-1.5v-15.457c0-0.828,0.671-1.5,1.5-1.5h86.693
			c0.828,0,1.5,0.672,1.5,1.5v15.457C139.382,241.637,138.71,242.309,137.882,242.309z M52.689,239.309h83.693v-12.457H52.689
			V239.309z" style="fill:#6E6E96;"></path>
		<path d="M61.475,107.368v113.504h-5.054v-106.07
			C56.421,114.802,58.118,108.344,61.475,107.368z" style="opacity:0.15;fill:#6E6E96;enable-background:new    ;"></path>
		<path d="M56.421,128.243h-4.56c0,0-9.071,1.008-9.071,13.44
			c0,12.432,0,59.476,0,59.476s-2.017,16.799-15.122,16.799c-13.104,0-21.839-6.72-21.839-17.472c0-10.754,0-29.793,0-29.793H2.029
			v31.623c0,0,1.352,19.339,23.744,19.339c22.396,0,20.141-21.712,20.141-23.533c0-1.825-0.122-55.767-0.122-55.767
			s-0.835-10.18,10.179-10.18L56.421,128.243z" style="opacity:0.25;fill:#6E6E96;enable-background:new    ;"></path>
		<rect height="9.834" width="3.328" style="opacity:0.25;fill:#6E6E96;enable-background:new    ;" y="121.881" x="53.093"></rect>
		<path d="M7.323,164.533v-12.436h2.913l1.23,1.233l5.937-5.937
			c0,0,0.634-5.19-2.017-7.841l9.76-9.76c0,0,1.452,2.829-0.68,4.952c-2.132,2.122-4.487,6.263-4.487,6.263s3.658,5.488,1.23,8.308
			c-2.426,2.817-7.839,9.054-7.839,9.054l-3.023-3.022v8.176L7.323,164.533z" style="opacity:0.15;fill:#6E6E96;enable-background:new    ;"></path>
	</g>
	<rect height="3" width="208.926" style="opacity:0.2;fill:#6E6E96;enable-background:new    ;" y="241.23" x="28.768"></rect>
	<rect height="3" width="10.604" style="opacity:0.17;fill:#6E6E96;enable-background:new    ;" y="239.309" x="3.787"></rect>
</g>
<g id="Layer_2_1_">
	<path d="M153.299,160.583c0,0,0.417-9.226,9.409-9.226
		C171.702,151.357,151.626,169.807,153.299,160.583z" style="opacity:0.54;fill:#FFFFFF;enable-background:new    ;"></path>
	<g>
		<path d="M148.079,188.787c-6.768,0-11.125-6.508-9.692-12.985l5.855-23.457
			c1.433-6.479,8.141-11.782,14.903-11.782h54.318c6.767,0,13.129,5.365,14.14,11.922l4.039,23.178
			c1.009,6.555-3.699,13.124-10.463,13.124L148.079,188.787z" style="fill:#FFE35F;"></path>
		<path d="M148.079,190.287L148.079,190.287c-3.479,0-6.593-1.491-8.767-4.198
			c-2.325-2.896-3.22-6.863-2.391-10.611l5.865-23.496c1.57-7.105,8.913-12.919,16.358-12.919h54.318
			c7.492,0,14.501,5.919,15.622,13.193l4.034,23.148c0.589,3.824-0.546,7.819-3.032,10.717c-2.304,2.686-5.468,4.165-8.908,4.165
			L148.079,190.287z M159.146,142.062c-6.014,0-12.167,4.857-13.438,10.606l-5.865,23.496c-0.625,2.829,0.048,5.852,1.811,8.046
			c1.593,1.983,3.875,3.076,6.427,3.076l73.101-0.001c2.552,0,4.906-1.107,6.632-3.118c1.923-2.242,2.801-5.337,2.349-8.277
			l-4.034-23.148c-0.91-5.902-6.588-10.68-12.662-10.68H159.146z" style="fill:#6E6E96;"></path>
	</g>
	<g>
		<path d="M150.178,155.247l-1.296,6.545c-1.126,4.91-1.002,8.935,4.304,8.935h29.704v-24.414h-21.019
			C156.194,146.311,151.675,148.704,150.178,155.247z M222.884,161.686l-1.188-6.334c-0.789-4.973-3.424-9.043-10.448-9.043h-21.853
			v24.414h28.546C223.247,170.723,223.679,166.657,222.884,161.686z" style="fill:#AADBF7;"></path>
		<path d="M182.89,172.227h-29.704c-2.318,0-4.042-0.688-5.123-2.046c-1.819-2.283-1.299-5.861-0.643-8.724
			l1.286-6.501c1.521-6.651,6.068-10.144,13.158-10.144h21.025c0.828,0,1.5,0.672,1.5,1.5v24.414
			C184.39,171.555,183.718,172.227,182.89,172.227z M161.871,147.812c-5.69,0-9.035,2.541-10.231,7.77l-1.286,6.501
			c-0.741,3.232-0.72,5.256,0.056,6.229c0.483,0.607,1.418,0.915,2.776,0.915h28.204v-21.414H161.871z M217.941,172.223h-28.546
			c-0.828,0-1.5-0.672-1.5-1.5v-24.414c0-0.828,0.672-1.5,1.5-1.5h21.853c6.734,0,10.859,3.564,11.93,10.308l1.182,6.293
			c0.466,2.909,0.742,6.495-1.202,8.776C222.003,171.537,220.248,172.223,217.941,172.223z M190.895,169.223h27.046
			c1.408,0,2.368-0.322,2.933-0.984c0.872-1.022,1.046-3.089,0.529-6.315l-1.182-6.295c-0.849-5.348-3.698-7.819-8.974-7.819
			h-20.353V169.223z" style="fill:#6E6E96;"></path>
	</g>
	<path d="M139.915,178.337l5.654-22.641c1.383-6.255,7.855-11.373,14.387-11.373h52.432
		c6.53,0,12.674,5.178,13.647,11.507l3.896,22.376c0.019,0.088,0.023,0.18,0.036,0.271c0.134-1.039,0.131-2.106-0.036-3.179
		l-3.896-22.373c-0.977-6.329-7.117-11.507-13.647-11.507h-52.432c-6.529,0-13.004,5.117-14.387,11.373l-5.654,22.641
		c-0.287,1.301-0.329,2.604-0.164,3.852C139.794,178.966,139.847,178.652,139.915,178.337z" style="fill:#FFF1B0;"></path>
	<g>
		<path d="M118.24,221.332c0,0-6.451-0.014-9.175-0.035c-2.725-0.021-4.937-2.484-4.914-5.479l0.093-19.955
			l0.044-3.131c0-5.826,4.779-9.5,10.867-10.881l21.9-4.571l95.775-0.001c2.82,1.004,11.918,1.188,11.918,12.572l0.163,26.816
			c0.025,2.997-2.403,5.43-5.397,5.407l-5.499-0.039" style="fill:#FFE35F;"></path>
		<path d="M239.556,223.575c-0.018,0-0.035,0-0.054,0l-5.498-0.039l0.021-3l5.499,0.039c0.01,0,0.02,0,0.03,0
			c1.031,0,1.999-0.4,2.728-1.13c0.737-0.737,1.138-1.72,1.129-2.765l-0.163-26.82c0-8.532-5.512-9.833-9.16-10.693
			c-0.564-0.133-1.064-0.251-1.5-0.388l-95.378,0.001l-21.749,4.54c-2.891,0.655-9.674,2.897-9.674,9.412l-0.044,3.152l-0.093,19.94
			c-0.016,2.177,1.521,3.957,3.426,3.972c2.721,0.021,9.166,0.035,9.167,0.035l-0.006,3c0,0-6.458-0.014-9.184-0.035
			c-3.559-0.028-6.431-3.164-6.402-6.99l0.137-23.096c0-5.998,4.499-10.613,12.035-12.322l22.232-4.608l96.034-0.001l0.244,0.087
			c0.337,0.12,0.85,0.241,1.444,0.381c3.724,0.879,11.471,2.707,11.471,13.604l0.163,26.808c0.016,1.852-0.697,3.596-2.007,4.906
			C243.109,222.863,241.388,223.575,239.556,223.575z" style="fill:#6E6E96;"></path>
	</g>
	<g>
		<path d="M243.686,191.004c0-12.979-8.986-11.518-11.774-12.52l-94.613,0.002l-21.637,4.551
			c-6.014,1.376-10.735,3.395-10.735,10.834l-0.044,3.115l-0.092,19.867c-0.022,2.981,2.164,5.436,4.854,5.455
			c2.693,0.02,9.064,0.033,9.064,0.033l114.374,0.71l5.432,0.039c2.96,0.019,5.358-2.403,5.335-5.385L243.686,191.004z
			 M230.05,214.088l-4.957-0.031l-104.332-0.566c0,0-5.812-0.014-8.269-0.025c-2.456-0.016-4.446-1.977-4.429-4.354l0.084-12.859
			l0.04-4.884c0-4.631,4.307-7.552,9.793-8.647l19.737-3.633l86.308-0.002c2.543,0.799,10.738,0.943,10.738,9.991l0.149,20.71
			C234.936,212.173,232.749,214.104,230.05,214.088z" style="fill:#EDCA4C;"></path>
	</g>
	<g style="opacity:0.44;">
		<path d="M111.932,202.771l0.042-6.006c0-5.697,4.673-6.277,10.624-7.628l19.397-4.046l95.677-0.419
			c0.972,0.343,2.707,0.591,4.544,1.253c-2.072-6.652-8.715-6.918-11.03-7.738h-93.652l-21.417,4.47
			c-5.953,1.347-10.626,4.944-10.626,10.641l-0.045,2.993l-0.093,19.512c-0.02,2.928,2.142,5.342,4.807,5.358
			c0.468,0.004,1.048,0.008,1.683,0.012L111.932,202.771z" style="fill:#FFFFFF;"></path>
	</g>
	<g>
		<path d="M149.89,223.801h46.019l0,0c1.165,0,2.11-0.945,2.11-2.107c0-1.166-0.945-2.112-2.11-2.112l0,0
			H149.89l0,0c-1.164,0-2.107,0.944-2.107,2.112C147.781,222.855,148.727,223.801,149.89,223.801L149.89,223.801z" style="fill:#6E6E96;"></path>
	</g>
	<g>
		<path d="M111.278,213.624c0,0,2.976-16.236,21.963-16.236c18.988,0,23.512,16.464,23.512,16.464
			L111.278,213.624z" style="fill:#EDCA4C;"></path>
	</g>
	<rect height="6.105" width="42.769" style="fill:#EDCA4C;" y="205.816" x="152.276"></rect>
	<g>
		<path d="M190.245,214.227c0,0,4.178-17.438,23.168-17.438c22.907,0,22.306,17.668,22.306,17.668
			L190.245,214.227z" style="fill:#EDCA4C;"></path>
	</g>
	<g>
		<path d="M248.65,221.486c0,1.656-1.354,3.016-3.014,3.016H104.173c-1.657,0-3.015-1.355-3.015-3.016v-5.932
			c0-1.66,1.357-3.016,3.015-3.016h141.464c1.657,0,3.015,1.354,3.015,3.016L248.65,221.486L248.65,221.486z" style="fill:#F0F0FF;"></path>
		<path d="M245.636,226.002H104.173c-2.489,0-4.515-2.025-4.515-4.516v-5.932c0-2.49,2.025-4.516,4.515-4.516
			h141.464c2.489,0,4.515,2.025,4.515,4.516l-0.002,5.933C250.15,223.977,248.125,226.002,245.636,226.002z M104.173,214.039
			c-0.835,0-1.515,0.68-1.515,1.516v5.932c0,0.836,0.68,1.516,1.515,1.516h141.463c0.835,0,1.514-0.68,1.514-1.516l0.002-5.933
			c0-0.835-0.68-1.515-1.515-1.515H104.173z" style="fill:#6E6E96;"></path>
	</g>
	<g style="opacity:0.15;enable-background:new    ;">
		<rect height="4.225" width="146.612" style="fill:#6E6E96;" y="219.48" x="101.158"></rect>
	</g>
	<g>
		<rect height="11.756" width="6.141" style="fill:#FFFF00;" y="200.771" x="102.279"></rect>
		<path d="M108.419,214.027h-6.141c-0.829,0-1.5-0.672-1.5-1.5v-11.756c0-0.828,0.671-1.5,1.5-1.5h6.141
			c0.829,0,1.5,0.672,1.5,1.5v11.756C109.919,213.355,109.248,214.027,108.419,214.027z M103.779,211.027h3.141v-8.756h-3.141
			V211.027z" style="fill:#6E6E96;"></path>
	</g>
	<path d="M143.487,184.934h36.493v-2.576h-36.493V184.934z
		 M187.361,182.355v2.578h37.006v-2.578H187.361z" style="opacity:0.6;fill:#FFFFFF;enable-background:new    ;"></path>
	<g>
		<rect height="12.961" width="6.931" style="fill:#FF5F5F;" y="199.564" x="240.589"></rect>
		<path d="M247.52,214.025h-6.931c-0.828,0-1.5-0.672-1.5-1.5v-12.961c0-0.828,0.672-1.5,1.5-1.5h6.931
			c0.828,0,1.5,0.672,1.5,1.5v12.961C249.02,213.354,248.348,214.025,247.52,214.025z M242.089,211.025h3.931v-9.961h-3.931V211.025
			z" style="fill:#6E6E96;"></path>
	</g>
	<g>
		<rect height="6.933" width="6.931" style="fill:#FFFF00;" y="199.564" x="240.589"></rect>
		<path d="M247.52,207.997h-6.931c-0.828,0-1.5-0.672-1.5-1.5v-6.933c0-0.828,0.672-1.5,1.5-1.5h6.931
			c0.828,0,1.5,0.672,1.5,1.5v6.933C249.02,207.325,248.348,207.997,247.52,207.997z M242.089,204.997h3.931v-3.933h-3.931V204.997z" style="fill:#6E6E96;"></path>
	</g>
	<g>
		<rect height="5.879" width="5.938" style="fill:#FFFFFF;" y="200.771" x="102.279"></rect>
		<path d="M108.216,208.15h-5.938c-0.829,0-1.5-0.672-1.5-1.5v-5.879c0-0.828,0.671-1.5,1.5-1.5h5.938
			c0.829,0,1.5,0.672,1.5,1.5v5.879C109.716,207.479,109.045,208.15,108.216,208.15z M103.779,205.15h2.938v-2.879h-2.938V205.15z" style="fill:#6E6E96;"></path>
	</g>
	<g>
		<g>
			<path d="M160.665,224.307c-0.09-16.234-10.473-28.735-26.846-28.643
				c-16.377,0.091-25.994,12.691-25.901,28.941L160.665,224.307z" style="fill:#9C9CA8;"></path>
			<path d="M106.427,226.114l-0.009-1.5c-0.048-8.437,2.485-16.077,7.134-21.514
				c4.959-5.801,11.965-8.891,20.258-8.937l0.189-0.001c16.485,0,28.066,12.393,28.165,30.136l0.008,1.499L106.427,226.114z
				 M134,197.163l-0.172,0.001c-7.397,0.041-13.62,2.768-17.996,7.886c-3.908,4.57-6.153,10.935-6.394,18.047l49.687-0.281
				C158.419,207.634,148.264,197.163,134,197.163z" style="fill:#6E6E96;"></path>
		</g>
		<g>
			<circle r="16.009" cy="221.517" cx="134.171" style="fill:#F0F0FF;"></circle>
		</g>
		<g>
			<path d="M134.171,209.126c6.831,0,12.392,5.56,12.392,12.39c0,3.309-1.289,6.422-3.63,8.765
				c-2.341,2.338-5.453,3.628-8.764,3.628c-6.832,0-12.392-5.561-12.392-12.393C121.78,214.684,127.337,209.126,134.171,209.126z
				 M114.546,221.516c0,10.825,8.802,19.627,19.625,19.627c10.822,0,19.626-8.803,19.626-19.627c0-10.82-8.804-19.625-19.626-19.625
				C123.347,201.891,114.546,210.693,114.546,221.516z" style="fill:#CCCCDE;"></path>
			<path d="M134.171,242.643c-11.648,0-21.125-9.478-21.125-21.127c0-11.648,9.477-21.125,21.125-21.125
				s21.126,9.477,21.126,21.125C155.297,233.165,145.82,242.643,134.171,242.643z M134.171,203.391
				c-9.994,0-18.125,8.131-18.125,18.125c0,9.995,8.131,18.127,18.125,18.127c9.995,0,18.126-8.132,18.126-18.127
				C152.297,211.521,144.166,203.391,134.171,203.391z M134.169,235.408c-7.66,0-13.892-6.232-13.892-13.893
				c0.002-7.659,6.234-13.89,13.894-13.89c7.66,0,13.892,6.23,13.892,13.89c0,3.71-1.445,7.199-4.068,9.825
				C141.367,233.964,137.878,235.408,134.169,235.408z M134.171,210.626c-6.005,0-10.892,4.886-10.894,10.89
				c0,6.006,4.886,10.893,10.892,10.893c2.908,0,5.645-1.133,7.704-3.189c2.057-2.059,3.189-4.794,3.189-7.703
				C145.063,215.511,140.177,210.626,134.171,210.626z" style="fill:#6E6E96;"></path>
		</g>
		<path d="M134.404,202.814c-10.101-0.002-18.318,8.221-18.318,18.319c0,0.532,0.025,1.058,0.069,1.58
			c0.806-9.366,7.563-17.86,17.133-17.86c11.891,0,18.562,8.491,19.364,17.86c0.046-0.522,0.072-1.048,0.072-1.58
			C152.725,211.032,144.507,202.814,134.404,202.814z" style="fill:#E6E6FA;"></path>
		<g style="opacity:0.15;enable-background:new    ;">
			<path d="M133.511,212.979c6.211,0,11.428,4.266,12.876,10.026c0.264-1.04,0.402-2.125,0.402-3.251
				c0-7.332-5.944-13.275-13.278-13.275c-7.333,0-13.279,5.943-13.279,13.275c0,1.122,0.141,2.211,0.403,3.251
				C122.085,217.243,127.3,212.979,133.511,212.979z" style="fill:#6E6E96;"></path>
		</g>
		<g>
			<circle r="4.351" cy="221.741" cx="133.842" style="fill:#CCCCDE;"></circle>
			<path d="M133.842,227.592c-3.226,0-5.851-2.625-5.851-5.851s2.625-5.851,5.851-5.851
				s5.851,2.625,5.851,5.851S137.068,227.592,133.842,227.592z M133.842,218.891c-1.572,0-2.851,1.278-2.851,2.851
				s1.278,2.851,2.851,2.851s2.851-1.278,2.851-2.851S135.414,218.891,133.842,218.891z" style="fill:#6E6E96;"></path>
		</g>
		<path d="M134.139,210.148c6.148,0,11.224,4.465,11.911,10.192
			c0.05-0.436,0.085-0.878,0.085-1.323c0-6.35-5.383-11.515-11.996-11.515c-6.614,0-11.994,5.165-11.995,11.515
			c0,0.449,0.034,0.892,0.086,1.325C122.916,214.613,127.99,210.148,134.139,210.148z M153.082,220.344
			c-0.709,9.439-8.933,16.919-18.943,16.919s-18.232-7.479-18.943-16.919c-0.033,0.438-0.056,0.879-0.056,1.323
			c0,10.058,8.522,18.239,18.999,18.239s18.999-8.184,18.999-18.239C153.139,221.223,153.115,220.78,153.082,220.344z" style="opacity:0.2;fill:#6E6E96;enable-background:new    ;"></path>
		<path d="M110.886,224.589c0,0,0.102-25.422,25.422-25.422
			c25.322,0,20.709,25.629,20.709,25.629l3.65-0.489c0,0-0.536-28.641-26.849-28.641c-26.312,0-25.901,28.941-25.901,28.941
			L110.886,224.589z" style="opacity:0.2;fill:#6E6E96;enable-background:new    ;"></path>
	</g>
	<g>
		<path d="M242.208,224.307c-0.093-16.234-10.474-28.735-26.846-28.643
			c-16.375,0.091-25.992,12.691-25.903,28.941L242.208,224.307z" style="fill:#9C9CA8;"></path>
		<path d="M187.967,226.114l-0.008-1.501c-0.099-18.121,10.91-30.357,27.395-30.449l0.189-0.001
			c16.481,0,28.063,12.393,28.165,30.135l0.009,1.5L187.967,226.114z M215.543,197.163l-0.172,0.001
			c-14.236,0.079-23.89,10.434-24.393,25.933l49.69-0.281C239.959,207.634,229.804,197.163,215.543,197.163z" style="fill:#6E6E96;"></path>
	</g>
	<g>
		<circle r="16.009" cy="221.517" cx="215.712" style="fill:#F0F0FF;"></circle>
	</g>
	<g>
		<path d="M215.712,209.126c6.83,0,12.391,5.56,12.391,12.39c0,3.309-1.289,6.422-3.627,8.765
			c-2.342,2.338-5.453,3.628-8.764,3.628c-6.834,0-12.392-5.561-12.392-12.393C203.323,214.686,208.878,209.126,215.712,209.126z
			 M196.087,221.516c0,10.825,8.803,19.627,19.625,19.627c10.824,0,19.626-8.803,19.626-19.627c0-10.82-8.805-19.625-19.626-19.625
			C204.89,201.891,196.087,210.693,196.087,221.516z" style="fill:#CCCCDE;"></path>
		<path d="M215.712,242.643c-11.648,0-21.125-9.478-21.125-21.127c0-11.648,9.477-21.125,21.125-21.125
			s21.126,9.477,21.126,21.125C236.838,233.165,227.361,242.643,215.712,242.643z M215.712,203.391
			c-9.994,0-18.125,8.131-18.125,18.125c0,9.995,8.131,18.127,18.125,18.127c9.995,0,18.126-8.132,18.126-18.127
			C233.838,211.521,225.707,203.391,215.712,203.391z M215.712,235.408c-7.66,0-13.892-6.232-13.892-13.893
			c0.002-7.659,6.234-13.89,13.892-13.89c7.659,0,13.891,6.23,13.891,13.89c0,3.708-1.443,7.197-4.065,9.824
			C222.909,233.964,219.42,235.408,215.712,235.408z M215.712,210.626c-6.004,0-10.89,4.886-10.892,10.89
			c0,6.006,4.886,10.893,10.892,10.893c2.908,0,5.644-1.133,7.704-3.189c2.054-2.059,3.187-4.795,3.187-7.703
			C226.603,215.511,221.717,210.626,215.712,210.626z" style="fill:#6E6E96;"></path>
	</g>
	<path d="M215.946,202.814c-10.103-0.002-18.321,8.221-18.321,18.319c0,0.532,0.027,1.058,0.074,1.58
		c0.803-9.366,7.561-17.86,17.132-17.86c11.889,0,18.562,8.491,19.365,17.86c0.045-0.522,0.071-1.048,0.071-1.58
		C234.266,211.032,226.048,202.814,215.946,202.814z" style="fill:#E6E6FA;"></path>
	<g style="opacity:0.15;enable-background:new    ;">
		<path d="M215.052,212.979c6.214,0,11.428,4.266,12.876,10.026c0.262-1.04,0.402-2.125,0.402-3.251
			c0-7.332-5.944-13.275-13.278-13.275c-7.331,0-13.277,5.943-13.277,13.275c0,1.122,0.142,2.211,0.401,3.251
			C203.626,217.243,208.841,212.979,215.052,212.979z" style="fill:#6E6E96;"></path>
	</g>
	<g>
		<circle r="4.351" cy="221.741" cx="215.382" style="fill:#CCCCDE;"></circle>
		<path d="M215.382,227.592c-3.226,0-5.851-2.625-5.851-5.851s2.625-5.851,5.851-5.851
			s5.851,2.625,5.851,5.851S218.608,227.592,215.382,227.592z M215.382,218.891c-1.572,0-2.851,1.278-2.851,2.851
			s1.278,2.851,2.851,2.851s2.851-1.278,2.851-2.851S216.954,218.891,215.382,218.891z" style="fill:#6E6E96;"></path>
	</g>
	<path d="M215.68,210.148c6.148,0,11.224,4.465,11.911,10.192
		c0.052-0.436,0.085-0.878,0.085-1.323c0-6.35-5.382-11.515-11.996-11.515s-11.995,5.165-11.995,11.515
		c0,0.449,0.033,0.892,0.084,1.325C204.458,214.613,209.532,210.148,215.68,210.148z M234.625,220.344
		c-0.708,9.439-8.934,16.919-18.944,16.919s-18.231-7.479-18.943-16.919c-0.03,0.438-0.056,0.879-0.056,1.323
		c0,10.058,8.523,18.239,18.999,18.239c10.478,0,19.001-8.184,19.001-18.239C234.681,221.223,234.657,220.78,234.625,220.344z" style="opacity:0.2;fill:#6E6E96;enable-background:new    ;"></path>
	<path d="M192.428,224.589c0,0,0.104-25.422,25.422-25.422
		c25.322,0,20.709,25.629,20.709,25.629l3.649-0.489c0,0-0.533-28.641-26.846-28.641c-26.314,0-25.903,28.941-25.903,28.941
		L192.428,224.589z" style="opacity:0.2;fill:#6E6E96;enable-background:new    ;"></path>
	<path d="M182.889,207.316h-21.568c-0.58,0-1.108-0.335-1.356-0.859
		c-6.603-13.985-21.695-14.604-21.848-14.608c-0.81-0.024-1.454-0.688-1.454-1.499v-13.068c0-0.828,0.672-1.5,1.5-1.5
		s1.5,0.672,1.5,1.5v11.69c4.192,0.494,16.271,2.979,22.592,15.345h19.135v-27.035c0-0.828,0.672-1.5,1.5-1.5s1.5,0.672,1.5,1.5
		v28.535C184.389,206.645,183.717,207.316,182.889,207.316z" style="fill:#6E6E96;"></path>
	<path d="M188.076,207.316h-5.184c-0.828,0-1.5-0.672-1.5-1.5s0.672-1.5,1.5-1.5h4.281
		c1.869-3.312,9.552-14.854,25.813-14.854c10.016,0,14.854,0.167,17.259,0.396v-11.677c0-0.828,0.672-1.5,1.5-1.5s1.5,0.672,1.5,1.5
		v13.398c0,0.607-0.367,1.155-0.929,1.387c-0.364,0.149-0.765,0.147-1.117,0.011c-0.417-0.089-3.209-0.515-18.213-0.515
		c-16.982,0-23.482,13.836-23.546,13.976C189.198,206.974,188.664,207.316,188.076,207.316z" style="fill:#6E6E96;"></path>
	<path d="M177.927,186.434h-6.764c-0.828,0-1.5-0.672-1.5-1.5s0.672-1.5,1.5-1.5h6.764
		c0.828,0,1.5,0.672,1.5,1.5S178.755,186.434,177.927,186.434z" style="fill:#6E6E96;"></path>
	<path d="M227.132,186.214h-7.072c-0.828,0-1.5-0.672-1.5-1.5s0.672-1.5,1.5-1.5h7.072
		c0.828,0,1.5,0.672,1.5,1.5S227.96,186.214,227.132,186.214z" style="fill:#6E6E96;"></path>
	<path d="M222.884,161.686l-1.188-6.334
		c-0.789-4.973-3.424-9.043-10.448-9.043h-21.853v4.306h21.853c7.022,0,9.656,4.067,10.448,9.04l1.188,6.335
		c0.055,0.325,0.103,0.641,0.141,0.956C223.315,165.46,223.198,163.645,222.884,161.686z M150.178,155.247l-1.293,6.545
		c-0.53,2.313-0.774,4.42-0.341,6.01c0.091-0.552,0.204-1.122,0.341-1.704l1.293-6.549c1.497-6.541,6.016-8.936,11.694-8.936h21.021
		v-4.305h-21.021C156.194,146.311,151.675,148.704,150.178,155.247z" style="opacity:0.15;fill:#6E6E96;enable-background:new    ;"></path>
	<polyline points="155.787,164.008 164.294,155.501 170.343,155.501 
		161.835,164.008" style="opacity:0.47;fill:#FFFFFF;enable-background:new    ;"></polyline>
	<polyline points="193.303,164.008 201.812,155.501 207.862,155.501 
		199.35,164.008" style="opacity:0.47;fill:#FFFFFF;enable-background:new    ;"></polyline>
	<polyline points="165.421,164.008 173.93,155.501 176.288,155.501 
		167.78,164.008" style="opacity:0.23;fill:#FFFFFF;enable-background:new    ;"></polyline>
	<polyline points="204.169,164.008 212.676,155.501 215.034,155.501 
		206.529,164.008" style="opacity:0.23;fill:#FFFFFF;enable-background:new    ;"></polyline>
	<polygon points="118.064,190.223 136.178,182.388 136.933,185.891" style="opacity:0.6;fill:#FFFFFF;enable-background:new    ;"></polygon>
</g>
</svg>
