<svg xml:space="preserve" style="enable-background:new 0 0 256.5 253.117;" viewBox="0 0 256.5 253.117" height="253.117px" width="256.5px" y="0px" x="0px" xmlns:xlink="http://www.w3.org/1999/xlink" xmlns="http://www.w3.org/2000/svg" id="Layer_1" version="1.1">
<g id="Layer_3_2_">
	<path d="M252.754,115.151c8.996-82.092-61.14-49.228-73.912-77.275
		c-0.264-0.579-1.262,0.031-1.894,0.049C164.061,15.283,140.43,0.103,113.399,0.103c-40.821,0-73.913,34.6-73.913,77.28
		c0,0.554,0.029,1.1,0.04,1.652C17.2,92.33,2.135,117.42,2.135,146.206c0,42.678,33.092,77.271,73.914,77.271
		c2.321,0,4.615-0.123,6.882-0.342c13.558,17.17,35.07,28.115,58.03,28.115c37.732,0,67.832-29.562,72.33-67.734
		C236.754,170.568,249.521,144.643,252.754,115.151z" style="opacity:0.22;fill:#BD7373;enable-background:new    ;"></path>
</g>
<g id="Layer_8">
</g>
<g id="Layer_6">
	<g>
		<circle r="17.367" cy="35.706" cx="35.782" style="fill:#F0F0FF;"></circle>
		<g>
			<path d="M67.604,37.927v-5.73l-7.562-1.443c-0.256-1.501-0.647-2.957-1.162-4.352l5.952-4.81l-2.866-4.963
				l-7.272,2.532c-0.962-1.156-2.027-2.221-3.182-3.183l2.751-7.147L49.3,5.965l-5.027,5.824c-1.395-0.516-2.85-0.907-4.352-1.164
				l-1.19-7.563H33l-1.443,7.561c-1.501,0.257-2.957,0.647-4.352,1.162l-4.81-5.951L17.432,8.7l2.532,7.272
				c-1.155,0.961-2.22,2.027-3.183,3.181l-7.147-2.751l-2.865,4.963l5.824,5.028c-0.515,1.395-0.906,2.851-1.163,4.352l-7.563,1.19
				v5.731l7.562,1.443c0.256,1.501,0.647,2.957,1.162,4.352l-5.951,4.81l2.865,4.963l7.273-2.532
				c0.962,1.155,2.027,2.221,3.182,3.182l-2.751,7.148l4.963,2.865l5.028-5.824c1.396,0.515,2.85,0.906,4.351,1.163l1.191,7.563
				h5.731l1.442-7.562c1.501-0.256,2.956-0.647,4.352-1.162l4.81,5.952l4.963-2.867l-2.532-7.272
				c1.154-0.962,2.22-2.027,3.182-3.181l7.148,2.751l2.865-4.963l-5.824-5.028c0.515-1.395,0.906-2.851,1.164-4.351L67.604,37.927z
				 M35.681,51.78c-9.259,0-16.766-7.505-16.766-16.765c0-9.26,7.506-16.766,16.766-16.766c9.259,0,16.765,7.506,16.765,16.766
				C52.446,44.275,44.941,51.78,35.681,51.78z" style="fill:#FFFFFF;"></path>
			<path d="M39.714,68.299H31.46l-1.227-7.79c-0.865-0.186-1.722-0.415-2.562-0.687l-5.175,5.994
				l-7.148-4.126l2.833-7.364c-0.653-0.591-1.278-1.218-1.871-1.874l-7.485,2.606L4.7,47.911l6.13-4.955
				c-0.271-0.84-0.499-1.698-0.683-2.564l-7.78-1.485v-8.254l7.79-1.226c0.186-0.867,0.415-1.724,0.687-2.563L4.85,21.69
				l4.126-7.148l7.364,2.834c0.594-0.655,1.22-1.28,1.874-1.87l-2.605-7.484l7.148-4.128l4.955,6.131
				c0.839-0.27,1.696-0.498,2.564-0.683l1.485-7.78h8.254l1.226,7.79c0.868,0.186,1.725,0.416,2.563,0.687l5.173-5.993l7.148,4.127
				l-2.834,7.362c0.655,0.593,1.28,1.219,1.872,1.875l7.483-2.606l4.128,7.148l-6.131,4.955c0.27,0.84,0.499,1.697,0.683,2.564
				l7.78,1.485v8.254l-7.788,1.225c-0.187,0.867-0.416,1.723-0.687,2.562l5.994,5.174l-4.127,7.148l-7.364-2.834
				c-0.592,0.653-1.218,1.278-1.874,1.87l2.606,7.484l-7.148,4.129l-4.956-6.131c-0.84,0.271-1.697,0.499-2.563,0.683L39.714,68.299
				z M34.024,65.299h3.208l1.405-7.365l1.026-0.175c1.393-0.238,2.767-0.605,4.085-1.091l1.009-0.372l4.68,5.791l2.778-1.604
				l-2.465-7.081l0.797-0.665c1.084-0.904,2.09-1.91,2.99-2.99l0.688-0.825l6.954,2.676l1.604-2.778l-5.672-4.897l0.36-0.975
				c0.485-1.313,0.853-2.687,1.093-4.085l0.183-1.061l7.357-1.158v-3.207l-7.366-1.406l-0.175-1.026
				c-0.238-1.394-0.604-2.769-1.091-4.084l-0.373-1.01l5.792-4.68l-1.604-2.778l-7.082,2.466l-0.665-0.799
				c-0.9-1.082-1.905-2.088-2.988-2.99l-0.826-0.688l2.677-6.954l-2.778-1.604l-4.896,5.673l-0.976-0.361
				c-1.313-0.486-2.688-0.854-4.084-1.092l-1.062-0.182l-1.158-7.36h-3.208l-1.405,7.364l-1.025,0.175
				c-1.399,0.239-2.774,0.606-4.085,1.091l-1.01,0.373l-4.68-5.791l-2.778,1.604l2.465,7.082l-0.799,0.665
				c-1.078,0.897-2.083,1.902-2.99,2.989l-0.688,0.825l-6.953-2.676l-1.604,2.778l5.671,4.896L14,26.912
				c-0.485,1.316-0.853,2.69-1.091,4.086l-0.182,1.062l-7.36,1.158v3.208l7.366,1.405l0.175,1.026
				c0.238,1.394,0.604,2.768,1.09,4.085l0.373,1.009l-5.791,4.68l1.604,2.778l7.082-2.465l0.665,0.797
				c0.905,1.086,1.911,2.091,2.989,2.989l0.827,0.688l-2.677,6.955l2.778,1.604l4.897-5.671l0.975,0.36
				c1.318,0.486,2.693,0.853,4.084,1.091l1.061,0.182L34.024,65.299z M35.681,53.28c-10.072,0-18.266-8.194-18.266-18.265
				c0-10.072,8.194-18.266,18.266-18.266c10.071,0,18.265,8.194,18.265,18.266C53.946,45.086,45.752,53.28,35.681,53.28z
				 M35.681,19.749c-8.418,0-15.266,6.848-15.266,15.266c0,8.417,6.848,15.265,15.266,15.265c8.417,0,15.265-6.848,15.265-15.265
				C50.946,26.597,44.098,19.749,35.681,19.749z" style="fill:#CCCCDE;"></path>
		</g>
		<g>
			<circle r="7.558" cy="34.931" cx="35.736" style="fill:#DBDBED;"></circle>
			<path d="M35.736,43.989c-4.995,0-9.058-4.063-9.058-9.058s4.063-9.058,9.058-9.058
				s9.058,4.063,9.058,9.058S40.73,43.989,35.736,43.989z M35.736,28.873c-3.34,0-6.058,2.718-6.058,6.058s2.717,6.058,6.058,6.058
				s6.058-2.718,6.058-6.058S39.076,28.873,35.736,28.873z" style="fill:#CCCCDE;"></path>
		</g>
	</g>
	<g>
		<circle r="13.351" cy="92.203" cx="216.932" style="fill:#F0F0FF;"></circle>
		<g>
			<path d="M241.396,93.911v-4.407l-5.814-1.108c-0.196-1.155-0.498-2.273-0.893-3.346l4.574-3.698
				l-2.203-3.815l-5.591,1.946c-0.739-0.888-1.558-1.707-2.444-2.447l2.113-5.495l-3.814-2.203l-3.865,4.477
				c-1.072-0.396-2.189-0.696-3.346-0.895l-0.916-5.813h-4.405l-1.108,5.813c-1.154,0.198-2.271,0.499-3.347,0.894l-3.696-4.575
				l-3.814,2.203l1.945,5.591c-0.888,0.74-1.707,1.559-2.446,2.446l-5.495-2.116l-2.203,3.815l4.479,3.866
				c-0.396,1.073-0.696,2.19-0.894,3.345l-5.815,0.915v4.406l5.813,1.109c0.196,1.155,0.498,2.271,0.894,3.345l-4.574,3.698
				l2.203,3.815l5.59-1.947c0.74,0.888,1.56,1.707,2.447,2.447l-2.117,5.495l3.816,2.202l3.866-4.477
				c1.071,0.395,2.19,0.696,3.344,0.894l0.916,5.814H219l1.109-5.813c1.153-0.197,2.272-0.498,3.346-0.893l3.697,4.575l3.815-2.203
				l-1.946-5.591c0.889-0.739,1.707-1.559,2.445-2.446l5.495,2.115l2.204-3.816l-4.479-3.865c0.396-1.074,0.695-2.191,0.895-3.345
				L241.396,93.911z M216.854,104.561c-7.117,0-12.889-5.77-12.889-12.889s5.771-12.889,12.889-12.889
				c7.119,0,12.89,5.77,12.89,12.889S223.973,104.561,216.854,104.561z" style="fill:#FFFFFF;"></path>
			<path d="M220.241,117.607h-6.929l-0.953-6.048c-0.522-0.118-1.04-0.257-1.549-0.416l-4.018,4.651
				l-6.002-3.463l2.203-5.718c-0.392-0.363-0.77-0.742-1.132-1.134l-5.809,2.023l-3.465-6l4.759-3.848
				c-0.158-0.512-0.296-1.03-0.413-1.551l-6.038-1.152v-6.929l6.049-0.952c0.118-0.523,0.257-1.041,0.415-1.551l-4.653-4.017
				l3.465-6l5.718,2.201c0.362-0.392,0.741-0.769,1.134-1.131l-2.021-5.81l5.999-3.464l3.847,4.76
				c0.512-0.158,1.029-0.296,1.552-0.413l1.151-6.039h6.929l0.953,6.047c0.523,0.119,1.042,0.258,1.551,0.416L227,67.418
				l5.999,3.465l-2.199,5.717c0.392,0.363,0.77,0.742,1.131,1.134l5.809-2.021l3.465,6l-4.76,3.848
				c0.158,0.512,0.296,1.03,0.413,1.552l6.039,1.151v6.931l-6.049,0.951c-0.119,0.523-0.258,1.04-0.416,1.55l4.654,4.016
				l-3.467,6.001l-5.716-2.2c-0.363,0.392-0.741,0.77-1.133,1.132l2.021,5.809l-6,3.465l-3.847-4.76
				c-0.512,0.158-1.03,0.295-1.552,0.413L220.241,117.607z M215.877,114.607h1.882l1.072-5.617l1.026-0.175
				c1.047-0.179,2.083-0.455,3.079-0.822l1.01-0.371l3.566,4.414l1.631-0.941l-1.881-5.4l0.8-0.665
				c0.812-0.676,1.57-1.434,2.251-2.252l0.688-0.827l5.303,2.041l0.941-1.631l-4.325-3.733l0.359-0.975
				c0.364-0.991,0.642-2.028,0.823-3.082l0.184-1.06l5.609-0.882v-1.883l-5.618-1.071l-0.175-1.027
				c-0.178-1.043-0.454-2.079-0.822-3.08l-0.37-1.009l4.412-3.567l-0.941-1.63l-5.4,1.88l-0.665-0.799
				c-0.678-0.815-1.436-1.574-2.252-2.254L227.24,77.5l2.038-5.301l-1.63-0.941l-3.733,4.325l-0.976-0.36
				c-0.987-0.365-2.023-0.642-3.081-0.824l-1.06-0.183l-0.884-5.608h-1.882l-1.071,5.615l-1.024,0.176
				c-1.049,0.18-2.086,0.457-3.083,0.824l-1.009,0.37l-3.565-4.413l-1.63,0.941l1.879,5.4l-0.798,0.665
				c-0.816,0.681-1.575,1.439-2.254,2.254l-0.688,0.826l-5.301-2.042l-0.941,1.63l4.326,3.735l-0.36,0.976
				c-0.366,0.99-0.643,2.025-0.822,3.078l-0.182,1.062l-5.612,0.883v1.883l5.618,1.072l0.174,1.027
				c0.178,1.042,0.454,2.078,0.822,3.078l0.372,1.009l-4.413,3.568l0.941,1.63l5.398-1.88l0.665,0.798
				c0.68,0.815,1.438,1.574,2.255,2.255l0.826,0.688l-2.042,5.301l1.631,0.941l3.734-4.325l0.975,0.36
				c0.991,0.365,2.027,0.642,3.079,0.823l1.061,0.183L215.877,114.607z M216.854,106.061c-7.934,0-14.389-6.455-14.389-14.389
				s6.455-14.389,14.389-14.389c7.935,0,14.39,6.455,14.39,14.389S224.788,106.061,216.854,106.061z M216.854,80.283
				c-6.279,0-11.389,5.109-11.389,11.389s5.109,11.389,11.389,11.389c6.28,0,11.39-5.109,11.39-11.389
				S223.134,80.283,216.854,80.283z" style="fill:#CCCCDE;"></path>
		</g>
		<g>
			<circle r="5.81" cy="91.608" cx="216.896" style="fill:#DBDBED;"></circle>
			<path d="M216.896,98.918c-4.031,0-7.311-3.279-7.311-7.31s3.279-7.31,7.311-7.31
				c4.03,0,7.31,3.279,7.31,7.31S220.927,98.918,216.896,98.918z M216.896,87.298c-2.377,0-4.311,1.934-4.311,4.31
				s1.934,4.31,4.311,4.31c2.376,0,4.31-1.934,4.31-4.31S219.272,87.298,216.896,87.298z" style="fill:#CCCCDE;"></path>
		</g>
	</g>
</g>
<g id="Layer_4">
	<path d="M2.572,154.561c2.727,26.51,18.278,48.986,40.038,60.552h160.111
		c5.519-9.369,9.215-20.087,10.57-31.595c12.074-6.664,22.164-16.725,29.122-28.957H2.572z" style="fill:#B5DFCF;"></path>
	<path d="M4.061,163.7h232.267c2.23-2.882,4.264-5.938,6.085-9.142H2.572
		C2.892,157.667,3.399,160.714,4.061,163.7z" style="fill:#F0F0FF;"></path>
	<rect height="3" width="239.297" style="fill:#6E6E96;" y="154.06" x="2.531"></rect>
	<path d="M42.609,215.111h160.11c1.719-2.918,3.258-5.967,4.605-9.131H29.212
		C33.328,209.509,37.822,212.566,42.609,215.111z" style="fill:#F0F0FF;"></path>
	<rect height="3" width="252.209" style="fill:#6E6E96;" y="213.612" x="1.531"></rect>
	<rect height="3" width="178.089" style="fill:#6E6E96;" y="204.48" x="29.236"></rect>
	<path d="M42.611,215.112c10.043,5.337,21.399,8.364,33.438,8.364c2.321,0,4.615-0.123,6.882-0.342
		c4.342,5.499,9.504,10.355,15.265,14.424h84.376c8.08-5.946,14.93-13.591,20.146-22.446H42.611z" style="fill:#CCCCDE;"></path>
	<rect height="3" width="232.267" style="fill:#6E6E96;" y="162.2" x="4.061"></rect>
	<rect height="3" width="170.585" style="fill:#6E6E96;" y="213.059" x="32.455"></rect>
	<rect height="3" width="85.082" style="fill:#6E6E96;" y="236.059" x="97.49"></rect>
	<g>
		<g>
			<circle r="5.879" cy="225.991" cx="51.353" style="fill:#A6A6B5;"></circle>
			<path d="M51.353,233.37c-4.069,0-7.379-3.311-7.379-7.379s3.31-7.379,7.379-7.379s7.379,3.311,7.379,7.379
				S55.422,233.37,51.353,233.37z M51.353,221.612c-2.415,0-4.379,1.965-4.379,4.379s1.964,4.379,4.379,4.379
				s4.379-1.965,4.379-4.379S53.768,221.612,51.353,221.612z" style="fill:#6E6E96;"></path>
		</g>
		<g>
			<circle r="5.879" cy="225.991" cx="70.465" style="fill:#A6A6B5;"></circle>
			<path d="M70.465,233.37c-4.069,0-7.379-3.311-7.379-7.379s3.31-7.379,7.379-7.379s7.379,3.311,7.379,7.379
				S74.534,233.37,70.465,233.37z M70.465,221.612c-2.415,0-4.379,1.965-4.379,4.379s1.964,4.379,4.379,4.379
				s4.379-1.965,4.379-4.379S72.879,221.612,70.465,221.612z" style="fill:#6E6E96;"></path>
		</g>
		<g>
			<circle r="5.879" cy="225.991" cx="89.577" style="fill:#A6A6B5;"></circle>
			<path d="M89.577,233.37c-4.069,0-7.379-3.311-7.379-7.379s3.31-7.379,7.379-7.379s7.379,3.311,7.379,7.379
				S93.646,233.37,89.577,233.37z M89.577,221.612c-2.415,0-4.379,1.965-4.379,4.379s1.964,4.379,4.379,4.379
				s4.379-1.965,4.379-4.379S91.992,221.612,89.577,221.612z" style="fill:#6E6E96;"></path>
		</g>
		<g>
			<circle r="5.879" cy="225.991" cx="108.689" style="fill:#A6A6B5;"></circle>
			<path d="M108.689,233.37c-4.069,0-7.379-3.311-7.379-7.379s3.31-7.379,7.379-7.379
				s7.379,3.311,7.379,7.379S112.758,233.37,108.689,233.37z M108.689,221.612c-2.415,0-4.379,1.965-4.379,4.379
				s1.964,4.379,4.379,4.379s4.379-1.965,4.379-4.379S111.104,221.612,108.689,221.612z" style="fill:#6E6E96;"></path>
		</g>
		<g>
			<circle r="5.879" cy="225.991" cx="127.802" style="fill:#A6A6B5;"></circle>
			<path d="M127.802,233.37c-4.069,0-7.379-3.311-7.379-7.379s3.31-7.379,7.379-7.379
				c4.069,0,7.38,3.311,7.38,7.379S131.871,233.37,127.802,233.37z M127.802,221.612c-2.415,0-4.379,1.965-4.379,4.379
				s1.964,4.379,4.379,4.379c2.415,0,4.38-1.965,4.38-4.379S130.217,221.612,127.802,221.612z" style="fill:#6E6E96;"></path>
		</g>
		<g>
			<circle r="5.879" cy="225.991" cx="146.913" style="fill:#A6A6B5;"></circle>
			<path d="M146.913,233.37c-4.068,0-7.379-3.311-7.379-7.379s3.311-7.379,7.379-7.379
				s7.379,3.311,7.379,7.379S150.981,233.37,146.913,233.37z M146.913,221.612c-2.414,0-4.379,1.965-4.379,4.379
				s1.965,4.379,4.379,4.379s4.379-1.965,4.379-4.379S149.327,221.612,146.913,221.612z" style="fill:#6E6E96;"></path>
		</g>
		<g>
			<circle r="5.879" cy="225.991" cx="166.025" style="fill:#A6A6B5;"></circle>
			<path d="M166.025,233.37c-4.068,0-7.379-3.311-7.379-7.379s3.311-7.379,7.379-7.379
				s7.379,3.311,7.379,7.379S170.094,233.37,166.025,233.37z M166.025,221.612c-2.414,0-4.379,1.965-4.379,4.379
				s1.965,4.379,4.379,4.379s4.379-1.965,4.379-4.379S168.439,221.612,166.025,221.612z" style="fill:#6E6E96;"></path>
		</g>
		<g>
			<circle r="5.879" cy="225.991" cx="185.139" style="fill:#A6A6B5;"></circle>
			<path d="M185.139,233.37c-4.069,0-7.38-3.311-7.38-7.379s3.311-7.379,7.38-7.379
				c4.068,0,7.379,3.311,7.379,7.379S189.207,233.37,185.139,233.37z M185.139,221.612c-2.415,0-4.38,1.965-4.38,4.379
				s1.965,4.379,4.38,4.379c2.414,0,4.379-1.965,4.379-4.379S187.553,221.612,185.139,221.612z" style="fill:#6E6E96;"></path>
		</g>
	</g>
	<rect height="27.858" width="3" style="fill:#6E6E96;" y="163.7" x="209.25"></rect>
	<rect height="42.28" width="3" style="fill:#6E6E96;" y="163.7" x="160.25"></rect>
	<rect height="42.28" width="3" style="fill:#6E6E96;" y="163.7" x="114.917"></rect>
	<path d="M4.361,165.059c0.564,2.354,1.237,4.66,2.002,6.922h222.532
		c2.252-2.166,4.371-4.479,6.353-6.922H4.361z" style="opacity:0.15;fill:#6E6E96;enable-background:new    ;"></path>
	<path d="M41.577,214.559H203.04c0.757-1.31,1.487-2.64,2.172-4
		H35.137C37.211,212.003,39.362,213.335,41.577,214.559z" style="opacity:0.15;fill:#6E6E96;enable-background:new    ;"></path>
	<path d="M4.061,163.7h232.267c0.918-1.188,1.806-2.399,2.656-3.642
		H3.343C3.555,161.283,3.794,162.497,4.061,163.7z" style="opacity:0.15;fill:#6E6E96;enable-background:new    ;"></path>
</g>
<g id="Layer_7">
	<g>
		<g>
			<rect height="21" width="21" style="fill:#EEFFB5;" y="173.309" x="174.75"></rect>
			<path d="M195.75,195.809h-21c-0.828,0-1.5-0.672-1.5-1.5v-21c0-0.828,0.672-1.5,1.5-1.5h21
				c0.828,0,1.5,0.672,1.5,1.5v21C197.25,195.137,196.578,195.809,195.75,195.809z M176.25,192.809h18v-18h-18V192.809z" style="fill:#6E6E96;"></path>
		</g>
		<path d="M185.75,195.809c-0.828,0-1.5-0.672-1.5-1.5v-21c0-0.828,0.672-1.5,1.5-1.5s1.5,0.672,1.5,1.5v21
			C187.25,195.137,186.578,195.809,185.75,195.809z" style="fill:#6E6E96;"></path>
		<g>
			<rect height="6.75" width="21" style="fill:#CDE675;" y="187.559" x="174.75"></rect>
			<path d="M195.75,195.809h-21c-0.828,0-1.5-0.672-1.5-1.5v-6.75c0-0.828,0.672-1.5,1.5-1.5h21
				c0.828,0,1.5,0.672,1.5,1.5v6.75C197.25,195.137,196.578,195.809,195.75,195.809z M176.25,192.809h18v-3.75h-18V192.809z" style="fill:#6E6E96;"></path>
		</g>
	</g>
	<g>
		<g>
			<rect height="21" width="21" style="fill:#FFFFFF;" y="173.309" x="129.25"></rect>
			<path d="M150.25,195.809h-21c-0.829,0-1.5-0.672-1.5-1.5v-21c0-0.828,0.671-1.5,1.5-1.5h21
				c0.828,0,1.5,0.672,1.5,1.5v21C151.75,195.137,151.078,195.809,150.25,195.809z M130.75,192.809h18v-18h-18V192.809z" style="fill:#6E6E96;"></path>
		</g>
		<g>
			<rect height="6.75" width="21" style="fill:#F0F0FF;" y="187.559" x="129.25"></rect>
			<path d="M150.25,195.809h-21c-0.829,0-1.5-0.672-1.5-1.5v-6.75c0-0.828,0.671-1.5,1.5-1.5h21
				c0.828,0,1.5,0.672,1.5,1.5v6.75C151.75,195.137,151.078,195.809,150.25,195.809z M130.75,192.809h18v-3.75h-18V192.809z" style="fill:#6E6E96;"></path>
		</g>
	</g>
	<rect height="11.466" width="23.829" style="opacity:0.15;fill:#6E6E96;enable-background:new    ;" y="187.648" x="127.744"></rect>
	<rect height="11.466" width="23.83" style="opacity:0.15;fill:#6E6E96;enable-background:new    ;" y="187.648" x="173.186"></rect>
</g>
<g id="Layer_2">
</g>
<g id="Layer_1_1_">
	<g style="display:none;" id="Layer_3_1_">
		<g style="display:inline;">
			<path d="M84.16,142.542c0-11.563-10.059-20.936-22.467-20.936
				c-0.194,0-0.385,0.009-0.576,0.014c-3.917-6.134-11.102-10.245-19.318-10.245c-12.409,0-22.469,9.372-22.469,20.936
				c0,0.149,0.009,0.297,0.012,0.446c-6.785,3.603-11.365,10.399-11.365,18.198c0,11.562,10.059,20.934,22.468,20.934
				c0.705,0,1.403-0.033,2.092-0.094c4.122,4.65,10.358,7.617,17.335,7.617c11.471,0,20.925-8.01,22.293-18.35
				C79.297,157.555,84.16,150.579,84.16,142.542z" style="fill:#D7F7E4;stroke:#CCCCDE;stroke-width:3;"></path>
			<path d="M61.314,120.853c-0.193,0-0.384,0.009-0.575,0.014
				c-3.141-4.918-8.383-8.534-14.573-9.775c4.898,1.229,9.023,4.208,11.558,8.175c0.165-0.004,2.416,3.886,2.583,3.886
				c10.648,0,15.601,5.738,15.601,15.66c0,6.896-2.583,11.291-8.704,14.302c-1.173,8.875-9.287,15.748-19.129,15.748
				c-5.99,0-11.34-2.544-14.877-6.533c-0.591,0.05-1.189,0.078-1.794,0.078c-10.649,0-19.013-5.048-19.013-14.968
				c0-6.683,2.99-9.973,8.432-13.938c-0.145-0.855-0.75-8.421,1.267-10.437c4.792-4.793,6.963-8.909,11.25-11.038
				c-8.414,3.025-14.385,10.627-14.385,19.536c0,0.147,0.009,0.299,0.012,0.446c-6.787,3.604-11.366,10.396-11.366,18.196
				c0,11.562,10.059,20.938,22.468,20.938c0.707,0,1.403-0.035,2.093-0.098c4.121,4.648,10.356,7.617,17.336,7.617
				c11.469,0,20.924-8.012,22.291-18.354c7.133-3.506,11.997-10.479,11.997-18.521C83.783,130.227,73.724,120.853,61.314,120.853z" style="opacity:0.1;fill:#6E6E96;enable-background:new    ;"></path>
			<path d="M29.336,153.865c0,0,11.635,2.277,11.635,13.662
				c0,0,3.132,19.342-8.976,33.026h27.96c-0.277-0.387-24.422-32.644,2.449-51.815C46.016,158.107,29.336,153.865,29.336,153.865z" style="fill:#EDE3DA;stroke:#CCCCDE;stroke-width:3;"></path>
			<g>
				<path d="M36.703,131.025" style="fill:#D57E58;"></path>
			</g>
			<path d="M55.43,153.833c0,0-17.654,22.793-4.085,46.722h8.611
				C59.955,200.555,42.04,175.518,55.43,153.833z" style="opacity:0.11;fill:#6E6E96;enable-background:new    ;"></path>
		</g>
		<g style="display:inline;">
			<path d="M254,141.26c0-10.828-9.42-19.604-21.04-19.604
				c-0.183,0-0.36,0.008-0.539,0.013c-3.669-5.744-10.396-9.595-18.091-9.595c-11.62,0-21.041,8.777-21.041,19.604
				c0,0.141,0.009,0.279,0.012,0.418c-6.354,3.375-10.644,9.739-10.644,17.043c0,10.825,9.421,19.604,21.04,19.604
				c0.66,0,1.312-0.032,1.96-0.089c3.858,4.354,9.698,7.134,16.233,7.134c10.738,0,19.596-7.499,20.875-17.185
				C249.445,155.316,254,148.786,254,141.26z" style="fill:#D7F7E4;stroke:#CCCCDE;stroke-width:3;"></path>
			<path d="M232.605,120.949c-0.184,0-0.358,0.008-0.539,0.012
				c-2.94-4.606-7.853-7.992-13.646-9.154c4.586,1.15,8.449,3.94,10.822,7.655c0.154-0.004,2.263,3.639,2.419,3.639
				c9.971,0,14.608,5.374,14.608,14.665c0,6.459-2.42,10.573-8.148,13.396c-1.1,8.311-8.698,14.742-17.914,14.742
				c-5.607,0-10.619-2.381-13.934-6.117c-0.557,0.047-1.112,0.072-1.682,0.072c-9.975,0-17.806-4.728-17.806-14.017
				c0-6.257,2.8-9.339,7.896-13.055c-0.138-0.806-0.701-7.885,1.188-9.772c4.485-4.488,6.521-8.343,10.535-10.337
				c-7.88,2.833-13.472,9.952-13.472,18.292c0,0.139,0.006,0.275,0.012,0.418c-6.354,3.373-10.646,9.736-10.646,17.041
				c0,10.824,9.421,19.604,21.041,19.604c0.661,0,1.313-0.032,1.959-0.088c3.859,4.354,9.699,7.133,16.234,7.133
				c10.739,0,19.594-7.5,20.875-17.187c6.68-3.285,11.231-9.813,11.231-17.342C253.646,129.727,244.227,120.949,232.605,120.949z" style="opacity:0.1;fill:#6E6E96;enable-background:new    ;"></path>
			<path d="M202.66,151.861c0,0,10.896,2.133,10.896,12.797
				c0,0,2.934,18.109-8.406,30.927h26.184c-0.26-0.358-22.87-30.565,2.294-48.521C218.279,155.836,202.66,151.861,202.66,151.861z" style="fill:#EDE3DA;stroke:#CCCCDE;stroke-width:3;"></path>
			<g>
				<path d="M209.561,130.477" style="fill:#D57E58;"></path>
			</g>
			<path d="M227.096,151.833c0,0-16.531,21.345-3.824,43.752h8.063
				C231.333,195.585,214.557,172.139,227.096,151.833z" style="opacity:0.11;fill:#6E6E96;enable-background:new    ;"></path>
		</g>
		<g style="display:inline;">
			<path d="M217.298,143.02c0-16.622-14.461-30.095-32.299-30.095
				c-0.278,0-0.554,0.012-0.828,0.019c-5.632-8.817-15.959-14.729-27.771-14.729c-17.838,0-32.301,13.475-32.301,30.096
				c0,0.215,0.014,0.429,0.018,0.646c-9.755,5.181-16.339,14.945-16.339,26.157c0,16.62,14.462,30.097,32.3,30.097
				c1.014,0,2.018-0.05,3.008-0.138c5.926,6.688,14.889,10.95,24.921,10.95c16.489,0,30.081-11.514,32.048-26.379
				C210.307,164.602,217.298,154.572,217.298,143.02z" style="fill:#D7F7E4;stroke:#CCCCDE;stroke-width:3;"></path>
			<path d="M184.456,111.841c-0.276,0-0.552,0.012-0.827,0.019
				c-4.516-7.071-12.051-12.269-20.949-14.052c7.041,1.766,12.971,6.049,16.614,11.751c0.237-0.006,3.474,5.586,3.713,5.586
				c15.308,0,22.429,8.248,22.429,22.511c0,9.914-3.715,16.231-12.513,20.562c-1.687,12.754-13.353,22.635-27.5,22.635
				c-8.61,0-16.302-3.655-21.387-9.396c-0.851,0.071-1.71,0.114-2.58,0.114c-15.31,0-27.332-7.254-27.332-21.516
				c0-9.604,4.298-14.337,12.12-20.039c-0.209-1.234-1.077-12.104,1.82-15.002c6.89-6.89,10.011-12.808,16.174-15.868
				c-12.096,4.349-20.679,15.277-20.679,28.08c0,0.215,0.011,0.429,0.017,0.646c-9.756,5.178-16.34,14.947-16.34,26.156
				c0,16.621,14.461,30.097,32.3,30.097c1.017,0,2.017-0.049,3.008-0.135c5.925,6.688,14.89,10.948,24.922,10.948
				c16.487,0,30.078-11.515,32.046-26.379c10.254-5.043,17.244-15.069,17.244-26.623
				C216.756,125.314,202.295,111.841,184.456,111.841z" style="opacity:0.1;fill:#6E6E96;enable-background:new    ;"></path>
			<path d="M138.484,159.296c0,0,16.727,3.272,16.727,19.644
				c0,0,4.504,27.806-12.904,47.479h40.195c-0.398-0.555-35.107-46.922,3.521-74.483
				C162.464,165.396,138.484,159.296,138.484,159.296z" style="fill:#EDE3DA;stroke:#CCCCDE;stroke-width:3;"></path>
			<g>
				<path d="M149.077,126.465" style="fill:#D57E58;"></path>
			</g>
			<path d="M175.997,159.251c0,0-25.378,32.767-5.873,67.164h12.378
				C182.502,226.415,156.748,190.423,175.997,159.251z" style="opacity:0.11;fill:#6E6E96;enable-background:new    ;"></path>
		</g>
		<g style="display:inline;">
			<path d="M145.461,144.131c0-13.645-11.873-24.707-26.517-24.707
				c-0.229,0-0.454,0.01-0.68,0.016c-4.624-7.239-13.102-12.092-22.8-12.092c-14.644,0-26.518,11.063-26.518,24.707
				c0,0.178,0.012,0.354,0.015,0.529c-8.01,4.251-13.414,12.271-13.414,21.477c0,13.646,11.872,24.707,26.518,24.707
				c0.832,0,1.655-0.041,2.469-0.106c4.864,5.485,12.224,8.985,20.46,8.985c13.537,0,24.695-9.45,26.309-21.653
				C139.721,161.85,145.461,153.617,145.461,144.131z" style="fill:#D7F7E4;stroke:#CCCCDE;stroke-width:3;"></path>
			<path d="M118.498,118.535c-0.228,0-0.452,0.009-0.679,0.015
				c-3.707-5.805-9.894-10.072-17.199-11.537c5.78,1.45,10.648,4.966,13.641,9.647c0.194-0.005,2.851,4.586,3.048,4.586
				c12.567,0,18.414,6.771,18.414,18.48c0,8.139-3.05,13.325-10.271,16.881c-1.384,10.472-10.961,18.584-22.576,18.584
				c-7.069,0-13.384-3.004-17.559-7.715c-0.698,0.061-1.404,0.096-2.118,0.096c-12.568,0-22.438-5.957-22.438-17.664
				c0-7.885,3.528-11.771,9.949-16.452c-0.171-1.015-0.884-9.938,1.496-12.316c5.655-5.657,8.218-10.515,13.277-13.028
				c-9.93,3.571-16.978,12.542-16.978,23.053c0,0.177,0.01,0.353,0.015,0.528c-8.011,4.25-13.415,12.271-13.415,21.477
				c0,13.645,11.873,24.706,26.518,24.706c0.834,0,1.655-0.04,2.469-0.108c4.864,5.488,12.224,8.988,20.461,8.988
				c13.536,0,24.693-9.451,26.311-21.656c8.418-4.141,14.158-12.371,14.158-21.854C145.016,129.598,133.143,118.535,118.498,118.535
				z" style="opacity:0.1;fill:#6E6E96;enable-background:new    ;"></path>
			<path d="M80.757,157.494c0,0,13.731,2.688,13.731,16.128
				c0,0,3.697,22.823-10.595,38.978h33c-0.328-0.455-28.824-38.521,2.89-61.151C100.443,162.502,80.757,157.494,80.757,157.494z" style="fill:#EDE3DA;stroke:#CCCCDE;stroke-width:3;"></path>
			<g>
				<path d="M89.453,130.541" style="fill:#D57E58;"></path>
			</g>
			<path d="M111.553,157.458c0,0-20.835,26.899-4.821,55.142h10.162
				C116.894,212.6,95.75,183.049,111.553,157.458z" style="opacity:0.11;fill:#6E6E96;enable-background:new    ;"></path>
		</g>
		<g style="display:inline;">
			<path d="M252.684,168.268c0-12.345-10.74-22.35-23.988-22.35
				c-0.202,0-0.406,0.008-0.61,0.014c-4.187-6.549-11.854-10.938-20.625-10.938c-13.248,0-23.985,10.007-23.985,22.35
				c0,0.161,0.012,0.318,0.014,0.479c-7.244,3.849-12.135,11.104-12.135,19.431c0,12.348,10.736,22.354,23.985,22.354
				c0.753,0,1.497-0.039,2.229-0.104c4.4,4.969,11.062,8.135,18.512,8.135c12.245,0,22.339-8.553,23.799-19.593
				C247.49,184.295,252.684,176.85,252.684,168.268z" style="fill:#D7F7E4;stroke:#CCCCDE;stroke-width:3;"></path>
			<path d="M228.292,145.111c-0.206,0-0.409,0.011-0.614,0.016
				c-3.354-5.251-8.949-9.111-15.558-10.438c5.229,1.312,9.633,4.492,12.339,8.728c0.175-0.004,2.579,4.149,2.757,4.149
				c11.368,0,16.655,6.123,16.655,16.718c0,7.362-2.757,12.055-9.291,15.271c-1.252,9.473-9.915,16.813-20.423,16.813
				c-6.396,0-12.106-2.72-15.884-6.979c-0.631,0.055-1.271,0.086-1.916,0.086c-11.368,0-20.299-5.389-20.299-15.979
				c0-7.135,3.189-10.646,9.002-14.885c-0.156-0.918-0.804-8.987,1.353-11.142c5.116-5.116,7.435-9.513,12.011-11.784
				c-8.98,3.229-15.357,11.346-15.357,20.854c0,0.159,0.013,0.316,0.017,0.479c-7.246,3.847-12.137,11.104-12.137,19.429
				c0,12.343,10.737,22.35,23.987,22.35c0.754,0,1.496-0.035,2.231-0.1c4.401,4.966,11.06,8.132,18.509,8.132
				c12.245,0,22.338-8.553,23.799-19.592c7.615-3.743,12.812-11.191,12.812-19.771C252.279,155.118,241.541,145.111,228.292,145.111
				z" style="opacity:0.1;fill:#6E6E96;enable-background:new    ;"></path>
			<path d="M194.15,180.355c0,0,12.422,2.431,12.422,14.588
				c0,0,3.345,20.646-9.584,35.259h29.853c-0.296-0.41-26.073-34.847,2.615-55.317C211.96,184.887,194.15,180.355,194.15,180.355z" style="fill:#EDE3DA;stroke:#CCCCDE;stroke-width:3;"></path>
			<g>
				<path d="M202.018,155.975" style="fill:#D57E58;"></path>
			</g>
			<path d="M222.01,180.322c0,0-18.847,24.334-4.361,49.88h9.192
				C226.841,230.202,207.714,203.473,222.01,180.322z" style="opacity:0.11;fill:#6E6E96;enable-background:new    ;"></path>
		</g>
		<g style="display:inline;">
			<path d="M88.418,166.416c0-13.111-11.408-23.738-25.479-23.738
				c-0.22,0-0.436,0.008-0.653,0.014c-4.443-6.954-12.589-11.614-21.907-11.614c-14.071,0-25.48,10.629-25.48,23.737
				c0,0.17,0.011,0.336,0.015,0.507c-7.695,4.086-12.889,11.795-12.889,20.64c0,13.107,11.407,23.737,25.479,23.737
				c0.8,0,1.59-0.041,2.372-0.104c4.674,5.271,11.745,8.639,19.659,8.639c13.007,0,23.729-9.082,25.279-20.81
				C82.903,183.439,88.418,175.531,88.418,166.416z" style="fill:#D7F7E4;stroke:#CCCCDE;stroke-width:3;"></path>
			<path d="M62.511,141.822c-0.219,0-0.435,0.01-0.652,0.015
				c-3.562-5.577-9.506-9.678-16.525-11.085c5.553,1.393,10.231,4.771,13.106,9.27c0.186-0.004,2.739,4.406,2.928,4.406
				c12.076,0,17.692,6.506,17.692,17.758c0,7.82-2.929,12.806-9.87,16.222c-1.33,10.063-10.531,17.854-21.693,17.854
				c-6.792,0-12.859-2.886-16.871-7.412c-0.67,0.058-1.348,0.092-2.035,0.092c-12.076,0-21.561-5.723-21.561-16.975
				c0-7.574,3.391-11.308,9.561-15.807c-0.165-0.975-0.85-9.549,1.437-11.836c5.435-5.434,7.896-10.103,12.758-12.516
				c-9.541,3.43-16.313,12.051-16.313,22.146c0,0.17,0.01,0.338,0.014,0.508c-7.696,4.084-12.889,11.792-12.889,20.639
				c0,13.106,11.407,23.735,25.479,23.735c0.801,0,1.591-0.039,2.373-0.104c4.674,5.272,11.745,8.639,19.659,8.639
				c13.006,0,23.728-9.081,25.278-20.809c8.089-3.979,13.604-11.892,13.604-21.002C87.991,152.449,76.583,141.822,62.511,141.822z" style="opacity:0.1;fill:#6E6E96;enable-background:new    ;"></path>
			<path d="M26.248,179.256c0,0,13.193,2.583,13.193,15.496
				c0,0,3.553,21.932-10.179,37.45h31.707c-0.314-0.437-27.694-37.015,2.777-58.759C45.163,184.066,26.248,179.256,26.248,179.256z" style="fill:#EDE3DA;stroke:#CCCCDE;stroke-width:3;"></path>
			<g>
				<path d="M34.603,153.357" style="fill:#D57E58;"></path>
			</g>
			<path d="M55.838,179.221c0,0-20.02,25.848-4.633,52.981h9.764
				C60.969,232.202,40.654,203.811,55.838,179.221z" style="opacity:0.11;fill:#6E6E96;enable-background:new    ;"></path>
		</g>
	</g>
	<g style="display:none;" id="Layer_3">
		<g style="display:inline;">
			<path d="M85.16,142.542c0-11.563-10.059-20.936-22.467-20.936
				c-0.194,0-0.385,0.009-0.576,0.014c-3.917-6.134-11.102-10.245-19.318-10.245c-12.409,0-22.469,9.372-22.469,20.936
				c0,0.149,0.009,0.297,0.012,0.446c-6.785,3.603-11.365,10.399-11.365,18.198c0,11.562,10.059,20.934,22.468,20.934
				c0.705,0,1.403-0.033,2.092-0.094c4.122,4.65,10.358,7.617,17.335,7.617c11.471,0,20.925-8.01,22.293-18.35
				C80.297,157.555,85.16,150.579,85.16,142.542z" style="fill:#D7F7E4;stroke:#CCCCDE;stroke-width:3;"></path>
			<path d="M62.314,120.853c-0.193,0-0.384,0.009-0.575,0.014
				c-3.141-4.918-8.383-8.534-14.573-9.775c4.898,1.229,9.023,4.208,11.558,8.175c0.165-0.004,2.416,3.886,2.583,3.886
				c10.648,0,15.601,5.738,15.601,15.66c0,6.896-2.583,11.291-8.704,14.302c-1.173,8.875-9.287,15.748-19.129,15.748
				c-5.99,0-11.34-2.544-14.877-6.534c-0.591,0.05-1.189,0.079-1.794,0.079c-10.649,0-19.013-5.048-19.013-14.968
				c0-6.683,2.99-9.973,8.432-13.938c-0.145-0.856-0.75-8.421,1.267-10.437c4.792-4.793,6.963-8.909,11.25-11.038
				c-8.414,3.025-14.385,10.627-14.385,19.535c0,0.148,0.009,0.299,0.012,0.447c-6.787,3.604-11.366,10.396-11.366,18.196
				c0,11.563,10.059,20.937,22.468,20.937c0.707,0,1.403-0.035,2.093-0.097c4.121,4.649,10.356,7.617,17.336,7.617
				c11.469,0,20.924-8.011,22.291-18.353c7.133-3.506,11.997-10.479,11.997-18.521C84.783,130.227,74.724,120.853,62.314,120.853z" style="opacity:0.1;fill:#6E6E96;enable-background:new    ;"></path>
			<path d="M30.336,153.865c0,0,11.635,2.277,11.635,13.662
				c0,0,3.132,19.342-8.976,33.026h27.96c-0.277-0.386-24.422-32.643,2.449-51.815C47.016,158.107,30.336,153.865,30.336,153.865z" style="fill:#EDE3DA;stroke:#CCCCDE;stroke-width:3;"></path>
			<g>
				<path d="M37.703,131.025" style="fill:#D57E58;"></path>
			</g>
			<path d="M56.43,153.833c0,0-17.654,22.793-4.085,46.722h8.611
				C60.955,200.555,43.04,175.518,56.43,153.833z" style="opacity:0.11;fill:#6E6E96;enable-background:new    ;"></path>
		</g>
		<g style="display:inline;">
			<path d="M255,141.26c0-10.828-9.42-19.604-21.04-19.604
				c-0.183,0-0.36,0.008-0.539,0.013c-3.669-5.744-10.396-9.595-18.091-9.595c-11.62,0-21.041,8.777-21.041,19.604
				c0,0.141,0.009,0.279,0.012,0.418c-6.354,3.375-10.644,9.739-10.644,17.043c0,10.825,9.421,19.604,21.04,19.604
				c0.66,0,1.312-0.032,1.96-0.089c3.858,4.354,9.698,7.134,16.233,7.134c10.739,0,19.596-7.499,20.875-17.185
				C250.445,155.316,255,148.786,255,141.26z" style="fill:#D7F7E4;stroke:#CCCCDE;stroke-width:3;"></path>
			<path d="M233.605,120.949c-0.183,0-0.358,0.008-0.539,0.012
				c-2.94-4.606-7.852-7.992-13.646-9.154c4.586,1.15,8.449,3.94,10.822,7.655c0.154-0.004,2.263,3.639,2.419,3.639
				c9.971,0,14.608,5.374,14.608,14.665c0,6.459-2.42,10.573-8.148,13.396c-1.1,8.31-8.698,14.743-17.914,14.743
				c-5.607,0-10.619-2.382-13.934-6.118c-0.556,0.047-1.112,0.072-1.681,0.072c-9.975,0-17.806-4.727-17.806-14.016
				c0-6.257,2.8-9.339,7.896-13.055c-0.138-0.805-0.701-7.885,1.188-9.772c4.486-4.488,6.521-8.343,10.535-10.337
				c-7.879,2.833-13.471,9.952-13.471,18.292c0,0.14,0.006,0.276,0.012,0.419c-6.355,3.372-10.646,9.736-10.646,17.04
				c0,10.825,9.42,19.604,21.041,19.604c0.661,0,1.313-0.032,1.959-0.088c3.859,4.354,9.699,7.133,16.234,7.133
				c10.74,0,19.594-7.5,20.875-17.186c6.68-3.285,11.232-9.814,11.232-17.343C254.646,129.727,245.227,120.949,233.605,120.949z" style="opacity:0.1;fill:#6E6E96;enable-background:new    ;"></path>
			<path d="M203.66,151.861c0,0,10.896,2.133,10.896,12.797
				c0,0,2.934,18.109-8.406,30.927h26.184c-0.26-0.358-22.87-30.565,2.294-48.521C219.279,155.836,203.66,151.861,203.66,151.861z" style="fill:#EDE3DA;stroke:#CCCCDE;stroke-width:3;"></path>
			<g>
				<path d="M210.561,130.477" style="fill:#D57E58;"></path>
			</g>
			<path d="M228.096,151.833c0,0-16.531,21.345-3.824,43.752h8.063
				C232.333,195.585,215.557,172.139,228.096,151.833z" style="opacity:0.11;fill:#6E6E96;enable-background:new    ;"></path>
		</g>
		<g style="display:inline;">
			<path d="M218.298,143.02c0-16.622-14.461-30.095-32.299-30.095
				c-0.278,0-0.554,0.012-0.828,0.019c-5.632-8.817-15.959-14.729-27.771-14.729c-17.838,0-32.301,13.475-32.301,30.096
				c0,0.215,0.014,0.429,0.018,0.646c-9.755,5.18-16.339,14.947-16.339,26.158c0,16.62,14.462,30.096,32.3,30.096
				c1.014,0,2.018-0.05,3.008-0.137c5.926,6.688,14.889,10.95,24.921,10.95c16.489,0,30.081-11.514,32.048-26.379
				C211.307,164.602,218.298,154.572,218.298,143.02z" style="fill:#D7F7E4;stroke:#CCCCDE;stroke-width:3;"></path>
			<path d="M185.456,111.841c-0.276,0-0.552,0.012-0.827,0.019
				c-4.516-7.071-12.051-12.269-20.949-14.052c7.041,1.766,12.971,6.049,16.614,11.751c0.237-0.006,3.474,5.586,3.713,5.586
				c15.308,0,22.429,8.248,22.429,22.511c0,9.914-3.715,16.231-12.513,20.562c-1.687,12.754-13.353,22.635-27.5,22.635
				c-8.61,0-16.302-3.655-21.387-9.396c-0.851,0.071-1.71,0.114-2.58,0.114c-15.31,0-27.332-7.254-27.332-21.516
				c0-9.604,4.298-14.337,12.12-20.039c-0.209-1.234-1.077-12.104,1.82-15.002c6.89-6.89,10.011-12.808,16.174-15.868
				c-12.096,4.349-20.679,15.277-20.679,28.08c0,0.215,0.011,0.429,0.017,0.646c-9.756,5.178-16.34,14.948-16.34,26.157
				c0,16.62,14.461,30.096,32.3,30.096c1.017,0,2.017-0.049,3.008-0.135c5.925,6.688,14.89,10.948,24.922,10.948
				c16.487,0,30.078-11.515,32.046-26.379c10.254-5.043,17.244-15.069,17.244-26.623
				C217.756,125.314,203.295,111.841,185.456,111.841z" style="opacity:0.1;fill:#6E6E96;enable-background:new    ;"></path>
			<path d="M139.484,159.296c0,0,16.727,3.272,16.727,19.644
				c0,0,4.504,27.805-12.904,47.479h40.195c-0.398-0.554-35.107-46.922,3.521-74.484
				C163.464,165.396,139.484,159.296,139.484,159.296z" style="fill:#EDE3DA;stroke:#CCCCDE;stroke-width:3;"></path>
			<g>
				<path d="M150.077,126.465" style="fill:#D57E58;"></path>
			</g>
			<path d="M176.997,159.251c0,0-25.378,32.767-5.873,67.164h12.378
				C183.502,226.415,157.748,190.423,176.997,159.251z" style="opacity:0.11;fill:#6E6E96;enable-background:new    ;"></path>
		</g>
		<g style="display:inline;">
			<path d="M146.461,144.131c0-13.645-11.873-24.707-26.517-24.707
				c-0.229,0-0.454,0.01-0.68,0.016c-4.624-7.239-13.102-12.092-22.8-12.092c-14.644,0-26.518,11.063-26.518,24.707
				c0,0.178,0.012,0.354,0.015,0.529c-8.01,4.251-13.414,12.271-13.414,21.477c0,13.646,11.872,24.707,26.518,24.707
				c0.832,0,1.655-0.041,2.469-0.107c4.864,5.486,12.224,8.986,20.46,8.986c13.537,0,24.695-9.45,26.309-21.654
				C140.721,161.85,146.461,153.617,146.461,144.131z" style="fill:#D7F7E4;stroke:#CCCCDE;stroke-width:3;"></path>
			<path d="M119.498,118.535c-0.228,0-0.452,0.009-0.679,0.015
				c-3.707-5.805-9.894-10.072-17.199-11.537c5.78,1.45,10.648,4.966,13.641,9.647c0.194-0.005,2.851,4.586,3.048,4.586
				c12.567,0,18.414,6.771,18.414,18.48c0,8.139-3.05,13.325-10.271,16.881c-1.384,10.472-10.961,18.584-22.576,18.584
				c-7.069,0-13.384-3.004-17.559-7.715c-0.698,0.061-1.404,0.096-2.118,0.096c-12.568,0-22.438-5.957-22.438-17.664
				c0-7.885,3.528-11.771,9.949-16.452c-0.171-1.015-0.884-9.938,1.496-12.316c5.655-5.657,8.218-10.515,13.277-13.028
				c-9.93,3.571-16.978,12.542-16.978,23.053c0,0.177,0.01,0.353,0.015,0.528c-8.011,4.25-13.415,12.271-13.415,21.477
				c0,13.645,11.873,24.706,26.518,24.706c0.834,0,1.655-0.04,2.469-0.108c4.864,5.488,12.224,8.988,20.461,8.988
				c13.536,0,24.693-9.451,26.311-21.656c8.418-4.141,14.158-12.371,14.158-21.854C146.016,129.598,134.143,118.535,119.498,118.535
				z" style="opacity:0.1;fill:#6E6E96;enable-background:new    ;"></path>
			<path d="M81.757,157.494c0,0,13.731,2.688,13.731,16.128
				c0,0,3.697,22.823-10.595,38.978h33c-0.328-0.455-28.824-38.521,2.89-61.151C101.443,162.502,81.757,157.494,81.757,157.494z" style="fill:#EDE3DA;stroke:#CCCCDE;stroke-width:3;"></path>
			<g>
				<path d="M90.453,130.541" style="fill:#D57E58;"></path>
			</g>
			<path d="M112.553,157.458c0,0-20.835,26.899-4.821,55.142h10.162
				C117.894,212.6,96.75,183.049,112.553,157.458z" style="opacity:0.11;fill:#6E6E96;enable-background:new    ;"></path>
		</g>
		<g style="display:inline;">
			<path d="M253.684,168.268c0-12.345-10.74-22.35-23.988-22.35
				c-0.203,0-0.407,0.008-0.611,0.014c-4.186-6.549-11.854-10.938-20.625-10.938c-13.248,0-23.986,10.007-23.986,22.35
				c0,0.161,0.012,0.318,0.014,0.479c-7.244,3.848-12.135,11.104-12.135,19.43c0,12.347,10.737,22.353,23.986,22.353
				c0.753,0,1.497-0.039,2.23-0.103c4.4,4.967,11.061,8.133,18.511,8.133c12.245,0,22.339-8.551,23.799-19.591
				C248.49,184.295,253.684,176.85,253.684,168.268z" style="fill:#D7F7E4;stroke:#CCCCDE;stroke-width:3;"></path>
			<path d="M229.292,145.111c-0.206,0-0.409,0.011-0.614,0.016
				c-3.354-5.251-8.949-9.111-15.558-10.438c5.229,1.312,9.633,4.492,12.339,8.728c0.175-0.004,2.579,4.149,2.757,4.149
				c11.368,0,16.655,6.123,16.655,16.718c0,7.362-2.757,12.055-9.291,15.271c-1.252,9.473-9.915,16.813-20.423,16.813
				c-6.396,0-12.106-2.72-15.884-6.979c-0.631,0.055-1.271,0.086-1.916,0.086c-11.368,0-20.299-5.389-20.299-15.979
				c0-7.135,3.19-10.646,9.002-14.885c-0.156-0.918-0.803-8.987,1.353-11.141c5.116-5.117,7.435-9.513,12.011-11.785
				c-8.98,3.229-15.357,11.347-15.357,20.854c0,0.159,0.012,0.317,0.016,0.479c-7.246,3.846-12.137,11.103-12.137,19.428
				c0,12.343,10.738,22.35,23.988,22.35c0.754,0,1.496-0.035,2.231-0.1c4.401,4.966,11.06,8.132,18.509,8.132
				c12.245,0,22.338-8.552,23.799-19.591c7.615-3.744,12.811-11.192,12.811-19.771C253.279,155.118,242.541,145.111,229.292,145.111
				z" style="opacity:0.1;fill:#6E6E96;enable-background:new    ;"></path>
			<path d="M195.15,180.355c0,0,12.422,2.431,12.422,14.588
				c0,0,3.345,20.646-9.584,35.259h29.853c-0.296-0.41-26.073-34.847,2.615-55.317C212.96,184.887,195.15,180.355,195.15,180.355z" style="fill:#EDE3DA;stroke:#CCCCDE;stroke-width:3;"></path>
			<g>
				<path d="M203.018,155.975" style="fill:#D57E58;"></path>
			</g>
			<path d="M223.01,180.322c0,0-18.847,24.334-4.361,49.88h9.192
				C227.841,230.202,208.714,203.473,223.01,180.322z" style="opacity:0.11;fill:#6E6E96;enable-background:new    ;"></path>
		</g>
		<g style="display:inline;">
			<path d="M89.418,166.416c0-13.111-11.408-23.738-25.479-23.738
				c-0.22,0-0.436,0.008-0.653,0.014c-4.443-6.954-12.589-11.615-21.907-11.615c-14.071,0-25.48,10.629-25.48,23.738
				c0,0.17,0.011,0.336,0.015,0.507c-7.695,4.086-12.889,11.795-12.889,20.639c0,13.108,11.407,23.738,25.479,23.738
				c0.8,0,1.59-0.041,2.372-0.105c4.674,5.273,11.745,8.64,19.659,8.64c13.007,0,23.729-9.082,25.279-20.81
				C83.903,183.439,89.418,175.531,89.418,166.416z" style="fill:#D7F7E4;stroke:#CCCCDE;stroke-width:3;"></path>
			<path d="M63.511,141.822c-0.219,0-0.435,0.01-0.652,0.015
				c-3.562-5.577-9.506-9.678-16.525-11.085c5.553,1.393,10.231,4.771,13.106,9.27c0.186-0.004,2.739,4.406,2.928,4.406
				c12.076,0,17.692,6.506,17.692,17.758c0,7.82-2.929,12.806-9.87,16.222c-1.33,10.063-10.531,17.854-21.693,17.854
				c-6.792,0-12.859-2.886-16.871-7.412c-0.67,0.058-1.348,0.092-2.035,0.092c-12.076,0-21.561-5.723-21.561-16.975
				c0-7.574,3.391-11.308,9.561-15.807c-0.165-0.975-0.85-9.549,1.437-11.836c5.435-5.434,7.896-10.103,12.758-12.516
				c-9.541,3.43-16.313,12.051-16.313,22.147c0,0.17,0.01,0.338,0.014,0.508c-7.696,4.084-12.889,11.792-12.889,20.638
				c0,13.107,11.407,23.736,25.479,23.736c0.801,0,1.591-0.039,2.373-0.104c4.674,5.272,11.745,8.638,19.659,8.638
				c13.006,0,23.728-9.081,25.278-20.808c8.089-3.979,13.604-11.892,13.604-21.002C88.991,152.449,77.583,141.822,63.511,141.822z" style="opacity:0.1;fill:#6E6E96;enable-background:new    ;"></path>
			<path d="M27.248,179.256c0,0,13.193,2.583,13.193,15.496
				c0,0,3.553,21.932-10.179,37.45h31.707c-0.314-0.437-27.694-37.015,2.777-58.759C46.163,184.066,27.248,179.256,27.248,179.256z" style="fill:#EDE3DA;stroke:#CCCCDE;stroke-width:3;"></path>
			<g>
				<path d="M35.603,153.357" style="fill:#D57E58;"></path>
			</g>
			<path d="M56.838,179.221c0,0-20.02,25.848-4.633,52.981h9.764
				C61.969,232.202,41.654,203.811,56.838,179.221z" style="opacity:0.11;fill:#6E6E96;enable-background:new    ;"></path>
		</g>
	</g>
</g>
<g id="Layer_5">
	<g>
		<g>
			
				<rect height="27.534" width="15.917" style="fill:#F0F0FF;" transform="matrix(0.7071 -0.7071 0.7071 0.7071 -44.5234 177.7959)" y="128.872" x="184.385"></rect>
			<path d="M196.451,159.502c-0.397,0-0.779-0.158-1.061-0.439l-19.47-19.47
				c-0.586-0.586-0.586-1.535,0-2.121l11.255-11.255c0.586-0.586,1.535-0.586,2.121,0l19.47,19.469c0.586,0.586,0.586,1.535,0,2.121
				l-11.255,11.256C197.23,159.344,196.849,159.502,196.451,159.502z M179.103,138.532l17.349,17.349l9.134-9.135l-17.349-17.348
				L179.103,138.532z" style="fill:#6E6E96;"></path>
		</g>
		<g>
			
				<rect height="9.034" width="29.189" style="fill:#CCCCDE;" transform="matrix(0.7071 -0.7071 0.7071 0.7071 -48.4838 187.3618)" y="147.689" x="187.329"></rect>
			<path d="M194.798,167.22c-0.397,0-0.779-0.158-1.061-0.439l-6.388-6.388c-0.586-0.586-0.586-1.535,0-2.121
				l20.639-20.639c0.586-0.586,1.535-0.586,2.121,0l6.389,6.387c0.281,0.281,0.439,0.662,0.439,1.061
				c0,0.397-0.158,0.779-0.439,1.061l-20.64,20.64C195.577,167.062,195.195,167.22,194.798,167.22z M190.531,159.332l4.267,4.267
				l18.519-18.519l-4.268-4.266L190.531,159.332z" style="fill:#6E6E96;"></path>
		</g>
		<path d="M218.718,159.73c-0.384,0-0.768-0.146-1.061-0.439l-8.215-8.213c-0.586-0.586-0.586-1.535,0-2.121
			s1.535-0.586,2.121,0l8.215,8.213c0.586,0.586,0.586,1.535,0,2.121C219.485,159.584,219.102,159.73,218.718,159.73z" style="fill:#6E6E96;"></path>
		<path d="M208.068,170.379c-0.384,0-0.768-0.146-1.061-0.439l-8.213-8.213c-0.586-0.586-0.586-1.535,0-2.121
			s1.535-0.586,2.121,0l8.213,8.213c0.586,0.586,0.586,1.535,0,2.121C208.836,170.232,208.452,170.379,208.068,170.379z" style="fill:#6E6E96;"></path>
		
			<rect height="5.999" width="20.075" style="fill:#FFFFFF;" transform="matrix(0.7071 0.7071 -0.7071 0.7071 154.6532 -95.4534)" y="135.966" x="182.517"></rect>
		
			<rect height="20.362" width="4.589" style="opacity:0.15;fill:#6E6E96;enable-background:new    ;" transform="matrix(0.7069 -0.7073 0.7073 0.7069 -47.3303 174.663)" y="134.259" x="184.787"></rect>
		
			<rect height="9.035" width="10.456" style="opacity:0.25;fill:#6E6E96;enable-background:new    ;" transform="matrix(0.707 -0.7072 0.7072 0.707 -55.1076 184.6533)" y="154.317" x="190.073"></rect>
		
			<rect height="6.022" width="4.732" style="fill:#F0F0FF;" transform="matrix(0.7072 -0.707 0.707 0.7072 -44.0481 189.1102)" y="144.726" x="203.933"></rect>
	</g>
	<polyline points="32.359,197.188 32.359,251.725 98.781,251.725 98.781,191.88" style="fill:#FDD089;"></polyline>
	<path d="M33.367,203.598c0,0,28.513,27.432,64.386-0.964v-20.218H33.367V203.598z" style="fill:#F2BE7E;"></path>
	<polygon points="45.221,219.189 45.221,235.76 58.318,235.76 
		58.318,222.311" style="opacity:0.4;fill:#FFFFFF;enable-background:new    ;"></polygon>
	<polygon points="84.13,207.995 84.13,238.199 97.49,238.199 97.49,202.893" style="fill:#F2BE7E;"></polygon>
	<polygon points="100.376,253.281 30.955,253.281 30.955,197.245 33.955,197.245 33.955,250.281 
		97.376,250.281 97.376,194.857 100.376,194.857" style="fill:#6E6E96;"></polygon>
	<g>
		<path d="M175.275,107.059l-7.91-1.167c2.517-17.279-0.166-29.535-7.971-36.424
			c-13.263-11.705-37.604-4.943-37.851-4.873l-2.193-7.737c1.166-0.334,28.734-8.039,45.29,6.538
			C174.639,72.198,178.217,86.888,175.275,107.059z" style="fill:#65C8D0;"></path>
		<path d="M176.543,108.762l-10.878-1.604l0.216-1.482c2.439-16.746-0.077-28.55-7.479-35.083
			c-4.891-4.315-11.975-6.503-21.056-6.503c-8.382,0-15.325,1.93-15.394,1.949l-1.442,0.406L117.5,55.828l1.438-0.412
			c0.854-0.245,8.621-2.389,18.325-2.389c11.858,0,21.403,3.11,28.369,9.243c10.403,9.159,14.147,24.301,11.128,45.005
			L176.543,108.762z M169.055,104.625l4.942,0.729c2.479-18.869-0.999-32.602-10.348-40.833c-6.402-5.637-15.279-8.495-26.387-8.495
			c-7.244,0-13.332,1.239-16.051,1.896l1.379,4.866c2.567-0.592,8.244-1.7,14.755-1.7c9.834,0,17.586,2.44,23.04,7.254
			C168.367,75.387,171.28,87.588,169.055,104.625z" style="fill:#6E6E96;"></path>
	</g>
	<g>
		<path d="M24.541,145.812c-0.305-1.588-7.254-39.14,9.036-58.839c6.408-7.75,15.414-11.678,26.772-11.678
			c28.016,0,28.324,0.214,29.62,1.118l-4.747,6.806c0.805,0.562,1.584,0.674,1.732,0.691c-0.285-0.033-3.449-0.317-26.605-0.317
			c-8.883,0-15.544,2.831-20.368,8.657c-13.808,16.68-7.356,51.656-7.29,52.007L24.541,145.812z" style="fill:#65C8D0;"></path>
		<path d="M23.351,147.566l-0.283-1.471c-0.311-1.616-7.412-39.804,9.354-60.079
			c6.705-8.11,16.102-12.222,27.928-12.222c28.489,0,28.754,0.185,30.478,1.388l1.23,0.858l-5.027,7.208l-0.25,2.151
			c0,0-0.001,0-0.001,0l0,0c0,0,0,0-0.001,0c-0.139-0.016-3.06-0.307-26.429-0.307c-8.407,0-14.692,2.654-19.213,8.114
			c-13.307,16.075-7.036,50.428-6.971,50.773l0.276,1.471L23.351,147.566z M60.349,76.795c-10.889,0-19.507,3.746-25.616,11.134
			c-8.176,9.887-10.167,24.647-10.398,35.288c-0.206,9.496,0.903,17.609,1.423,20.835l5.206-0.993
			c-1.114-7.001-4.859-36.4,7.861-51.766c5.126-6.191,12.167-9.201,21.523-9.201c13.658,0,20.393,0.098,23.698,0.188l3.549-5.088
			C85.271,76.899,79.11,76.795,60.349,76.795z" style="fill:#6E6E96;"></path>
	</g>
	<path d="M133.316,75.138l53.199,40.486c5.551,4.423,7.243,13.101,3.758,19.285l-2.402,4.266
		c-3.487,6.187-11.723,9.074-18.309,6.425l-51.796-20.856" style="fill:#FDD089;"></path>
	<path d="M179.477,116.477L141.947,89.35l-2.491,9.68l42.896,27.095
		C182.352,126.124,184.368,119.747,179.477,116.477z" style="opacity:0.4;fill:#FFFFFF;enable-background:new    ;"></path>
	<path d="M177.835,138.034c0,0,9.226,3.385,12.748-6.156l-4.288,10.522L177.835,138.034z" style="fill:#FABE78;"></path>
	<polygon points="139.082,79.508 128.153,112.755 186.574,141.24 176.844,146.581 118.619,125.334 
		133.289,75.462" style="fill:#FABE78;"></polygon>
	<path d="M34.569,133.271l61.225-70.49c6.044-7.283,17.736-9.44,25.981-4.792l1.428,0.805
		c8.244,4.646,12.331,15.722,9.082,24.61l-24.847,70.755" style="fill:#FDD089;"></path>
	<path d="M116.825,60.088c0,0,8.666,4.566,1.239,19.722l8.632-12.949L116.825,60.088z" style="fill:#FABE78;"></path>
	<path d="M94.909,128.655l29.783-62.824c0,0,7.734,2.254,4.781,12.277l-23.148,67.537L94.909,128.655z" style="fill:#FABE78;"></path>
	<circle r="44.582" cy="166.33" cx="64.477" style="fill:#FDD089;"></circle>
	<g>
		<circle r="32.751" cy="166.545" cx="63.832" style="fill:#F0F0FF;"></circle>
		<path d="M63.832,200.796c-18.886,0-34.251-15.365-34.251-34.251s15.365-34.251,34.251-34.251
			s34.251,15.365,34.251,34.251S82.718,200.796,63.832,200.796z M63.832,135.294c-17.232,0-31.251,14.02-31.251,31.251
			s14.019,31.251,31.251,31.251s31.251-14.02,31.251-31.251S81.064,135.294,63.832,135.294z" style="fill:#6E6E96;"></path>
	</g>
	<path d="M36.121,167.286c0-16.011,12.981-28.992,28.993-28.992
		c7.338,0,14.035,2.731,19.142,7.228c-5.313-6.037-13.09-9.851-21.764-9.851c-16.012,0-28.992,12.979-28.992,28.991
		c0,8.675,3.813,16.453,9.85,21.766C38.853,181.322,36.121,174.625,36.121,167.286z" style="opacity:0.4;fill:#FFFFFF;enable-background:new    ;"></path>
	<g>
		<circle r="9.633" cy="166.33" cx="63.617" style="fill:#A9A9B8;"></circle>
		<path d="M63.617,177.463c-6.139,0-11.133-4.994-11.133-11.133s4.994-11.133,11.133-11.133
			c6.139,0,11.133,4.994,11.133,11.133S69.756,177.463,63.617,177.463z M63.617,158.197c-4.485,0-8.133,3.648-8.133,8.133
			s3.648,8.133,8.133,8.133c4.484,0,8.133-3.648,8.133-8.133S68.102,158.197,63.617,158.197z" style="fill:#6E6E96;"></path>
	</g>
	<path d="M64.764,121.749c-2.052,0-4.067,0.15-6.046,0.419c1.05-0.079,2.107-0.133,3.177-0.133
		c23.038,0,41.713,18.676,41.713,41.714s-18.675,41.714-41.713,41.714c-22.605,0-40.997-17.982-41.681-40.423
		c-0.013,0.429-0.033,0.856-0.033,1.29c0,24.622,19.96,44.582,44.583,44.582c24.622,0,44.581-19.96,44.581-44.582
		C109.345,141.709,89.386,121.749,64.764,121.749z" style="fill:#FABE78;"></path>
	<g>
		<rect height="12.093" width="83.221" style="fill:#F0F0FF;" y="239.632" x="24.116"></rect>
		<path d="M107.337,252.225H24.116c-0.276,0-0.5-0.224-0.5-0.5v-12.093c0-0.276,0.224-0.5,0.5-0.5h83.221
			c0.276,0,0.5,0.224,0.5,0.5v12.093C107.837,252.001,107.613,252.225,107.337,252.225z M24.616,251.225h82.221v-11.093H24.616
			V251.225z" style="fill:#6E6E96;"></path>
	</g>
	<path d="M24.118,167.473c0-23.158,18.774-41.932,41.933-41.932
		c10.615,0,20.3,3.952,27.687,10.454c-7.685-8.731-18.935-14.247-31.479-14.247c-23.159,0-41.933,18.773-41.933,41.932
		c0,12.545,5.516,23.795,14.247,31.479C28.07,187.773,24.118,178.088,24.118,167.473z" style="opacity:0.4;fill:#FFFFFF;enable-background:new    ;"></path>
	<path d="M174.844,148.136c-1.954,0-3.906-0.351-5.745-1.092l-51.797-20.854l1.12-2.783l51.798,20.854
		c5.926,2.392,13.302-0.197,16.44-5.767l2.404-4.266c3.147-5.586,1.627-13.38-3.39-17.375l-53.17-40.466L134.321,74l53.196,40.486
		c6.146,4.893,8,14.401,4.16,21.215l-2.404,4.266C186.396,145.072,180.616,148.136,174.844,148.136z" style="fill:#6E6E96;"></path>
	<path d="M108.948,154.713l-2.83-0.994l24.848-70.756c3.023-8.27-0.749-18.493-8.403-22.806l-1.428-0.805
		c-7.665-4.322-18.472-2.328-24.09,4.443l-61.247,70.516l-2.265-1.967l61.225-70.49c6.478-7.807,18.982-10.115,27.85-5.115
		l1.428,0.805c8.878,5.003,13.254,16.86,9.754,26.432L108.948,154.713z" style="fill:#6E6E96;"></path>
	<path d="M64.573,212.468c-25.41,0-46.082-20.672-46.082-46.082s20.672-46.082,46.082-46.082
		s46.082,20.672,46.082,46.082S89.983,212.468,64.573,212.468z M64.573,123.304c-23.755,0-43.082,19.326-43.082,43.082
		s19.327,43.082,43.082,43.082s43.082-19.326,43.082-43.082S88.329,123.304,64.573,123.304z" style="fill:#6E6E96;"></path>
	<rect height="12.095" width="23.303" style="opacity:0.15;fill:#6E6E96;enable-background:new    ;" y="239.688" x="84.13"></rect>
	<rect height="10.039" width="22.371" style="fill:#FFFFFF;" y="241.064" x="34.657"></rect>
	<path d="M107.433,253.282H24.211c-0.829,0-1.5-0.672-1.5-1.5v-12.095c0-0.828,0.671-1.5,1.5-1.5h83.222
		c0.829,0,1.5,0.672,1.5,1.5v12.095C108.933,252.61,108.262,253.282,107.433,253.282z M25.711,250.282h80.222v-9.095H25.711V250.282
		z" style="fill:#6E6E96;"></path>
	<path d="M66.062,113.44c3.498,0,6.897,0.414,10.166,1.171
		l34.794-52.401l-9.001,2.129L62.84,113.568C63.905,113.493,64.977,113.44,66.062,113.44z" style="opacity:0.4;fill:#FFFFFF;enable-background:new    ;"></path>
	
		<rect height="3.001" width="8.075" style="fill:#6E6E96;" transform="matrix(0.1102 0.9939 -0.9939 0.1102 177.3032 -80.7171)" y="57.163" x="129.693"></rect>
	
		<rect height="3" width="8.081" style="fill:#6E6E96;" transform="matrix(0.003 1 -1 0.003 199.8864 -83.0527)" y="57.219" x="137.555"></rect>
	
		<rect height="8.051" width="2.999" style="fill:#6E6E96;" transform="matrix(0.9762 0.2169 -0.2169 0.9762 16.4745 -30.723)" y="55.677" x="146.723"></rect>
	
		<rect height="8.047" width="3.001" style="fill:#6E6E96;" transform="matrix(0.9288 0.3707 -0.3707 0.9288 33.9957 -53.0333)" y="57.91" x="153.479"></rect>
	
		<rect height="8.11" width="3" style="fill:#6E6E96;" transform="matrix(0.8521 0.5234 -0.5234 0.8521 58.4372 -74.7716)" y="61.958" x="160.019"></rect>
	
		<rect height="8.556" width="3" style="fill:#6E6E96;" transform="matrix(0.601 0.7993 -0.7993 0.601 124.1791 -104.8097)" y="67.688" x="165.562"></rect>
	
		<rect height="8.088" width="3" style="fill:#6E6E96;" transform="matrix(0.1719 0.9851 -0.9851 0.1719 218.9608 -102.0083)" y="75.189" x="168.655"></rect>
	<rect height="3" width="8.017" style="fill:#6E6E96;" y="85.381" x="167.796"></rect>
	<rect height="3" width="9.205" style="fill:#6E6E96;" y="92.918" x="168.277"></rect>
	<rect height="8.506" width="3" style="fill:#6E6E96;" y="75.354" x="76.185"></rect>
	<rect height="8.555" width="3" style="fill:#6E6E96;" y="75.305" x="68.72"></rect>
	<rect height="8.297" width="3" style="fill:#6E6E96;" y="75.296" x="60.433"></rect>
	
		<rect height="3" width="8.325" style="fill:#6E6E96;" transform="matrix(0.2366 0.9716 -0.9716 0.2366 118.8977 8.5578)" y="78.441" x="49.84"></rect>
	
		<rect height="3" width="8.438" style="fill:#6E6E96;" transform="matrix(0.558 0.8299 -0.8299 0.558 88.7515 -2.4653)" y="80.579" x="42.471"></rect>
	
		<rect height="3" width="8.325" style="fill:#6E6E96;" transform="matrix(0.7076 0.7066 -0.7066 0.7076 72.6486 -3.1301)" y="84.717" x="35.944"></rect>
	
		<rect height="3" width="9.055" style="fill:#6E6E96;" transform="matrix(0.8424 0.5388 -0.5388 0.8424 55.2063 -3.8872)" y="90.941" x="29.722"></rect>
	
		<rect height="3" width="8.281" style="fill:#6E6E96;" transform="matrix(0.9378 0.3473 -0.3473 0.9378 36.4342 -4.6494)" y="97.819" x="27.047"></rect>
	
		<rect height="3" width="8.38" style="fill:#6E6E96;" transform="matrix(0.9975 0.071 -0.071 0.9975 7.668 -1.7799)" y="105.432" x="24.672"></rect>
	<rect height="3" width="7.159" style="fill:#6E6E96;" y="112.292" x="24.682"></rect>
	
		<rect height="3" width="8.384" style="fill:#6E6E96;" transform="matrix(0.9984 0.0558 -0.0558 0.9984 6.8472 -1.3202)" y="120.471" x="22.875"></rect>
	
		<rect height="8.423" width="3" style="fill:#6E6E96;" transform="matrix(0.2266 0.974 -0.974 0.2266 147.8124 74.4135)" y="126.067" x="25.551"></rect>
	<g>
		<circle r="8.2" cy="77.402" cx="108.955" style="fill:#A9A9B8;"></circle>
		<path d="M108.955,87.102c-5.349,0-9.7-4.352-9.7-9.7s4.352-9.7,9.7-9.7s9.7,4.351,9.7,9.7
			S114.304,87.102,108.955,87.102z M108.955,70.702c-3.694,0-6.7,3.005-6.7,6.7s3.006,6.7,6.7,6.7s6.7-3.006,6.7-6.7
			S112.649,70.702,108.955,70.702z" style="fill:#6E6E96;"></path>
	</g>
	<path d="M68.589,135.586c-1.446-0.188-2.88-0.263-4.298-0.253
		c0.748,0.039,1.499,0.099,2.253,0.194c16.219,2.087,27.673,16.926,25.586,33.146c-2.087,16.218-16.926,27.671-33.145,25.584
		c-15.914-2.049-27.232-16.374-25.68-32.233c-0.047,0.303-0.1,0.604-0.14,0.908c-2.23,17.332,10.012,33.191,27.346,35.424
		c17.333,2.229,33.192-10.015,35.423-27.347C98.165,153.676,85.922,137.816,68.589,135.586z" style="opacity:0.2;fill:#6E6E96;enable-background:new    ;"></path>
</g>
</svg>
