
<svg xmlns="http://www.w3.org/2000/svg" version="1.1" xmlns:xlink="http://www.w3.org/1999/xlink" preserveAspectRatio="none" x="0px" y="0px" width="1024px" height="1024px" viewBox="0 0 1024 1024">
<defs>
<g id="Layer0_0_MEMBER_0_FILL">
<path fill="#1D1D1B" fill-opacity="0.09803921568627451" stroke="none" d="
M 105.15 2.5
Q 123.2 2.1 123.2 1.45 123.2 0.85 105.15 0.45 87.1 0 61.6 0 36.1 0 18.05 0.45 0 0.85 0 1.45 0 2.1 18.05 2.5 35.95 2.95 61.6 2.95 87.25 2.95 105.15 2.5 Z"/>
</g>

<g id="Layer0_0_MEMBER_1_FILL">
<path fill="#C44645" stroke="none" d="
M 23.85 293.15
L 22.2 293.15 22.2 299.75 23.85 299.75 23.85 293.15 Z"/>
</g>

<g id="Layer0_0_MEMBER_2_FILL">
<path fill="#D69943" stroke="none" d="
M 114.45 270.9
Q 115.1 270.25 115.95 270.25
L 128.7 270.25
Q 130.3 270.25 131.55 269.4 133.75 267.85 133.75 265.2
L 133.75 261.05
Q 133.75 260 133 259.25 132.25 258.5 131.2 258.5
L 37.1 258.5
Q 32.15 258.5 28.25 261.6 24.45 264.65 23.3 269.4 22.95 270.85 22.95 272.7
L 22.95 301.25
Q 22.95 302.75 23.85 304 24.7 305.2 26.1 305.7 26.75 305.95 27.65 305.95
L 112 305.95
Q 112.75 305.95 113.15 305.6 113.8 305.05 113.8 304.15
L 113.8 272.4
Q 113.8 271.5 114.45 270.9 Z"/>
</g>

<g id="Layer0_0_MEMBER_3_FILL">
<path fill="#F9B659" stroke="none" d="
M 133 259.25
Q 132.25 258.5 131.2 258.5
L 37.1 258.5
Q 32.15 258.5 28.25 261.6 24.45 264.65 23.3 269.4
L 131.55 269.4
Q 133.75 267.85 133.75 265.2
L 133.75 261.05
Q 133.75 260 133 259.25 Z"/>
</g>

<g id="Layer0_0_MEMBER_4_FILL">
<path fill="#F9B659" stroke="none" d="
M 25.6 305.2
Q 26.55 305.7 27.65 305.7
L 112 305.7
Q 112.65 305.7 113.15 305.3
L 113.15 290.5 22.95 290.5 22.95 300.95
Q 22.95 302.35 23.7 303.5 24.4 304.65 25.6 305.2 Z"/>
</g>

<g id="Layer0_0_MEMBER_5_FILL">
<path fill="#614F49" stroke="none" d="
M 22.95 284.4
L 22.95 290.5 61.55 290.5
Q 59.5 287.7 56.4 286.05 53.15 284.4 49.55 284.4
L 22.95 284.4 Z"/>
</g>

<g id="Layer0_0_MEMBER_6_MEMBER_0_FILL">
<path fill="#ABEDE3" stroke="none" d="
M 116.65 267.45
Q 117 267.8 117.45 267.8
L 128.4 267.8
Q 129.5 267.8 130.25 267 131.05 266.25 131.05 265.15
L 131.05 261.4
Q 131.05 261 130.6 261
L 117.45 261
Q 117 261 116.65 261.35 116.3 261.65 116.3 262.15
L 116.3 266.65
Q 116.3 267.15 116.65 267.45 Z"/>
</g>

<g id="Layer0_0_MEMBER_6_MEMBER_1_FILL">
<path fill="#FFFFFF" stroke="none" d="
M 117.45 260.75
Q 116.9 260.75 116.5 261.15 116.1 261.6 116.1 262.15
L 116.1 266.65
Q 116.1 267.2 116.5 267.6 116.9 268 117.45 268
L 128.4 268
Q 129.6 268 130.45 267.15 131.25 266.3 131.25 265.15
L 131.25 261.4
Q 131.25 260.75 130.6 260.75
L 117.45 260.75
M 116.55 262.15
Q 116.55 261.75 116.8 261.5 117.1 261.2 117.45 261.2
L 130.6 261.2
Q 130.8 261.2 130.8 261.4
L 130.8 265.15
Q 130.8 266.15 130.1 266.85 129.4 267.55 128.4 267.55
L 117.45 267.55
Q 117.1 267.55 116.8 267.3 116.55 267.05 116.55 266.65
L 116.55 262.15 Z"/>
</g>

<g id="Layer0_0_MEMBER_7_FILL">
<path fill="#F9B659" stroke="none" d="
M 114.45 270.9
Q 113.85 271.5 113.85 272.35
L 113.85 304.6
Q 113.85 305.15 114.25 305.55 114.65 305.95 115.2 305.95
L 139.75 305.85 143.15 304.8
Q 144 304.5 144.4 303.7 144.6 303.2 144.6 302.85
L 144.55 295.65
Q 144.55 293.45 143.05 291.85
L 139.1 287.65 138.65 287.05 138.5 286.65 138.45 286.4 134.5 274.25 134.45 274.15
Q 133.3 271.4 130.9 270.75 129.2 270.25 123.15 270.25
L 115.85 270.3
Q 115 270.3 114.45 270.9 Z"/>
</g>

<g id="Layer0_0_MEMBER_8_FILL">
<path fill="#614F49" stroke="none" d="
M 127 297.6
Q 124.6 300 124.6 303.4 124.6 304.2 124.7 304.55 124.75 305.25 125 305.95
L 139.75 305.85 140.7 305.6
Q 140.95 304.6 141 303.6
L 141 303.4
Q 141 300 138.6 297.6 136.2 295.2 132.8 295.2 129.4 295.2 127 297.6 Z"/>
</g>

<g id="Layer0_0_MEMBER_9_FILL">
<path fill="#D69943" stroke="none" d="
M 121.2 273.45
Q 120 273.45 119.15 274.3 118.3 275.15 118.3 276.35
L 118.3 300.8
Q 118.3 301.6 118.7 302.25 119.15 303.1 120.2 303.1
L 122.55 303.1
Q 123.5 303.1 123.6 302.15 123.95 299.6 125.6 297.55 127.25 295.5 129.65 294.65 130.6 294.3 131.15 293.5 131.75 292.7 131.75 291.75
L 131.75 276.35
Q 131.75 275.15 130.9 274.3 130.05 273.45 128.85 273.45
L 121.2 273.45 Z"/>
</g>

<g id="Layer0_0_MEMBER_10_FILL">
<path fill="#ABEDE3" stroke="none" d="
M 133.1 274.9
Q 132.85 275.1 132.85 275.4
L 132.85 285.3
Q 132.85 285.85 133.25 286.25 133.65 286.65 134.2 286.65
L 138.5 286.65 138.45 286.4 134.75 274.9 134.65 274.65 133.6 274.65
Q 133.3 274.65 133.1 274.9 Z"/>
</g>

<g id="Layer0_0_MEMBER_11_FILL">
<path fill="#FFFFFF" stroke="none" d="
M 132.6 274.5
Q 132.25 274.8 132.25 275.3
L 132.25 285.4
Q 132.25 286.1 132.8 286.65 133.35 287.15 134.1 287.15
L 138.75 287.2 138.65 287.05 138.5 286.65 138.45 286.4 134.1 286.4
Q 133.65 286.4 133.35 286.1 133.05 285.8 133.05 285.4
L 133.05 275.3
Q 133.05 274.9 133.45 274.9
L 134.75 274.9 134.5 274.25 134.45 274.15 133.45 274.15
Q 132.95 274.15 132.6 274.5 Z"/>
</g>

<g id="Layer0_0_MEMBER_12_FILL">
<path fill="#614F49" stroke="none" d="
M 139.75 305.85
L 143.15 304.8
Q 144 304.5 144.4 303.7
L 144.4 303.4 125.4 304.55 113.8 304.6
Q 113.8 305.15 114.2 305.6 114.65 306 115.2 305.95
L 139.75 305.85 Z"/>
</g>

<g id="Layer0_0_MEMBER_13_FILL">
<path fill="#3E312C" stroke="none" d="
M 132.85 296.8
L 132.75 296.8
Q 129.7 296.8 127.55 299 125.4 301.15 125.4 304.2
L 125.4 305.95 139.75 305.85 140.25 305.7 140.25 304.2
Q 140.25 301.15 138.1 299 135.9 296.8 132.85 296.8 Z"/>
</g>

<g id="Layer0_0_MEMBER_14_MEMBER_0_FILL">
<path fill="#DAD1D1" stroke="none" d="
M 142.1 303.65
Q 142.45 304.05 143 304.05
L 145.2 304.05
Q 145.75 304.05 146.1 303.65 146.5 303.25 146.5 302.7 146.5 302.2 146.1 301.8 145.75 301.4 145.2 301.4
L 143 301.4
Q 142.5 301.4 142.1 301.8 141.7 302.2 141.7 302.7 141.7 303.25 142.1 303.65 Z"/>
</g>

<g id="Layer0_0_MEMBER_15_FILL">
<path fill="#ABEDE3" stroke="none" d="
M 120 286.15
Q 120.5 286.65 121.2 286.65
L 128.85 286.65
Q 129.55 286.65 130.05 286.15 130.55 285.65 130.55 284.95
L 130.55 276.35
Q 130.55 275.65 130.05 275.15 129.55 274.65 128.85 274.65
L 121.2 274.65
Q 120.5 274.65 120 275.15 119.5 275.65 119.5 276.35
L 119.5 284.95
Q 119.5 285.65 120 286.15 Z"/>
</g>

<g id="Layer0_0_MEMBER_16_FILL">
<path fill="#FFFFFF" stroke="none" d="
M 121.2 274.25
Q 120.35 274.25 119.7 274.85 119.1 275.5 119.1 276.35
L 119.1 284.95
Q 119.1 285.8 119.7 286.45 120.35 287.05 121.2 287.05
L 128.85 287.05
Q 129.7 287.05 130.35 286.45 130.95 285.8 130.95 284.95
L 130.95 276.35
Q 130.95 275.5 130.35 274.85 129.7 274.25 128.85 274.25
L 121.2 274.25
M 119.85 276.35
Q 119.85 275.8 120.25 275.4 120.65 275.05 121.2 275.05
L 128.85 275.05
Q 129.4 275.05 129.8 275.4 130.2 275.8 130.2 276.35
L 130.2 284.95
Q 130.2 285.5 129.8 285.9 129.4 286.25 128.85 286.25
L 121.2 286.25
Q 120.65 286.25 120.25 285.9 119.85 285.5 119.85 284.95
L 119.85 276.35 Z"/>
</g>

<g id="Layer0_0_MEMBER_17_FILL">
<path fill="#3E312C" stroke="none" d="
M 124.4 289.35
Q 124.4 289 122.25 289 120.1 289 120.1 289.35 120.1 289.7 122.25 289.7 124.4 289.7 124.4 289.35 Z"/>
</g>

<g id="Layer0_0_MEMBER_18_FILL">
<path fill="#3E312C" stroke="none" d="
M 144.55 296.7
L 142.05 296.7
Q 141.55 296.7 141.55 297.15 141.55 297.65 142.05 297.65
L 144.55 297.65 144.55 296.7 Z"/>
</g>

<g id="Layer0_0_MEMBER_19_FILL">
<path fill="#3E312C" stroke="none" d="
M 142.05 298.1
Q 141.55 298.1 141.55 298.6 141.55 299.05 142.05 299.05
L 144.6 299.05 144.55 298.1 142.05 298.1 Z"/>
</g>

<g id="Layer0_0_MEMBER_20_FILL">
<path fill="#3E312C" stroke="none" d="
M 142.05 299.5
Q 141.55 299.5 141.55 300 141.55 300.5 142.05 300.5
L 144.6 300.5 144.6 299.5 142.05 299.5 Z"/>
</g>

<g id="Layer0_0_MEMBER_21_FILL">
<path fill="#DAD1D1" stroke="none" d="
M 143.05 291.85
L 142.55 291.3 142.55 295.05
Q 142.55 295.5 142.85 295.8 143.15 296.1 143.6 296.1
L 144.55 296.1 144.55 295.65
Q 144.55 293.45 143.05 291.85 Z"/>
</g>

<g id="Layer0_0_MEMBER_22_MEMBER_0_FILL">
<path fill="#ABEDE3" stroke="none" d="
M 93.75 282.15
Q 94.25 282.65 94.9 282.65
L 107.35 282.65
Q 108.05 282.65 108.5 282.15 109 281.7 109 281
L 109 273.8
Q 109 273.15 108.5 272.65 108.05 272.15 107.35 272.15
L 94.9 272.15
Q 94.25 272.15 93.75 272.65 93.25 273.15 93.25 273.8
L 93.25 281
Q 93.25 281.7 93.75 282.15 Z"/>
</g>

<g id="Layer0_0_MEMBER_22_MEMBER_1_FILL">
<path fill="#FFFFFF" stroke="none" d="
M 93.6 272.45
Q 93.05 273 93.05 273.8
L 93.05 281
Q 93.05 281.8 93.6 282.35 94.1 282.9 94.9 282.9
L 107.35 282.9
Q 108.15 282.9 108.7 282.35 109.25 281.8 109.25 281
L 109.25 273.8
Q 109.25 273 108.7 272.45 108.15 271.9 107.35 271.9
L 94.9 271.9
Q 94.1 271.9 93.6 272.45
M 93.9 272.8
Q 94.35 272.35 94.9 272.35
L 107.35 272.35
Q 107.95 272.35 108.4 272.8 108.8 273.2 108.8 273.8
L 108.8 281
Q 108.8 281.6 108.4 282.05 107.95 282.45 107.35 282.45
L 94.9 282.45
Q 94.35 282.45 93.9 282.05 93.5 281.6 93.5 281
L 93.5 273.8
Q 93.5 273.2 93.9 272.8 Z"/>
</g>

<g id="Layer0_0_MEMBER_23_MEMBER_0_FILL">
<path fill="#ABEDE3" stroke="none" d="
M 30.2 282.15
Q 30.7 282.65 31.35 282.65
L 43.8 282.65
Q 44.5 282.65 44.95 282.15 45.45 281.7 45.45 281
L 45.45 273.8
Q 45.45 273.15 44.95 272.65 44.5 272.15 43.8 272.15
L 31.35 272.15
Q 30.7 272.15 30.2 272.65 29.7 273.15 29.7 273.8
L 29.7 281
Q 29.7 281.7 30.2 282.15 Z"/>
</g>

<g id="Layer0_0_MEMBER_23_MEMBER_1_FILL">
<path fill="#FFFFFF" stroke="none" d="
M 29.45 281
Q 29.45 281.8 30 282.35 30.55 282.9 31.35 282.9
L 43.8 282.9
Q 44.6 282.9 45.1 282.35 45.65 281.8 45.65 281
L 45.65 273.8
Q 45.65 273 45.1 272.45 44.6 271.9 43.8 271.9
L 31.35 271.9
Q 30.55 271.9 30 272.45 29.45 273 29.45 273.8
L 29.45 281
M 29.9 273.8
Q 29.9 273.2 30.35 272.8 30.75 272.35 31.35 272.35
L 43.8 272.35
Q 44.35 272.35 44.8 272.8 45.2 273.2 45.2 273.8
L 45.2 281
Q 45.2 281.6 44.8 282.05 44.35 282.45 43.8 282.45
L 31.35 282.45
Q 30.75 282.45 30.35 282.05 29.9 281.6 29.9 281
L 29.9 273.8 Z"/>
</g>

<g id="Layer0_0_MEMBER_24_MEMBER_0_FILL">
<path fill="#614F49" stroke="none" d="
M 88.05 270.75
Q 87.3 270 86.2 270
L 75.45 270
Q 74.35 270 73.6 270.75 72.85 271.5 72.85 272.6
L 72.85 300.45
Q 72.85 301.55 73.6 302.3 74.35 303.05 75.45 303.05
L 86.2 303.05
Q 87.3 303.05 88.05 302.3 88.85 301.55 88.85 300.45
L 88.85 272.6
Q 88.85 271.5 88.05 270.75 Z"/>
</g>

<g id="Layer0_0_MEMBER_24_MEMBER_1_FILL">
<path fill="#FFFFFF" stroke="none" d="
M 89.3 272.6
Q 89.3 271.35 88.4 270.45 87.5 269.55 86.2 269.55
L 75.45 269.55
Q 74.2 269.55 73.3 270.45 72.4 271.35 72.4 272.6
L 72.4 300.45
Q 72.4 301.75 73.3 302.65 74.2 303.55 75.45 303.55
L 86.2 303.55
Q 87.5 303.55 88.4 302.65 89.3 301.75 89.3 300.45
L 89.3 272.6
M 86.2 270.45
Q 87.1 270.45 87.75 271.1 88.4 271.7 88.4 272.6
L 88.4 300.45
Q 88.4 301.35 87.75 302 87.1 302.6 86.2 302.6
L 75.45 302.6
Q 74.55 302.6 73.95 302 73.3 301.35 73.3 300.45
L 73.3 272.6
Q 73.3 271.7 73.95 271.1 74.55 270.45 75.45 270.45
L 86.2 270.45 Z"/>
</g>

<g id="Layer0_0_MEMBER_25_MEMBER_0_FILL">
<path fill="#ABEDE3" stroke="none" d="
M 84.55 273.9
Q 84.15 273.5 83.65 273.5
L 78 273.5
Q 77.5 273.5 77.1 273.9 76.75 274.25 76.75 274.8
L 76.75 284.55
Q 76.75 285.1 77.1 285.45 77.5 285.8 78 285.8
L 83.65 285.8
Q 84.2 285.8 84.55 285.45 84.9 285.1 84.9 284.55
L 84.9 274.8
Q 84.9 274.25 84.55 273.9 Z"/>
</g>

<g id="Layer0_0_MEMBER_25_MEMBER_1_FILL">
<path fill="#FFFFFF" stroke="none" d="
M 84.7 273.75
Q 84.25 273.3 83.65 273.3
L 78 273.3
Q 77.4 273.3 77 273.75 76.55 274.15 76.55 274.8
L 76.55 284.55
Q 76.55 285.15 77 285.6 77.4 286 78 286
L 83.65 286
Q 84.25 286 84.7 285.6 85.15 285.15 85.15 284.55
L 85.15 274.8
Q 85.15 274.15 84.7 273.75
M 84.7 274.8
L 84.7 284.55
Q 84.7 284.95 84.4 285.25 84.05 285.55 83.65 285.55
L 78 285.55
Q 77.6 285.55 77.3 285.25 77 284.95 77 284.55
L 77 274.8
Q 77 274.35 77.3 274.05 77.6 273.75 78 273.75
L 83.65 273.75
Q 84.05 273.75 84.4 274.05 84.7 274.35 84.7 274.8 Z"/>
</g>

<g id="Layer0_0_MEMBER_26_FILL">
<path fill="#614F49" stroke="none" d="
M 114.45 270.9
Q 115.1 270.25 115.95 270.25
L 128.7 270.25
Q 130.8 270.25 132.3 268.8 133.75 267.3 133.75 265.2
L 133.75 261.05
Q 133.75 260 133 259.25 132.25 258.5 131.2 258.5
L 37.1 258.5
Q 31.25 258.5 27.1 262.65 22.95 266.8 22.95 272.7
L 22.95 301.25
Q 22.95 303.2 24.35 304.6 25.7 305.95 27.65 305.95
L 112 305.95
Q 112.75 305.95 113.15 305.6 113.8 305.05 113.8 304.15
L 113.8 272.4
Q 113.8 271.5 114.45 270.9
M 113.8 270.25
Q 112.9 271.15 112.9 272.4
L 112.9 304.15
Q 112.9 304.65 112.6 304.85 112.35 305.05 112 305.05
L 27.65 305.05
Q 26.1 305.05 24.95 303.95 23.85 302.85 23.85 301.25
L 23.85 272.7
Q 23.85 267.2 27.75 263.3 31.6 259.4 37.1 259.4
L 131.2 259.4
Q 131.9 259.4 132.35 259.9 132.85 260.4 132.85 261.05
L 132.85 265.2
Q 132.85 266.95 131.65 268.15 130.45 269.35 128.7 269.35
L 115.95 269.35
Q 114.7 269.35 113.8 270.25 Z"/>
</g>

<g id="Layer0_0_MEMBER_27_FILL">
<path fill="#3C3C3B" stroke="none" d="
M 45.35 262.3
L 45.35 266.4
Q 45.35 266.85 45.8 266.85 46.2 266.85 46.2 266.4
L 46.2 262.3
Q 46.2 261.85 45.8 261.85 45.35 261.85 45.35 262.3 Z"/>
</g>

<g id="Layer0_0_MEMBER_28_FILL">
<path fill="#3C3C3B" stroke="none" d="
M 43.55 262.3
L 43.55 266.4
Q 43.55 266.85 44 266.85 44.4 266.85 44.4 266.4
L 44.4 262.3
Q 44.4 261.85 44 261.85 43.55 261.85 43.55 262.3 Z"/>
</g>

<g id="Layer0_0_MEMBER_29_FILL">
<path fill="#3C3C3B" stroke="none" d="
M 41.75 262.3
L 41.75 266.4
Q 41.75 266.85 42.15 266.85 42.6 266.85 42.6 266.4
L 42.6 262.3
Q 42.6 261.85 42.15 261.85 41.75 261.85 41.75 262.3 Z"/>
</g>

<g id="Layer0_0_MEMBER_30_FILL">
<path fill="#3C3C3B" stroke="none" d="
M 39.95 262.3
L 39.95 266.4
Q 39.95 266.85 40.35 266.85 40.8 266.85 40.8 266.4
L 40.8 262.3
Q 40.8 261.85 40.35 261.85 39.95 261.85 39.95 262.3 Z"/>
</g>

<g id="Layer0_0_MEMBER_31_FILL">
<path fill="#3C3C3B" stroke="none" d="
M 38.1 262.3
L 38.1 266.4
Q 38.1 266.85 38.55 266.85 38.95 266.85 38.95 266.4
L 38.95 262.3
Q 38.95 261.85 38.55 261.85 38.1 261.85 38.1 262.3 Z"/>
</g>

<g id="Layer0_0_MEMBER_32_FILL">
<path fill="#3C3C3B" stroke="none" d="
M 36.3 262.3
L 36.3 266.4
Q 36.3 266.85 36.75 266.85 37.15 266.85 37.15 266.4
L 37.15 262.3
Q 37.15 261.85 36.75 261.85 36.3 261.85 36.3 262.3 Z"/>
</g>

<g id="Layer0_0_MEMBER_33_FILL">
<path fill="#3E312C" stroke="none" d="
M 59.2 296.8
L 59.1 296.8
Q 56.05 296.8 53.9 299 51.75 301.15 51.75 304.2
L 51.75 305.95 66.6 305.95 66.6 304.25
Q 66.6 301.15 64.45 299 62.25 296.8 59.2 296.8 Z"/>
</g>

<g id="Layer0_0_MEMBER_34_FILL">
<path fill="#614F49" stroke="none" d="
M 129.65 280.75
Q 129.45 280.95 129.45 281.15
L 129.45 286.5
Q 129.45 286.9 129.9 286.9
L 131.25 286.9
Q 131.65 286.9 131.65 286.5
L 131.65 281.2
Q 131.65 280.55 131 280.55
L 130.05 280.55
Q 129.85 280.55 129.65 280.75 Z"/>
</g>

<g id="Layer0_0_MEMBER_35_FILL">
<path fill="#3E312C" stroke="none" d="
M 133.05 289.1
Q 133.15 289.3 133.35 289.3
L 133.55 289.25
Q 133.9 289.05 133.7 288.75
L 131.2 283.85
Q 131.05 283.5 130.65 283.7 130.35 283.9 130.5 284.2
L 133.05 289.1 Z"/>
</g>

<g id="Layer0_0_MEMBER_36_FILL">
<path fill="#000000" fill-opacity="0.09803921568627451" stroke="none" d="
M 122.35 5.9
L 122.35 5.8 0 0 0 6.15 0.75 6.15 0.75 8.2 0.8 8.5 0.95 9 0.95 9.05 1.3 9.85 1.3 9.95 1.5 10.25 1.55 10.3 2.1 11 2.15 11.05 2.55 11.35 2.7 11.5 2.9 11.6 2.95 11.65
Q 3.6 12.05 4.25 12.2
L 4.35 12.25 4.85 12.35 89.8 12.35
Q 90.55 12.35 90.95 12 91.6 11.45 91.6 10.55
L 91.65 11
Q 91.65 11.55 92.05 11.95 92.45 12.35 93 12.35
L 117.55 12.25 118.5 12 118.5 11.95 120.95 11.2
Q 121.65 11 122 10.45
L 123 10.45
Q 123.55 10.45 123.9 10.05 124.3 9.65 124.3 9.1 124.3 8.6 123.9 8.2 123.55 7.8 123 7.8
L 122.4 7.8 122.4 5.9 122.35 5.9 Z"/>
</g>

<g id="Layer0_0_MEMBER_37_MEMBER_0_FILL">
<path fill="#F6F6F6" stroke="none" d="
M 135.4 304.5
Q 135.4 303.4 134.6 302.6 133.85 301.8 132.7 301.8 131.6 301.8 130.8 302.6 130 303.4 130 304.5 130 305.65 130.8 306.4 131.6 307.2 132.7 307.2 133.85 307.2 134.6 306.4 135.4 305.65 135.4 304.5 Z"/>
</g>

<g id="Layer0_0_MEMBER_37_MEMBER_1_FILL">
<path fill="#1D1715" stroke="none" d="
M 137.45 299.7
Q 135.5 297.75 132.7 297.75 129.9 297.75 127.9 299.7 125.95 301.7 125.95 304.5 125.95 307.3 127.9 309.25 129.9 311.25 132.7 311.25 135.5 311.25 137.45 309.25 139.45 307.3 139.45 304.5 139.45 301.7 137.45 299.7
M 135.95 307.75
Q 134.6 309.1 132.7 309.1 130.8 309.1 129.45 307.75 128.1 306.4 128.1 304.5 128.1 302.6 129.45 301.25 130.8 299.9 132.7 299.9 134.6 299.9 135.95 301.25 137.3 302.6 137.3 304.5 137.3 306.4 135.95 307.75 Z"/>
</g>

<g id="Layer0_0_MEMBER_37_MEMBER_2_FILL">
<path fill="#DAD1D1" stroke="none" d="
M 136.05 301.15
Q 134.65 299.75 132.7 299.75 130.7 299.75 129.35 301.15 127.95 302.5 127.95 304.5 127.95 306.45 129.35 307.85 130.7 309.25 132.7 309.25 134.65 309.25 136.05 307.85 137.45 306.45 137.45 304.5 137.45 302.5 136.05 301.15
M 132.15 301.95
L 132.7 301.85 133.2 301.95
Q 133.75 302.05 134.1 302.3 134.55 302.6 134.85 303.05 135.2 303.45 135.25 303.95
L 135.3 304.5 135.25 305
Q 135.2 305.4 134.9 305.9 134.55 306.45 134.15 306.7 133.55 307 133.2 307.05
L 132.7 307.1 132.15 307.05
Q 131.75 307 131.25 306.7 130.85 306.45 130.5 305.9 130.3 305.6 130.1 305
L 130.05 304.5 130.15 303.95
Q 130.2 303.55 130.5 303.05 130.8 302.6 131.25 302.3 131.65 302.05 132.15 301.95
M 133.2 301.5
L 133.2 300.2
Q 134.45 300.35 135.35 301.1
L 134.4 302
Q 133.95 301.65 133.2 301.5
M 132.15 300.2
L 132.15 301.5
Q 131.45 301.65 130.95 302
L 130.05 301.1
Q 130.95 300.35 132.15 300.2
M 135.2 302.75
L 136.1 301.85
Q 136.8 302.8 136.95 303.95
L 135.7 303.95
Q 135.55 303.25 135.2 302.75
M 135.2 306.25
Q 135.55 305.7 135.7 305
L 137 305
Q 136.85 306.15 136.1 307.15
L 135.2 306.25
M 132.15 307.5
L 132.15 308.8
Q 131.05 308.65 130.05 307.9
L 130.95 307
Q 131.45 307.35 132.15 307.5
M 133.2 308.8
L 133.2 307.5
Q 134 307.3 134.45 307
L 135.35 307.9
Q 134.35 308.65 133.2 308.8
M 129.3 301.85
L 130.2 302.75
Q 129.85 303.25 129.7 303.95
L 128.4 303.95
Q 128.55 302.75 129.3 301.85
M 129.7 305
Q 129.75 305.55 130.2 306.25
L 129.3 307.15
Q 128.55 306.25 128.4 305
L 129.7 305 Z"/>
</g>

<g id="Layer0_0_MEMBER_38_MEMBER_0_FILL">
<path fill="#F6F6F6" stroke="none" d="
M 61.85 304.5
Q 61.85 303.4 61.05 302.6 60.3 301.8 59.15 301.8 58.05 301.8 57.3 302.6 56.5 303.4 56.5 304.5 56.5 305.6 57.3 306.4 58.05 307.2 59.15 307.2 60.3 307.2 61.05 306.4 61.85 305.65 61.85 304.5 Z"/>
</g>

<g id="Layer0_0_MEMBER_38_MEMBER_1_FILL">
<path fill="#1D1715" stroke="none" d="
M 63.95 309.25
Q 65.9 307.3 65.9 304.5 65.9 301.7 63.95 299.7 61.95 297.75 59.15 297.75 56.35 297.75 54.4 299.7 52.4 301.7 52.4 304.5 52.4 307.3 54.4 309.25 56.4 311.25 59.15 311.25 61.95 311.25 63.95 309.25
M 63.75 304.5
Q 63.75 306.4 62.4 307.75 61.05 309.1 59.15 309.1 57.25 309.1 55.95 307.75 54.6 306.4 54.6 304.5 54.6 302.6 55.95 301.25 57.25 299.9 59.15 299.9 61.05 299.9 62.4 301.25 63.75 302.6 63.75 304.5 Z"/>
</g>

<g id="Layer0_0_MEMBER_38_MEMBER_2_FILL">
<path fill="#DAD1D1" stroke="none" d="
M 62.5 307.85
Q 63.9 306.45 63.9 304.5 63.9 302.5 62.5 301.15 61.15 299.75 59.15 299.75 57.2 299.75 55.8 301.15 54.4 302.5 54.4 304.5 54.4 306.45 55.8 307.85 57.2 309.25 59.15 309.25 61.15 309.25 62.5 307.85
M 61.8 301.1
L 60.9 302
Q 60.45 301.65 59.7 301.5
L 59.7 300.2
Q 60.9 300.35 61.8 301.1
M 61.65 302.75
L 62.55 301.85
Q 63.3 302.75 63.45 303.95
L 62.15 303.95
Q 62.1 303.35 61.65 302.75
M 61.65 306.25
Q 62.1 305.55 62.15 305
L 63.45 305
Q 63.3 306.2 62.6 307.15
L 61.65 306.25
M 61.75 303.95
L 61.8 304.5 61.75 305
Q 61.55 305.6 61.35 305.9 61 306.45 60.6 306.7 60.1 307 59.7 307.05
L 59.15 307.1 58.65 307.05
Q 58.3 307 57.7 306.7 57.3 306.45 56.95 305.9 56.65 305.4 56.6 305
L 56.55 304.5 56.6 303.95
Q 56.65 303.45 57 303.05 57.3 302.6 57.75 302.3 58.1 302.05 58.65 301.95
L 59.15 301.85 59.7 301.95
Q 60.2 302.05 60.6 302.3 61.05 302.6 61.35 303.05 61.55 303.35 61.75 303.95
M 60.9 307
L 61.85 307.9
Q 60.85 308.65 59.7 308.8
L 59.7 307.5
Q 60.45 307.35 60.9 307
M 57.45 302
L 56.5 301.1
Q 57.4 300.35 58.65 300.2
L 58.65 301.5
Q 57.95 301.65 57.45 302
M 55.75 301.85
L 56.7 302.75
Q 56.3 303.35 56.15 303.95
L 54.9 303.95
Q 55.05 302.8 55.75 301.85
M 56.15 305
Q 56.3 305.7 56.65 306.25
L 55.75 307.15
Q 54.95 306.1 54.9 305
L 56.15 305
M 56.5 307.9
L 57.4 307
Q 57.85 307.3 58.65 307.5
L 58.65 308.8
Q 57.5 308.65 56.5 307.9 Z"/>
</g>

<g id="Layer0_0_MEMBER_39_MEMBER_0_FILL">
<path fill="#FFFFFF" fill-opacity="0.4980392156862745" stroke="none" d="
M 0 0
L 5.65 9.2 10.25 9.2 4.65 0 0 0 Z"/>
</g>

<g id="Layer0_0_MEMBER_39_MEMBER_1_FILL">
<path fill="#FFFFFF" fill-opacity="0.4980392156862745" stroke="none" d="
M 5.25 0
L 10.8 9.2 12.3 9.2 6.75 0 5.25 0 Z"/>
</g>

<g id="Layer0_0_MEMBER_39_MEMBER_2_FILL">
<path fill="#FFFFFF" fill-opacity="0.4980392156862745" stroke="none" d="
M 0 1
L 0 2.8 4.75 10.65 8.95 10.65
Q 9.4 10.45 9.6 10.2
L 3.4 0 0.7 0
Q 0 0.25 0 1 Z"/>
</g>

<g id="Layer0_0_MEMBER_39_MEMBER_3_FILL">
<path fill="#FFFFFF" fill-opacity="0.4980392156862745" stroke="none" d="
M 4.05 0
L 9.75 9.45 9.75 6.75 5.7 0 4.05 0 Z"/>
</g>

<g id="Layer0_0_MEMBER_39_MEMBER_4_FILL">
<path fill="#FFFFFF" fill-opacity="0.4980392156862745" stroke="none" d="
M 0 0
L 3.35 5.5 8.45 5.5 5.15 0 0 0 Z"/>
</g>

<g id="Layer0_0_MEMBER_39_MEMBER_5_FILL">
<path fill="#FFFFFF" fill-opacity="0.4980392156862745" stroke="none" d="
M 5.8 0
L 9.1 5.5 10.15 5.5 10.7 5.4 7.45 0 5.8 0 Z"/>
</g>

<g id="Layer0_0_MEMBER_39_MEMBER_6_FILL">
<path fill="#FFFFFF" fill-opacity="0.4980392156862745" stroke="none" d="
M 0 0.65
L 0 6.45 2.8 11 6.25 11
Q 6.85 11 6.85 10.4
L 6.85 10.1 0.75 0 0.6 0
Q 0 0 0 0.65 Z"/>
</g>

<g id="Layer0_0_MEMBER_39_MEMBER_7_FILL">
<path fill="#FFFFFF" fill-opacity="0.4980392156862745" stroke="none" d="
M 1.3 0
L 6.85 9.15 6.85 6.7 2.8 0 1.3 0 Z"/>
</g>

<g id="Layer0_0_MEMBER_39_MEMBER_8_FILL">
<path fill="#FFFFFF" fill-opacity="0.4980392156862745" stroke="none" d="
M 0 0.05
L 5.6 9.2 10.2 9.2 4.6 0 0.3 0 0 0.05 Z"/>
</g>

<g id="Layer0_0_MEMBER_39_MEMBER_9_FILL">
<path fill="#FFFFFF" fill-opacity="0.4980392156862745" stroke="none" d="
M 5.2 0
L 10.75 9.2 12.25 9.2 6.7 0 5.2 0 Z"/>
</g>
</defs>

<g transform="matrix( 7.19989013671875, 0, 0, 7.19989013671875, 62.2,687.5) ">
<use xlink:href="#Layer0_0_MEMBER_0_FILL"/>
</g>

<g transform="matrix( 7.19989013671875, 0, 0, 7.19989013671875, -92.95,-1545.85) ">
<use xlink:href="#Layer0_0_MEMBER_1_FILL"/>
</g>

<g transform="matrix( 7.19989013671875, 0, 0, 7.19989013671875, -92.95,-1545.85) ">
<use xlink:href="#Layer0_0_MEMBER_2_FILL"/>
</g>

<g transform="matrix( 7.19989013671875, 0, 0, 7.19989013671875, -92.95,-1545.85) ">
<use xlink:href="#Layer0_0_MEMBER_3_FILL"/>
</g>

<g transform="matrix( 7.19989013671875, 0, 0, 7.19989013671875, -92.95,-1545.85) ">
<use xlink:href="#Layer0_0_MEMBER_4_FILL"/>
</g>

<g transform="matrix( 7.19989013671875, 0, 0, 7.19989013671875, -92.95,-1545.85) ">
<use xlink:href="#Layer0_0_MEMBER_5_FILL"/>
</g>

<g transform="matrix( 7.19989013671875, 0, 0, 7.19989013671875, -92.95,-1545.85) ">
<use xlink:href="#Layer0_0_MEMBER_6_MEMBER_0_FILL"/>
</g>

<g transform="matrix( 7.19989013671875, 0, 0, 7.19989013671875, -92.95,-1545.85) ">
<use xlink:href="#Layer0_0_MEMBER_6_MEMBER_1_FILL"/>
</g>

<g transform="matrix( 7.19989013671875, 0, 0, 7.19989013671875, -92.95,-1545.85) ">
<use xlink:href="#Layer0_0_MEMBER_7_FILL"/>
</g>

<g transform="matrix( 7.19989013671875, 0, 0, 7.19989013671875, -92.95,-1545.85) ">
<use xlink:href="#Layer0_0_MEMBER_8_FILL"/>
</g>

<g transform="matrix( 7.19989013671875, 0, 0, 7.19989013671875, -92.95,-1545.85) ">
<use xlink:href="#Layer0_0_MEMBER_9_FILL"/>
</g>

<g transform="matrix( 7.19989013671875, 0, 0, 7.19989013671875, -92.95,-1545.85) ">
<use xlink:href="#Layer0_0_MEMBER_10_FILL"/>
</g>

<g transform="matrix( 7.19989013671875, 0, 0, 7.19989013671875, -92.95,-1545.85) ">
<use xlink:href="#Layer0_0_MEMBER_11_FILL"/>
</g>

<g transform="matrix( 7.19989013671875, 0, 0, 7.19989013671875, -92.95,-1545.85) ">
<use xlink:href="#Layer0_0_MEMBER_12_FILL"/>
</g>

<g transform="matrix( 7.19989013671875, 0, 0, 7.19989013671875, -92.95,-1545.85) ">
<use xlink:href="#Layer0_0_MEMBER_13_FILL"/>
</g>

<g transform="matrix( 7.19989013671875, 0, 0, 7.19989013671875, -92.95,-1545.85) ">
<use xlink:href="#Layer0_0_MEMBER_14_MEMBER_0_FILL"/>
</g>

<g transform="matrix( 7.19989013671875, 0, 0, 7.19989013671875, -92.95,-1545.85) ">
<use xlink:href="#Layer0_0_MEMBER_15_FILL"/>
</g>

<g transform="matrix( 7.19989013671875, 0, 0, 7.19989013671875, -92.95,-1545.85) ">
<use xlink:href="#Layer0_0_MEMBER_16_FILL"/>
</g>

<g transform="matrix( 7.19989013671875, 0, 0, 7.19989013671875, -92.95,-1545.85) ">
<use xlink:href="#Layer0_0_MEMBER_17_FILL"/>
</g>

<g transform="matrix( 7.19989013671875, 0, 0, 7.19989013671875, -92.95,-1545.85) ">
<use xlink:href="#Layer0_0_MEMBER_18_FILL"/>
</g>

<g transform="matrix( 7.19989013671875, 0, 0, 7.19989013671875, -92.95,-1545.85) ">
<use xlink:href="#Layer0_0_MEMBER_19_FILL"/>
</g>

<g transform="matrix( 7.19989013671875, 0, 0, 7.19989013671875, -92.95,-1545.85) ">
<use xlink:href="#Layer0_0_MEMBER_20_FILL"/>
</g>

<g transform="matrix( 7.19989013671875, 0, 0, 7.19989013671875, -92.95,-1545.85) ">
<use xlink:href="#Layer0_0_MEMBER_21_FILL"/>
</g>

<g transform="matrix( 7.19989013671875, 0, 0, 7.19989013671875, -92.95,-1545.85) ">
<use xlink:href="#Layer0_0_MEMBER_22_MEMBER_0_FILL"/>
</g>

<g transform="matrix( 7.19989013671875, 0, 0, 7.19989013671875, -92.95,-1545.85) ">
<use xlink:href="#Layer0_0_MEMBER_22_MEMBER_1_FILL"/>
</g>

<g transform="matrix( 7.19989013671875, 0, 0, 7.19989013671875, -92.95,-1545.85) ">
<use xlink:href="#Layer0_0_MEMBER_23_MEMBER_0_FILL"/>
</g>

<g transform="matrix( 7.19989013671875, 0, 0, 7.19989013671875, -92.95,-1545.85) ">
<use xlink:href="#Layer0_0_MEMBER_23_MEMBER_1_FILL"/>
</g>

<g transform="matrix( 7.19989013671875, 0, 0, 7.19989013671875, -92.95,-1545.85) ">
<use xlink:href="#Layer0_0_MEMBER_24_MEMBER_0_FILL"/>
</g>

<g transform="matrix( 7.19989013671875, 0, 0, 7.19989013671875, -92.95,-1545.85) ">
<use xlink:href="#Layer0_0_MEMBER_24_MEMBER_1_FILL"/>
</g>

<g transform="matrix( 7.19989013671875, 0, 0, 7.19989013671875, -92.95,-1545.85) ">
<use xlink:href="#Layer0_0_MEMBER_25_MEMBER_0_FILL"/>
</g>

<g transform="matrix( 7.19989013671875, 0, 0, 7.19989013671875, -92.95,-1545.85) ">
<use xlink:href="#Layer0_0_MEMBER_25_MEMBER_1_FILL"/>
</g>

<g transform="matrix( 7.19989013671875, 0, 0, 7.19989013671875, -92.95,-1545.85) ">
<use xlink:href="#Layer0_0_MEMBER_26_FILL"/>
</g>

<g transform="matrix( 7.19989013671875, 0, 0, 7.19989013671875, -92.95,-1545.85) ">
<use xlink:href="#Layer0_0_MEMBER_27_FILL"/>
</g>

<g transform="matrix( 7.19989013671875, 0, 0, 7.19989013671875, -92.95,-1545.85) ">
<use xlink:href="#Layer0_0_MEMBER_28_FILL"/>
</g>

<g transform="matrix( 7.19989013671875, 0, 0, 7.19989013671875, -92.95,-1545.85) ">
<use xlink:href="#Layer0_0_MEMBER_29_FILL"/>
</g>

<g transform="matrix( 7.19989013671875, 0, 0, 7.19989013671875, -92.95,-1545.85) ">
<use xlink:href="#Layer0_0_MEMBER_30_FILL"/>
</g>

<g transform="matrix( 7.19989013671875, 0, 0, 7.19989013671875, -92.95,-1545.85) ">
<use xlink:href="#Layer0_0_MEMBER_31_FILL"/>
</g>

<g transform="matrix( 7.19989013671875, 0, 0, 7.19989013671875, -92.95,-1545.85) ">
<use xlink:href="#Layer0_0_MEMBER_32_FILL"/>
</g>

<g transform="matrix( 7.19989013671875, 0, 0, 7.19989013671875, -92.95,-1545.85) ">
<use xlink:href="#Layer0_0_MEMBER_33_FILL"/>
</g>

<g transform="matrix( 7.19989013671875, 0, 0, 7.19989013671875, -92.95,-1545.85) ">
<use xlink:href="#Layer0_0_MEMBER_34_FILL"/>
</g>

<g transform="matrix( 7.19989013671875, 0, 0, 7.19989013671875, -92.95,-1545.85) ">
<use xlink:href="#Layer0_0_MEMBER_35_FILL"/>
</g>

<g transform="matrix( 7.19989013671875, 0, 0, 7.19989013671875, 66.85,567.95) ">
<use xlink:href="#Layer0_0_MEMBER_36_FILL"/>
</g>

<g transform="matrix( 7.19989013671875, 0, 0, 7.19989013671875, -92.95,-1545.85) ">
<use xlink:href="#Layer0_0_MEMBER_37_MEMBER_0_FILL"/>
</g>

<g transform="matrix( 7.19989013671875, 0, 0, 7.19989013671875, -92.95,-1545.85) ">
<use xlink:href="#Layer0_0_MEMBER_37_MEMBER_1_FILL"/>
</g>

<g transform="matrix( 7.19989013671875, 0, 0, 7.19989013671875, -92.95,-1545.85) ">
<use xlink:href="#Layer0_0_MEMBER_37_MEMBER_2_FILL"/>
</g>

<g transform="matrix( 7.19989013671875, 0, 0, 7.19989013671875, -92.95,-1545.85) ">
<use xlink:href="#Layer0_0_MEMBER_38_MEMBER_0_FILL"/>
</g>

<g transform="matrix( 7.19989013671875, 0, 0, 7.19989013671875, -92.95,-1545.85) ">
<use xlink:href="#Layer0_0_MEMBER_38_MEMBER_1_FILL"/>
</g>

<g transform="matrix( 7.19989013671875, 0, 0, 7.19989013671875, -92.95,-1545.85) ">
<use xlink:href="#Layer0_0_MEMBER_38_MEMBER_2_FILL"/>
</g>

<g transform="matrix( 7.19989013671875, 0, 0, 7.19989013671875, 590.65,418.2) ">
<use xlink:href="#Layer0_0_MEMBER_39_MEMBER_0_FILL"/>
</g>

<g transform="matrix( 7.19989013671875, 0, 0, 7.19989013671875, 590.65,418.2) ">
<use xlink:href="#Layer0_0_MEMBER_39_MEMBER_1_FILL"/>
</g>

<g transform="matrix( 7.19989013671875, 0, 0, 7.19989013671875, 772.1,436.55) ">
<use xlink:href="#Layer0_0_MEMBER_39_MEMBER_2_FILL"/>
</g>

<g transform="matrix( 7.19989013671875, 0, 0, 7.19989013671875, 772.1,436.55) ">
<use xlink:href="#Layer0_0_MEMBER_39_MEMBER_3_FILL"/>
</g>

<g transform="matrix( 7.19989013671875, 0, 0, 7.19989013671875, 758.4,337.95) ">
<use xlink:href="#Layer0_0_MEMBER_39_MEMBER_4_FILL"/>
</g>

<g transform="matrix( 7.19989013671875, 0, 0, 7.19989013671875, 758.4,337.95) ">
<use xlink:href="#Layer0_0_MEMBER_39_MEMBER_5_FILL"/>
</g>

<g transform="matrix( 7.19989013671875, 0, 0, 7.19989013671875, 464.3,427.95) ">
<use xlink:href="#Layer0_0_MEMBER_39_MEMBER_6_FILL"/>
</g>

<g transform="matrix( 7.19989013671875, 0, 0, 7.19989013671875, 464.3,427.95) ">
<use xlink:href="#Layer0_0_MEMBER_39_MEMBER_7_FILL"/>
</g>

<g transform="matrix( 7.19989013671875, 0, 0, 7.19989013671875, 130.55,418.2) ">
<use xlink:href="#Layer0_0_MEMBER_39_MEMBER_8_FILL"/>
</g>

<g transform="matrix( 7.19989013671875, 0, 0, 7.19989013671875, 130.55,418.2) ">
<use xlink:href="#Layer0_0_MEMBER_39_MEMBER_9_FILL"/>
</g>
</svg>
