
<svg xmlns="http://www.w3.org/2000/svg" version="1.1" xmlns:xlink="http://www.w3.org/1999/xlink" preserveAspectRatio="none" x="0px" y="0px" width="1024px" height="1024px" viewBox="0 0 1024 1024">
<defs>
<g id="Layer0_0_MEMBER_0_FILL">
<path fill="#1D1D1B" fill-opacity="0.09803921568627451" stroke="none" d="
M 66.5 2.4
Q 77.9 2 77.9 1.4 77.9 0.85 66.5 0.4 54.95 0 38.95 0 22.95 0 11.4 0.4 0 0.85 0 1.4 0 2 11.4 2.4 22.7 2.8 38.95 2.8 55.2 2.8 66.5 2.4 Z"/>
</g>

<g id="Layer0_0_MEMBER_1_MEMBER_0_FILL">
<path fill="#614F49" stroke="none" d="
M 145.15 30
Q 144.8 30.3 144.8 30.8
L 144.8 43.1
Q 144.8 43.6 145.15 43.9 145.45 44.25 145.95 44.25
L 149 44.25
Q 149.5 44.25 149.85 43.9 150.2 43.6 150.2 43.1
L 150.2 30.8
Q 150.2 30.3 149.85 30 149.5 29.65 149 29.65
L 145.95 29.65
Q 145.45 29.65 145.15 30 Z"/>
</g>

<g id="Layer0_0_MEMBER_1_MEMBER_1_FILL">
<path fill="#C44645" stroke="none" d="
M 150.2 40.15
L 150.2 33.75 148.95 33.75
Q 148.25 33.75 148.25 34.45
L 148.25 39.45
Q 148.25 40.15 148.95 40.15
L 150.2 40.15 Z"/>
</g>

<g id="Layer0_0_MEMBER_1_MEMBER_2_FILL">
<path fill="#FFCB82" stroke="none" d="
M 220.7 34.95
Q 220.1 35.75 220.1 36.95 220.1 38.15 220.7 39 221.35 39.85 222.2 39.85 223.05 39.85 223.7 39 224.3 38.15 224.3 36.95 224.3 35.75 223.7 34.95 223.05 34.1 222.2 34.1 221.35 34.1 220.7 34.95 Z"/>
</g>

<g id="Layer0_0_MEMBER_1_MEMBER_3_FILL">
<path fill="#614F49" stroke="none" d="
M 223.4 40.15
L 223.4 33.75 222.5 33.75 222.5 40.15 223.4 40.15 Z"/>
</g>

<g id="Layer0_0_MEMBER_1_MEMBER_4_FILL">
<path fill="#F9B659" stroke="none" d="
M 221.85 32.6
Q 221.3 32.1 220.6 32.05
L 202.4 30.7 202.1 30.65 200.1 19.8
Q 200 19.3 199.85 19.05 199.45 17.95 198.45 17.3 197.5 16.65 196.3 16.65
L 157.15 16.65
Q 155.8 16.65 154.6 17.3 153.4 17.95 152.7 19.05 152.25 19.75 152 20.6
L 149.1 31.7 149.1 47.25 222.65 47.25 222.5 33.75
Q 222.35 33.05 221.85 32.6 Z"/>
</g>

<g id="Layer0_0_MEMBER_1_MEMBER_5_FILL">
<path fill="#614F49" stroke="none" d="
M 184.5 20.05
Q 183.75 20.05 183.75 20.85
L 183.75 43.95
Q 183.75 44.75 184.5 44.75
L 200.35 44.75
Q 200.65 44.75 200.9 44.5 201.1 44.3 201.1 43.95
L 201.1 31.75 199.05 20.7
Q 198.95 20.05 198.3 20.05
L 184.5 20.05 Z"/>
</g>

<g id="Layer0_0_MEMBER_1_MEMBER_6_FILL">
<path fill="#ABEDE3" stroke="none" d="
M 184.45 31.1
L 200.25 31.1 198.35 20.85 198.3 20.8 184.5 20.8 184.45 20.85 184.45 31.1 Z"/>
</g>

<g id="Layer0_0_MEMBER_1_MEMBER_7_FILL">
<path fill="#614F49" stroke="none" d="
M 222.65 47.25
L 222.65 45.35 149.1 45.35 149.1 47.25 222.65 47.25 Z"/>
</g>

<g id="Layer0_0_MEMBER_1_MEMBER_8_FILL">
<path fill="#3E312C" stroke="none" d="
M 218.1 47.25
L 218.1 47
Q 218.1 43.6 215.7 41.15 213.25 38.75 209.85 38.75 206.4 38.75 204 41.15 201.55 43.6 201.55 47
L 201.6 47.25 218.1 47.25 Z"/>
</g>

<g id="Layer0_0_MEMBER_1_MEMBER_9_FILL">
<path fill="#3E312C" stroke="none" d="
M 170.9 47.25
L 170.9 47
Q 170.9 43.6 168.5 41.15 166.05 38.75 162.65 38.75 159.2 38.75 156.8 41.15 154.35 43.6 154.35 47
L 154.4 47.25 170.9 47.25 Z"/>
</g>

<g id="Layer0_0_MEMBER_1_MEMBER_10_FILL">
<path fill="#FFFFFF" stroke="none" d="
M 185.1 33.05
Q 185.1 33.65 185.65 33.65
L 187.85 33.65
Q 188.4 33.65 188.4 33.05
L 188.4 33
Q 188.4 32.45 187.85 32.45
L 185.65 32.45
Q 185.1 32.45 185.1 33
L 185.1 33.05 Z"/>
</g>

<g id="Layer0_0_MEMBER_1_MEMBER_11_FILL">
<path fill="#D69943" stroke="none" d="
M 154.55 36.2
Q 154.95 36.55 155.5 36.55
L 157.75 36.55
Q 158.3 36.55 158.7 36.2 159.05 35.85 159.05 35.3
L 159.05 34.2
Q 159.05 33.65 158.7 33.3 158.3 32.95 157.75 32.95
L 155.5 32.95
Q 154.95 32.95 154.55 33.3 154.2 33.65 154.2 34.2
L 154.2 35.3
Q 154.2 35.85 154.55 36.2 Z"/>
</g>

<g id="Layer0_0_MEMBER_1_MEMBER_12_FILL">
<path fill="#614F49" stroke="none" d="
M 221.85 32.55
Q 221.3 32.1 220.6 32.05
L 202.4 30.7
Q 202.4 32 203.3 32.85 204.2 33.75 205.45 33.75
L 222.5 33.75
Q 222.4 33.05 221.85 32.55 Z"/>
</g>

<g id="Layer0_0_MEMBER_1_MEMBER_13_FILL">
<path fill="#614F49" stroke="none" d="
M 198.45 17.3
Q 197.5 16.65 196.3 16.65
L 157.15 16.65
Q 155.8 16.65 154.6 17.3 153.4 17.95 152.7 19.05
L 199.85 19.05
Q 199.45 17.95 198.45 17.3 Z"/>
</g>

<g id="Layer0_0_MEMBER_1_MEMBER_14_FILL">
<path fill="#614F49" stroke="none" d="
M 182.7 21
Q 182.7 20.6 182.45 20.35 182.15 20.05 181.8 20.05
L 168.25 20.05
Q 167.6 20.05 167.4 20.75
L 164.55 31.9 164.55 37.25
Q 164.55 37.95 165.35 38.15 167.45 38.5 169.35 40.25 171.25 42.05 171.65 44 171.85 44.75 172.55 44.75
L 181.8 44.75
Q 182.7 44.75 182.7 43.8
L 182.7 21 Z"/>
</g>

<g id="Layer0_0_MEMBER_1_MEMBER_15_FILL">
<path fill="#ABEDE3" stroke="none" d="
M 165.5 31.1
L 182 31.1 182 21
Q 182 20.8 181.8 20.8
L 168.25 20.8
Q 168.1 20.8 168.1 20.95
L 165.5 31.1 Z"/>
</g>

<g id="Layer0_0_MEMBER_1_MEMBER_16_FILL">
<path fill="#FFFFFF" stroke="none" d="
M 165.6 33.05
Q 165.6 33.65 166.15 33.65
L 168.35 33.65
Q 168.9 33.65 168.9 33.05
L 168.9 33
Q 168.9 32.45 168.35 32.45
L 166.15 32.45
Q 165.6 32.45 165.6 33
L 165.6 33.05 Z"/>
</g>

<g id="Layer0_0_MEMBER_1_MEMBER_17_FILL">
<path fill="#614F49" stroke="none" d="
M 157.6 20.75
Q 157.25 20.75 157.25 21.1 157.25 21.45 157.6 21.45
L 161.9 21.45
Q 162.25 21.45 162.25 21.1 162.25 20.75 161.9 20.75
L 157.6 20.75 Z"/>
</g>

<g id="Layer0_0_MEMBER_1_MEMBER_18_FILL">
<path fill="#614F49" stroke="none" d="
M 157.3 21.95
Q 156.95 21.95 156.95 22.35 156.95 22.7 157.3 22.7
L 161.6 22.7
Q 161.95 22.7 161.95 22.35 161.95 21.95 161.6 21.95
L 157.3 21.95 Z"/>
</g>

<g id="Layer0_0_MEMBER_1_MEMBER_19_FILL">
<path fill="#614F49" stroke="none" d="
M 157 23.2
Q 156.65 23.2 156.65 23.55 156.65 23.9 157 23.9
L 161.3 23.9
Q 161.65 23.9 161.65 23.55 161.65 23.2 161.3 23.2
L 157 23.2 Z"/>
</g>

<g id="Layer0_0_MEMBER_1_MEMBER_20_FILL">
<path fill="#614F49" stroke="none" d="
M 156.7 24.4
Q 156.35 24.4 156.35 24.75 156.35 25.15 156.7 25.15
L 161 25.15
Q 161.35 25.15 161.35 24.75 161.35 24.4 161 24.4
L 156.7 24.4 Z"/>
</g>

<g id="Layer0_0_MEMBER_1_MEMBER_21_FILL">
<path fill="#614F49" stroke="none" d="
M 156.4 25.65
Q 156.05 25.65 156.05 26 156.05 26.35 156.4 26.35
L 160.7 26.35
Q 161.05 26.35 161.05 26 161.05 25.65 160.7 25.65
L 156.4 25.65 Z"/>
</g>

<g id="Layer0_0_MEMBER_1_MEMBER_22_FILL">
<path fill="#614F49" stroke="none" d="
M 156.1 26.85
Q 155.75 26.85 155.75 27.2 155.75 27.55 156.1 27.55
L 160.4 27.55
Q 160.75 27.55 160.75 27.2 160.75 26.85 160.4 26.85
L 156.1 26.85 Z"/>
</g>

<g id="Layer0_0_MEMBER_1_MEMBER_23_FILL">
<path fill="#614F49" stroke="none" d="
M 155.8 28.05
Q 155.45 28.05 155.45 28.45 155.45 28.8 155.8 28.8
L 160.1 28.8
Q 160.45 28.8 160.45 28.45 160.45 28.05 160.1 28.05
L 155.8 28.05 Z"/>
</g>

<g id="Layer0_0_MEMBER_1_MEMBER_24_FILL">
<path fill="#000000" fill-opacity="0.09803921568627451" stroke="none" d="
M 77.85 8.8
L 77.85 5.7 0 0 0 4.65
Q 0 5.15 0.35 5.45 0.65 5.8 1.15 5.8
L 4.3 5.8 4.3 8.8 77.85 8.8 Z"/>
</g>

<g id="Layer0_0_MEMBER_1_MEMBER_25_MEMBER_0_FILL">
<path fill="#1D1715" stroke="none" d="
M 207.05 44.1
Q 205.9 45.25 205.9 46.85 205.9 48.45 207.05 49.6 208.2 50.75 209.85 50.75 211.45 50.75 212.6 49.6 213.75 48.45 213.75 46.85 213.75 45.25 212.6 44.1 211.45 42.95 209.85 42.95 208.2 42.95 207.05 44.1 Z"/>
</g>

<g id="Layer0_0_MEMBER_1_MEMBER_25_MEMBER_1_FILL">
<path fill="#1D1715" stroke="none" d="
M 204.65 41.7
Q 202.5 43.85 202.5 46.85 202.5 49.9 204.65 52 206.8 54.15 209.85 54.15 212.85 54.15 215 52 217.15 49.9 217.15 46.85 217.15 43.8 215 41.7 212.85 39.55 209.8 39.55 206.8 39.55 204.65 41.7
M 213 43.65
Q 214.3 44.95 214.35 46.85 214.35 48.7 213 50.05 211.7 51.35 209.85 51.35 208 51.35 206.65 50.05 205.35 48.75 205.35 46.85 205.35 45 206.65 43.7 207.95 42.35 209.8 42.35 211.65 42.35 213 43.65 Z"/>
</g>

<g id="Layer0_0_MEMBER_1_MEMBER_25_MEMBER_2_MEMBER_0_FILL">
<path fill="#DADADA" stroke="none" d="
M 206.15 43.2
Q 204.65 44.7 204.65 46.85 204.65 49 206.15 50.5 207.7 52.05 209.85 52.05 212 52.05 213.5 50.5 215 49 215 46.85 215 44.7 213.5 43.2 211.95 41.7 209.8 41.7 207.65 41.7 206.15 43.2
M 213.1 43.6
Q 214.45 44.95 214.45 46.85 214.45 48.75 213.1 50.1 211.75 51.45 209.85 51.45 207.95 51.45 206.55 50.1 205.2 48.75 205.2 46.85 205.2 44.95 206.55 43.6 207.9 42.25 209.8 42.25 211.7 42.25 213.1 43.6 Z"/>
</g>

<g id="Layer0_0_MEMBER_1_MEMBER_25_MEMBER_2_MEMBER_1_FILL">
<path fill="#EDEDED" stroke="none" d="
M 207.55 44.6
Q 206.65 45.55 206.65 46.85 206.65 48.15 207.6 49.1 208.55 50.05 209.85 50.05 211.15 50.05 212.1 49.1 213 48.15 213 46.85 213 45.55 212.1 44.6 211.15 43.7 209.8 43.7 208.5 43.7 207.55 44.6
M 208.4 45.45
Q 209 44.85 209.85 44.85 210.65 44.85 211.25 45.45 211.8 46 211.8 46.85 211.8 47.7 211.25 48.25 210.65 48.85 209.85 48.85 209.05 48.85 208.45 48.25 207.85 47.7 207.85 46.85 207.85 46 208.4 45.45 Z"/>
</g>

<g id="Layer0_0_MEMBER_1_MEMBER_25_MEMBER_2_MEMBER_2_MEMBER_0_MEMBER_0_FILL">
<path fill="#DAD1D1" stroke="none" d="
M 209.85 44.85
Q 209 44.85 208.4 45.45 207.85 46 207.85 46.85 207.85 47.7 208.45 48.25 209.05 48.85 209.85 48.85 210.65 48.85 211.25 48.25 211.8 47.7 211.8 46.85 211.8 46 211.25 45.45 210.65 44.85 209.85 44.85
M 211 45.7
Q 211.2 45.9 211 46.1 210.8 46.3 210.6 46.1 210.4 45.9 210.6 45.7 210.8 45.5 211 45.7
M 208.65 46.1
Q 208.45 45.9 208.65 45.7 208.85 45.5 209.05 45.7 209.25 45.9 209.05 46.1 208.85 46.3 208.65 46.1
M 210 45.65
L 209.85 45.8
Q 209.65 45.8 209.65 45.65 209.65 45.45 209.85 45.45 210 45.45 210 45.65
M 209.85 47.6
Q 209.05 47.6 209.05 46.85 209.05 46.1 209.85 46.1 210.15 46.1 210.4 46.35 210.6 46.55 210.6 46.85 210.6 47.15 210.4 47.4 210.15 47.6 209.85 47.6
M 208.45 46.85
Q 208.45 46.7 208.6 46.7 208.75 46.7 208.75 46.85 208.75 47 208.6 47 208.45 47 208.45 46.85
M 209.85 48.25
Q 209.65 48.25 209.65 48.1 209.65 47.9 209.85 47.9 210 47.9 210 48.1
L 209.85 48.25
M 208.65 48
Q 208.5 47.85 208.65 47.6 208.85 47.4 209.05 47.6 209.3 47.85 209.05 48 208.85 48.3 208.65 48
M 211.2 46.85
Q 211.2 47 211.05 47 210.9 47 210.9 46.85 210.9 46.7 211.05 46.7 211.2 46.7 211.2 46.85
M 210.6 47.6
Q 210.8 47.4 211 47.6 211.15 47.85 211 48 210.8 48.3 210.6 48 210.45 47.85 210.6 47.6 Z"/>
</g>

<g id="Layer0_0_MEMBER_1_MEMBER_25_MEMBER_2_MEMBER_2_MEMBER_1_MEMBER_0_FILL">
<path fill="#C6C6C6" stroke="none" d="
M 209.85 44.85
Q 209 44.85 208.4 45.45 207.85 46 207.85 46.85 207.85 47.7 208.45 48.25 209.05 48.85 209.85 48.85 210.65 48.85 211.25 48.25 211.8 47.7 211.8 46.85 211.8 46 211.25 45.45 210.65 44.85 209.85 44.85
M 211 45.7
Q 211.2 45.9 211 46.1 210.8 46.3 210.6 46.1 210.4 45.9 210.6 45.7 210.8 45.5 211 45.7
M 208.65 46.1
Q 208.45 45.9 208.65 45.7 208.85 45.5 209.05 45.7 209.25 45.9 209.05 46.1 208.85 46.3 208.65 46.1
M 210 45.65
L 209.85 45.8
Q 209.65 45.8 209.65 45.65 209.65 45.45 209.85 45.45 210 45.45 210 45.65
M 209.85 47.6
Q 209.05 47.6 209.05 46.85 209.05 46.1 209.85 46.1 210.15 46.1 210.4 46.35 210.6 46.55 210.6 46.85 210.6 47.15 210.4 47.4 210.15 47.6 209.85 47.6
M 208.45 46.85
Q 208.45 46.7 208.6 46.7 208.75 46.7 208.75 46.85 208.75 47 208.6 47 208.45 47 208.45 46.85
M 209.85 48.25
Q 209.65 48.25 209.65 48.1 209.65 47.9 209.85 47.9 210 47.9 210 48.1
L 209.85 48.25
M 208.65 48
Q 208.5 47.85 208.65 47.6 208.85 47.4 209.05 47.6 209.3 47.85 209.05 48 208.85 48.3 208.65 48
M 211.2 46.85
Q 211.2 47 211.05 47 210.9 47 210.9 46.85 210.9 46.7 211.05 46.7 211.2 46.7 211.2 46.85
M 210.6 47.6
Q 210.8 47.4 211 47.6 211.15 47.85 211 48 210.8 48.3 210.6 48 210.45 47.85 210.6 47.6 Z"/>
</g>

<g id="Layer0_0_MEMBER_1_MEMBER_25_MEMBER_2_MEMBER_3_FILL">
<path fill="#DAD1D1" stroke="none" d="
M 206.55 43.6
Q 205.2 44.95 205.2 46.85 205.2 48.75 206.55 50.1 207.95 51.45 209.85 51.45 211.75 51.45 213.1 50.1 214.45 48.75 214.45 46.85 214.45 44.95 213.1 43.6 211.7 42.25 209.8 42.25 207.9 42.25 206.55 43.6
M 211.4 43.25
Q 211.65 42.8 212.05 43.05 212.45 43.25 212.15 43.7 211.9 44.15 211.5 43.9 211.1 43.7 211.4 43.25
M 207.6 43.05
Q 208 42.8 208.25 43.25 208.55 43.7 208.15 43.9 207.75 44.15 207.5 43.7 207.2 43.25 207.6 43.05
M 209.4 42.95
Q 209.4 42.45 209.8 42.45 210.25 42.45 210.25 42.95 210.25 43.45 209.8 43.45 209.4 43.45 209.4 42.95
M 206.9 45.15
Q 206.6 45.5 206.25 45.3 205.8 45.05 206 44.65 206.25 44.3 206.65 44.55 207.1 44.75 206.9 45.15
M 205.95 47.3
Q 205.4 47.3 205.4 46.85 205.4 46.4 205.95 46.4 206.45 46.4 206.45 46.85 206.45 47.3 205.95 47.3
M 206.25 48.45
Q 206.65 48.2 206.9 48.55 207.1 48.95 206.65 49.2 206.3 49.45 206 49.05 205.8 48.65 206.25 48.45
M 206.65 46.85
Q 206.65 45.55 207.55 44.6 208.5 43.7 209.8 43.7 211.15 43.7 212.1 44.6 213 45.55 213 46.85 213 48.15 212.1 49.1 211.15 50.05 209.85 50.05 208.55 50.05 207.6 49.1 206.65 48.15 206.65 46.85
M 213.65 44.65
Q 213.85 45.05 213.4 45.3 213 45.5 212.75 45.15 212.55 44.75 213 44.55 213.4 44.3 213.65 44.65
M 213 49.2
Q 212.55 48.95 212.75 48.55 213 48.2 213.4 48.4 213.85 48.65 213.65 49.05 213.5 49.4 213 49.2
M 214.25 46.85
Q 214.25 47.3 213.75 47.3 213.2 47.3 213.2 46.85 213.2 46.4 213.7 46.4 214.25 46.4 214.25 46.85
M 211.4 50.45
Q 211.1 50 211.5 49.8 211.9 49.55 212.15 50 212.45 50.45 212.05 50.65 211.7 50.95 211.4 50.45
M 208.25 50.45
Q 208 50.9 207.65 50.65 207.2 50.5 207.5 50 207.8 49.55 208.15 49.8 208.55 50 208.25 50.45
M 209.85 51.25
Q 209.4 51.25 209.4 50.75 209.4 50.25 209.85 50.25 210.25 50.25 210.25 50.75 210.25 51.25 209.85 51.25 Z"/>
</g>

<g id="Layer0_0_MEMBER_1_MEMBER_26_MEMBER_0_FILL">
<path fill="#1D1715" stroke="none" d="
M 165.4 44.1
Q 164.25 42.95 162.65 42.95 161 42.95 159.85 44.1 158.7 45.25 158.7 46.85 158.7 48.45 159.85 49.6 161 50.75 162.65 50.75 164.25 50.75 165.4 49.6 166.55 48.45 166.55 46.85 166.55 45.25 165.4 44.1 Z"/>
</g>

<g id="Layer0_0_MEMBER_1_MEMBER_26_MEMBER_1_FILL">
<path fill="#1D1715" stroke="none" d="
M 167.8 41.7
Q 165.65 39.55 162.65 39.55 159.6 39.55 157.45 41.7 155.3 43.85 155.35 46.85 155.35 49.9 157.5 52 159.6 54.15 162.65 54.15 165.65 54.15 167.8 52 169.95 49.9 169.95 46.85 169.95 43.8 167.8 41.7
M 165.8 43.65
Q 167.15 45 167.15 46.85 167.15 48.7 165.8 50.05 164.5 51.35 162.65 51.35 160.8 51.35 159.45 50.05 158.15 48.75 158.15 46.85 158.15 45 159.45 43.7 160.8 42.35 162.65 42.35 164.5 42.35 165.8 43.65 Z"/>
</g>

<g id="Layer0_0_MEMBER_1_MEMBER_26_MEMBER_2_MEMBER_0_FILL">
<path fill="#FFFFFF" stroke="none" d="
M 166.3 43.2
Q 164.8 41.7 162.65 41.7 160.5 41.7 158.95 43.2 157.45 44.7 157.45 46.85 157.45 49 159 50.5 160.5 52.05 162.65 52.05 164.8 52.05 166.3 50.5 167.8 49 167.8 46.85 167.8 44.7 166.3 43.2
M 165.9 43.6
Q 167.25 44.95 167.25 46.85 167.25 48.75 165.9 50.1 164.55 51.45 162.65 51.45 160.75 51.45 159.35 50.1 158 48.75 158 46.85 158 44.95 159.35 43.6 160.75 42.25 162.65 42.25 164.55 42.25 165.9 43.6 Z"/>
</g>

<g id="Layer0_0_MEMBER_1_MEMBER_26_MEMBER_2_MEMBER_1_FILL">
<path fill="#FFFFFF" stroke="none" d="
M 164.9 44.6
Q 163.95 43.7 162.65 43.7 161.35 43.7 160.4 44.6 159.45 45.55 159.45 46.85 159.45 48.15 160.4 49.1 161.35 50.05 162.65 50.05 163.95 50.05 164.9 49.1 165.8 48.15 165.8 46.85 165.8 45.55 164.9 44.6
M 164.05 48.25
Q 163.5 48.85 162.65 48.85 161.85 48.85 161.25 48.25 160.65 47.7 160.65 46.85 160.65 46.05 161.25 45.45 161.85 44.85 162.65 44.85 163.5 44.85 164.05 45.45 164.65 46.05 164.65 46.85 164.65 47.7 164.05 48.25 Z"/>
</g>

<g id="Layer0_0_MEMBER_1_MEMBER_26_MEMBER_2_MEMBER_2_MEMBER_0_FILL">
<path fill="#DAD1D1" stroke="none" d="
M 164.05 45.45
Q 163.5 44.85 162.65 44.85 161.85 44.85 161.25 45.45 160.65 46.05 160.65 46.85 160.65 47.7 161.25 48.25 161.85 48.85 162.65 48.85 163.5 48.85 164.05 48.25 164.65 47.7 164.65 46.85 164.65 46.05 164.05 45.45
M 162.65 46.1
Q 162.95 46.1 163.2 46.35 163.4 46.55 163.4 46.85 163.4 47.15 163.2 47.4 162.95 47.6 162.65 47.6 161.9 47.6 161.9 46.85 161.9 46.1 162.65 46.1
M 162.8 45.65
L 162.65 45.8
Q 162.45 45.8 162.45 45.65 162.45 45.45 162.65 45.45 162.8 45.45 162.8 45.65
M 163.8 46.1
Q 163.6 46.3 163.4 46.1 163.2 45.9 163.4 45.7 163.6 45.5 163.8 45.7 164 45.9 163.8 46.1
M 163.85 47
Q 163.7 47 163.7 46.85 163.7 46.7 163.85 46.7 164.05 46.7 164.05 46.85 164.05 47 163.85 47
M 163.4 47.6
Q 163.6 47.4 163.8 47.6 163.95 47.85 163.8 48 163.6 48.3 163.4 48 163.25 47.85 163.4 47.6
M 162.65 48.25
Q 162.45 48.25 162.45 48.1 162.45 47.9 162.65 47.9 162.8 47.9 162.8 48.1 162.8 48.25 162.65 48.25
M 161.45 45.7
Q 161.7 45.55 161.85 45.7 162.15 45.9 161.85 46.1 161.7 46.25 161.45 46.1 161.25 45.9 161.45 45.7
M 161.25 46.85
Q 161.25 46.7 161.4 46.7 161.55 46.7 161.55 46.85 161.55 47 161.4 47 161.25 47 161.25 46.85
M 161.45 47.6
Q 161.7 47.45 161.85 47.6 162.1 47.85 161.85 48 161.7 48.25 161.45 48 161.3 47.85 161.45 47.6 Z"/>
</g>

<g id="Layer0_0_MEMBER_1_MEMBER_26_MEMBER_2_MEMBER_3_FILL">
<path fill="#DAD1D1" stroke="none" d="
M 165.9 43.6
Q 164.55 42.25 162.65 42.25 160.75 42.25 159.35 43.6 158 44.95 158 46.85 158 48.75 159.35 50.1 160.75 51.45 162.65 51.45 164.55 51.45 165.9 50.1 167.25 48.75 167.25 46.85 167.25 44.95 165.9 43.6
M 162.2 42.95
Q 162.2 42.45 162.65 42.45 163.05 42.45 163.05 42.95 163.05 43.45 162.65 43.45 162.2 43.45 162.2 42.95
M 164.2 43.25
Q 164.5 42.8 164.85 43.05 165.25 43.25 164.95 43.7 164.7 44.15 164.3 43.9 163.9 43.7 164.2 43.25
M 166.25 45.3
Q 165.8 45.5 165.55 45.15 165.35 44.75 165.8 44.55 166.25 44.25 166.45 44.65 166.65 45 166.25 45.3
M 165.8 49.2
Q 165.35 48.95 165.55 48.55 165.8 48.2 166.25 48.4 166.65 48.7 166.45 49.05 166.3 49.4 165.8 49.2
M 167.05 46.85
Q 167.05 47.3 166.55 47.3 166 47.3 166 46.85 166 46.4 166.55 46.4 167.05 46.4 167.05 46.85
M 165.8 46.85
Q 165.8 48.15 164.9 49.1 163.95 50.05 162.65 50.05 161.35 50.05 160.4 49.1 159.45 48.15 159.45 46.85 159.45 45.55 160.4 44.6 161.35 43.7 162.65 43.7 163.95 43.7 164.9 44.6 165.8 45.55 165.8 46.85
M 164.95 50
Q 165.25 50.45 164.85 50.65 164.5 50.95 164.2 50.45 163.9 50 164.35 49.8 164.7 49.55 164.95 50
M 162.65 51.25
Q 162.2 51.25 162.2 50.75 162.2 50.25 162.65 50.25 163.05 50.25 163.05 50.75 163.05 51.25 162.65 51.25
M 160.45 43.05
Q 160.8 42.8 161.05 43.25 161.35 43.7 160.95 43.9 160.6 44.2 160.3 43.7 160 43.25 160.45 43.05
M 159.05 45.3
Q 158.6 45.05 158.8 44.65 159.1 44.3 159.45 44.55 159.9 44.75 159.7 45.15 159.5 45.55 159.05 45.3
M 158.75 47.3
Q 158.25 47.3 158.25 46.85 158.25 46.4 158.75 46.4 159.25 46.4 159.25 46.85 159.25 47.3 158.75 47.3
M 158.8 49.05
Q 158.6 48.65 159.05 48.45 159.5 48.15 159.7 48.55 159.9 48.9 159.5 49.2 159.1 49.45 158.8 49.05
M 160.45 50.65
Q 160 50.5 160.3 50 160.6 49.55 160.95 49.8 161.35 50 161.05 50.45 161 50.65 160.8 50.7 160.6 50.75 160.45 50.65 Z"/>
</g>

<g id="Layer0_0_MEMBER_1_MEMBER_27_FILL">
<path fill="#DAD1D1" stroke="none" d="
M 219.55 42.95
L 219.55 46.3 223.05 46.3
Q 223.75 46.3 224.2 45.8 224.7 45.35 224.7 44.65
L 224.7 44.6
Q 224.7 43.95 224.2 43.45 223.75 42.95 223.05 42.95
L 219.55 42.95 Z"/>
</g>

<g id="Layer0_0_MEMBER_1_MEMBER_28_FILL">
<path fill="#DAD1D1" stroke="none" d="
M 147 45.8
Q 147.5 46.3 148.2 46.3
L 151.65 46.3 151.65 42.95 148.2 42.95
Q 147.5 42.95 147 43.45 146.5 43.9 146.5 44.6
L 146.5 44.65
Q 146.5 45.35 147 45.8 Z"/>
</g>

<g id="Layer0_0_MEMBER_1_MEMBER_29_MEMBER_0_FILL">
<path fill="#FFFFFF" fill-opacity="0.4980392156862745" stroke="none" d="
M 11.15 9.65
L 3.8 0 0 0 7.4 9.65 11.15 9.65 Z"/>
</g>

<g id="Layer0_0_MEMBER_1_MEMBER_29_MEMBER_1_FILL">
<path fill="#FFFFFF" fill-opacity="0.4980392156862745" stroke="none" d="
M 12.45 9.65
L 5.2 0 4.2 0 11.5 9.65 12.45 9.65 Z"/>
</g>

<g id="Layer0_0_MEMBER_1_MEMBER_29_MEMBER_2_FILL">
<path fill="#FFFFFF" fill-opacity="0.4980392156862745" stroke="none" d="
M 11.15 9.65
L 3.85 0 0 0 7.4 9.65 11.15 9.65 Z"/>
</g>

<g id="Layer0_0_MEMBER_1_MEMBER_29_MEMBER_3_FILL">
<path fill="#FFFFFF" fill-opacity="0.4980392156862745" stroke="none" d="
M 12.5 9.65
L 5.2 0 4.25 0 11.55 9.65 12.5 9.65 Z"/>
</g>

<g id="Layer0_0_MEMBER_2_FILL">
<path fill="#614F49" stroke="none" d="
M 200.55 30.75
L 201.2 32.2
Q 201.4 32.75 201.75 32.5 202.1 32.25 201.85 31.75
L 200.9 29.8 200.55 30.75 Z"/>
</g>

<g id="Layer0_0_MEMBER_3_FILL">
<path fill="#D69943" stroke="none" d="
M 200.25 27.65
L 199.8 32.8
Q 200.65 32.8 200.75 31.95
L 201.1 28.95
Q 201.15 28.25 200.7 27.85
L 200.25 27.65 Z"/>
</g>
</defs>

<g transform="matrix( 9.899917602539062, 0, 0, 9.899917602539062, 116.45,676.8) ">
<use xlink:href="#Layer0_0_MEMBER_0_FILL"/>
</g>

<g transform="matrix( 9.899917602539062, 0, 0, 9.899917602539062, -1317,154.6) ">
<use xlink:href="#Layer0_0_MEMBER_1_MEMBER_0_FILL"/>
</g>

<g transform="matrix( 9.899917602539062, 0, 0, 9.899917602539062, -1317,154.6) ">
<use xlink:href="#Layer0_0_MEMBER_1_MEMBER_1_FILL"/>
</g>

<g transform="matrix( 9.899917602539062, 0, 0, 9.899917602539062, -1317,154.6) ">
<use xlink:href="#Layer0_0_MEMBER_1_MEMBER_2_FILL"/>
</g>

<g transform="matrix( 9.899917602539062, 0, 0, 9.899917602539062, -1317,154.6) ">
<use xlink:href="#Layer0_0_MEMBER_1_MEMBER_3_FILL"/>
</g>

<g transform="matrix( 9.899917602539062, 0, 0, 9.899917602539062, -1317,154.6) ">
<use xlink:href="#Layer0_0_MEMBER_1_MEMBER_4_FILL"/>
</g>

<g transform="matrix( 9.899917602539062, 0, 0, 9.899917602539062, -1317,154.6) ">
<use xlink:href="#Layer0_0_MEMBER_1_MEMBER_5_FILL"/>
</g>

<g transform="matrix( 9.899917602539062, 0, 0, 9.899917602539062, -1317,154.6) ">
<use xlink:href="#Layer0_0_MEMBER_1_MEMBER_6_FILL"/>
</g>

<g transform="matrix( 9.899917602539062, 0, 0, 9.899917602539062, -1317,154.6) ">
<use xlink:href="#Layer0_0_MEMBER_1_MEMBER_7_FILL"/>
</g>

<g transform="matrix( 9.899917602539062, 0, 0, 9.899917602539062, -1317,154.6) ">
<use xlink:href="#Layer0_0_MEMBER_1_MEMBER_8_FILL"/>
</g>

<g transform="matrix( 9.899917602539062, 0, 0, 9.899917602539062, -1317,154.6) ">
<use xlink:href="#Layer0_0_MEMBER_1_MEMBER_9_FILL"/>
</g>

<g transform="matrix( 9.899917602539062, 0, 0, 9.899917602539062, -1317,154.6) ">
<use xlink:href="#Layer0_0_MEMBER_1_MEMBER_10_FILL"/>
</g>

<g transform="matrix( 9.899917602539062, 0, 0, 9.899917602539062, -1317,154.6) ">
<use xlink:href="#Layer0_0_MEMBER_1_MEMBER_11_FILL"/>
</g>

<g transform="matrix( 9.899917602539062, 0, 0, 9.899917602539062, -1317,154.6) ">
<use xlink:href="#Layer0_0_MEMBER_1_MEMBER_12_FILL"/>
</g>

<g transform="matrix( 9.899917602539062, 0, 0, 9.899917602539062, -1317,154.6) ">
<use xlink:href="#Layer0_0_MEMBER_1_MEMBER_13_FILL"/>
</g>

<g transform="matrix( 9.899917602539062, 0, 0, 9.899917602539062, -1317,154.6) ">
<use xlink:href="#Layer0_0_MEMBER_1_MEMBER_14_FILL"/>
</g>

<g transform="matrix( 9.899917602539062, 0, 0, 9.899917602539062, -1317,154.6) ">
<use xlink:href="#Layer0_0_MEMBER_1_MEMBER_15_FILL"/>
</g>

<g transform="matrix( 9.899917602539062, 0, 0, 9.899917602539062, -1317,154.6) ">
<use xlink:href="#Layer0_0_MEMBER_1_MEMBER_16_FILL"/>
</g>

<g transform="matrix( 9.899917602539062, 0, 0, 9.899917602539062, -1317,154.6) ">
<use xlink:href="#Layer0_0_MEMBER_1_MEMBER_17_FILL"/>
</g>

<g transform="matrix( 9.899917602539062, 0, 0, 9.899917602539062, -1317,154.6) ">
<use xlink:href="#Layer0_0_MEMBER_1_MEMBER_18_FILL"/>
</g>

<g transform="matrix( 9.899917602539062, 0, 0, 9.899917602539062, -1317,154.6) ">
<use xlink:href="#Layer0_0_MEMBER_1_MEMBER_19_FILL"/>
</g>

<g transform="matrix( 9.899917602539062, 0, 0, 9.899917602539062, -1317,154.6) ">
<use xlink:href="#Layer0_0_MEMBER_1_MEMBER_20_FILL"/>
</g>

<g transform="matrix( 9.899917602539062, 0, 0, 9.899917602539062, -1317,154.6) ">
<use xlink:href="#Layer0_0_MEMBER_1_MEMBER_21_FILL"/>
</g>

<g transform="matrix( 9.899917602539062, 0, 0, 9.899917602539062, -1317,154.6) ">
<use xlink:href="#Layer0_0_MEMBER_1_MEMBER_22_FILL"/>
</g>

<g transform="matrix( 9.899917602539062, 0, 0, 9.899917602539062, -1317,154.6) ">
<use xlink:href="#Layer0_0_MEMBER_1_MEMBER_23_FILL"/>
</g>

<g transform="matrix( 9.899917602539062, 0, 0, 9.899917602539062, 116.45,535.25) ">
<use xlink:href="#Layer0_0_MEMBER_1_MEMBER_24_FILL"/>
</g>

<g transform="matrix( 9.899917602539062, 0, 0, 9.899917602539062, -1317,154.6) ">
<use xlink:href="#Layer0_0_MEMBER_1_MEMBER_25_MEMBER_0_FILL"/>
</g>

<g transform="matrix( 9.899917602539062, 0, 0, 9.899917602539062, -1317,154.6) ">
<use xlink:href="#Layer0_0_MEMBER_1_MEMBER_25_MEMBER_1_FILL"/>
</g>

<g transform="matrix( 9.899917602539062, 0, 0, 9.899917602539062, -1317,154.6) ">
<use xlink:href="#Layer0_0_MEMBER_1_MEMBER_25_MEMBER_2_MEMBER_0_FILL"/>
</g>

<g transform="matrix( 9.899917602539062, 0, 0, 9.899917602539062, -1317,154.6) ">
<use xlink:href="#Layer0_0_MEMBER_1_MEMBER_25_MEMBER_2_MEMBER_1_FILL"/>
</g>

<g transform="matrix( 9.899917602539062, 0, 0, 9.899917602539062, -1317,154.6) ">
<use xlink:href="#Layer0_0_MEMBER_1_MEMBER_25_MEMBER_2_MEMBER_2_MEMBER_0_MEMBER_0_FILL"/>
</g>

<g transform="matrix( 9.899917602539062, 0, 0, 9.899917602539062, -1317,154.6) ">
<use xlink:href="#Layer0_0_MEMBER_1_MEMBER_25_MEMBER_2_MEMBER_2_MEMBER_1_MEMBER_0_FILL"/>
</g>

<g transform="matrix( 9.899917602539062, 0, 0, 9.899917602539062, -1317,154.6) ">
<use xlink:href="#Layer0_0_MEMBER_1_MEMBER_25_MEMBER_2_MEMBER_3_FILL"/>
</g>

<g transform="matrix( 9.899917602539062, 0, 0, 9.899917602539062, -1317,154.6) ">
<use xlink:href="#Layer0_0_MEMBER_1_MEMBER_26_MEMBER_0_FILL"/>
</g>

<g transform="matrix( 9.899917602539062, 0, 0, 9.899917602539062, -1317,154.6) ">
<use xlink:href="#Layer0_0_MEMBER_1_MEMBER_26_MEMBER_1_FILL"/>
</g>

<g transform="matrix( 9.899917602539062, 0, 0, 9.899917602539062, -1317,154.6) ">
<use xlink:href="#Layer0_0_MEMBER_1_MEMBER_26_MEMBER_2_MEMBER_0_FILL"/>
</g>

<g transform="matrix( 9.899917602539062, 0, 0, 9.899917602539062, -1317,154.6) ">
<use xlink:href="#Layer0_0_MEMBER_1_MEMBER_26_MEMBER_2_MEMBER_1_FILL"/>
</g>

<g transform="matrix( 9.899917602539062, 0, 0, 9.899917602539062, -1317,154.6) ">
<use xlink:href="#Layer0_0_MEMBER_1_MEMBER_26_MEMBER_2_MEMBER_2_MEMBER_0_FILL"/>
</g>

<g transform="matrix( 9.899917602539062, 0, 0, 9.899917602539062, -1317,154.6) ">
<use xlink:href="#Layer0_0_MEMBER_1_MEMBER_26_MEMBER_2_MEMBER_3_FILL"/>
</g>

<g transform="matrix( 9.899917602539062, 0, 0, 9.899917602539062, -1317,154.6) ">
<use xlink:href="#Layer0_0_MEMBER_1_MEMBER_27_FILL"/>
</g>

<g transform="matrix( 9.899917602539062, 0, 0, 9.899917602539062, -1317,154.6) ">
<use xlink:href="#Layer0_0_MEMBER_1_MEMBER_28_FILL"/>
</g>

<g transform="matrix( 9.899917602539062, 0, 0, 9.899917602539062, 523.35,363.45) ">
<use xlink:href="#Layer0_0_MEMBER_1_MEMBER_29_MEMBER_0_FILL"/>
</g>

<g transform="matrix( 9.899917602539062, 0, 0, 9.899917602539062, 523.35,363.45) ">
<use xlink:href="#Layer0_0_MEMBER_1_MEMBER_29_MEMBER_1_FILL"/>
</g>

<g transform="matrix( 9.899917602539062, 0, 0, 9.899917602539062, 355.05,363.45) ">
<use xlink:href="#Layer0_0_MEMBER_1_MEMBER_29_MEMBER_2_FILL"/>
</g>

<g transform="matrix( 9.899917602539062, 0, 0, 9.899917602539062, 355.05,363.45) ">
<use xlink:href="#Layer0_0_MEMBER_1_MEMBER_29_MEMBER_3_FILL"/>
</g>

<g transform="matrix( 9.899917602539062, 0, 0, 9.899917602539062, -1317,154.6) ">
<use xlink:href="#Layer0_0_MEMBER_2_FILL"/>
</g>

<g transform="matrix( 9.899917602539062, 0, 0, 9.899917602539062, -1317,154.6) ">
<use xlink:href="#Layer0_0_MEMBER_3_FILL"/>
</g>
</svg>
