<?xml version="1.0" standalone="no"?><!DOCTYPE svg PUBLIC "-//W3C//DTD SVG 1.1//EN" "http://www.w3.org/Graphics/SVG/1.1/DTD/svg11.dtd"><svg height="244" node-id="1" sillyvg="true" template-height="244" template-width="251" version="1.1" viewBox="0 0 251 244" width="251" xmlns="http://www.w3.org/2000/svg" xmlns:xlink="http://www.w3.org/1999/xlink"><defs node-id="262"></defs><g node-id="920"><g node-id="922"><path d="M 250.98 109.72 C 250.98 69.01 217.91 36.02 177.11 36.02 C 176.47 36.02 175.85 36.05 175.22 36.07 C 162.33 14.48 138.72 0.00 111.70 0.00 C 70.90 0.00 37.83 32.99 37.83 73.70 C 37.83 74.22 37.86 74.75 37.87 75.27 C 15.56 87.95 0.50 111.88 0.50 139.33 C 0.50 180.03 33.57 213.02 74.37 213.02 C 76.69 213.02 78.98 212.90 81.25 212.69 C 94.80 229.07 115.30 239.50 138.25 239.50 C 175.96 239.50 207.04 211.31 211.54 174.91 C 234.99 162.56 250.98 138.01 250.98 109.72 Z" fill="#d6f0ff" fill-rule="nonzero" group-id="1,3" node-id="266" stroke="none" target-height="239.5" target-width="250.48" target-x="0.5" target-y="0"></path></g><g node-id="923"><path d="M 46.40 52.67 L 164.17 52.67 L 164.17 201.21 L 46.40 201.21 Z" fill="#ffffff" fill-rule="nonzero" group-id="1,4" node-id="270" stroke="none" target-height="148.54001" target-width="117.77" target-x="46.4" target-y="52.67"></path><g node-id="951"><g node-id="984"><path d="M 47.40 52.67 L 192.78 52.67 L 192.78 194.12 L 47.40 194.12 Z" fill="#ffffff" fill-opacity="0.33" fill-rule="nonzero" group-id="1,4,32,65" node-id="276" stroke="none" target-height="141.45" target-width="145.38" target-x="47.4" target-y="52.67"></path><path d="M 192.78 195.62 L 47.40 195.62 C 46.57 195.62 45.90 194.95 45.90 194.12 L 45.90 52.67 C 45.90 51.84 46.57 51.17 47.40 51.17 L 192.78 51.17 C 193.61 51.17 194.28 51.84 194.28 52.67 L 194.28 194.12 C 194.28 194.95 193.61 195.62 192.78 195.62 Z M 48.90 192.62 L 191.28 192.62 L 191.28 54.17 L 48.90 54.17 L 48.90 192.62 Z" fill="#6e6e96" fill-opacity="0.33" fill-rule="nonzero" group-id="1,4,32,65" node-id="278" stroke="none" target-height="144.45" target-width="148.38" target-x="45.9" target-y="51.17"></path></g><g node-id="985"><path d="M 144.56 101.24 L 160.22 101.24 L 160.22 125.56 L 144.56 125.56 Z" fill="#bddfff" fill-opacity="0.33" fill-rule="nonzero" group-id="1,4,32,66" node-id="283" stroke="none" target-height="24.32" target-width="15.660004" target-x="144.56" target-y="101.24"></path><path d="M 160.22 127.06 L 144.56 127.06 C 143.74 127.06 143.06 126.38 143.06 125.56 L 143.06 101.24 C 143.06 100.42 143.74 99.74 144.56 99.74 L 160.22 99.74 C 161.05 99.74 161.72 100.42 161.72 101.24 L 161.72 125.56 C 161.72 126.38 161.05 127.06 160.22 127.06 Z M 146.06 124.06 L 158.72 124.06 L 158.72 102.74 L 146.06 102.74 L 146.06 124.06 Z" fill="#6e6e96" fill-opacity="0.33" fill-rule="nonzero" group-id="1,4,32,66" node-id="285" stroke="none" target-height="27.32" target-width="18.660004" target-x="143.06" target-y="99.74"></path></g><g node-id="986"><path d="M 144.56 131.44 L 160.22 131.44 L 160.22 155.60 L 144.56 155.60 Z" fill="#bddfff" fill-opacity="0.33" fill-rule="nonzero" group-id="1,4,32,67" node-id="290" stroke="none" target-height="24.160004" target-width="15.660004" target-x="144.56" target-y="131.44"></path><path d="M 160.22 157.10 L 144.56 157.10 C 143.74 157.10 143.06 156.43 143.06 155.60 L 143.06 131.44 C 143.06 130.62 143.74 129.94 144.56 129.94 L 160.22 129.94 C 161.05 129.94 161.72 130.62 161.72 131.44 L 161.72 155.60 C 161.72 156.43 161.05 157.10 160.22 157.10 Z M 146.06 154.10 L 158.72 154.10 L 158.72 132.94 L 146.06 132.94 L 146.06 154.10 Z" fill="#6e6e96" fill-opacity="0.33" fill-rule="nonzero" group-id="1,4,32,67" node-id="292" stroke="none" target-height="27.160004" target-width="18.660004" target-x="143.06" target-y="129.94"></path></g><g node-id="987"><path d="M 122.50 70.67 L 138.16 70.67 L 138.16 95.35 L 122.50 95.35 Z" fill="#bddfff" fill-opacity="0.33" fill-rule="nonzero" group-id="1,4,32,68" node-id="297" stroke="none" target-height="24.68" target-width="15.660004" target-x="122.5" target-y="70.67"></path><path d="M 138.16 96.85 L 122.50 96.85 C 121.67 96.85 121.00 96.18 121.00 95.35 L 121.00 70.67 C 121.00 69.84 121.67 69.17 122.50 69.17 L 138.16 69.17 C 138.99 69.17 139.66 69.84 139.66 70.67 L 139.66 95.35 C 139.66 96.18 138.99 96.85 138.16 96.85 Z M 124.00 93.85 L 136.66 93.85 L 136.66 72.17 L 124.00 72.17 L 124.00 93.85 Z" fill="#6e6e96" fill-opacity="0.33" fill-rule="nonzero" group-id="1,4,32,68" node-id="299" stroke="none" target-height="27.68" target-width="18.660004" target-x="121" target-y="69.17"></path></g><g node-id="988"><path d="M 122.50 101.24 L 138.16 101.24 L 138.16 125.56 L 122.50 125.56 Z" fill="#bddfff" fill-opacity="0.33" fill-rule="nonzero" group-id="1,4,32,69" node-id="304" stroke="none" target-height="24.32" target-width="15.660004" target-x="122.5" target-y="101.24"></path><path d="M 138.16 127.06 L 122.50 127.06 C 121.67 127.06 121.00 126.38 121.00 125.56 L 121.00 101.24 C 121.00 100.42 121.67 99.74 122.50 99.74 L 138.16 99.74 C 138.99 99.74 139.66 100.42 139.66 101.24 L 139.66 125.56 C 139.66 126.38 138.99 127.06 138.16 127.06 Z M 124.00 124.06 L 136.66 124.06 L 136.66 102.74 L 124.00 102.74 L 124.00 124.06 Z" fill="#6e6e96" fill-opacity="0.33" fill-rule="nonzero" group-id="1,4,32,69" node-id="306" stroke="none" target-height="27.32" target-width="18.660004" target-x="121" target-y="99.74"></path></g><g node-id="989"><path d="M 166.63 101.24 L 185.05 101.24 L 185.05 125.56 L 166.63 125.56 Z" fill="#bddfff" fill-opacity="0.33" fill-rule="nonzero" group-id="1,4,32,70" node-id="311" stroke="none" target-height="24.32" target-width="18.419998" target-x="166.63" target-y="101.24"></path><path d="M 185.05 127.06 L 166.63 127.06 C 165.80 127.06 165.13 126.38 165.13 125.56 L 165.13 101.24 C 165.13 100.42 165.80 99.74 166.63 99.74 L 185.05 99.74 C 185.88 99.74 186.55 100.42 186.55 101.24 L 186.55 125.56 C 186.55 126.38 185.88 127.06 185.05 127.06 Z M 168.13 124.06 L 183.55 124.06 L 183.55 102.74 L 168.13 102.74 L 168.13 124.06 Z" fill="#6e6e96" fill-opacity="0.33" fill-rule="nonzero" group-id="1,4,32,70" node-id="313" stroke="none" target-height="27.32" target-width="21.419998" target-x="165.13" target-y="99.74"></path></g><g node-id="990"><path d="M 144.56 70.67 L 160.22 70.67 L 160.22 95.35 L 144.56 95.35 Z" fill="#bddfff" fill-opacity="0.33" fill-rule="nonzero" group-id="1,4,32,71" node-id="318" stroke="none" target-height="24.68" target-width="15.660004" target-x="144.56" target-y="70.67"></path><path d="M 160.22 96.85 L 144.56 96.85 C 143.74 96.85 143.06 96.18 143.06 95.35 L 143.06 70.67 C 143.06 69.84 143.74 69.17 144.56 69.17 L 160.22 69.17 C 161.05 69.17 161.72 69.84 161.72 70.67 L 161.72 95.35 C 161.72 96.18 161.05 96.85 160.22 96.85 Z M 146.06 93.85 L 158.72 93.85 L 158.72 72.17 L 146.06 72.17 L 146.06 93.85 Z" fill="#6e6e96" fill-opacity="0.33" fill-rule="nonzero" group-id="1,4,32,71" node-id="320" stroke="none" target-height="27.68" target-width="18.660004" target-x="143.06" target-y="69.17"></path></g><g node-id="991"><path d="M 122.50 131.44 L 138.16 131.44 L 138.16 155.60 L 122.50 155.60 Z" fill="#bddfff" fill-opacity="0.33" fill-rule="nonzero" group-id="1,4,32,72" node-id="325" stroke="none" target-height="24.160004" target-width="15.660004" target-x="122.5" target-y="131.44"></path><path d="M 138.16 157.10 L 122.50 157.10 C 121.67 157.10 121.00 156.43 121.00 155.60 L 121.00 131.44 C 121.00 130.62 121.67 129.94 122.50 129.94 L 138.16 129.94 C 138.99 129.94 139.66 130.62 139.66 131.44 L 139.66 155.60 C 139.66 156.43 138.99 157.10 138.16 157.10 Z M 124.00 154.10 L 136.66 154.10 L 136.66 132.94 L 124.00 132.94 L 124.00 154.10 Z" fill="#6e6e96" fill-opacity="0.33" fill-rule="nonzero" group-id="1,4,32,72" node-id="327" stroke="none" target-height="27.160004" target-width="18.660004" target-x="121" target-y="129.94"></path></g><g node-id="992"><path d="M 166.63 70.67 L 185.05 70.67 L 185.05 95.35 L 166.63 95.35 Z" fill="#bddfff" fill-opacity="0.33" fill-rule="nonzero" group-id="1,4,32,73" node-id="332" stroke="none" target-height="24.68" target-width="18.419998" target-x="166.63" target-y="70.67"></path><path d="M 185.05 96.85 L 166.63 96.85 C 165.80 96.85 165.13 96.18 165.13 95.35 L 165.13 70.67 C 165.13 69.84 165.80 69.17 166.63 69.17 L 185.05 69.17 C 185.88 69.17 186.55 69.84 186.55 70.67 L 186.55 95.35 C 186.55 96.18 185.88 96.85 185.05 96.85 Z M 168.13 93.85 L 183.55 93.85 L 183.55 72.17 L 168.13 72.17 L 168.13 93.85 Z" fill="#6e6e96" fill-opacity="0.33" fill-rule="nonzero" group-id="1,4,32,73" node-id="334" stroke="none" target-height="27.68" target-width="21.419998" target-x="165.13" target-y="69.17"></path></g><g node-id="993"><path d="M 166.63 131.44 L 185.05 131.44 L 185.05 155.60 L 166.63 155.60 Z" fill="#bddfff" fill-opacity="0.33" fill-rule="nonzero" group-id="1,4,32,74" node-id="339" stroke="none" target-height="24.160004" target-width="18.419998" target-x="166.63" target-y="131.44"></path><path d="M 185.05 157.10 L 166.63 157.10 C 165.80 157.10 165.13 156.43 165.13 155.60 L 165.13 131.44 C 165.13 130.62 165.80 129.94 166.63 129.94 L 185.05 129.94 C 185.88 129.94 186.55 130.62 186.55 131.44 L 186.55 155.60 C 186.55 156.43 185.88 157.10 185.05 157.10 Z M 168.13 154.10 L 183.55 154.10 L 183.55 132.94 L 168.13 132.94 L 168.13 154.10 Z" fill="#6e6e96" fill-opacity="0.33" fill-rule="nonzero" group-id="1,4,32,74" node-id="341" stroke="none" target-height="27.160004" target-width="21.419998" target-x="165.13" target-y="129.94"></path></g><g node-id="994"><path d="M 55.02 101.24 L 71.97 101.24 L 71.97 125.56 L 55.02 125.56 Z" fill="#bddfff" fill-opacity="0.33" fill-rule="nonzero" group-id="1,4,32,75" node-id="346" stroke="none" target-height="24.32" target-width="16.95" target-x="55.02" target-y="101.24"></path><path d="M 71.97 127.06 L 55.02 127.06 C 54.20 127.06 53.52 126.38 53.52 125.56 L 53.52 101.24 C 53.52 100.42 54.20 99.74 55.02 99.74 L 71.97 99.74 C 72.80 99.74 73.47 100.42 73.47 101.24 L 73.47 125.56 C 73.47 126.38 72.80 127.06 71.97 127.06 Z M 56.52 124.06 L 70.47 124.06 L 70.47 102.74 L 56.52 102.74 L 56.52 124.06 Z" fill="#6e6e96" fill-opacity="0.33" fill-rule="nonzero" group-id="1,4,32,75" node-id="348" stroke="none" target-height="27.32" target-width="19.95" target-x="53.52" target-y="99.74"></path></g><g node-id="995"><path d="M 55.02 70.67 L 71.97 70.67 L 71.97 95.35 L 55.02 95.35 Z" fill="#bddfff" fill-opacity="0.33" fill-rule="nonzero" group-id="1,4,32,76" node-id="353" stroke="none" target-height="24.68" target-width="16.95" target-x="55.02" target-y="70.67"></path><path d="M 71.97 96.85 L 55.02 96.85 C 54.20 96.85 53.52 96.18 53.52 95.35 L 53.52 70.67 C 53.52 69.84 54.20 69.17 55.02 69.17 L 71.97 69.17 C 72.80 69.17 73.47 69.84 73.47 70.67 L 73.47 95.35 C 73.47 96.18 72.80 96.85 71.97 96.85 Z M 56.52 93.85 L 70.47 93.85 L 70.47 72.17 L 56.52 72.17 L 56.52 93.85 Z" fill="#6e6e96" fill-opacity="0.33" fill-rule="nonzero" group-id="1,4,32,76" node-id="355" stroke="none" target-height="27.68" target-width="19.95" target-x="53.52" target-y="69.17"></path></g><g node-id="996"><path d="M 55.02 131.44 L 71.97 131.44 L 71.97 155.60 L 55.02 155.60 Z" fill="#bddfff" fill-opacity="0.33" fill-rule="nonzero" group-id="1,4,32,77" node-id="360" stroke="none" target-height="24.160004" target-width="16.95" target-x="55.02" target-y="131.44"></path><path d="M 71.97 157.10 L 55.02 157.10 C 54.20 157.10 53.52 156.43 53.52 155.60 L 53.52 131.44 C 53.52 130.62 54.20 129.94 55.02 129.94 L 71.97 129.94 C 72.80 129.94 73.47 130.62 73.47 131.44 L 73.47 155.60 C 73.47 156.43 72.80 157.10 71.97 157.10 Z M 56.52 154.10 L 70.47 154.10 L 70.47 132.94 L 56.52 132.94 L 56.52 154.10 Z" fill="#6e6e96" fill-opacity="0.33" fill-rule="nonzero" group-id="1,4,32,77" node-id="362" stroke="none" target-height="27.160004" target-width="19.95" target-x="53.52" target-y="129.94"></path></g><g node-id="997"><path d="M 78.37 131.44 L 94.03 131.44 L 94.03 155.60 L 78.37 155.60 Z" fill="#bddfff" fill-opacity="0.33" fill-rule="nonzero" group-id="1,4,32,78" node-id="367" stroke="none" target-height="24.160004" target-width="15.659996" target-x="78.37" target-y="131.44"></path><path d="M 94.03 157.10 L 78.37 157.10 C 77.54 157.10 76.87 156.43 76.87 155.60 L 76.87 131.44 C 76.87 130.62 77.54 129.94 78.37 129.94 L 94.03 129.94 C 94.86 129.94 95.53 130.62 95.53 131.44 L 95.53 155.60 C 95.53 156.43 94.86 157.10 94.03 157.10 Z M 79.87 154.10 L 92.53 154.10 L 92.53 132.94 L 79.87 132.94 L 79.87 154.10 Z" fill="#6e6e96" fill-opacity="0.33" fill-rule="nonzero" group-id="1,4,32,78" node-id="369" stroke="none" target-height="27.160004" target-width="18.659996" target-x="76.87" target-y="129.94"></path></g><g node-id="998"><path d="M 78.37 101.24 L 94.03 101.24 L 94.03 125.56 L 78.37 125.56 Z" fill="#bddfff" fill-opacity="0.33" fill-rule="nonzero" group-id="1,4,32,79" node-id="374" stroke="none" target-height="24.32" target-width="15.659996" target-x="78.37" target-y="101.24"></path><path d="M 94.03 127.06 L 78.37 127.06 C 77.54 127.06 76.87 126.38 76.87 125.56 L 76.87 101.24 C 76.87 100.42 77.54 99.74 78.37 99.74 L 94.03 99.74 C 94.86 99.74 95.53 100.42 95.53 101.24 L 95.53 125.56 C 95.53 126.38 94.86 127.06 94.03 127.06 Z M 79.87 124.06 L 92.53 124.06 L 92.53 102.74 L 79.87 102.74 L 79.87 124.06 Z" fill="#6e6e96" fill-opacity="0.33" fill-rule="nonzero" group-id="1,4,32,79" node-id="376" stroke="none" target-height="27.32" target-width="18.659996" target-x="76.87" target-y="99.74"></path></g><g node-id="999"><path d="M 100.44 131.44 L 116.10 131.44 L 116.10 155.60 L 100.44 155.60 Z" fill="#bddfff" fill-opacity="0.33" fill-rule="nonzero" group-id="1,4,32,80" node-id="381" stroke="none" target-height="24.160004" target-width="15.659996" target-x="100.44" target-y="131.44"></path><path d="M 116.10 157.10 L 100.44 157.10 C 99.61 157.10 98.94 156.43 98.94 155.60 L 98.94 131.44 C 98.94 130.62 99.61 129.94 100.44 129.94 L 116.10 129.94 C 116.92 129.94 117.60 130.62 117.60 131.44 L 117.60 155.60 C 117.60 156.43 116.92 157.10 116.10 157.10 Z M 101.94 154.10 L 114.60 154.10 L 114.60 132.94 L 101.94 132.94 L 101.94 154.10 Z" fill="#6e6e96" fill-opacity="0.33" fill-rule="nonzero" group-id="1,4,32,80" node-id="383" stroke="none" target-height="27.160004" target-width="18.659996" target-x="98.94" target-y="129.94"></path></g><g node-id="1000"><path d="M 100.44 70.67 L 116.10 70.67 L 116.10 95.35 L 100.44 95.35 Z" fill="#bddfff" fill-opacity="0.33" fill-rule="nonzero" group-id="1,4,32,81" node-id="388" stroke="none" target-height="24.68" target-width="15.659996" target-x="100.44" target-y="70.67"></path><path d="M 116.10 96.85 L 100.44 96.85 C 99.61 96.85 98.94 96.18 98.94 95.35 L 98.94 70.67 C 98.94 69.84 99.61 69.17 100.44 69.17 L 116.10 69.17 C 116.92 69.17 117.60 69.84 117.60 70.67 L 117.60 95.35 C 117.60 96.18 116.92 96.85 116.10 96.85 Z M 101.94 93.85 L 114.60 93.85 L 114.60 72.17 L 101.94 72.17 L 101.94 93.85 Z" fill="#6e6e96" fill-opacity="0.33" fill-rule="nonzero" group-id="1,4,32,81" node-id="390" stroke="none" target-height="27.68" target-width="18.659996" target-x="98.94" target-y="69.17"></path></g><g node-id="1001"><path d="M 100.44 101.24 L 116.10 101.24 L 116.10 125.56 L 100.44 125.56 Z" fill="#bddfff" fill-opacity="0.33" fill-rule="nonzero" group-id="1,4,32,82" node-id="395" stroke="none" target-height="24.32" target-width="15.659996" target-x="100.44" target-y="101.24"></path><path d="M 116.10 127.06 L 100.44 127.06 C 99.61 127.06 98.94 126.38 98.94 125.56 L 98.94 101.24 C 98.94 100.42 99.61 99.74 100.44 99.74 L 116.10 99.74 C 116.92 99.74 117.60 100.42 117.60 101.24 L 117.60 125.56 C 117.60 126.38 116.92 127.06 116.10 127.06 Z M 101.94 124.06 L 114.60 124.06 L 114.60 102.74 L 101.94 102.74 L 101.94 124.06 Z" fill="#6e6e96" fill-opacity="0.33" fill-rule="nonzero" group-id="1,4,32,82" node-id="397" stroke="none" target-height="27.32" target-width="18.659996" target-x="98.94" target-y="99.74"></path></g><g node-id="1002"><path d="M 78.37 70.67 L 94.03 70.67 L 94.03 95.35 L 78.37 95.35 Z" fill="#bddfff" fill-opacity="0.33" fill-rule="nonzero" group-id="1,4,32,83" node-id="402" stroke="none" target-height="24.68" target-width="15.659996" target-x="78.37" target-y="70.67"></path><path d="M 94.03 96.85 L 78.37 96.85 C 77.54 96.85 76.87 96.18 76.87 95.35 L 76.87 70.67 C 76.87 69.84 77.54 69.17 78.37 69.17 L 94.03 69.17 C 94.86 69.17 95.53 69.84 95.53 70.67 L 95.53 95.35 C 95.53 96.18 94.86 96.85 94.03 96.85 Z M 79.87 93.85 L 92.53 93.85 L 92.53 72.17 L 79.87 72.17 L 79.87 93.85 Z" fill="#6e6e96" fill-opacity="0.33" fill-rule="nonzero" group-id="1,4,32,83" node-id="404" stroke="none" target-height="27.68" target-width="18.659996" target-x="76.87" target-y="69.17"></path></g><g node-id="1003"><path d="M 43.48 52.67 L 196.71 52.67 L 196.71 59.74 L 43.48 59.74 Z" fill="#d5b697" fill-opacity="0.33" fill-rule="nonzero" group-id="1,4,32,84" node-id="409" stroke="none" target-height="7.0700035" target-width="153.23001" target-x="43.48" target-y="52.67"></path><path d="M 196.71 61.24 L 43.48 61.24 C 42.65 61.24 41.98 60.57 41.98 59.74 L 41.98 52.67 C 41.98 51.84 42.65 51.17 43.48 51.17 L 196.71 51.17 C 197.54 51.17 198.21 51.84 198.21 52.67 L 198.21 59.74 C 198.21 60.57 197.54 61.24 196.71 61.24 Z M 44.98 58.24 L 195.21 58.24 L 195.21 54.17 L 44.98 54.17 L 44.98 58.24 Z" fill="#6e6e96" fill-opacity="0.33" fill-rule="nonzero" group-id="1,4,32,84" node-id="411" stroke="none" target-height="10.0700035" target-width="156.23001" target-x="41.98" target-y="51.17"></path></g><g node-id="1004"><path d="M 144.56 161.90 L 160.22 161.90 L 160.22 186.06 L 144.56 186.06 Z" fill="#bddfff" fill-opacity="0.33" fill-rule="nonzero" group-id="1,4,32,85" node-id="416" stroke="none" target-height="24.160004" target-width="15.660004" target-x="144.56" target-y="161.9"></path><path d="M 160.22 187.56 L 144.56 187.56 C 143.74 187.56 143.06 186.88 143.06 186.06 L 143.06 161.90 C 143.06 161.07 143.74 160.40 144.56 160.40 L 160.22 160.40 C 161.05 160.40 161.72 161.07 161.72 161.90 L 161.72 186.06 C 161.72 186.88 161.05 187.56 160.22 187.56 Z M 146.06 184.56 L 158.72 184.56 L 158.72 163.40 L 146.06 163.40 L 146.06 184.56 Z" fill="#6e6e96" fill-opacity="0.33" fill-rule="nonzero" group-id="1,4,32,85" node-id="418" stroke="none" target-height="27.160004" target-width="18.660004" target-x="143.06" target-y="160.4"></path></g><g node-id="1005"><path d="M 166.63 161.90 L 185.05 161.90 L 185.05 186.06 L 166.63 186.06 Z" fill="#bddfff" fill-opacity="0.33" fill-rule="nonzero" group-id="1,4,32,86" node-id="423" stroke="none" target-height="24.160004" target-width="18.419998" target-x="166.63" target-y="161.9"></path><path d="M 185.05 187.56 L 166.63 187.56 C 165.80 187.56 165.13 186.88 165.13 186.06 L 165.13 161.90 C 165.13 161.07 165.80 160.40 166.63 160.40 L 185.05 160.40 C 185.88 160.40 186.55 161.07 186.55 161.90 L 186.55 186.06 C 186.55 186.88 185.88 187.56 185.05 187.56 Z M 168.13 184.56 L 183.55 184.56 L 183.55 163.40 L 168.13 163.40 L 168.13 184.56 Z" fill="#6e6e96" fill-opacity="0.33" fill-rule="nonzero" group-id="1,4,32,86" node-id="425" stroke="none" target-height="27.160004" target-width="21.419998" target-x="165.13" target-y="160.4"></path></g><g node-id="1006"><path d="M 55.02 161.90 L 71.97 161.90 L 71.97 186.06 L 55.02 186.06 Z" fill="#bddfff" fill-opacity="0.33" fill-rule="nonzero" group-id="1,4,32,87" node-id="430" stroke="none" target-height="24.160004" target-width="16.95" target-x="55.02" target-y="161.9"></path><path d="M 71.97 187.56 L 55.02 187.56 C 54.20 187.56 53.52 186.88 53.52 186.06 L 53.52 161.90 C 53.52 161.07 54.20 160.40 55.02 160.40 L 71.97 160.40 C 72.80 160.40 73.47 161.07 73.47 161.90 L 73.47 186.06 C 73.47 186.88 72.80 187.56 71.97 187.56 Z M 56.52 184.56 L 70.47 184.56 L 70.47 163.40 L 56.52 163.40 L 56.52 184.56 Z" fill="#6e6e96" fill-opacity="0.33" fill-rule="nonzero" group-id="1,4,32,87" node-id="432" stroke="none" target-height="27.160004" target-width="19.95" target-x="53.52" target-y="160.4"></path></g><g node-id="1007"><path d="M 78.37 161.90 L 94.03 161.90 L 94.03 186.06 L 78.37 186.06 Z" fill="#bddfff" fill-opacity="0.33" fill-rule="nonzero" group-id="1,4,32,88" node-id="437" stroke="none" target-height="24.160004" target-width="15.659996" target-x="78.37" target-y="161.9"></path><path d="M 94.03 187.56 L 78.37 187.56 C 77.54 187.56 76.87 186.88 76.87 186.06 L 76.87 161.90 C 76.87 161.07 77.54 160.40 78.37 160.40 L 94.03 160.40 C 94.86 160.40 95.53 161.07 95.53 161.90 L 95.53 186.06 C 95.53 186.88 94.86 187.56 94.03 187.56 Z M 79.87 184.56 L 92.53 184.56 L 92.53 163.40 L 79.87 163.40 L 79.87 184.56 Z" fill="#6e6e96" fill-opacity="0.33" fill-rule="nonzero" group-id="1,4,32,88" node-id="439" stroke="none" target-height="27.160004" target-width="18.659996" target-x="76.87" target-y="160.4"></path></g><g node-id="1008"><path d="M 100.44 161.90 L 138.22 161.90 L 138.22 194.12 L 100.44 194.12 Z" fill="#e4bc96" fill-opacity="0.33" fill-rule="nonzero" group-id="1,4,32,89" node-id="444" stroke="none" target-height="32.22" target-width="37.78" target-x="100.44" target-y="161.9"></path><path d="M 138.22 195.62 L 100.44 195.62 C 99.61 195.62 98.94 194.95 98.94 194.12 L 98.94 161.90 C 98.94 161.07 99.61 160.40 100.44 160.40 L 138.22 160.40 C 139.05 160.40 139.72 161.07 139.72 161.90 L 139.72 194.12 C 139.72 194.95 139.05 195.62 138.22 195.62 Z M 101.94 192.62 L 136.72 192.62 L 136.72 163.40 L 101.94 163.40 L 101.94 192.62 Z" fill="#6e6e96" fill-opacity="0.33" fill-rule="nonzero" group-id="1,4,32,89" node-id="446" stroke="none" target-height="35.22" target-width="40.78" target-x="98.94" target-y="160.4"></path></g><path d="M 119.11 195.62 C 118.28 195.62 117.61 194.95 117.61 194.12 L 117.61 161.90 C 117.61 161.07 118.28 160.40 119.11 160.40 C 119.94 160.40 120.61 161.07 120.61 161.90 L 120.61 194.12 C 120.61 194.95 119.94 195.62 119.11 195.62 Z" fill="#6e6e96" fill-opacity="0.33" fill-rule="nonzero" group-id="1,4,32" node-id="449" stroke="none" target-height="35.22" target-width="3" target-x="117.61" target-y="160.4"></path></g><path d="M 85.83 191.56 L 123.83 191.56 L 123.83 209.56 L 85.83 209.56 Z" fill="#d6f0ff" fill-rule="nonzero" group-id="1,4" node-id="452" stroke="none" target-height="18" target-width="38" target-x="85.83" target-y="191.56"></path><path d="M 101.62 21.60 L 80.50 21.60 C 79.12 21.60 78.00 20.48 78.00 19.10 C 78.00 17.72 79.12 16.60 80.50 16.60 L 101.62 16.60 C 103.01 16.60 104.12 17.72 104.12 19.10 C 104.12 20.48 103.01 21.60 101.62 21.60 Z" fill="#ffffff" fill-rule="nonzero" group-id="1,4" node-id="454" stroke="none" target-height="5" target-width="26.120003" target-x="78" target-y="16.6"></path><path d="M 115.47 32.52 L 90.70 32.52 C 89.32 32.52 88.20 31.41 88.20 30.02 C 88.20 28.64 89.32 27.52 90.70 27.52 L 115.47 27.52 C 116.85 27.52 117.97 28.64 117.97 30.02 C 117.97 31.41 116.85 32.52 115.47 32.52 Z" fill="#ffffff" fill-rule="nonzero" group-id="1,4" node-id="456" stroke="none" target-height="5" target-width="29.770004" target-x="88.2" target-y="27.52"></path></g><g node-id="924"><g node-id="952"><path d="M 156.50 21.59 L 223.62 21.59 L 223.62 31.15 L 156.50 31.15 Z" fill="#ebebf7" fill-rule="nonzero" group-id="1,5,33" node-id="462" stroke="none" target-height="9.559999" target-width="67.119995" target-x="156.5" target-y="21.59"></path><path d="M 223.62 32.65 L 156.50 32.65 C 155.67 32.65 155.00 31.98 155.00 31.15 L 155.00 21.59 C 155.00 20.76 155.67 20.09 156.50 20.09 L 223.62 20.09 C 224.45 20.09 225.12 20.76 225.12 21.59 L 225.12 31.15 C 225.12 31.98 224.45 32.65 223.62 32.65 Z M 158.00 29.65 L 222.12 29.65 L 222.12 23.09 L 158.00 23.09 L 158.00 29.65 Z" fill="#ccccde" fill-rule="nonzero" group-id="1,5,33" node-id="464" stroke="none" target-height="12.560001" target-width="70.119995" target-x="155" target-y="20.09"></path></g><g node-id="953"><path d="M 137.10 30.98 L 242.69 30.98 L 242.69 200.34 L 137.10 200.34 Z" fill="#ffffff" fill-rule="nonzero" group-id="1,5,34" node-id="469" stroke="none" target-height="169.36" target-width="105.59" target-x="137.1" target-y="30.98"></path><path d="M 242.69 201.84 L 137.10 201.84 C 136.27 201.84 135.60 201.16 135.60 200.34 L 135.60 30.98 C 135.60 30.15 136.27 29.48 137.10 29.48 L 242.69 29.48 C 243.52 29.48 244.19 30.15 244.19 30.98 L 244.19 200.34 C 244.19 201.16 243.52 201.84 242.69 201.84 Z M 138.60 198.84 L 241.19 198.84 L 241.19 32.48 L 138.60 32.48 L 138.60 198.84 Z" fill="#ccccde" fill-rule="nonzero" group-id="1,5,34" node-id="471" stroke="none" target-height="172.36" target-width="108.59" target-x="135.6" target-y="29.48"></path></g><g node-id="954"><path d="M 146.17 39.45 L 234.21 39.45 L 234.21 200.34 L 146.17 200.34 Z" fill="#cfe7ff" fill-rule="nonzero" group-id="1,5,35" node-id="476" stroke="none" target-height="160.89" target-width="88.04001" target-x="146.17" target-y="39.45"></path><path d="M 234.21 201.84 L 146.17 201.84 C 145.35 201.84 144.67 201.17 144.67 200.34 L 144.67 39.45 C 144.67 38.62 145.35 37.95 146.17 37.95 L 234.21 37.95 C 235.04 37.95 235.71 38.62 235.71 39.45 L 235.71 200.34 C 235.71 201.17 235.04 201.84 234.21 201.84 Z M 147.67 198.84 L 232.71 198.84 L 232.71 40.95 L 147.67 40.95 L 147.67 198.84 Z" fill="#ccccde" fill-rule="nonzero" group-id="1,5,35" node-id="478" stroke="none" target-height="163.89" target-width="91.04001" target-x="144.67" target-y="37.95"></path></g><g node-id="955"><path d="M 147.30 123.09 L 229.94 40.45 L 170.00 40.62 L 147.30 63.99 Z" fill="#ffffff" fill-opacity="0.49" fill-rule="nonzero" group-id="1,5,36" node-id="483" stroke="none" target-height="82.64" target-width="82.64" target-x="147.3" target-y="40.45"></path></g><g node-id="956"><path d="M 233.48 62.66 L 146.65 149.49 L 170.50 150.18 L 233.48 87.20 Z" fill="#ffffff" fill-opacity="0.27" fill-rule="nonzero" group-id="1,5,37" node-id="488" stroke="none" target-height="87.51999" target-width="86.83" target-x="146.65" target-y="62.66"></path></g><g node-id="957"><path d="M 146.17 149.54 L 234.21 149.54 L 234.21 200.34 L 146.17 200.34 Z" fill="#cfe7ff" fill-rule="nonzero" group-id="1,5,38" node-id="493" stroke="none" target-height="50.800003" target-width="88.04001" target-x="146.17" target-y="149.54"></path><path d="M 234.21 201.84 L 146.17 201.84 C 145.35 201.84 144.67 201.16 144.67 200.34 L 144.67 149.54 C 144.67 148.72 145.35 148.04 146.17 148.04 L 234.21 148.04 C 235.04 148.04 235.71 148.72 235.71 149.54 L 235.71 200.34 C 235.71 201.16 235.04 201.84 234.21 201.84 Z M 147.67 198.84 L 232.71 198.84 L 232.71 151.04 L 147.67 151.04 L 147.67 198.84 Z" fill="#ccccde" fill-rule="nonzero" group-id="1,5,38" node-id="495" stroke="none" target-height="53.800003" target-width="91.04001" target-x="144.67" target-y="148.04"></path></g><g node-id="958"><g node-id="1009"><path d="M 169.29 162.00 L 147.47 183.19 L 147.47 196.12 L 169.29 174.94 Z" fill="#ffffff" fill-opacity="0.1813" fill-rule="nonzero" group-id="1,5,39,90" node-id="502" stroke="none" target-height="34.119995" target-width="21.819992" target-x="147.47" target-y="162"></path></g><path d="M 147.35 173.38 L 159.06 162.00 L 147.35 162.00" fill="#ffffff" fill-opacity="0.1813" fill-rule="nonzero" group-id="1,5,39,91" node-id="507" stroke="none" target-height="11.380005" target-width="11.709991" target-x="147.35" target-y="162"></path></g><g node-id="959"><g node-id="1011"><path d="M 200.76 162.00 L 179.57 183.19 L 179.57 196.12 L 200.76 174.94 Z" fill="#ffffff" fill-opacity="0.1813" fill-rule="nonzero" group-id="1,5,40,92" node-id="515" stroke="none" target-height="34.119995" target-width="21.189987" target-x="179.57" target-y="162"></path></g><path d="M 180.29 173.38 L 191.67 162.00 L 180.29 162.00" fill="#ffffff" fill-opacity="0.1813" fill-rule="nonzero" group-id="1,5,40,93" node-id="520" stroke="none" target-height="11.380005" target-width="11.380005" target-x="180.29" target-y="162"></path></g><g node-id="960"><g node-id="1013"><path d="M 233.02 162.00 L 209.48 183.19 L 209.48 196.12 L 233.02 174.94 Z" fill="#ffffff" fill-opacity="0.1813" fill-rule="nonzero" group-id="1,5,41,94" node-id="528" stroke="none" target-height="34.119995" target-width="23.540009" target-x="209.48" target-y="162"></path></g><path d="M 210.28 173.38 L 222.92 162.00 L 210.28 162.00" fill="#ffffff" fill-opacity="0.1813" fill-rule="nonzero" group-id="1,5,41,95" node-id="533" stroke="none" target-height="11.380005" target-width="12.639999" target-x="210.28" target-y="162"></path></g><path d="M 155.89 39.45 L 158.89 39.45 L 158.89 149.54 L 155.89 149.54 Z" fill="#ccccde" fill-rule="nonzero" group-id="1,5" node-id="537" stroke="none" target-height="110.09" target-width="3" target-x="155.89" target-y="39.45"></path><path d="M 167.13 39.45 L 170.13 39.45 L 170.13 149.54 L 167.13 149.54 Z" fill="#ccccde" fill-rule="nonzero" group-id="1,5" node-id="539" stroke="none" target-height="110.09" target-width="3" target-x="167.13" target-y="39.45"></path><path d="M 178.08 39.45 L 181.08 39.45 L 181.08 149.54 L 178.08 149.54 Z" fill="#ccccde" fill-rule="nonzero" group-id="1,5" node-id="541" stroke="none" target-height="110.09" target-width="3" target-x="178.08" target-y="39.45"></path><path d="M 189.59 39.45 L 192.59 39.45 L 192.59 149.54 L 189.59 149.54 Z" fill="#ccccde" fill-rule="nonzero" group-id="1,5" node-id="543" stroke="none" target-height="110.09" target-width="3" target-x="189.59" target-y="39.45"></path><path d="M 200.54 39.45 L 203.54 39.45 L 203.54 149.54 L 200.54 149.54 Z" fill="#ccccde" fill-rule="nonzero" group-id="1,5" node-id="545" stroke="none" target-height="110.09" target-width="3" target-x="200.54" target-y="39.45"></path><path d="M 211.22 39.45 L 214.22 39.45 L 214.22 149.54 L 211.22 149.54 Z" fill="#ccccde" fill-rule="nonzero" group-id="1,5" node-id="547" stroke="none" target-height="110.09" target-width="3" target-x="211.22" target-y="39.45"></path><path d="M 221.89 39.45 L 224.89 39.45 L 224.89 149.54 L 221.89 149.54 Z" fill="#ccccde" fill-rule="nonzero" group-id="1,5" node-id="549" stroke="none" target-height="110.09" target-width="3" target-x="221.89" target-y="39.45"></path><path d="M 234.21 64.16 L 146.17 64.16 C 145.35 64.16 144.67 63.49 144.67 62.66 C 144.67 61.83 145.35 61.16 146.17 61.16 L 234.21 61.16 C 235.04 61.16 235.71 61.83 235.71 62.66 C 235.71 63.49 235.04 64.16 234.21 64.16 Z" fill="#ccccde" fill-rule="nonzero" group-id="1,5" node-id="551" stroke="none" target-height="3.0000038" target-width="91.04001" target-x="144.67" target-y="61.16"></path><path d="M 234.21 86.62 L 146.17 86.62 C 145.35 86.62 144.67 85.95 144.67 85.12 C 144.67 84.30 145.35 83.62 146.17 83.62 L 234.21 83.62 C 235.04 83.62 235.71 84.30 235.71 85.12 C 235.71 85.95 235.04 86.62 234.21 86.62 Z" fill="#ccccde" fill-rule="nonzero" group-id="1,5" node-id="553" stroke="none" target-height="3" target-width="91.04001" target-x="144.67" target-y="83.62"></path><path d="M 234.21 107.97 L 146.17 107.97 C 145.35 107.97 144.67 107.30 144.67 106.47 C 144.67 105.64 145.35 104.97 146.17 104.97 L 234.21 104.97 C 235.04 104.97 235.71 105.64 235.71 106.47 C 235.71 107.30 235.04 107.97 234.21 107.97 Z" fill="#ccccde" fill-rule="nonzero" group-id="1,5" node-id="555" stroke="none" target-height="3" target-width="91.04001" target-x="144.67" target-y="104.97"></path><path d="M 146.17 126.31 L 234.21 126.31 L 234.21 129.31 L 146.17 129.31 Z" fill="#ccccde" fill-rule="nonzero" group-id="1,5" node-id="557" stroke="none" target-height="3" target-width="88.04001" target-x="146.17" target-y="126.31"></path><path d="M 170.59 157.72 L 179.57 157.72 L 179.57 200.34 L 170.59 200.34 Z" fill="#f0f0ff" fill-rule="nonzero" group-id="1,5,42" node-id="561" stroke="none" target-height="42.619995" target-width="8.980011" target-x="170.59" target-y="157.72"></path><path d="M 179.57 201.84 L 170.59 201.84 C 169.76 201.84 169.09 201.16 169.09 200.34 L 169.09 157.72 C 169.09 156.89 169.76 156.22 170.59 156.22 L 179.57 156.22 C 180.40 156.22 181.07 156.89 181.07 157.72 L 181.07 200.34 C 181.07 201.16 180.40 201.84 179.57 201.84 Z M 172.09 198.84 L 178.07 198.84 L 178.07 159.22 L 172.09 159.22 L 172.09 198.84 Z" fill="#ccccde" fill-rule="nonzero" group-id="1,5,42" node-id="563" stroke="none" target-height="45.619995" target-width="11.980011" target-x="169.09" target-y="156.22"></path><path d="M 200.50 155.77 L 208.93 155.77 L 208.93 200.34 L 200.50 200.34 Z" fill="#f0f0ff" fill-rule="nonzero" group-id="1,5,43" node-id="568" stroke="none" target-height="44.569992" target-width="8.429993" target-x="200.5" target-y="155.77"></path><path d="M 208.93 201.84 L 200.50 201.84 C 199.67 201.84 199.00 201.16 199.00 200.34 L 199.00 155.77 C 199.00 154.95 199.67 154.27 200.50 154.27 L 208.93 154.27 C 209.75 154.27 210.43 154.95 210.43 155.77 L 210.43 200.34 C 210.43 201.16 209.75 201.84 208.93 201.84 Z M 202.00 198.84 L 207.43 198.84 L 207.43 157.27 L 202.00 157.27 L 202.00 198.84 Z" fill="#ccccde" fill-rule="nonzero" group-id="1,5,43" node-id="570" stroke="none" target-height="47.569992" target-width="11.429993" target-x="199" target-y="154.27"></path><path d="M 146.17 149.54 L 234.21 149.54 L 234.21 162.00 L 146.17 162.00 Z" fill="#f0f0ff" fill-rule="nonzero" group-id="1,5,44" node-id="575" stroke="none" target-height="12.460007" target-width="88.04001" target-x="146.17" target-y="149.54"></path><path d="M 234.21 163.50 L 146.17 163.50 C 145.35 163.50 144.67 162.83 144.67 162.00 L 144.67 149.54 C 144.67 148.72 145.35 148.04 146.17 148.04 L 234.21 148.04 C 235.04 148.04 235.71 148.72 235.71 149.54 L 235.71 162.00 C 235.71 162.83 235.04 163.50 234.21 163.50 Z M 147.67 160.50 L 232.71 160.50 L 232.71 151.04 L 147.67 151.04 L 147.67 160.50 Z" fill="#ccccde" fill-rule="nonzero" group-id="1,5,44" node-id="577" stroke="none" target-height="15.460007" target-width="91.04001" target-x="144.67" target-y="148.04"></path><path d="M 175.32 14.08 L 204.81 14.08 L 204.81 21.59 L 175.32 21.59 Z" fill="#ebebf7" fill-rule="nonzero" group-id="1,5,45" node-id="582" stroke="none" target-height="7.51" target-width="29.48999" target-x="175.32" target-y="14.08"></path><path d="M 204.81 23.09 L 175.32 23.09 C 174.49 23.09 173.82 22.42 173.82 21.59 L 173.82 14.08 C 173.82 13.25 174.49 12.58 175.32 12.58 L 204.81 12.58 C 205.63 12.58 206.31 13.25 206.31 14.08 L 206.31 21.59 C 206.31 22.42 205.63 23.09 204.81 23.09 Z M 176.82 20.09 L 203.31 20.09 L 203.31 15.58 L 176.82 15.58 L 176.82 20.09 Z" fill="#ccccde" fill-rule="nonzero" group-id="1,5,45" node-id="584" stroke="none" target-height="10.51" target-width="32.48999" target-x="173.82" target-y="12.58"></path><path d="M 190.06 15.58 C 189.24 15.58 188.56 14.91 188.56 14.08 L 188.56 1.83 C 188.56 1.00 189.24 0.33 190.06 0.33 C 190.89 0.33 191.56 1.00 191.56 1.83 L 191.56 14.08 C 191.56 14.91 190.89 15.58 190.06 15.58 Z" fill="#ccccde" fill-rule="nonzero" group-id="1,5" node-id="587" stroke="none" target-height="15.25" target-width="3" target-x="188.56" target-y="0.33"></path><path d="M 133.37 196.05 L 248.10 196.05 L 248.10 204.76 L 133.37 204.76 Z" fill="#f0f0ff" fill-rule="nonzero" group-id="1,5,46" node-id="591" stroke="none" target-height="8.709991" target-width="114.73001" target-x="133.37" target-y="196.05"></path><path d="M 248.10 206.26 L 133.37 206.26 C 132.54 206.26 131.87 205.59 131.87 204.76 L 131.87 196.05 C 131.87 195.22 132.54 194.55 133.37 194.55 L 248.10 194.55 C 248.93 194.55 249.60 195.22 249.60 196.05 L 249.60 204.76 C 249.60 205.59 248.93 206.26 248.10 206.26 Z M 134.87 203.26 L 246.60 203.26 L 246.60 197.55 L 134.87 197.55 L 134.87 203.26 Z" fill="#ccccde" fill-rule="nonzero" group-id="1,5,46" node-id="593" stroke="none" target-height="11.709991" target-width="117.73001" target-x="131.87" target-y="194.55"></path></g><g node-id="925"><g node-id="966"><path d="M 98.44 204.76 L 9.33 204.76 L 9.33 128.59 L 53.89 100.07 L 98.44 128.59 Z" fill="#ffffff" fill-rule="nonzero" group-id="1,6,47" node-id="600" stroke="none" target-height="104.689995" target-width="89.11" target-x="9.33" target-y="100.07"></path><path d="M 99.94 206.26 L 7.83 206.26 L 7.83 127.77 L 53.89 98.29 L 99.94 127.77 L 99.94 206.26 Z M 10.83 203.26 L 96.94 203.26 L 96.94 129.41 L 53.89 101.85 L 10.83 129.41 L 10.83 203.26 Z" fill="#ccccde" fill-rule="nonzero" group-id="1,6,47" node-id="602" stroke="none" target-height="107.96999" target-width="92.11" target-x="7.83" target-y="98.29"></path></g><g node-id="967"><path d="M 53.89 95.23 L 1.50 127.08 L 1.50 132.32 L 9.33 132.32 L 53.89 104.81 L 98.32 132.68 L 105.19 132.79 L 105.19 127.08 Z" fill="#e0e6fc" fill-rule="nonzero" group-id="1,6,48" node-id="607" stroke="none" target-height="37.55999" target-width="103.69" target-x="1.5" target-y="95.23"></path><path d="M 105.19 134.29 C 105.19 134.29 105.18 134.29 105.17 134.29 L 98.30 134.18 C 98.02 134.18 97.76 134.10 97.53 133.96 L 53.88 106.58 L 10.12 133.60 C 9.88 133.74 9.61 133.82 9.33 133.82 L 1.50 133.82 C 0.67 133.82 0.00 133.15 0.00 132.32 L 0.00 127.08 C 0.00 126.56 0.27 126.07 0.72 125.80 L 53.11 93.95 C 53.59 93.66 54.20 93.66 54.68 93.96 L 105.98 125.81 C 106.42 126.08 106.69 126.56 106.69 127.08 L 106.69 132.79 C 106.69 133.19 106.53 133.58 106.25 133.86 C 105.96 134.14 105.59 134.29 105.19 134.29 Z M 98.76 131.19 L 103.69 131.27 L 103.69 127.92 L 53.88 97.00 L 3.00 127.93 L 3.00 130.82 L 8.90 130.82 L 53.10 103.54 C 53.59 103.24 54.20 103.24 54.68 103.55 L 98.76 131.19 Z" fill="#ccccde" fill-rule="nonzero" group-id="1,6,48" node-id="609" stroke="none" target-height="40.62999" target-width="106.69" target-x="0" target-y="93.66"></path></g><g node-id="968"><path d="M 17.74 166.61 L 47.99 166.61 L 47.99 186.57 L 17.74 186.57 Z" fill="#d4eaff" fill-rule="nonzero" group-id="1,6,49" node-id="614" stroke="none" target-height="19.960007" target-width="30.250002" target-x="17.74" target-y="166.61"></path><path d="M 47.99 188.07 L 17.74 188.07 C 16.91 188.07 16.24 187.40 16.24 186.57 L 16.24 166.61 C 16.24 165.78 16.91 165.11 17.74 165.11 L 47.99 165.11 C 48.82 165.11 49.49 165.78 49.49 166.61 L 49.49 186.57 C 49.49 187.40 48.82 188.07 47.99 188.07 Z M 19.24 185.07 L 46.49 185.07 L 46.49 168.11 L 19.24 168.11 L 19.24 185.07 Z" fill="#ccccde" fill-rule="nonzero" group-id="1,6,49" node-id="616" stroke="none" target-height="22.960007" target-width="33.25" target-x="16.24" target-y="165.11"></path></g><g node-id="969"><path d="M 9.33 192.63 L 98.44 192.63 L 98.44 204.76 L 9.33 204.76 Z" fill="#fcebe3" fill-rule="nonzero" group-id="1,6,50" node-id="621" stroke="none" target-height="12.12999" target-width="89.11" target-x="9.33" target-y="192.63"></path><path d="M 98.44 206.26 L 9.33 206.26 C 8.50 206.26 7.83 205.59 7.83 204.76 L 7.83 192.63 C 7.83 191.80 8.50 191.13 9.33 191.13 L 98.44 191.13 C 99.27 191.13 99.94 191.80 99.94 192.63 L 99.94 204.76 C 99.94 205.59 99.27 206.26 98.44 206.26 Z M 10.83 203.26 L 96.94 203.26 L 96.94 194.13 L 10.83 194.13 L 10.83 203.26 Z" fill="#ccccde" fill-rule="nonzero" group-id="1,6,50" node-id="623" stroke="none" target-height="15.12999" target-width="92.11" target-x="7.83" target-y="191.13"></path></g><g node-id="970"><path d="M 49.26 204.76 C 49.26 204.74 49.26 204.71 49.26 204.69 C 49.26 200.93 46.63 197.89 43.40 197.89 C 41.90 197.89 40.53 198.55 39.50 199.62 C 38.69 195.15 35.28 191.80 31.19 191.80 C 29.33 191.80 27.61 192.50 26.21 193.68 C 24.45 190.88 21.61 189.04 18.39 189.04 C 13.97 189.04 10.25 192.48 9.09 197.18 C 8.66 197.07 8.21 197.00 7.75 197.00 C 4.30 197.00 1.50 200.24 1.50 204.25 C 1.50 204.42 1.51 204.59 1.52 204.76 L 49.26 204.76 L 49.26 204.76 Z" fill="#cce8d6" fill-rule="nonzero" group-id="1,6,51" node-id="628" stroke="none" target-height="15.720001" target-width="47.76" target-x="1.5" target-y="189.04"></path><path d="M 49.26 206.26 L 1.52 206.26 C 0.72 206.26 0.06 205.63 0.02 204.83 C 0.01 204.57 0.00 204.41 0.00 204.25 C 0.00 199.32 3.61 195.32 8.03 195.51 C 9.71 190.76 13.81 187.54 18.39 187.54 C 21.50 187.54 24.46 189.03 26.55 191.60 C 27.98 190.75 29.55 190.30 31.19 190.30 C 35.21 190.30 38.79 193.07 40.35 197.13 C 41.30 196.64 42.33 196.39 43.39 196.39 C 47.45 196.39 50.76 200.11 50.76 204.69 C 50.76 204.73 50.76 204.81 50.75 204.85 C 50.75 205.68 50.09 206.26 49.26 206.26 Z M 3.07 203.26 L 47.61 203.26 C 47.11 201.05 45.41 199.39 43.40 199.39 C 42.08 199.39 41.14 200.08 40.58 200.66 C 40.19 201.06 39.60 201.21 39.06 201.05 C 38.52 200.89 38.12 200.44 38.02 199.89 C 37.33 196.07 34.46 193.30 31.19 193.30 C 29.75 193.30 28.36 193.83 27.18 194.83 C 26.85 195.11 26.41 195.23 25.98 195.16 C 25.55 195.10 25.17 194.85 24.94 194.48 C 23.37 191.98 20.99 190.54 18.39 190.54 C 14.79 190.54 11.57 193.42 10.55 197.54 C 10.46 197.93 10.21 198.26 9.86 198.46 C 9.52 198.67 9.11 198.73 8.72 198.63 C 8.38 198.54 8.06 198.50 7.75 198.50 C 5.41 198.50 3.46 200.56 3.07 203.26 Z" fill="#ccccde" fill-rule="nonzero" group-id="1,6,51" node-id="630" stroke="none" target-height="18.720001" target-width="50.76" target-x="0" target-y="187.54"></path></g><g node-id="971"><path d="M 61.47 166.61 L 84.71 166.61 L 84.71 204.76 L 61.47 204.76 Z" fill="#ffdede" fill-rule="nonzero" group-id="1,6,52" node-id="635" stroke="none" target-height="38.149994" target-width="23.239998" target-x="61.47" target-y="166.61"></path><path d="M 84.71 206.26 L 61.47 206.26 C 60.64 206.26 59.97 205.59 59.97 204.76 L 59.97 166.61 C 59.97 165.78 60.64 165.11 61.47 165.11 L 84.71 165.11 C 85.54 165.11 86.21 165.78 86.21 166.61 L 86.21 204.76 C 86.21 205.59 85.54 206.26 84.71 206.26 Z M 62.97 203.26 L 83.21 203.26 L 83.21 168.11 L 62.97 168.11 L 62.97 203.26 Z" fill="#ccccde" fill-rule="nonzero" group-id="1,6,52" node-id="637" stroke="none" target-height="41.149994" target-width="26.239998" target-x="59.97" target-y="165.11"></path></g><path d="M 98.44 161.01 L 9.33 161.01 C 8.50 161.01 7.83 160.34 7.83 159.51 C 7.83 158.68 8.50 158.01 9.33 158.01 L 98.44 158.01 C 99.27 158.01 99.94 158.68 99.94 159.51 C 99.94 160.34 99.27 161.01 98.44 161.01 Z" fill="#ccccde" fill-rule="nonzero" group-id="1,6" node-id="640" stroke="none" target-height="3" target-width="92.11" target-x="7.83" target-y="158.01"></path><path d="M 17.74 133.69 L 34.02 133.69 L 34.02 152.22 L 17.74 152.22 Z" fill="#d4eaff" fill-rule="nonzero" group-id="1,6,53,96" node-id="646" stroke="none" target-height="18.529999" target-width="16.28" target-x="17.74" target-y="133.69"></path><path d="M 34.02 153.72 L 17.74 153.72 C 16.91 153.72 16.24 153.05 16.24 152.22 L 16.24 133.69 C 16.24 132.86 16.91 132.19 17.74 132.19 L 34.02 132.19 C 34.85 132.19 35.52 132.86 35.52 133.69 L 35.52 152.22 C 35.52 153.05 34.85 153.72 34.02 153.72 Z M 19.24 150.72 L 32.52 150.72 L 32.52 135.19 L 19.24 135.19 L 19.24 150.72 Z" fill="#ccccde" fill-rule="nonzero" group-id="1,6,53,96" node-id="648" stroke="none" target-height="21.529999" target-width="19.28" target-x="16.24" target-y="132.19"></path><path d="M 34.02 144.46 L 17.74 144.46 C 16.91 144.46 16.24 143.78 16.24 142.96 C 16.24 142.13 16.91 141.46 17.74 141.46 L 34.02 141.46 C 34.85 141.46 35.52 142.13 35.52 142.96 C 35.52 143.78 34.85 144.46 34.02 144.46 Z" fill="#ccccde" fill-rule="nonzero" group-id="1,6,53" node-id="651" stroke="none" target-height="3" target-width="19.28" target-x="16.24" target-y="141.46"></path><path d="M 73.42 133.69 L 89.70 133.69 L 89.70 152.22 L 73.42 152.22 Z" fill="#d4eaff" fill-rule="nonzero" group-id="1,6,54,97" node-id="658" stroke="none" target-height="18.529999" target-width="16.279999" target-x="73.42" target-y="133.69"></path><path d="M 89.70 153.72 L 73.42 153.72 C 72.59 153.72 71.92 153.05 71.92 152.22 L 71.92 133.69 C 71.92 132.86 72.59 132.19 73.42 132.19 L 89.70 132.19 C 90.53 132.19 91.20 132.86 91.20 133.69 L 91.20 152.22 C 91.20 153.05 90.53 153.72 89.70 153.72 Z M 74.92 150.72 L 88.20 150.72 L 88.20 135.19 L 74.92 135.19 L 74.92 150.72 Z" fill="#ccccde" fill-rule="nonzero" group-id="1,6,54,97" node-id="660" stroke="none" target-height="21.529999" target-width="19.279999" target-x="71.92" target-y="132.19"></path><path d="M 89.70 144.46 L 73.42 144.46 C 72.59 144.46 71.92 143.78 71.92 142.96 C 71.92 142.13 72.59 141.46 73.42 141.46 L 89.70 141.46 C 90.53 141.46 91.20 142.13 91.20 142.96 C 91.20 143.78 90.53 144.46 89.70 144.46 Z" fill="#ccccde" fill-rule="nonzero" group-id="1,6,54" node-id="663" stroke="none" target-height="3" target-width="19.279999" target-x="71.92" target-y="141.46"></path><path d="M 45.66 133.69 L 61.94 133.69 L 61.94 152.22 L 45.66 152.22 Z" fill="#d4eaff" fill-rule="nonzero" group-id="1,6,55,98" node-id="670" stroke="none" target-height="18.529999" target-width="16.279999" target-x="45.66" target-y="133.69"></path><path d="M 61.94 153.72 L 45.66 153.72 C 44.84 153.72 44.16 153.05 44.16 152.22 L 44.16 133.69 C 44.16 132.86 44.84 132.19 45.66 132.19 L 61.94 132.19 C 62.77 132.19 63.44 132.86 63.44 133.69 L 63.44 152.22 C 63.44 153.05 62.77 153.72 61.94 153.72 Z M 47.16 150.72 L 60.44 150.72 L 60.44 135.19 L 47.16 135.19 L 47.16 150.72 Z" fill="#ccccde" fill-rule="nonzero" group-id="1,6,55,98" node-id="672" stroke="none" target-height="21.529999" target-width="19.279999" target-x="44.16" target-y="132.19"></path><path d="M 61.94 144.46 L 45.66 144.46 C 44.84 144.46 44.16 143.78 44.16 142.96 C 44.16 142.13 44.84 141.46 45.66 141.46 L 61.94 141.46 C 62.77 141.46 63.44 142.13 63.44 142.96 C 63.44 143.78 62.77 144.46 61.94 144.46 Z" fill="#ccccde" fill-rule="nonzero" group-id="1,6,55" node-id="675" stroke="none" target-height="3" target-width="19.279999" target-x="44.16" target-y="141.46"></path><path d="M 32.91 188.07 C 32.08 188.07 31.41 187.40 31.41 186.57 L 31.41 166.61 C 31.41 165.78 32.08 165.11 32.91 165.11 C 33.73 165.11 34.41 165.78 34.41 166.61 L 34.41 186.57 C 34.41 187.40 33.73 188.07 32.91 188.07 Z" fill="#ccccde" fill-rule="nonzero" group-id="1,6" node-id="678" stroke="none" target-height="22.960007" target-width="3" target-x="31.41" target-y="165.11"></path><path d="M 58.33 200.40 L 87.86 200.40 L 87.86 204.75 L 58.33 204.75 Z" fill="#f0f0ff" fill-rule="nonzero" group-id="1,6,56" node-id="682" stroke="none" target-height="4.350006" target-width="29.529999" target-x="58.33" target-y="200.4"></path><path d="M 87.86 206.26 L 58.33 206.26 C 57.50 206.26 56.83 205.58 56.83 204.76 L 56.83 200.40 C 56.83 199.57 57.50 198.90 58.33 198.90 L 87.86 198.90 C 88.69 198.90 89.36 199.57 89.36 200.40 L 89.36 204.75 C 89.36 205.58 88.69 206.26 87.86 206.26 Z M 59.83 203.26 L 86.36 203.26 L 86.36 201.90 L 59.83 201.90 L 59.83 203.26 Z" fill="#ccccde" fill-rule="nonzero" group-id="1,6,56" node-id="684" stroke="none" target-height="7.3600006" target-width="32.53" target-x="56.83" target-y="198.9"></path><path d="M 111.88 204.76 C 111.88 204.74 111.88 204.73 111.88 204.71 C 111.88 202.20 110.12 200.16 107.95 200.16 C 106.95 200.16 106.04 200.60 105.34 201.32 C 104.81 198.33 102.53 196.09 99.79 196.09 C 98.55 196.09 97.39 196.56 96.46 197.35 C 95.28 195.47 93.38 194.25 91.23 194.25 C 88.28 194.25 85.79 196.55 85.01 199.68 C 84.72 199.61 84.42 199.57 84.11 199.57 C 81.80 199.57 79.94 201.74 79.94 204.41 C 79.94 204.53 79.94 204.64 79.95 204.76 L 111.88 204.76 L 111.88 204.76 Z" fill="#cce8d6" fill-rule="nonzero" group-id="1,6,57" node-id="689" stroke="none" target-height="10.5099945" target-width="31.939995" target-x="79.94" target-y="194.25"></path><path d="M 111.88 206.26 L 111.88 206.26 L 79.95 206.26 C 79.18 206.26 78.53 205.67 78.46 204.90 C 78.44 204.74 78.44 204.57 78.44 204.41 C 78.44 200.97 80.90 198.16 83.96 198.07 C 85.23 194.88 88.07 192.75 91.23 192.75 C 93.33 192.75 95.33 193.69 96.81 195.32 C 97.73 194.84 98.75 194.59 99.79 194.59 C 102.53 194.59 104.98 196.35 106.18 198.99 C 106.75 198.78 107.34 198.66 107.95 198.66 C 110.95 198.66 113.38 201.38 113.38 204.71 C 113.38 204.75 113.38 204.79 113.37 204.84 C 113.35 205.21 113.20 205.56 112.94 205.82 C 112.66 206.10 112.27 206.26 111.88 206.26 Z M 81.60 203.26 L 110.08 203.26 C 109.67 202.31 108.87 201.66 107.95 201.66 C 107.25 201.66 106.73 202.04 106.42 202.36 C 106.03 202.76 105.45 202.91 104.91 202.75 C 104.37 202.59 103.97 202.14 103.87 201.59 C 103.45 199.27 101.73 197.59 99.79 197.59 C 98.95 197.59 98.13 197.90 97.43 198.49 C 97.09 198.77 96.66 198.90 96.23 198.83 C 95.80 198.76 95.42 198.51 95.19 198.14 C 94.24 196.62 92.79 195.75 91.23 195.75 C 89.05 195.75 87.10 197.51 86.47 200.04 C 86.37 200.43 86.13 200.77 85.78 200.97 C 85.44 201.18 85.03 201.24 84.64 201.14 C 83.28 200.79 82.03 201.79 81.60 203.26 Z" fill="#ccccde" fill-rule="nonzero" group-id="1,6,57" node-id="691" stroke="none" target-height="13.5099945" target-width="34.939995" target-x="78.44" target-y="192.75"></path><path d="M 65.34 187.38 C 64.52 187.38 63.84 186.70 63.84 185.88 L 63.84 181.03 C 63.84 180.21 64.52 179.53 65.34 179.53 C 66.17 179.53 66.84 180.21 66.84 181.03 L 66.84 185.88 C 66.84 186.70 66.17 187.38 65.34 187.38 Z" fill="#ccccde" fill-rule="nonzero" group-id="1,6" node-id="694" stroke="none" target-height="7.850006" target-width="2.9999962" target-x="63.84" target-y="179.53"></path></g></g><g node-id="921"><g node-id="926"><path d="M 47.17 184.12 L 209.18 184.12 L 209.18 191.01 L 47.17 191.01 Z" fill="#ffffff" fill-opacity="0.54" fill-rule="nonzero" group-id="2,7" node-id="701" stroke="none" target-height="6.8899994" target-width="162.01" target-x="47.17" target-y="184.12"></path></g><g node-id="927"><path d="M 149.01 221.53 L 95.54 221.53 L 95.54 221.53 C 94.14 221.53 93.00 222.67 93.00 224.07 C 93.00 225.47 94.14 226.60 95.54 226.60 L 95.54 226.60 L 149.01 226.60 L 149.01 226.60 C 150.41 226.60 151.54 225.47 151.54 224.07 C 151.54 222.67 150.41 221.53 149.01 221.53 L 149.01 221.53 Z" fill="#6e6e96" fill-rule="nonzero" group-id="2,8" node-id="706" stroke="none" target-height="5.0700073" target-width="58.539993" target-x="93" target-y="221.53"></path></g><g node-id="928"><path d="M 102.93 181.34 L 102.93 181.34 L 102.93 125.47 L 102.93 125.47 L 65.31 125.47 C 57.95 125.47 54.29 131.34 53.51 134.98 L 46.24 175.41 L 46.20 175.41 C 45.42 179.05 44.78 185.06 44.78 188.78 L 44.78 217.31 C 44.78 221.03 47.82 224.07 51.54 224.07 L 64.10 224.07 L 183.32 224.07 L 211.10 224.07 L 211.10 188.10 L 211.10 181.34 L 102.93 181.34 L 102.93 181.34 Z" fill="#b8cfff" fill-rule="nonzero" group-id="2,9" node-id="711" stroke="none" target-height="98.600006" target-width="166.32" target-x="44.78" target-y="125.47"></path><path d="M 64.10 225.57 L 51.54 225.57 C 46.98 225.57 43.28 221.86 43.28 217.31 L 43.28 188.78 C 43.28 184.97 43.93 178.83 44.73 175.09 L 44.97 173.98 L 52.03 134.71 C 52.96 130.36 57.26 123.97 65.31 123.97 L 104.43 123.97 L 104.43 179.84 L 212.60 179.84 L 212.60 225.57 L 64.10 225.57 Z M 47.40 177.07 C 46.76 180.64 46.28 185.57 46.28 188.78 L 46.28 217.31 C 46.28 220.21 48.64 222.57 51.54 222.57 L 209.60 222.57 L 209.60 182.84 L 101.43 182.84 L 101.43 126.97 L 65.31 126.97 C 59.04 126.97 55.69 131.94 54.97 135.29 L 47.46 177.08 L 47.40 177.07 Z" fill="#6e6e96" fill-rule="nonzero" group-id="2,9" node-id="713" stroke="none" target-height="101.600006" target-width="169.32" target-x="43.28" target-y="123.97"></path></g><path d="M 57.87 205.42 L 55.74 205.42 C 54.92 205.42 54.24 204.75 54.24 203.92 L 54.24 172.34 C 54.24 171.51 54.92 170.84 55.74 170.84 C 56.57 170.84 57.24 171.51 57.24 172.34 L 57.24 202.16 C 59.06 199.70 64.60 193.63 75.03 193.63 L 91.42 193.63 L 91.42 171.90 C 91.42 171.07 92.09 170.40 92.92 170.40 C 93.75 170.40 94.42 171.07 94.42 171.90 L 94.42 195.13 C 94.42 195.96 93.75 196.63 92.92 196.63 L 75.03 196.63 C 63.93 196.63 59.21 204.59 59.16 204.67 C 58.90 205.14 58.40 205.42 57.87 205.42 Z" fill="#6e6e96" fill-rule="nonzero" group-id="2" node-id="716" stroke="none" target-height="35.020004" target-width="40.179996" target-x="54.24" target-y="170.4"></path><path d="M 49.94 206.39 L 210.03 206.39 L 210.03 211.44 L 49.94 211.44 Z" fill="#6e6e96" fill-opacity="0.2" fill-rule="nonzero" group-id="2,10" node-id="720" stroke="none" target-height="5.050003" target-width="160.09" target-x="49.94" target-y="206.39"></path><path d="M 55.33 135.90 L 48.06 176.33 L 48.02 176.33 C 47.24 179.97 46.60 185.98 46.60 189.70 L 46.60 218.23 C 46.60 220.95 48.23 223.29 50.56 224.37 C 50.16 223.51 49.94 222.56 49.94 221.56 L 49.94 193.03 C 49.94 189.31 50.58 183.30 51.35 179.66 L 51.39 179.66 L 58.66 139.23 C 59.44 135.59 63.10 129.72 70.47 129.72 L 101.44 129.72 L 101.44 126.39 L 67.13 126.39 C 59.77 126.39 56.11 132.26 55.33 135.90 Z" fill="#cfdeff" fill-rule="nonzero" group-id="2" node-id="723" stroke="none" target-height="97.979996" target-width="54.840004" target-x="46.6" target-y="126.39"></path><path d="M 213.65 221.84 C 213.65 223.83 212.02 225.46 210.03 225.46 L 45.13 225.46 C 43.14 225.46 41.51 223.83 41.51 221.84 L 41.51 215.06 C 41.51 213.07 43.14 211.44 45.13 211.44 L 210.03 211.44 C 212.02 211.44 213.65 213.07 213.65 215.06 L 213.65 221.84 L 213.65 221.84 Z" fill="#f0f0ff" fill-rule="nonzero" group-id="2" node-id="725" stroke="none" target-height="14.020004" target-width="172.14" target-x="41.51" target-y="211.44"></path><path d="M 209.66 218.53 L 44.77 218.53 C 42.77 218.53 41.14 216.89 41.14 214.90 L 41.14 220.38 C 41.14 222.37 42.77 224.00 44.77 224.00 L 209.66 224.00 C 211.65 224.00 213.29 222.37 213.29 220.38 L 213.29 214.90 C 213.29 216.90 211.66 218.53 209.66 218.53 Z" fill="#6e6e96" fill-opacity="0.15" fill-rule="nonzero" group-id="2,11" node-id="729" stroke="none" target-height="9.100006" target-width="172.15" target-x="41.14" target-y="214.9"></path><path d="M 210.03 226.96 L 45.13 226.96 C 42.31 226.96 40.01 224.66 40.01 221.84 L 40.01 215.06 C 40.01 212.24 42.31 209.94 45.13 209.94 L 210.03 209.94 C 212.85 209.94 215.15 212.24 215.15 215.06 L 215.15 221.84 C 215.15 224.66 212.85 226.96 210.03 226.96 Z M 45.13 212.94 C 43.96 212.94 43.01 213.89 43.01 215.06 L 43.01 221.84 C 43.01 223.01 43.96 223.96 45.13 223.96 L 210.03 223.96 C 211.20 223.96 212.15 223.01 212.15 221.84 L 212.15 215.06 C 212.15 213.89 211.20 212.94 210.03 212.94 L 45.13 212.94 Z" fill="#6e6e96" fill-rule="nonzero" group-id="2" node-id="732" stroke="none" target-height="17.020004" target-width="175.14" target-x="40.01" target-y="209.94"></path><path d="M 52.27 225.46 C 52.27 225.46 48.67 195.33 71.97 195.33 C 91.63 195.33 86.83 195.33 86.83 195.33 C 86.83 195.33 105.15 195.26 105.15 225.46 L 52.27 225.46 Z" fill="#a0a0bd" fill-rule="nonzero" group-id="2,12" node-id="736" stroke="none" target-height="30.200012" target-width="56.480003" target-x="48.67" target-y="195.26"></path><path d="M 106.65 226.96 L 50.94 226.96 L 50.78 225.64 C 50.70 224.97 48.91 209.14 57.01 200.01 C 60.65 195.91 65.68 193.83 71.97 193.83 L 86.83 193.83 C 86.83 193.83 86.83 193.83 86.83 193.83 L 87.34 193.86 C 90.54 194.09 106.65 196.69 106.65 225.46 L 106.65 226.96 Z M 53.65 223.96 L 103.64 223.96 C 103.08 197.26 87.52 196.84 86.83 196.83 L 86.83 196.83 L 86.83 196.83 C 86.83 196.83 86.83 196.83 86.82 196.83 L 71.97 196.83 C 66.58 196.83 62.30 198.57 59.26 202.00 C 53.30 208.71 53.42 220.10 53.65 223.96 Z" fill="#6e6e96" fill-rule="nonzero" group-id="2,12" node-id="738" stroke="none" target-height="33.130005" target-width="57.74" target-x="48.91" target-y="193.83"></path><path d="M 95.07 221.15 C 95.07 231.06 87.03 239.10 77.11 239.10 C 67.20 239.10 59.16 231.06 59.16 221.15 C 59.16 211.23 67.20 203.19 77.11 203.19 C 87.03 203.19 95.07 211.23 95.07 221.15 Z" fill="#babadb" fill-rule="nonzero" group-id="2" node-id="741" stroke="none" target-height="35.910004" target-width="35.91" target-x="59.16" target-y="203.19"></path><path d="M 202.36 225.46 L 149.47 225.46 C 149.47 225.46 145.85 195.33 172.78 195.33 C 172.78 195.33 202.36 190.96 202.36 225.46 Z" fill="#a0a0bd" fill-rule="nonzero" group-id="2,13" node-id="745" stroke="none" target-height="34.5" target-width="56.509995" target-x="145.85" target-y="190.96"></path><path d="M 203.86 226.96 L 148.14 226.96 L 147.99 225.64 C 147.91 225.02 146.26 210.41 154.49 201.13 C 158.76 196.31 164.88 193.86 172.68 193.83 C 173.05 193.79 174.23 193.66 175.92 193.66 C 179.64 193.66 186.79 194.32 192.88 198.78 C 200.17 204.10 203.86 213.08 203.86 225.46 L 203.86 226.96 Z M 150.87 223.96 L 200.83 223.96 C 200.54 214.68 197.21 196.66 175.92 196.66 C 174.15 196.66 173.04 196.81 172.99 196.82 L 172.78 196.83 C 165.84 196.83 160.44 198.94 156.74 203.11 C 150.75 209.86 150.68 220.30 150.87 223.96 Z" fill="#6e6e96" fill-rule="nonzero" group-id="2,13" node-id="747" stroke="none" target-height="33.300003" target-width="57.600006" target-x="146.26" target-y="193.66"></path><path d="M 193.69 221.15 C 193.69 231.06 185.65 239.10 175.74 239.10 C 165.82 239.10 157.78 231.06 157.78 221.15 C 157.78 211.23 165.82 203.19 175.74 203.19 C 185.65 203.19 193.69 211.23 193.69 221.15 Z" fill="#babadb" fill-rule="nonzero" group-id="2" node-id="750" stroke="none" target-height="35.910004" target-width="35.910004" target-x="157.78" target-y="203.19"></path><path d="M 83.34 221.29 C 83.34 224.59 80.66 227.27 77.36 227.27 C 74.06 227.27 71.38 224.59 71.38 221.29 C 71.38 217.99 74.06 215.31 77.36 215.31 C 80.66 215.31 83.34 217.99 83.34 221.29 Z" fill="#f0f0ff" fill-rule="nonzero" group-id="2,14" node-id="754" stroke="none" target-height="11.960007" target-width="11.959999" target-x="71.38" target-y="215.31"></path><path d="M 80.79 221.29 C 80.79 222.21 80.43 223.07 79.78 223.72 C 79.14 224.36 78.27 224.72 77.36 224.72 C 75.47 224.72 73.93 223.18 73.93 221.29 C 73.93 219.40 75.47 217.86 77.36 217.86 C 79.25 217.86 80.79 219.40 80.79 221.29 Z M 77.36 212.75 C 72.65 212.75 68.82 216.58 68.82 221.29 C 68.82 226.00 72.65 229.83 77.36 229.83 C 79.64 229.83 81.79 228.94 83.40 227.33 C 85.01 225.72 85.90 223.57 85.90 221.29 C 85.90 216.58 82.07 212.75 77.36 212.75 Z" fill="#6e6e96" fill-rule="nonzero" group-id="2,14" node-id="756" stroke="none" target-height="17.080002" target-width="17.080002" target-x="68.82" target-y="212.75"></path><path d="M 181.90 221.29 C 181.90 224.59 179.22 227.27 175.92 227.27 C 172.62 227.27 169.94 224.59 169.94 221.29 C 169.94 217.99 172.62 215.31 175.92 215.31 C 179.22 215.31 181.90 217.99 181.90 221.29 Z" fill="#f0f0ff" fill-rule="nonzero" group-id="2,15" node-id="761" stroke="none" target-height="11.960007" target-width="11.959991" target-x="169.94" target-y="215.31"></path><path d="M 179.35 221.29 C 179.35 223.19 177.81 224.72 175.92 224.72 C 174.03 224.72 172.49 223.19 172.49 221.29 C 172.49 220.37 172.85 219.52 173.50 218.87 C 174.14 218.22 175.00 217.86 175.92 217.86 C 177.81 217.86 179.35 219.40 179.35 221.29 Z M 175.92 212.75 C 173.64 212.75 171.50 213.64 169.88 215.25 C 168.27 216.86 167.38 219.01 167.38 221.29 C 167.38 226.00 171.21 229.83 175.92 229.83 C 180.63 229.83 184.46 226.00 184.46 221.29 C 184.46 216.58 180.63 212.75 175.92 212.75 Z" fill="#6e6e96" fill-rule="nonzero" group-id="2,15" node-id="763" stroke="none" target-height="17.080002" target-width="17.080002" target-x="167.38" target-y="212.75"></path><path d="M 102.60 193.73 L 209.58 193.73 L 209.58 185.89 L 99.15 185.89 C 99.15 185.90 98.22 193.73 102.60 193.73 Z" fill="#cfdeff" fill-rule="nonzero" group-id="2" node-id="766" stroke="none" target-height="7.8399963" target-width="111.36" target-x="98.22" target-y="185.89"></path><path d="M 92.92 133.28 L 67.97 133.28 C 65.00 133.28 62.05 135.66 61.43 138.56 L 56.48 166.26 C 56.20 167.57 55.94 169.26 55.75 171.89 L 92.92 171.89 L 92.92 171.00 L 92.92 138.68 L 92.92 133.28 L 92.92 133.28 Z" fill="#8cd0ff" fill-rule="nonzero" group-id="2,16" node-id="770" stroke="none" target-height="38.61" target-width="37.17" target-x="55.75" target-y="133.28"></path><path d="M 92.92 173.40 L 55.75 173.40 C 55.33 173.40 54.93 173.22 54.65 172.92 C 54.36 172.61 54.22 172.20 54.25 171.78 C 54.43 169.41 54.67 167.55 55.02 165.94 L 59.95 138.30 C 60.73 134.68 64.32 131.78 67.97 131.78 L 92.91 131.78 C 93.74 131.78 94.41 132.45 94.41 133.28 L 94.42 171.89 C 94.42 172.29 94.26 172.67 93.98 172.96 C 93.70 173.24 93.31 173.40 92.92 173.40 Z M 57.38 170.40 L 91.42 170.40 L 91.42 134.78 L 67.97 134.78 C 65.69 134.78 63.37 136.66 62.90 138.87 L 57.96 166.52 C 57.72 167.66 57.53 168.91 57.38 170.40 Z" fill="#6e6e96" fill-rule="nonzero" group-id="2,16" node-id="772" stroke="none" target-height="41.619995" target-width="40.199997" target-x="54.22" target-y="131.78"></path><path d="M 100.74 182.14 L 210.99 182.14 L 210.99 189.20 L 100.74 189.20 Z" fill="#6e6e96" fill-opacity="0.15" fill-rule="nonzero" group-id="2,17" node-id="777" stroke="none" target-height="7.0599976" target-width="110.25001" target-x="100.74" target-y="182.14"></path><path d="M 65.45 147.07 C 66.07 144.16 66.91 138.18 74.69 138.18 L 93.36 138.18 L 93.36 139.13 L 93.36 133.73 L 68.42 133.73 C 65.44 133.73 62.50 136.10 61.88 139.01 L 56.93 166.70 C 56.65 168.01 56.39 169.71 56.19 172.34 L 60.93 172.34 L 65.45 147.07 Z" fill="#6e6e96" fill-opacity="0.15" fill-rule="nonzero" group-id="2,18" node-id="782" stroke="none" target-height="38.61" target-width="37.170002" target-x="56.19" target-y="133.73"></path><path d="M 44.95 190.85 L 52.27 190.85 L 52.27 199.98 L 44.95 199.98 Z" fill="#fff23f" fill-rule="nonzero" group-id="2,19" node-id="787" stroke="none" target-height="9.12999" target-width="7.3199997" target-x="44.95" target-y="190.85"></path><path d="M 52.27 201.48 L 44.95 201.48 C 44.12 201.48 43.45 200.81 43.45 199.98 L 43.45 190.85 C 43.45 190.03 44.12 189.35 44.95 189.35 L 52.27 189.35 C 53.10 189.35 53.77 190.03 53.77 190.85 L 53.77 199.98 C 53.77 200.81 53.10 201.48 52.27 201.48 Z M 46.45 198.48 L 50.77 198.48 L 50.77 192.35 L 46.45 192.35 L 46.45 198.48 Z" fill="#6e6e96" fill-rule="nonzero" group-id="2,19" node-id="789" stroke="none" target-height="12.12999" target-width="10.32" target-x="43.45" target-y="189.35"></path><path d="M 87.73 183.34 L 81.57 183.34 C 80.74 183.34 80.07 182.66 80.07 181.84 C 80.07 181.01 80.74 180.34 81.57 180.34 L 87.73 180.34 C 88.56 180.34 89.23 181.01 89.23 181.84 C 89.23 182.66 88.56 183.34 87.73 183.34 Z" fill="#6e6e96" fill-rule="nonzero" group-id="2" node-id="792" stroke="none" target-height="3" target-width="9.160004" target-x="80.07" target-y="180.34"></path><path d="M 206.87 196.71 L 214.81 196.71 L 214.81 205.89 L 206.87 205.89 Z" fill="#f59393" fill-rule="nonzero" group-id="2,20" node-id="796" stroke="none" target-height="9.179993" target-width="7.9400024" target-x="206.87" target-y="196.71"></path><path d="M 214.81 207.39 L 206.87 207.39 C 206.04 207.39 205.37 206.72 205.37 205.89 L 205.37 196.71 C 205.37 195.88 206.04 195.21 206.87 195.21 L 214.81 195.21 C 215.64 195.21 216.31 195.88 216.31 196.71 L 216.31 205.89 C 216.31 206.72 215.64 207.39 214.81 207.39 Z M 208.37 204.39 L 213.31 204.39 L 213.31 198.21 L 208.37 198.21 L 208.37 204.39 Z" fill="#6e6e96" fill-rule="nonzero" group-id="2,20" node-id="798" stroke="none" target-height="12.179993" target-width="10.940002" target-x="205.37" target-y="195.21"></path><path d="M 44.95 199.98 L 52.27 199.98 L 52.27 211.44 L 44.95 211.44 Z" fill="#f59393" fill-rule="nonzero" group-id="2,21" node-id="803" stroke="none" target-height="11.460007" target-width="7.3199997" target-x="44.95" target-y="199.98"></path><path d="M 52.27 212.94 L 44.95 212.94 C 44.12 212.94 43.45 212.27 43.45 211.44 L 43.45 199.98 C 43.45 199.15 44.12 198.48 44.95 198.48 L 52.27 198.48 C 53.10 198.48 53.77 199.15 53.77 199.98 L 53.77 211.44 C 53.77 212.27 53.10 212.94 52.27 212.94 Z M 46.45 209.94 L 50.77 209.94 L 50.77 201.48 L 46.45 201.48 L 46.45 209.94 Z" fill="#6e6e96" fill-rule="nonzero" group-id="2,21" node-id="805" stroke="none" target-height="14.460007" target-width="10.32" target-x="43.45" target-y="198.48"></path><path d="M 57.23 173.27 L 91.48 173.27 L 91.48 176.13 L 57.23 176.13 Z" fill="#cfdeff" fill-rule="nonzero" group-id="2" node-id="808" stroke="none" target-height="2.8600006" target-width="34.250004" target-x="57.23" target-y="173.27"></path><path d="M 58.92 197.61 L 55.90 197.61 L 55.90 203.02 L 58.92 203.02 C 58.92 203.02 63.09 194.23 75.18 194.23 L 93.07 194.23 L 93.07 190.63 L 75.18 190.63 C 63.09 190.63 58.92 197.61 58.92 197.61 Z" fill="#6e6e96" fill-opacity="0.15" fill-rule="nonzero" group-id="2,22" node-id="812" stroke="none" target-height="12.389999" target-width="37.17" target-x="55.9" target-y="190.63"></path><path d="M 63.85 159.69 L 85.38 138.16 L 91.56 138.16 L 91.56 145.81 L 66.94 170.43 L 61.27 170.43 L 63.19 159.69" fill="#ffffff" fill-opacity="0.37" fill-rule="nonzero" group-id="2,23" node-id="817" stroke="none" target-height="32.26999" target-width="30.289997" target-x="61.27" target-y="138.16"></path><path d="M 72.59 170.57 L 77.12 170.57 L 91.48 156.21 L 91.48 151.69 Z" fill="#ffffff" fill-opacity="0.25" fill-rule="nonzero" group-id="2,24" node-id="822" stroke="none" target-height="18.880005" target-width="18.890007" target-x="72.59" target-y="151.69"></path><path d="M 46.41 201.30 L 50.47 201.30 L 50.47 204.30 L 46.41 204.30 Z" fill="#ffffff" fill-opacity="0.4" fill-rule="nonzero" group-id="2,25" node-id="827" stroke="none" target-height="3" target-width="4.0600014" target-x="46.41" target-y="201.3"></path><path d="M 64.04 222.66 C 64.04 214.66 70.52 208.18 78.52 208.18 C 83.30 208.18 87.52 210.49 90.16 214.05 C 87.94 208.66 82.64 204.86 76.44 204.86 C 68.25 204.86 61.62 211.49 61.62 219.68 C 61.62 223.98 63.46 227.84 66.38 230.55 C 64.90 228.28 64.04 225.57 64.04 222.66 Z" fill="#ccccf0" fill-rule="nonzero" group-id="2" node-id="830" stroke="none" target-height="25.690002" target-width="28.540005" target-x="61.62" target-y="204.86"></path><path d="M 208.37 197.92 L 213.33 197.92 L 213.33 200.92 L 208.37 200.92 Z" fill="#ffffff" fill-opacity="0.3" fill-rule="nonzero" group-id="2,26" node-id="834" stroke="none" target-height="3" target-width="4.9600067" target-x="208.37" target-y="197.92"></path><path d="M 185.63 209.76 C 187.84 212.26 189.19 215.54 189.19 219.14 C 189.19 226.98 182.83 233.33 174.99 233.33 C 167.65 233.33 161.62 227.77 160.87 220.63 C 160.81 221.15 160.79 221.68 160.79 222.21 C 160.79 230.80 167.75 237.76 176.34 237.76 C 184.93 237.76 191.89 230.80 191.89 222.21 C 191.89 217.11 189.42 212.60 185.63 209.76 Z" fill="#6e6e96" fill-opacity="0.2" fill-rule="nonzero" group-id="2,27" node-id="839" stroke="none" target-height="28" target-width="31.100006" target-x="160.79" target-y="209.76"></path><path d="M 86.28 209.27 C 88.49 211.77 89.84 215.05 89.84 218.65 C 89.84 226.49 83.48 232.84 75.64 232.84 C 68.30 232.84 62.27 227.28 61.52 220.14 C 61.47 220.66 61.44 221.19 61.44 221.72 C 61.44 230.31 68.40 237.27 76.99 237.27 C 85.58 237.27 92.54 230.31 92.54 221.72 C 92.54 216.62 90.08 212.10 86.28 209.27 Z" fill="#6e6e96" fill-opacity="0.2" fill-rule="nonzero" group-id="2,28" node-id="844" stroke="none" target-height="28" target-width="31.100002" target-x="61.44" target-y="209.27"></path><path d="M 162.74 221.99 C 162.74 213.98 169.23 207.50 177.23 207.50 C 182.00 207.50 186.23 209.81 188.87 213.38 C 186.65 207.98 181.35 204.18 175.15 204.18 C 166.96 204.18 160.32 210.82 160.32 219.01 C 160.32 223.31 162.16 227.16 165.08 229.87 C 163.61 227.60 162.74 224.90 162.74 221.99 Z" fill="#ccccf0" fill-rule="nonzero" group-id="2" node-id="847" stroke="none" target-height="25.690002" target-width="28.549988" target-x="160.32" target-y="204.18"></path><path d="M 175.74 205.74 C 184.23 205.74 191.14 212.65 191.14 221.14 C 191.14 229.63 184.23 236.54 175.74 236.54 C 167.25 236.54 160.34 229.63 160.34 221.14 C 160.33 212.65 167.24 205.74 175.74 205.74 Z M 155.22 221.15 C 155.22 232.45 164.42 241.66 175.74 241.66 C 187.05 241.66 196.25 232.46 196.25 221.15 C 196.25 209.83 187.05 200.63 175.74 200.63 C 164.43 200.63 155.22 209.83 155.22 221.15 Z" fill="#6e6e96" fill-rule="nonzero" group-id="2" node-id="849" stroke="none" target-height="41.03" target-width="41.03" target-x="155.22" target-y="200.63"></path><path d="M 77.11 205.74 C 85.60 205.74 92.51 212.65 92.51 221.14 C 92.51 229.63 85.60 236.54 77.11 236.54 C 68.62 236.54 61.71 229.63 61.71 221.14 C 61.71 212.65 68.62 205.74 77.11 205.74 Z M 56.60 221.15 C 56.60 232.45 65.80 241.66 77.11 241.66 C 88.42 241.66 97.62 232.46 97.62 221.15 C 97.62 209.83 88.42 200.63 77.11 200.63 C 65.80 200.63 56.60 209.83 56.60 221.15 Z" fill="#6e6e96" fill-rule="nonzero" group-id="2" node-id="851" stroke="none" target-height="41.03" target-width="41.020004" target-x="56.6" target-y="200.63"></path><path d="M 105.16 232.92 C 104.33 232.92 103.66 232.25 103.66 231.42 L 103.66 225.46 C 103.66 224.63 104.33 223.96 105.16 223.96 C 105.98 223.96 106.66 224.63 106.66 225.46 L 106.66 231.42 C 106.66 232.25 105.98 232.92 105.16 232.92 Z" fill="#6e6e96" fill-rule="nonzero" group-id="2" node-id="853" stroke="none" target-height="8.959991" target-width="3" target-x="103.66" target-y="223.96"></path><path d="M 202.36 232.92 C 201.53 232.92 200.86 232.25 200.86 231.42 L 200.86 225.46 C 200.86 224.63 201.53 223.96 202.36 223.96 C 203.19 223.96 203.86 224.63 203.86 225.46 L 203.86 231.42 C 203.86 232.25 203.19 232.92 202.36 232.92 Z" fill="#6e6e96" fill-rule="nonzero" group-id="2" node-id="855" stroke="none" target-height="8.959991" target-width="3" target-x="200.86" target-y="223.96"></path><path d="M 152.63 225.46 C 152.63 225.46 151.32 198.66 172.16 198.66 C 193.00 198.66 198.90 215.00 198.90 225.46 L 202.34 224.00 C 202.34 224.00 203.15 195.33 172.78 195.33 C 142.41 195.33 149.47 225.46 149.47 225.46 L 152.63 225.46 Z" fill="#6e6e96" fill-opacity="0.2" fill-rule="nonzero" group-id="2,29" node-id="859" stroke="none" target-height="30.130005" target-width="60.73999" target-x="142.41" target-y="195.33"></path><path d="M 56.81 224.07 C 56.81 224.07 56.18 198.36 77.21 198.36 C 98.24 198.36 100.05 218.60 100.05 225.46 L 105.15 224.00 C 105.15 224.00 105.38 195.34 86.83 195.34 C 68.27 195.34 52.27 191.86 52.27 225.46 L 56.81 224.07 Z" fill="#6e6e96" fill-opacity="0.2" fill-rule="nonzero" group-id="2,30" node-id="864" stroke="none" target-height="33.600006" target-width="53.109997" target-x="52.27" target-y="191.86"></path><path d="M 101.96 99.00 L 210.97 99.00 L 210.97 181.78 L 101.96 181.78 Z" fill="#f5d8bd" fill-rule="nonzero" group-id="2,31" node-id="868" stroke="none" target-height="82.78" target-width="109.01" target-x="101.96" target-y="99"></path><path d="M 133.84 134.90 L 178.70 134.90 L 178.70 156.51 L 133.84 156.51 Z" fill="#ffffff" fill-rule="nonzero" group-id="2,31,58" node-id="872" stroke="none" target-height="21.61" target-width="44.86" target-x="133.84" target-y="134.9"></path><path d="M 178.70 158.01 L 133.84 158.01 C 133.02 158.01 132.34 157.34 132.34 156.51 L 132.34 134.90 C 132.34 134.07 133.02 133.40 133.84 133.40 L 178.70 133.40 C 179.53 133.40 180.20 134.07 180.20 134.90 L 180.20 156.51 C 180.20 157.34 179.53 158.01 178.70 158.01 Z M 135.34 155.01 L 177.20 155.01 L 177.20 136.40 L 135.34 136.40 L 135.34 155.01 Z" fill="#6e6e96" fill-rule="nonzero" group-id="2,31,58" node-id="874" stroke="none" target-height="24.61" target-width="47.86" target-x="132.34" target-y="133.4"></path><path d="M 145.36 99.00 L 164.75 99.00 L 164.75 113.14 L 145.36 113.14 Z" fill="#e6cab1" fill-rule="nonzero" group-id="2,31,59" node-id="879" stroke="none" target-height="14.139999" target-width="19.39" target-x="145.36" target-y="99"></path><path d="M 164.75 114.64 L 145.36 114.64 C 144.53 114.64 143.86 113.97 143.86 113.14 L 143.86 99.00 C 143.86 98.18 144.53 97.50 145.36 97.50 L 164.75 97.50 C 165.58 97.50 166.25 98.18 166.25 99.00 L 166.25 113.14 C 166.25 113.97 165.58 114.64 164.75 114.64 Z M 146.86 111.64 L 163.25 111.64 L 163.25 100.50 L 146.86 100.50 L 146.86 111.64 Z" fill="#6e6e96" fill-rule="nonzero" group-id="2,31,59" node-id="881" stroke="none" target-height="17.14" target-width="22.39" target-x="143.86" target-y="97.5"></path><path d="M 101.96 175.16 L 210.97 175.16 L 210.97 181.78 L 101.96 181.78 Z" fill="#6e6e96" fill-opacity="0.15" fill-rule="nonzero" group-id="2,31,60" node-id="886" stroke="none" target-height="6.619995" target-width="109.01" target-x="101.96" target-y="175.16"></path><path d="M 101.96 99.00 L 210.97 99.00 L 210.97 102.26 L 101.96 102.26 Z" fill="#ffffff" fill-opacity="0.4" fill-rule="nonzero" group-id="2,31,61" node-id="891" stroke="none" target-height="3.2600021" target-width="109.01" target-x="101.96" target-y="99"></path><path d="M 210.97 183.28 L 101.96 183.28 C 101.13 183.28 100.46 182.60 100.46 181.78 L 100.46 99.00 C 100.46 98.18 101.13 97.50 101.96 97.50 L 210.97 97.50 C 211.80 97.50 212.47 98.18 212.47 99.00 L 212.47 181.78 C 212.47 182.60 211.80 183.28 210.97 183.28 Z M 103.46 180.28 L 209.47 180.28 L 209.47 100.50 L 103.46 100.50 L 103.46 180.28 Z" fill="#6e6e96" fill-rule="nonzero" group-id="2,31" node-id="894" stroke="none" target-height="85.78" target-width="112.01" target-x="100.46" target-y="97.5"></path><path d="M 138.59 139.69 L 149.91 139.69 L 149.91 142.69 L 138.59 142.69 Z" fill="#ccccde" fill-rule="nonzero" group-id="2,31,62" node-id="898" stroke="none" target-height="3" target-width="11.320007" target-x="138.59" target-y="139.69"></path><path d="M 154.09 139.69 L 159.51 139.69 L 159.51 142.69 L 154.09 142.69 Z" fill="#ccccde" fill-rule="nonzero" group-id="2,31,62" node-id="900" stroke="none" target-height="3" target-width="5.419998" target-x="154.09" target-y="139.69"></path><path d="M 138.59 144.12 L 159.51 144.12 L 159.51 147.12 L 138.59 147.12 Z" fill="#ccccde" fill-rule="nonzero" group-id="2,31,62" node-id="902" stroke="none" target-height="3" target-width="20.919998" target-x="138.59" target-y="144.12"></path><path d="M 165.41 144.12 L 171.56 144.12 L 171.56 147.12 L 165.41 147.12 Z" fill="#ccccde" fill-rule="nonzero" group-id="2,31,62" node-id="904" stroke="none" target-height="3" target-width="6.149994" target-x="165.41" target-y="144.12"></path><path d="M 138.59 148.55 L 148.68 148.55 L 148.68 151.55 L 138.59 151.55 Z" fill="#ccccde" fill-rule="nonzero" group-id="2,31,62" node-id="906" stroke="none" target-height="3" target-width="10.089996" target-x="138.59" target-y="148.55"></path><path d="M 154.59 148.55 L 166.15 148.55 L 166.15 151.55 L 154.59 151.55 Z" fill="#ccccde" fill-rule="nonzero" group-id="2,31,62" node-id="908" stroke="none" target-height="3" target-width="11.559998" target-x="154.59" target-y="148.55"></path><path d="M 144.01 109.27 L 165.66 109.27 L 165.66 117.14 L 144.01 117.14 Z" fill="#6e6e96" fill-opacity="0.15" fill-rule="nonzero" group-id="2,31,63" node-id="913" stroke="none" target-height="7.8700027" target-width="21.65001" target-x="144.01" target-y="109.27"></path><path d="M 103.69 94.88 L 209.23 94.88 L 210.97 99.00 L 101.96 99.00 Z" fill="#6e6e96" fill-opacity="0.15" fill-rule="nonzero" group-id="2,31,64" node-id="918" stroke="none" target-height="4.1200027" target-width="109.01" target-x="101.96" target-y="94.88"></path></g></svg>