<svg xml:space="preserve" style="enable-background:new 0 0 250.979 244.246;" viewBox="0 0 250.979 244.246" height="244.246px" width="250.979px" y="0px" x="0px" xmlns:xlink="http://www.w3.org/1999/xlink" xmlns="http://www.w3.org/2000/svg" id="Layer_1" version="1.1">
<g id="Layer_4">
	<path d="M250.979,109.715c0-40.701-33.074-73.693-73.871-73.693c-0.635,0-1.262,0.029-1.893,0.046
		C162.334,14.476,138.717,0,111.701,0C70.903,0,37.83,32.995,37.83,73.696c0,0.529,0.027,1.049,0.04,1.576
		C15.556,87.952,0.5,111.88,0.5,139.332c0,40.699,33.073,73.691,73.872,73.691c2.318,0,4.61-0.123,6.878-0.33
		c13.551,16.377,34.051,26.813,56.998,26.813c37.711,0,68.793-28.192,73.289-64.596
		C234.988,162.562,250.979,138.007,250.979,109.715z" style="fill:#D6F0FF;"></path>
</g>
<g id="Layer_2">
	<rect height="148.542" width="117.767" style="fill:#FFFFFF;" y="52.671" x="46.401"></rect>
	<g style="opacity:0.33;">
		<g>
			<rect height="141.454" width="145.377" style="fill:#FFFFFF;" y="52.671" x="47.401"></rect>
			<path d="M192.778,195.625H47.401c-0.829,0-1.5-0.672-1.5-1.5V52.671c0-0.829,0.671-1.5,1.5-1.5h145.377
				c0.828,0,1.5,0.671,1.5,1.5v141.454C194.278,194.953,193.606,195.625,192.778,195.625z M48.901,192.625h142.377V54.171H48.901
				V192.625z" style="fill:#6E6E96;"></path>
		</g>
		<g>
			<rect height="24.31" width="15.658" style="fill:#BDDFFF;" y="101.244" x="144.564"></rect>
			<path d="M160.222,127.054h-15.658c-0.828,0-1.5-0.672-1.5-1.5v-24.31c0-0.829,0.672-1.5,1.5-1.5h15.658
				c0.828,0,1.5,0.671,1.5,1.5v24.31C161.722,126.382,161.05,127.054,160.222,127.054z M146.064,124.054h12.658v-21.31h-12.658
				V124.054z" style="fill:#6E6E96;"></path>
		</g>
		<g>
			<rect height="24.16" width="15.658" style="fill:#BDDFFF;" y="131.445" x="144.564"></rect>
			<path d="M160.222,157.105h-15.658c-0.828,0-1.5-0.672-1.5-1.5v-24.16c0-0.828,0.672-1.5,1.5-1.5h15.658
				c0.828,0,1.5,0.672,1.5,1.5v24.16C161.722,156.434,161.05,157.105,160.222,157.105z M146.064,154.105h12.658v-21.16h-12.658
				V154.105z" style="fill:#6E6E96;"></path>
		</g>
		<g>
			<rect height="24.677" width="15.66" style="fill:#BDDFFF;" y="70.671" x="122.5"></rect>
			<path d="M138.16,96.848H122.5c-0.829,0-1.5-0.671-1.5-1.5V70.671c0-0.829,0.671-1.5,1.5-1.5h15.66
				c0.828,0,1.5,0.671,1.5,1.5v24.677C139.66,96.177,138.989,96.848,138.16,96.848z M124,93.848h12.66V72.171H124V93.848z" style="fill:#6E6E96;"></path>
		</g>
		<g>
			<rect height="24.31" width="15.66" style="fill:#BDDFFF;" y="101.244" x="122.5"></rect>
			<path d="M138.16,127.054H122.5c-0.829,0-1.5-0.672-1.5-1.5v-24.31c0-0.829,0.671-1.5,1.5-1.5h15.66
				c0.828,0,1.5,0.671,1.5,1.5v24.31C139.66,126.382,138.989,127.054,138.16,127.054z M124,124.054h12.66v-21.31H124V124.054z" style="fill:#6E6E96;"></path>
		</g>
		<g>
			<rect height="24.31" width="18.425" style="fill:#BDDFFF;" y="101.244" x="166.629"></rect>
			<path d="M185.054,127.054h-18.425c-0.828,0-1.5-0.672-1.5-1.5v-24.31c0-0.829,0.672-1.5,1.5-1.5h18.425
				c0.828,0,1.5,0.671,1.5,1.5v24.31C186.554,126.382,185.882,127.054,185.054,127.054z M168.129,124.054h15.425v-21.31h-15.425
				V124.054z" style="fill:#6E6E96;"></path>
		</g>
		<g>
			<rect height="24.677" width="15.658" style="fill:#BDDFFF;" y="70.671" x="144.564"></rect>
			<path d="M160.222,96.848h-15.658c-0.828,0-1.5-0.671-1.5-1.5V70.671c0-0.829,0.672-1.5,1.5-1.5h15.658
				c0.828,0,1.5,0.671,1.5,1.5v24.677C161.722,96.177,161.05,96.848,160.222,96.848z M146.064,93.848h12.658V72.171h-12.658V93.848z" style="fill:#6E6E96;"></path>
		</g>
		<g>
			<rect height="24.16" width="15.66" style="fill:#BDDFFF;" y="131.445" x="122.5"></rect>
			<path d="M138.16,157.105H122.5c-0.829,0-1.5-0.672-1.5-1.5v-24.16c0-0.828,0.671-1.5,1.5-1.5h15.66
				c0.828,0,1.5,0.672,1.5,1.5v24.16C139.66,156.434,138.989,157.105,138.16,157.105z M124,154.105h12.66v-21.16H124V154.105z" style="fill:#6E6E96;"></path>
		</g>
		<g>
			<rect height="24.677" width="18.425" style="fill:#BDDFFF;" y="70.671" x="166.629"></rect>
			<path d="M185.054,96.848h-18.425c-0.828,0-1.5-0.671-1.5-1.5V70.671c0-0.829,0.672-1.5,1.5-1.5h18.425
				c0.828,0,1.5,0.671,1.5,1.5v24.677C186.554,96.177,185.882,96.848,185.054,96.848z M168.129,93.848h15.425V72.171h-15.425V93.848
				z" style="fill:#6E6E96;"></path>
		</g>
		<g>
			<rect height="24.16" width="18.425" style="fill:#BDDFFF;" y="131.445" x="166.629"></rect>
			<path d="M185.054,157.105h-18.425c-0.828,0-1.5-0.672-1.5-1.5v-24.16c0-0.828,0.672-1.5,1.5-1.5h18.425
				c0.828,0,1.5,0.672,1.5,1.5v24.16C186.554,156.434,185.882,157.105,185.054,157.105z M168.129,154.105h15.425v-21.16h-15.425
				V154.105z" style="fill:#6E6E96;"></path>
		</g>
		<g>
			<rect height="24.31" width="16.942" style="fill:#BDDFFF;" y="101.244" x="55.025"></rect>
			<path d="M71.967,127.054H55.025c-0.829,0-1.5-0.672-1.5-1.5v-24.31c0-0.829,0.671-1.5,1.5-1.5h16.942
				c0.829,0,1.5,0.671,1.5,1.5v24.31C73.467,126.382,72.796,127.054,71.967,127.054z M56.525,124.054h13.942v-21.31H56.525V124.054z" style="fill:#6E6E96;"></path>
		</g>
		<g>
			<rect height="24.677" width="16.942" style="fill:#BDDFFF;" y="70.671" x="55.025"></rect>
			<path d="M71.967,96.848H55.025c-0.829,0-1.5-0.671-1.5-1.5V70.671c0-0.829,0.671-1.5,1.5-1.5h16.942
				c0.829,0,1.5,0.671,1.5,1.5v24.677C73.467,96.177,72.796,96.848,71.967,96.848z M56.525,93.848h13.942V72.171H56.525V93.848z" style="fill:#6E6E96;"></path>
		</g>
		<g>
			<rect height="24.16" width="16.942" style="fill:#BDDFFF;" y="131.445" x="55.025"></rect>
			<path d="M71.967,157.105H55.025c-0.829,0-1.5-0.672-1.5-1.5v-24.16c0-0.828,0.671-1.5,1.5-1.5h16.942
				c0.829,0,1.5,0.672,1.5,1.5v24.16C73.467,156.434,72.796,157.105,71.967,157.105z M56.525,154.105h13.942v-21.16H56.525V154.105z" style="fill:#6E6E96;"></path>
		</g>
		<g>
			<rect height="24.16" width="15.656" style="fill:#BDDFFF;" y="131.445" x="78.373"></rect>
			<path d="M94.03,157.105H78.373c-0.829,0-1.5-0.672-1.5-1.5v-24.16c0-0.828,0.671-1.5,1.5-1.5H94.03
				c0.829,0,1.5,0.672,1.5,1.5v24.16C95.53,156.434,94.858,157.105,94.03,157.105z M79.873,154.105H92.53v-21.16H79.873V154.105z" style="fill:#6E6E96;"></path>
		</g>
		<g>
			<rect height="24.31" width="15.656" style="fill:#BDDFFF;" y="101.244" x="78.373"></rect>
			<path d="M94.03,127.054H78.373c-0.829,0-1.5-0.672-1.5-1.5v-24.31c0-0.829,0.671-1.5,1.5-1.5H94.03
				c0.829,0,1.5,0.671,1.5,1.5v24.31C95.53,126.382,94.858,127.054,94.03,127.054z M79.873,124.054H92.53v-21.31H79.873V124.054z" style="fill:#6E6E96;"></path>
		</g>
		<g>
			<rect height="24.16" width="15.659" style="fill:#BDDFFF;" y="131.445" x="100.437"></rect>
			<path d="M116.096,157.105h-15.659c-0.829,0-1.5-0.672-1.5-1.5v-24.16c0-0.828,0.671-1.5,1.5-1.5h15.659
				c0.829,0,1.5,0.672,1.5,1.5v24.16C117.596,156.434,116.925,157.105,116.096,157.105z M101.937,154.105h12.659v-21.16h-12.659
				V154.105z" style="fill:#6E6E96;"></path>
		</g>
		<g>
			<rect height="24.677" width="15.659" style="fill:#BDDFFF;" y="70.671" x="100.437"></rect>
			<path d="M116.096,96.848h-15.659c-0.829,0-1.5-0.671-1.5-1.5V70.671c0-0.829,0.671-1.5,1.5-1.5h15.659
				c0.829,0,1.5,0.671,1.5,1.5v24.677C117.596,96.177,116.925,96.848,116.096,96.848z M101.937,93.848h12.659V72.171h-12.659V93.848
				z" style="fill:#6E6E96;"></path>
		</g>
		<g>
			<rect height="24.31" width="15.659" style="fill:#BDDFFF;" y="101.244" x="100.437"></rect>
			<path d="M116.096,127.054h-15.659c-0.829,0-1.5-0.672-1.5-1.5v-24.31c0-0.829,0.671-1.5,1.5-1.5h15.659
				c0.829,0,1.5,0.671,1.5,1.5v24.31C117.596,126.382,116.925,127.054,116.096,127.054z M101.937,124.054h12.659v-21.31h-12.659
				V124.054z" style="fill:#6E6E96;"></path>
		</g>
		<g>
			<rect height="24.677" width="15.656" style="fill:#BDDFFF;" y="70.671" x="78.373"></rect>
			<path d="M94.03,96.848H78.373c-0.829,0-1.5-0.671-1.5-1.5V70.671c0-0.829,0.671-1.5,1.5-1.5H94.03
				c0.829,0,1.5,0.671,1.5,1.5v24.677C95.53,96.177,94.858,96.848,94.03,96.848z M79.873,93.848H92.53V72.171H79.873V93.848z" style="fill:#6E6E96;"></path>
		</g>
		<g>
			<rect height="7.074" width="153.226" style="fill:#D5B697;" y="52.671" x="43.483"></rect>
			<path d="M196.708,61.245H43.483c-0.829,0-1.5-0.671-1.5-1.5v-7.074c0-0.829,0.671-1.5,1.5-1.5h153.226
				c0.828,0,1.5,0.671,1.5,1.5v7.074C198.208,60.574,197.536,61.245,196.708,61.245z M44.983,58.245h150.226v-4.074H44.983V58.245z" style="fill:#6E6E96;"></path>
		</g>
		<g>
			<rect height="24.16" width="15.658" style="fill:#BDDFFF;" y="161.895" x="144.564"></rect>
			<path d="M160.222,187.555h-15.658c-0.828,0-1.5-0.672-1.5-1.5v-24.16c0-0.828,0.672-1.5,1.5-1.5h15.658
				c0.828,0,1.5,0.672,1.5,1.5v24.16C161.722,186.883,161.05,187.555,160.222,187.555z M146.064,184.555h12.658v-21.16h-12.658
				V184.555z" style="fill:#6E6E96;"></path>
		</g>
		<g>
			<rect height="24.16" width="18.425" style="fill:#BDDFFF;" y="161.895" x="166.629"></rect>
			<path d="M185.054,187.555h-18.425c-0.828,0-1.5-0.672-1.5-1.5v-24.16c0-0.828,0.672-1.5,1.5-1.5h18.425
				c0.828,0,1.5,0.672,1.5,1.5v24.16C186.554,186.883,185.882,187.555,185.054,187.555z M168.129,184.555h15.425v-21.16h-15.425
				V184.555z" style="fill:#6E6E96;"></path>
		</g>
		<g>
			<rect height="24.16" width="16.942" style="fill:#BDDFFF;" y="161.895" x="55.025"></rect>
			<path d="M71.967,187.555H55.025c-0.829,0-1.5-0.672-1.5-1.5v-24.16c0-0.828,0.671-1.5,1.5-1.5h16.942
				c0.829,0,1.5,0.672,1.5,1.5v24.16C73.467,186.883,72.796,187.555,71.967,187.555z M56.525,184.555h13.942v-21.16H56.525V184.555z" style="fill:#6E6E96;"></path>
		</g>
		<g>
			<rect height="24.16" width="15.656" style="fill:#BDDFFF;" y="161.895" x="78.373"></rect>
			<path d="M94.03,187.555H78.373c-0.829,0-1.5-0.672-1.5-1.5v-24.16c0-0.828,0.671-1.5,1.5-1.5H94.03
				c0.829,0,1.5,0.672,1.5,1.5v24.16C95.53,186.883,94.858,187.555,94.03,187.555z M79.873,184.555H92.53v-21.16H79.873V184.555z" style="fill:#6E6E96;"></path>
		</g>
		<g>
			<rect height="32.229" width="37.784" style="fill:#E4BC96;" y="161.895" x="100.437"></rect>
			<path d="M138.221,195.624h-37.784c-0.829,0-1.5-0.672-1.5-1.5v-32.229c0-0.828,0.671-1.5,1.5-1.5h37.784
				c0.828,0,1.5,0.672,1.5,1.5v32.229C139.721,194.952,139.049,195.624,138.221,195.624z M101.937,192.624h34.784v-29.229h-34.784
				V192.624z" style="fill:#6E6E96;"></path>
		</g>
		<path d="M119.113,195.625c-0.829,0-1.5-0.672-1.5-1.5v-32.23c0-0.828,0.671-1.5,1.5-1.5s1.5,0.672,1.5,1.5
			v32.23C120.613,194.953,119.941,195.625,119.113,195.625z" style="fill:#6E6E96;"></path>
	</g>
	<rect height="18" width="38" style="fill:#D6F0FF;" y="191.557" x="85.833"></rect>
	<path d="M101.625,21.598H80.5c-1.381,0-2.5-1.119-2.5-2.5s1.119-2.5,2.5-2.5h21.125
		c1.381,0,2.5,1.119,2.5,2.5S103.006,21.598,101.625,21.598z" style="fill:#FFFFFF;"></path>
	<path d="M115.465,32.525H90.698c-1.381,0-2.5-1.119-2.5-2.5s1.119-2.5,2.5-2.5h24.767
		c1.381,0,2.5,1.119,2.5,2.5S116.846,32.525,115.465,32.525z" style="fill:#FFFFFF;"></path>
</g>
<g id="Layer_3">
	<g>
		<rect height="9.561" width="67.122" style="fill:#EBEBF7;" y="21.587" x="156.502"></rect>
		<path d="M223.624,32.648h-67.122c-0.828,0-1.5-0.671-1.5-1.5v-9.561c0-0.829,0.672-1.5,1.5-1.5h67.122
			c0.828,0,1.5,0.671,1.5,1.5v9.561C225.124,31.977,224.452,32.648,223.624,32.648z M158.002,29.648h64.122v-6.561h-64.122V29.648z" style="fill:#CCCCDE;"></path>
	</g>
	<g>
		<rect height="169.355" width="105.589" style="fill:#FFFFFF;" y="30.982" x="137.1"></rect>
		<path d="M242.689,201.837H137.1c-0.828,0-1.5-0.672-1.5-1.5V30.982c0-0.829,0.672-1.5,1.5-1.5h105.589
			c0.828,0,1.5,0.671,1.5,1.5v169.355C244.189,201.165,243.517,201.837,242.689,201.837z M138.6,198.837h102.589V32.482H138.6
			V198.837z" style="fill:#CCCCDE;"></path>
	</g>
	<g>
		<rect height="160.893" width="88.036" style="fill:#CFE7FF;" y="39.445" x="146.174"></rect>
		<path d="M234.21,201.838h-88.036c-0.828,0-1.5-0.672-1.5-1.5V39.445c0-0.829,0.672-1.5,1.5-1.5h88.036
			c0.828,0,1.5,0.671,1.5,1.5v160.893C235.71,201.166,235.038,201.838,234.21,201.838z M147.674,198.838h85.036V40.945h-85.036
			V198.838z" style="fill:#CCCCDE;"></path>
	</g>
	<polygon points="147.297,123.091 229.938,40.452 169.996,40.619 
		147.297,63.995" style="opacity:0.49;fill:#FFFFFF;enable-background:new    ;"></polygon>
	<polygon points="233.478,62.664 146.653,149.486 170.497,150.176 
		233.478,87.196" style="opacity:0.27;fill:#FFFFFF;enable-background:new    ;"></polygon>
	<g>
		<rect height="50.793" width="88.036" style="fill:#CFE7FF;" y="149.544" x="146.174"></rect>
		<path d="M234.21,201.837h-88.036c-0.828,0-1.5-0.672-1.5-1.5v-50.793c0-0.828,0.672-1.5,1.5-1.5h88.036
			c0.828,0,1.5,0.672,1.5,1.5v50.793C235.71,201.165,235.038,201.837,234.21,201.837z M147.674,198.837h85.036v-47.793h-85.036
			V198.837z" style="fill:#CCCCDE;"></path>
	</g>
	<g style="opacity:0.37;">
		<polygon points="169.293,162.003 147.475,183.188 147.475,196.125 
			169.293,174.939" style="opacity:0.49;fill:#FFFFFF;enable-background:new    ;"></polygon>
		<polyline points="147.349,173.376 159.062,162.003 
			147.349,162.003" style="opacity:0.49;fill:#FFFFFF;enable-background:new    ;"></polyline>
	</g>
	<g style="opacity:0.37;">
		<polygon points="200.758,162.003 179.573,183.188 179.573,196.125 
			200.758,174.939" style="opacity:0.49;fill:#FFFFFF;enable-background:new    ;"></polygon>
		<polyline points="180.294,173.376 191.667,162.003 
			180.294,162.003" style="opacity:0.49;fill:#FFFFFF;enable-background:new    ;"></polyline>
	</g>
	<g style="opacity:0.37;">
		<polygon points="233.018,162.003 209.48,183.188 209.48,196.125 
			233.018,174.939" style="opacity:0.49;fill:#FFFFFF;enable-background:new    ;"></polygon>
		<polyline points="210.28,173.376 222.918,162.003 210.28,162.003" style="opacity:0.49;fill:#FFFFFF;enable-background:new    ;"></polyline>
	</g>
	<rect height="110.099" width="3" style="fill:#CCCCDE;" y="39.445" x="155.893"></rect>
	<rect height="110.099" width="3" style="fill:#CCCCDE;" y="39.445" x="167.127"></rect>
	<rect height="110.099" width="3" style="fill:#CCCCDE;" y="39.445" x="178.079"></rect>
	<rect height="110.099" width="3" style="fill:#CCCCDE;" y="39.445" x="189.593"></rect>
	<rect height="110.099" width="3" style="fill:#CCCCDE;" y="39.445" x="200.545"></rect>
	<rect height="110.099" width="3" style="fill:#CCCCDE;" y="39.445" x="211.216"></rect>
	<rect height="110.099" width="3" style="fill:#CCCCDE;" y="39.445" x="221.888"></rect>
	<path d="M234.21,64.16h-88.036c-0.828,0-1.5-0.671-1.5-1.5s0.672-1.5,1.5-1.5h88.036
		c0.828,0,1.5,0.671,1.5,1.5S235.038,64.16,234.21,64.16z" style="fill:#CCCCDE;"></path>
	<path d="M234.21,86.625h-88.036c-0.828,0-1.5-0.671-1.5-1.5s0.672-1.5,1.5-1.5h88.036
		c0.828,0,1.5,0.671,1.5,1.5S235.038,86.625,234.21,86.625z" style="fill:#CCCCDE;"></path>
	<path d="M234.21,107.969h-88.036c-0.828,0-1.5-0.671-1.5-1.5s0.672-1.5,1.5-1.5h88.036
		c0.828,0,1.5,0.671,1.5,1.5S235.038,107.969,234.21,107.969z" style="fill:#CCCCDE;"></path>
	<rect height="3" width="88.036" style="fill:#CCCCDE;" y="126.311" x="146.174"></rect>
	<g>
		<rect height="42.619" width="8.981" style="fill:#F0F0FF;" y="157.718" x="170.592"></rect>
		<path d="M179.573,201.837h-8.981c-0.828,0-1.5-0.672-1.5-1.5v-42.619c0-0.828,0.672-1.5,1.5-1.5h8.981
			c0.828,0,1.5,0.672,1.5,1.5v42.619C181.073,201.165,180.402,201.837,179.573,201.837z M172.092,198.837h5.981v-39.619h-5.981
			V198.837z" style="fill:#CCCCDE;"></path>
	</g>
	<g>
		<rect height="44.563" width="8.425" style="fill:#F0F0FF;" y="155.773" x="200.5"></rect>
		<path d="M208.925,201.837H200.5c-0.828,0-1.5-0.672-1.5-1.5v-44.563c0-0.828,0.672-1.5,1.5-1.5h8.425
			c0.828,0,1.5,0.672,1.5,1.5v44.563C210.425,201.165,209.753,201.837,208.925,201.837z M202,198.837h5.425v-41.563H202V198.837z" style="fill:#CCCCDE;"></path>
	</g>
	<g>
		<rect height="12.459" width="88.036" style="fill:#F0F0FF;" y="149.544" x="146.174"></rect>
		<path d="M234.21,163.503h-88.036c-0.828,0-1.5-0.672-1.5-1.5v-12.459c0-0.828,0.672-1.5,1.5-1.5h88.036
			c0.828,0,1.5,0.672,1.5,1.5v12.459C235.71,162.831,235.038,163.503,234.21,163.503z M147.674,160.503h85.036v-9.459h-85.036
			V160.503z" style="fill:#CCCCDE;"></path>
	</g>
	<g>
		<rect height="7.509" width="29.486" style="fill:#EBEBF7;" y="14.078" x="175.319"></rect>
		<path d="M204.805,23.087h-29.486c-0.828,0-1.5-0.671-1.5-1.5v-7.509c0-0.829,0.672-1.5,1.5-1.5h29.486
			c0.828,0,1.5,0.671,1.5,1.5v7.509C206.305,22.416,205.633,23.087,204.805,23.087z M176.819,20.087h26.486v-4.509h-26.486V20.087z" style="fill:#CCCCDE;"></path>
	</g>
	<path d="M190.063,15.578c-0.828,0-1.5-0.671-1.5-1.5V1.826c0-0.829,0.672-1.5,1.5-1.5s1.5,0.671,1.5,1.5
		v12.252C191.563,14.907,190.891,15.578,190.063,15.578z" style="fill:#CCCCDE;"></path>
	<g>
		<rect height="8.706" width="114.727" style="fill:#F0F0FF;" y="196.051" x="133.373"></rect>
		<path d="M248.1,206.257H133.373c-0.828,0-1.5-0.672-1.5-1.5v-8.706c0-0.828,0.672-1.5,1.5-1.5H248.1
			c0.828,0,1.5,0.672,1.5,1.5v8.706C249.6,205.585,248.928,206.257,248.1,206.257z M134.873,203.257H246.6v-5.706H134.873V203.257z" style="fill:#CCCCDE;"></path>
	</g>
</g>
<g id="Layer_1_copy">
</g>
<g id="Layer_6">
	<g>
		<polygon points="98.442,204.757 9.331,204.757 9.331,128.594 53.887,100.072 98.442,128.594" style="fill:#FFFFFF;"></polygon>
		<path d="M99.942,206.257H7.831v-78.484l46.056-29.481l46.055,29.481V206.257z M10.831,203.257h86.11
			v-73.842l-43.055-27.562l-43.056,27.562V203.257z" style="fill:#CCCCDE;"></path>
	</g>
	<g>
		<polygon points="53.887,95.235 1.5,127.083 1.5,132.321 9.331,132.321 53.887,104.815 98.321,132.684 
			105.193,132.791 105.193,127.083" style="fill:#E0E6FC;"></polygon>
		<path d="M105.193,134.291c-0.008,0-0.016,0-0.023,0l-6.872-0.107c-0.274-0.005-0.542-0.084-0.773-0.229
			l-43.643-27.373l-43.761,27.016c-0.237,0.146-0.51,0.224-0.788,0.224H1.5c-0.829,0-1.5-0.672-1.5-1.5v-5.238
			c0-0.523,0.273-1.01,0.721-1.281l52.387-31.849c0.482-0.293,1.09-0.291,1.57,0.007l51.306,31.848
			c0.441,0.273,0.709,0.756,0.709,1.274v5.708c0,0.402-0.161,0.787-0.448,1.069C105.964,134.137,105.586,134.291,105.193,134.291z
			 M98.763,131.19l4.93,0.077v-3.351L53.879,96.995L3,127.927v2.895h5.905l44.193-27.283c0.487-0.3,1.102-0.297,1.585,0.006
			L98.763,131.19z" style="fill:#CCCCDE;"></path>
	</g>
	<g>
		<rect height="19.961" width="30.25" style="fill:#D4EAFF;" y="166.613" x="17.744"></rect>
		<path d="M47.994,188.074h-30.25c-0.829,0-1.5-0.672-1.5-1.5v-19.961c0-0.828,0.671-1.5,1.5-1.5h30.25
			c0.829,0,1.5,0.672,1.5,1.5v19.961C49.494,187.402,48.823,188.074,47.994,188.074z M19.244,185.074h27.25v-16.961h-27.25V185.074z" style="fill:#CCCCDE;"></path>
	</g>
	<g>
		<rect height="12.131" width="89.11" style="fill:#FCEBE3;" y="192.626" x="9.331"></rect>
		<path d="M98.442,206.257H9.331c-0.829,0-1.5-0.672-1.5-1.5v-12.131c0-0.828,0.671-1.5,1.5-1.5h89.11
			c0.829,0,1.5,0.672,1.5,1.5v12.131C99.942,205.585,99.27,206.257,98.442,206.257z M10.831,203.257h86.11v-9.131h-86.11V203.257z" style="fill:#CCCCDE;"></path>
	</g>
	<g>
		<path d="M49.257,204.757c0-0.022,0.004-0.045,0.004-0.069c0-3.756-2.626-6.801-5.865-6.801
			c-1.5,0-2.862,0.659-3.899,1.731c-0.808-4.465-4.219-7.818-8.309-7.818c-1.859,0-3.578,0.703-4.977,1.882
			c-1.759-2.806-4.604-4.638-7.822-4.638c-4.419,0-8.138,3.438-9.296,8.133c-0.435-0.11-0.884-0.176-1.348-0.176
			c-3.449,0-6.245,3.242-6.245,7.246c0,0.172,0.012,0.34,0.021,0.51H49.257L49.257,204.757z" style="fill:#CCE8D6;"></path>
		<path d="M49.257,206.257H1.521c-0.798,0-1.457-0.625-1.498-1.423C0.009,204.574,0,204.412,0,204.247
			c0-4.929,3.63-8.927,8.029-8.74c1.685-4.75,5.785-7.963,10.36-7.963c3.108,0,6.068,1.49,8.167,4.052
			c1.423-0.852,2.999-1.296,4.631-1.296c4.024,0,7.607,2.766,9.166,6.83c0.948-0.486,1.982-0.743,3.042-0.743
			c4.061,0,7.365,3.724,7.365,8.301c0,0.043-0.004,0.121-0.007,0.163C50.754,205.68,50.086,206.257,49.257,206.257z M3.071,203.257
			h44.543c-0.502-2.204-2.203-3.87-4.218-3.87c-1.024,0-2.026,0.452-2.821,1.274c-0.392,0.404-0.977,0.552-1.514,0.393
			c-0.538-0.164-0.94-0.615-1.04-1.169c-0.69-3.815-3.563-6.585-6.833-6.585c-1.437,0-2.823,0.528-4.01,1.528
			c-0.333,0.281-0.77,0.399-1.199,0.336c-0.429-0.067-0.808-0.317-1.039-0.686c-1.567-2.501-3.955-3.935-6.551-3.935
			c-3.6,0-6.824,2.875-7.839,6.992c-0.096,0.388-0.342,0.722-0.685,0.927c-0.344,0.206-0.755,0.264-1.141,0.168
			c-0.344-0.088-0.664-0.13-0.979-0.13C5.408,198.501,3.459,200.559,3.071,203.257z" style="fill:#CCCCDE;"></path>
	</g>
	<g>
		<rect height="38.145" width="23.24" style="fill:#FFDEDE;" y="166.613" x="61.471"></rect>
		<path d="M84.711,206.258h-23.24c-0.829,0-1.5-0.672-1.5-1.5v-38.145c0-0.828,0.671-1.5,1.5-1.5h23.24
			c0.829,0,1.5,0.672,1.5,1.5v38.145C86.211,205.586,85.54,206.258,84.711,206.258z M62.971,203.258h20.24v-35.145h-20.24V203.258z" style="fill:#CCCCDE;"></path>
	</g>
	<path d="M98.442,161.007H9.331c-0.829,0-1.5-0.672-1.5-1.5s0.671-1.5,1.5-1.5h89.11
		c0.829,0,1.5,0.672,1.5,1.5S99.27,161.007,98.442,161.007z" style="fill:#CCCCDE;"></path>
	<g>
		<g>
			<rect height="18.535" width="16.275" style="fill:#D4EAFF;" y="133.689" x="17.744"></rect>
			<path d="M34.02,153.725H17.744c-0.829,0-1.5-0.672-1.5-1.5v-18.535c0-0.828,0.671-1.5,1.5-1.5H34.02
				c0.829,0,1.5,0.672,1.5,1.5v18.535C35.52,153.053,34.848,153.725,34.02,153.725z M19.244,150.725H32.52v-15.535H19.244V150.725z" style="fill:#CCCCDE;"></path>
		</g>
		<path d="M34.021,144.457H17.744c-0.829,0-1.5-0.672-1.5-1.5s0.671-1.5,1.5-1.5h16.276
			c0.829,0,1.5,0.672,1.5,1.5S34.849,144.457,34.021,144.457z" style="fill:#CCCCDE;"></path>
	</g>
	<g>
		<g>
			<rect height="18.535" width="16.277" style="fill:#D4EAFF;" y="133.689" x="73.422"></rect>
			<path d="M89.699,153.725H73.422c-0.829,0-1.5-0.672-1.5-1.5v-18.535c0-0.828,0.671-1.5,1.5-1.5h16.277
				c0.829,0,1.5,0.672,1.5,1.5v18.535C91.199,153.053,90.528,153.725,89.699,153.725z M74.922,150.725h13.277v-15.535H74.922
				V150.725z" style="fill:#CCCCDE;"></path>
		</g>
		<path d="M89.699,144.457H73.422c-0.829,0-1.5-0.672-1.5-1.5s0.671-1.5,1.5-1.5h16.277
			c0.829,0,1.5,0.672,1.5,1.5S90.528,144.457,89.699,144.457z" style="fill:#CCCCDE;"></path>
	</g>
	<g>
		<g>
			<rect height="18.535" width="16.275" style="fill:#D4EAFF;" y="133.689" x="45.664"></rect>
			<path d="M61.94,153.725H45.664c-0.829,0-1.5-0.672-1.5-1.5v-18.535c0-0.828,0.671-1.5,1.5-1.5H61.94
				c0.829,0,1.5,0.672,1.5,1.5v18.535C63.44,153.053,62.768,153.725,61.94,153.725z M47.164,150.725H60.44v-15.535H47.164V150.725z" style="fill:#CCCCDE;"></path>
		</g>
		<path d="M61.941,144.457H45.664c-0.829,0-1.5-0.672-1.5-1.5s0.671-1.5,1.5-1.5h16.276
			c0.829,0,1.5,0.672,1.5,1.5S62.769,144.457,61.941,144.457z" style="fill:#CCCCDE;"></path>
	</g>
	<path d="M32.906,188.074c-0.829,0-1.5-0.672-1.5-1.5v-19.961c0-0.828,0.671-1.5,1.5-1.5s1.5,0.672,1.5,1.5
		v19.961C34.406,187.402,33.735,188.074,32.906,188.074z" style="fill:#CCCCDE;"></path>
	<g>
		<rect height="4.356" width="29.532" style="fill:#F0F0FF;" y="200.4" x="58.325"></rect>
		<path d="M87.858,206.257H58.325c-0.829,0-1.5-0.672-1.5-1.5V200.4c0-0.828,0.671-1.5,1.5-1.5h29.532
			c0.829,0,1.5,0.672,1.5,1.5v4.356C89.358,205.585,88.686,206.257,87.858,206.257z M59.825,203.257h26.532V201.9H59.825V203.257z" style="fill:#CCCCDE;"></path>
	</g>
	<g>
		<path d="M111.875,204.757c0-0.017,0.003-0.03,0.003-0.047c0-2.513-1.756-4.549-3.924-4.549
			c-1.002,0-1.916,0.44-2.609,1.157c-0.539-2.985-2.82-5.229-5.556-5.229c-1.244,0-2.394,0.471-3.328,1.258
			c-1.176-1.877-3.079-3.102-5.231-3.102c-2.955,0-5.441,2.301-6.217,5.438c-0.291-0.074-0.592-0.115-0.901-0.115
			c-2.308,0-4.177,2.169-4.177,4.846c0,0.113,0.007,0.229,0.017,0.342L111.875,204.757L111.875,204.757z" style="fill:#CCE8D6;"></path>
		<path d="M111.875,206.257L111.875,206.257l-31.924-0.001c-0.778,0-1.428-0.596-1.495-1.371
			c-0.013-0.156-0.022-0.314-0.022-0.471c0-3.441,2.463-6.252,5.523-6.344c1.267-3.19,4.11-5.324,7.272-5.324
			c2.098,0,4.098,0.941,5.575,2.575c0.93-0.481,1.941-0.731,2.985-0.731c2.736,0,5.187,1.762,6.391,4.403
			c0.565-0.218,1.164-0.332,1.774-0.332c2.991,0,5.424,2.714,5.424,6.049c0,0.036-0.002,0.085-0.005,0.127
			c-0.02,0.368-0.175,0.718-0.438,0.98C112.655,206.099,112.273,206.257,111.875,206.257z M81.6,203.256h28.484
			c-0.411-0.949-1.212-1.595-2.13-1.595c-0.706,0-1.222,0.381-1.531,0.7c-0.392,0.404-0.977,0.553-1.514,0.393
			c-0.539-0.164-0.94-0.615-1.04-1.169c-0.418-2.315-2.134-3.995-4.08-3.995c-0.842,0-1.659,0.312-2.362,0.905
			c-0.333,0.279-0.769,0.405-1.199,0.334c-0.429-0.067-0.808-0.317-1.039-0.686c-0.955-1.523-2.398-2.397-3.96-2.397
			c-2.178,0-4.135,1.768-4.761,4.298c-0.096,0.388-0.343,0.722-0.686,0.927c-0.343,0.206-0.754,0.267-1.141,0.166
			C83.277,200.795,82.035,201.788,81.6,203.256z" style="fill:#CCCCDE;"></path>
	</g>
	<path d="M65.345,187.375c-0.829,0-1.5-0.672-1.5-1.5v-4.84c0-0.828,0.671-1.5,1.5-1.5s1.5,0.672,1.5,1.5
		v4.84C66.845,186.703,66.174,187.375,65.345,187.375z" style="fill:#CCCCDE;"></path>
</g>
<g id="Layer_5">
	<rect height="6.889" width="162.008" style="opacity:0.54;fill:#FFFFFF;enable-background:new    ;" y="186.711" x="51.171"></rect>
	<g>
		<path d="M153.006,224.118H99.544l0,0c-1.401,0-2.539,1.14-2.539,2.54c0,1.402,1.137,2.539,2.539,2.539l0,0
			h53.462l0,0c1.401,0,2.539-1.137,2.539-2.539C155.545,225.257,154.406,224.118,153.006,224.118L153.006,224.118z" style="fill:#6E6E96;"></path>
	</g>
	<g>
		<path d="M106.927,183.932L106.927,183.932l-0.001-49.115l0.001-6.76H69.31
			c-7.361,0-11.024,5.875-11.804,9.51L50.238,178l-0.039-0.005c-0.779,3.639-1.417,9.655-1.417,13.374v28.529
			c0,3.72,3.042,6.76,6.759,6.76h12.558l119.224-0.002h27.779v-35.967l0.003-6.756H106.927V183.932z" style="fill:#B8CFFF;"></path>
		<path d="M68.098,228.158H55.54c-4.554,0-8.259-3.705-8.259-8.26v-28.529c0-3.813,0.65-9.954,1.45-13.688
			l0.244-1.136l7.054-39.244c0.932-4.348,5.227-10.744,13.28-10.744h39.117v55.875l108.178,0.002l-0.004,45.723L68.098,228.158z
			 M51.402,179.657c-0.638,3.565-1.121,8.502-1.121,11.712v28.529c0,2.9,2.359,5.26,5.259,5.26l158.061-0.002l0.002-39.723H105.427
			v-55.877H69.31c-6.275,0-9.62,4.979-10.337,8.324l-7.511,41.784L51.402,179.657z" style="fill:#6E6E96;"></path>
	</g>
	<path d="M61.866,208.014h-2.121c-0.829,0-1.5-0.672-1.5-1.5v-31.582c0-0.828,0.671-1.5,1.5-1.5
		s1.5,0.672,1.5,1.5v29.822c1.818-2.464,7.354-8.529,17.787-8.529h16.384v-21.738c0-0.828,0.671-1.5,1.5-1.5s1.5,0.672,1.5,1.5
		v23.238c0,0.828-0.671,1.5-1.5,1.5H79.032c-11.028,0-15.677,7.715-15.869,8.043C62.894,207.727,62.399,208.014,61.866,208.014z" style="fill:#6E6E96;"></path>
	<rect height="5.051" width="160.089" style="opacity:0.2;fill:#6E6E96;enable-background:new    ;" y="208.98" x="53.938"></rect>
	<path d="M59.33,138.49l-7.268,40.432l-0.04-0.005c-0.778,3.64-1.417,9.656-1.417,13.373v28.531
		c0,2.718,1.627,5.065,3.952,6.138c-0.394-0.855-0.621-1.807-0.621-2.807v-28.531c0-3.717,0.639-9.735,1.416-13.373l0.04,0.005
		l7.269-40.433c0.779-3.637,4.441-9.512,11.804-9.512h34.287v-3.33H71.134C63.773,128.979,60.11,134.854,59.33,138.49z" style="fill:#CFDEFF;"></path>
	<path d="M217.651,224.426c0,1.994-1.629,3.626-3.624,3.626H49.135c-1.994,0-3.627-1.632-3.627-3.626v-6.77
		c0-1.995,1.633-3.627,3.627-3.627h164.892c1.994,0,3.624,1.632,3.624,3.627V224.426z" style="fill:#F0F0FF;"></path>
	<path d="M213.661,221.12H48.769c-1.995,0-3.627-1.634-3.627-3.628
		v5.474c0,1.995,1.633,3.628,3.627,3.628H213.66c1.994,0,3.626-1.633,3.626-3.628v-5.474
		C217.287,219.486,215.656,221.12,213.661,221.12z" style="opacity:0.15;fill:#6E6E96;enable-background:new    ;"></path>
	<path d="M214.027,229.552H49.135c-2.827,0-5.127-2.3-5.127-5.126v-6.77c0-2.827,2.3-5.127,5.127-5.127
		h164.892c2.825,0,5.124,2.3,5.124,5.127v6.77C219.151,227.252,216.852,229.552,214.027,229.552z M49.135,215.529
		c-1.173,0-2.127,0.954-2.127,2.127v6.77c0,1.172,0.954,2.126,2.127,2.126h164.892c1.171,0,2.124-0.954,2.124-2.126v-6.77
		c0-1.173-0.953-2.127-2.124-2.127H49.135z" style="fill:#6E6E96;"></path>
	<g>
		<path d="M56.27,228.053c0,0-3.604-30.128,19.7-30.128c19.663,0,14.855,0,14.855,0
			s18.328-0.071,18.328,30.128H56.27z" style="fill:#A0A0BD;"></path>
		<path d="M110.654,229.553H54.939l-0.158-1.322c-0.08-0.669-1.869-16.502,6.232-25.63
			c3.637-4.098,8.669-6.176,14.958-6.176h14.855c0,0,0.001,0,0.002,0l0.517,0.022c3.192,0.233,19.31,2.839,19.31,31.605V229.553z
			 M57.652,226.553h49.986c-0.562-26.697-16.114-27.123-16.812-27.128h0.001h-0.001c0,0-0.001,0-0.002,0H75.97
			c-5.394,0-9.671,1.738-12.714,5.167C57.301,211.302,57.419,222.694,57.652,226.553z" style="fill:#6E6E96;"></path>
	</g>
	<circle r="17.954" cy="223.735" cx="81.112" style="fill:#BABADB;"></circle>
	<g>
		<path d="M206.359,228.053h-52.885c0,0-3.628-30.128,23.306-30.128
			C176.781,197.925,206.359,193.551,206.359,228.053z" style="fill:#A0A0BD;"></path>
		<path d="M207.859,229.553h-55.715l-0.159-1.32c-0.074-0.618-1.727-15.23,6.506-24.514
			c4.273-4.818,10.393-7.272,18.188-7.294c0.371-0.048,1.547-0.179,3.243-0.179c3.718,0,10.865,0.665,16.959,5.12
			c7.285,5.325,10.979,14.305,10.979,26.687V229.553z M154.865,226.553h49.969c-0.297-9.28-3.623-27.307-24.913-27.307
			c-1.774,0-2.88,0.156-2.927,0.163l-0.215,0.016c-6.942,0-12.337,2.11-16.035,6.273
			C154.746,212.452,154.681,222.892,154.865,226.553z" style="fill:#6E6E96;"></path>
	</g>
	<circle r="17.954" cy="223.735" cx="179.735" style="fill:#BABADB;"></circle>
	<g>
		<circle r="5.984" cy="223.882" cx="81.359" style="fill:#F0F0FF;"></circle>
		<path d="M84.787,223.882c0,0.917-0.357,1.778-1.004,2.425c-0.648,0.648-1.51,1.006-2.425,1.006
			c-1.891,0-3.43-1.539-3.43-3.432c0-1.892,1.539-3.429,3.43-3.429C83.25,220.453,84.787,221.991,84.787,223.882z M81.359,215.343
			c-4.709,0-8.539,3.83-8.539,8.538c0,4.709,3.83,8.54,8.539,8.54c2.281,0,4.426-0.889,6.037-2.501
			c1.613-1.613,2.502-3.758,2.502-6.038C89.898,219.173,86.067,215.343,81.359,215.343z" style="fill:#6E6E96;"></path>
	</g>
	<g>
		<circle r="5.984" cy="223.882" cx="179.921" style="fill:#F0F0FF;"></circle>
		<path d="M183.351,223.882c0,1.894-1.538,3.431-3.43,3.431c-1.894,0-3.429-1.537-3.429-3.431
			c0-0.917,0.354-1.776,1.004-2.424c0.648-0.647,1.509-1.005,2.424-1.005C181.812,220.453,183.351,221.991,183.351,223.882z
			 M179.921,215.343c-2.28,0-4.425,0.888-6.036,2.502c-1.613,1.61-2.501,3.755-2.501,6.035c0,4.708,3.829,8.539,8.538,8.539
			c4.708,0,8.539-3.831,8.539-8.539S184.629,215.343,179.921,215.343z" style="fill:#6E6E96;"></path>
	</g>
	<path d="M106.602,196.323h106.98v-7.839H103.146C103.146,188.484,102.219,196.323,106.602,196.323z" style="fill:#CFDEFF;"></path>
	<g>
		<path d="M214.994,188.135c0,2.01-1.645,3.651-3.652,3.651H108.036c-2.008,0-3.65-1.644-3.65-3.651v-81.188
			c0-2.008,1.643-3.65,3.65-3.65h103.306c2.009,0,3.652,1.642,3.652,3.65V188.135L214.994,188.135z" style="fill:#FF9696;"></path>
		<path d="M211.342,193.286H108.036c-2.84,0-5.15-2.311-5.15-5.151v-81.188c0-2.84,2.311-5.15,5.15-5.15
			h103.306c2.841,0,5.152,2.311,5.152,5.15v81.188C216.494,190.976,214.183,193.286,211.342,193.286z M108.036,104.796
			c-1.186,0-2.15,0.965-2.15,2.15v81.188c0,1.187,0.965,2.151,2.15,2.151h103.306c1.187,0,2.152-0.965,2.152-2.151v-81.188
			c0-1.186-0.966-2.15-2.152-2.15H108.036z" style="fill:#6E6E96;"></path>
	</g>
	<g>
		<path d="M96.915,135.87H71.967c-2.97,0-5.913,2.376-6.536,5.28l-4.948,27.699
			c-0.281,1.31-0.539,3.008-0.737,5.637h37.171l-0.001-0.891v-32.322V135.87z" style="fill:#8CD0FF;"></path>
		<path d="M96.916,175.986H59.745c-0.417,0-0.816-0.174-1.1-0.48c-0.284-0.306-0.428-0.716-0.396-1.133
			c0.18-2.386,0.423-4.241,0.766-5.839l4.938-27.647c0.775-3.616,4.365-6.517,8.013-6.517h24.948c0.829,0,1.5,0.672,1.5,1.5
			l0.001,38.614c0,0.398-0.157,0.78-0.439,1.062C97.696,175.828,97.314,175.986,96.916,175.986z M61.381,172.986h34.034V137.37
			H71.967c-2.272,0-4.593,1.875-5.069,4.095l-4.938,27.648C61.718,170.242,61.531,171.49,61.381,172.986z" style="fill:#6E6E96;"></path>
	</g>
	<rect height="7.059" width="110.252" style="opacity:0.15;fill:#6E6E96;enable-background:new    ;" y="184.729" x="104.742"></rect>
	<path d="M69.446,149.663c0.623-2.907,1.461-8.89,9.24-8.89h18.677
		v0.947l0.002-5.402H72.415c-2.973,0-5.913,2.377-6.536,5.281l-4.948,27.696c-0.282,1.312-0.541,3.009-0.737,5.636h4.735
		L69.446,149.663z" style="opacity:0.15;fill:#6E6E96;enable-background:new    ;"></path>
	<g>
		<rect height="9.125" width="7.316" style="fill:#FFF23F;" y="193.443" x="48.953"></rect>
		<path d="M56.27,204.068h-7.316c-0.829,0-1.5-0.672-1.5-1.5v-9.125c0-0.828,0.671-1.5,1.5-1.5h7.316
			c0.829,0,1.5,0.672,1.5,1.5v9.125C57.77,203.396,57.098,204.068,56.27,204.068z M50.453,201.068h4.316v-6.125h-4.316V201.068z" style="fill:#6E6E96;"></path>
	</g>
	<g>
		<path d="M174.811,175.415c0,2.479,2.028,4.507,4.508,4.507h2.254c2.479,0,4.508-2.027,4.508-4.507v-57.693
			c0-2.479-2.028-4.507-4.508-4.507h-2.254c-2.479,0-4.508,2.028-4.508,4.507V175.415z M154.077,175.415
			c0,2.479,2.027,4.507,4.508,4.507h2.704c2.479,0,4.507-2.027,4.507-4.507v-57.693c0-2.479-2.028-4.507-4.507-4.507h-2.704
			c-2.479,0-4.508,2.028-4.508,4.507V175.415z M133.795,175.415c0,2.479,2.028,4.507,4.507,4.507h2.254
			c2.479,0,4.507-2.027,4.507-4.507v-57.693c0-2.479-2.026-4.507-4.507-4.507h-2.254c-2.479,0-4.507,2.028-4.507,4.507V175.415z
			 M199.601,113.214c-2.479,0-4.507,2.028-4.507,4.507v57.693c0,2.479,2.028,4.507,4.507,4.507h0.901
			c2.479,0,4.508-2.028,4.508-4.507v-57.693c0-2.479-2.028-4.507-4.508-4.507H199.601L199.601,113.214z M113.963,175.415
			c0,2.479,2.028,4.507,4.507,4.507h1.803c2.479,0,4.507-2.027,4.507-4.507v-57.693c0-2.479-2.027-4.507-4.507-4.507h-1.803
			c-2.479,0-4.507,2.028-4.507,4.507V175.415z" style="fill:#F0F0FF;"></path>
		<path d="M181.573,181.422h-2.254c-3.312,0-6.008-2.694-6.008-6.007v-57.693
			c0-3.312,2.695-6.007,6.008-6.007h2.254c3.312,0,6.008,2.695,6.008,6.007v57.693C187.58,178.728,184.885,181.422,181.573,181.422z
			 M179.319,114.715c-1.658,0-3.008,1.349-3.008,3.007v57.693c0,1.658,1.35,3.007,3.008,3.007h2.254
			c1.658,0,3.008-1.349,3.008-3.007v-57.693c0-1.658-1.35-3.007-3.008-3.007H179.319z M161.289,181.422h-2.704
			c-3.312,0-6.008-2.694-6.008-6.007v-57.693c0-3.312,2.695-6.007,6.008-6.007h2.704c3.312,0,6.007,2.695,6.007,6.007v57.693
			C167.296,178.728,164.602,181.422,161.289,181.422z M158.585,114.715c-1.658,0-3.008,1.349-3.008,3.007v57.693
			c0,1.658,1.35,3.007,3.008,3.007h2.704c1.658,0,3.007-1.349,3.007-3.007v-57.693c0-1.658-1.349-3.007-3.007-3.007H158.585z
			 M140.556,181.422h-2.254c-3.312,0-6.007-2.694-6.007-6.007v-57.693c0-3.312,2.694-6.007,6.007-6.007h2.254
			c3.312,0,6.007,2.695,6.007,6.007v57.693C146.563,178.728,143.868,181.422,140.556,181.422z M138.302,114.715
			c-1.658,0-3.007,1.349-3.007,3.007v57.693c0,1.658,1.349,3.007,3.007,3.007h2.254c1.658,0,3.007-1.349,3.007-3.007v-57.693
			c0-1.658-1.349-3.007-3.007-3.007H138.302z M120.273,181.422h-1.803c-3.312,0-6.007-2.694-6.007-6.007v-57.693
			c0-3.312,2.695-6.007,6.007-6.007h1.803c3.312,0,6.007,2.695,6.007,6.007v57.693C126.28,178.728,123.585,181.422,120.273,181.422z
			 M118.47,114.715c-1.658,0-3.007,1.349-3.007,3.007v57.693c0,1.658,1.349,3.007,3.007,3.007h1.803
			c1.658,0,3.007-1.349,3.007-3.007v-57.693c0-1.658-1.349-3.007-3.007-3.007H118.47z M200.502,181.421h-0.901
			c-3.312,0-6.007-2.694-6.007-6.007v-57.693c0-3.312,2.694-6.007,6.007-6.007h0.901c3.312,0,6.008,2.695,6.008,6.007v57.693
			C206.51,178.727,203.815,181.421,200.502,181.421z M199.601,114.714c-1.658,0-3.007,1.349-3.007,3.007v57.693
			c0,1.658,1.349,3.007,3.007,3.007h0.901c1.658,0,3.008-1.349,3.008-3.007v-57.693c0-1.658-1.35-3.007-3.008-3.007H199.601z" style="fill:#6E6E96;"></path>
	</g>
	<path d="M91.727,185.928h-6.159c-0.829,0-1.5-0.672-1.5-1.5s0.671-1.5,1.5-1.5h6.159
		c0.829,0,1.5,0.672,1.5,1.5S92.555,185.928,91.727,185.928z" style="fill:#6E6E96;"></path>
	<g>
		<rect height="9.179" width="7.945" style="fill:#F59393;" y="199.302" x="210.869"></rect>
		<path d="M218.815,209.98h-7.945c-0.828,0-1.5-0.672-1.5-1.5v-9.179c0-0.828,0.672-1.5,1.5-1.5h7.945
			c0.828,0,1.5,0.672,1.5,1.5v9.179C220.315,209.309,219.643,209.98,218.815,209.98z M212.369,206.98h4.945v-6.179h-4.945V206.98z" style="fill:#6E6E96;"></path>
	</g>
	<g>
		<rect height="11.462" width="7.316" style="fill:#F59393;" y="202.568" x="48.953"></rect>
		<path d="M56.27,215.53h-7.316c-0.829,0-1.5-0.672-1.5-1.5v-11.462c0-0.828,0.671-1.5,1.5-1.5h7.316
			c0.829,0,1.5,0.672,1.5,1.5v11.462C57.77,214.858,57.098,215.53,56.27,215.53z M50.453,212.53h4.316v-8.462h-4.316V212.53z" style="fill:#6E6E96;"></path>
	</g>
	<path d="M209.973,104.798H109.411c-1.938,0-3.521,1.583-3.521,3.521v3.212c0-1.937,1.584-3.521,3.521-3.521
		h100.562c1.938,0,3.523,1.584,3.523,3.521v-3.212C213.496,106.383,211.909,104.798,209.973,104.798z" style="fill:#FFADAD;"></path>
	<rect height="2.854" width="34.255" style="fill:#CFDEFF;" y="175.866" x="61.228"></rect>
	<path d="M62.918,200.204h-3.022v5.409h3.022
		c0,0,4.171-8.789,16.265-8.789h17.884v-3.606H79.182C67.089,193.217,62.918,200.204,62.918,200.204z" style="opacity:0.15;fill:#6E6E96;enable-background:new    ;"></path>
	<polyline points="67.853,162.283 89.383,140.751 95.559,140.751 
		95.559,148.398 70.937,173.02 65.272,173.02 67.192,162.283" style="opacity:0.37;fill:#FFFFFF;enable-background:new    ;"></polyline>
	<polygon points="76.592,173.16 81.117,173.16 95.476,158.801 
		95.476,154.275" style="opacity:0.25;fill:#FFFFFF;enable-background:new    ;"></polygon>
	<rect height="3" width="4.057" style="opacity:0.4;fill:#FFFFFF;enable-background:new    ;" y="203.887" x="50.411"></rect>
	<path d="M68.036,225.255c0-8.004,6.488-14.489,14.489-14.489c4.773,0,8.994,2.316,11.635,5.877
		c-2.219-5.396-7.521-9.197-13.717-9.197c-8.188,0-14.827,6.638-14.827,14.828c0,4.299,1.84,8.156,4.76,10.864
		C68.901,230.868,68.036,228.165,68.036,225.255z" style="fill:#CCCCF0;"></path>
	<rect height="3" width="4.958" style="opacity:0.3;fill:#FFFFFF;enable-background:new    ;" y="200.507" x="212.371"></rect>
	<path d="M189.63,212.352c2.206,2.502,3.555,5.776,3.555,9.375
		c0,7.842-6.355,14.198-14.198,14.198c-7.337,0-13.371-5.565-14.118-12.705c-0.054,0.521-0.08,1.046-0.08,1.579
		c0,8.589,6.964,15.551,15.551,15.551c8.589,0,15.552-6.962,15.552-15.551C195.89,219.7,193.424,215.188,189.63,212.352z" style="opacity:0.2;fill:#6E6E96;enable-background:new    ;"></path>
	<g style="opacity:0.2;">
		<path d="M90.281,211.862c2.205,2.502,3.555,5.776,3.555,9.376c0,7.842-6.356,14.197-14.199,14.197
			c-7.336,0-13.372-5.565-14.118-12.705c-0.053,0.52-0.08,1.047-0.08,1.58c0,8.586,6.963,15.549,15.552,15.549
			c8.588,0,15.551-6.963,15.551-15.549C96.542,219.21,94.075,214.697,90.281,211.862z" style="fill:#6E6E96;"></path>
	</g>
	<path d="M166.744,224.58c0-8.004,6.488-14.49,14.489-14.49c4.773,0,8.994,2.316,11.636,5.877
		c-2.22-5.396-7.521-9.197-13.718-9.197c-8.188,0-14.827,6.638-14.827,14.828c0,4.299,1.84,8.156,4.76,10.864
		C167.61,230.191,166.744,227.489,166.744,224.58z" style="fill:#CCCCF0;"></path>
	<path d="M179.735,208.335c8.492,0,15.401,6.908,15.401,15.399c0,8.492-6.909,15.4-15.401,15.4
		c-8.49,0-15.399-6.908-15.399-15.4C164.334,215.244,171.243,208.335,179.735,208.335z M159.225,223.736
		c0,11.307,9.199,20.51,20.51,20.51s20.512-9.201,20.512-20.51c0-11.311-9.201-20.512-20.512-20.512
		C168.425,203.225,159.225,212.425,159.225,223.736z" style="fill:#6E6E96;"></path>
	<path d="M81.112,208.335c8.491,0,15.399,6.908,15.399,15.399c0,8.492-6.908,15.4-15.399,15.4
		s-15.399-6.908-15.399-15.4C65.712,215.244,72.62,208.335,81.112,208.335z M60.602,223.736c0,11.307,9.201,20.51,20.51,20.51
		c11.31,0,20.51-9.201,20.51-20.51c0-11.311-9.201-20.512-20.51-20.512S60.602,212.425,60.602,223.736z" style="fill:#6E6E96;"></path>
	<path d="M109.155,235.508c-0.829,0-1.5-0.672-1.5-1.5v-5.955c0-0.828,0.671-1.5,1.5-1.5s1.5,0.672,1.5,1.5
		v5.955C110.655,234.836,109.983,235.508,109.155,235.508z" style="fill:#6E6E96;"></path>
	<path d="M206.359,235.508c-0.828,0-1.5-0.672-1.5-1.5v-5.955c0-0.828,0.672-1.5,1.5-1.5s1.5,0.672,1.5,1.5
		v5.955C207.859,234.836,207.187,235.508,206.359,235.508z" style="fill:#6E6E96;"></path>
	<path d="M156.631,228.053c0,0-1.306-26.797,19.532-26.797
		s26.743,16.334,26.743,26.797l3.434-1.46c0,0,0.806-28.668-29.561-28.668c-30.365,0-23.306,30.128-23.306,30.128H156.631z" style="opacity:0.2;fill:#6E6E96;enable-background:new    ;"></path>
	<path d="M60.814,226.658c0,0-0.637-25.703,20.396-25.703
		c21.034,0,22.837,20.241,22.837,27.099l5.107-1.46c0,0,0.222-28.668-18.328-28.668c-18.551,0-34.557-3.473-34.557,30.128
		L60.814,226.658z" style="opacity:0.2;fill:#6E6E96;enable-background:new    ;"></path>
</g>
</svg>
