
<svg xmlns="http://www.w3.org/2000/svg" version="1.1" xmlns:xlink="http://www.w3.org/1999/xlink" preserveAspectRatio="none" x="0px" y="0px" width="1024px" height="1024px" viewBox="0 0 1024 1024">
<defs>
<g id="Layer0_0_MEMBER_0_FILL">
<path fill="#1D1D1B" fill-opacity="0.09803921568627451" stroke="none" d="
M 94.2 2.85
Q 110.35 2.4 110.35 1.7 110.35 1 94.2 0.5 78.1 0 55.2 0 32.3 0 16.2 0.5 0 1 0 1.7 0 2.4 16.2 2.85 32.4 3.35 55.2 3.35 78 3.35 94.2 2.85 Z"/>
</g>

<g id="Layer0_0_MEMBER_1_MEMBER_0_FILL">
<path fill="#1D1715" stroke="none" d="
M 255.8 291.65
L 255.8 281.05 254.9 281.05
Q 254.05 281.05 253.4 281.65 252.8 282.3 252.8 283.15
L 252.8 291.65 255.8 291.65 Z"/>
</g>

<g id="Layer0_0_MEMBER_1_MEMBER_1_FILL">
<path fill="#C44645" stroke="none" d="
M 186.95 292.25
Q 185.45 292.25 185.2 292.35 184.45 292.55 184.45 293.45
L 184.45 298.15
Q 184.45 299.45 185.2 300.55 185.95 301.6 187.15 302.05 187.9 302.3 188.65 302.3
L 259 302.3 259 292.25 186.95 292.25 Z"/>
</g>

<g id="Layer0_0_MEMBER_1_MEMBER_2_FILL">
<path fill="#E75C5B" stroke="none" d="
M 260.05 252.95
Q 257.8 252.8 257.05 252.9 255.8 253.1 255.8 254.6
L 255.8 298.05
Q 255.8 299.55 256.7 300.7 257.6 301.8 259 302.15
L 260.05 302.3 290.55 302.3
Q 292.3 302.3 293.6 301.05 294.85 299.8 294.8 298.05
L 294.8 283.3
Q 294.8 278.6 293.9 274.1
L 290.45 256.35
Q 290.15 254.85 288.95 253.9 287.8 252.95 286.25 252.95
L 260.05 252.95 Z"/>
</g>

<g id="Layer0_0_MEMBER_1_MEMBER_3_FILL">
<path fill="#1D1715" stroke="none" d="
M 275.45 296
Q 275.1 294.45 273.95 293.15
L 273.8 292.95 272.75 292.1 272.7 292.05
Q 272.2 291.7 271.55 291.45
L 271 291.25 269.65 291 255.8 291 255.8 302.3 259 302.3 259 302.15 260.05 302.3 276.55 302.3 275.45 296 Z"/>
</g>

<g id="Layer0_0_MEMBER_1_MEMBER_4_FILL">
<path fill="#E75C5B" stroke="none" d="
M 202.1 288.8
L 196.35 288.8
Q 194.3 288.8 192.55 289.7 190.8 290.65 189.65 292.25 188.65 293.6 188.25 295.55
L 187.15 302.05
Q 187.9 302.3 188.65 302.3
L 190.25 302.3 191.35 296.1
Q 191.6 294.75 192.5 293.75 193.35 292.7 194.6 292.25 195.55 291.9 196.35 291.9
L 202.1 291.9
Q 202.9 291.9 203.95 292.25 206.8 293.25 207.5 296.2
L 208.6 302.3 211.8 302.3 210.65 296 210.65 295.85
Q 210.3 293.9 209.05 292.25 207.85 290.65 206.05 289.7 204.2 288.8 202.1 288.8 Z"/>
</g>

<g id="Layer0_0_MEMBER_1_MEMBER_5_FILL">
<path fill="#E75C5B" stroke="none" d="
M 220.1 288.8
Q 218.05 288.8 216.3 289.7 214.55 290.65 213.4 292.25 212.35 293.8 212.05 295.55
L 210.85 302.3 214.05 302.3 215.15 296.1
Q 215.35 294.75 216.25 293.75 217.1 292.7 218.35 292.25 219.3 291.9 220.1 291.9
L 225.85 291.9
Q 226.75 291.9 227.7 292.25 229.05 292.7 230 293.75 230.95 294.8 231.25 296.2
L 232.35 302.3 235.55 302.3 234.4 295.85
Q 234.05 293.9 232.8 292.25 231.6 290.65 229.8 289.7 227.95 288.8 225.85 288.8
L 220.1 288.8 Z"/>
</g>

<g id="Layer0_0_MEMBER_1_MEMBER_6_FILL">
<path fill="#1D1715" stroke="none" d="
M 196.35 291
Q 194.2 291 192.5 292.4 190.85 293.8 190.45 295.95
L 189.35 302.15 189.25 302.3 209.55 302.3 208.5 296.35
Q 208.1 294.05 206.3 292.5 204.45 291 202.1 291
L 196.35 291 Z"/>
</g>

<g id="Layer0_0_MEMBER_1_MEMBER_7_FILL">
<path fill="#E75C5B" stroke="none" d="
M 196.35 291
L 202.1 291
Q 204.4 291 206.15 292.4 207.9 293.8 208.4 296
L 208.5 296.35 209.55 302.3 210.85 302.3 209.75 296.15 209.7 296
Q 209.15 293.25 207.05 291.5 204.9 289.7 202.1 289.7
L 196.35 289.7
Q 193.7 289.7 191.65 291.4 189.65 293.1 189.2 295.75
L 188.05 302.3 189.3 302.3 189.35 302.15 190.45 296 190.45 295.95
Q 190.85 293.8 192.5 292.4 194.2 291 196.35 291 Z"/>
</g>

<g id="Layer0_0_MEMBER_1_MEMBER_8_FILL">
<path fill="#1D1715" stroke="none" d="
M 220.1 291
Q 217.95 291 216.25 292.4 214.6 293.8 214.2 295.95
L 213.1 302.15 213.05 302.3 233.3 302.3 232.25 296.35
Q 231.85 294.05 230.05 292.5 228.2 291 225.85 291
L 220.1 291 Z"/>
</g>

<g id="Layer0_0_MEMBER_1_MEMBER_9_FILL">
<path fill="#E75C5B" stroke="none" d="
M 220.1 289.7
Q 217.45 289.7 215.4 291.4 213.4 293.1 212.95 295.75
L 211.8 302.3 213.1 302.3 213.1 302.15 214.2 296 214.2 295.95
Q 214.6 293.8 216.25 292.4 217.95 291 220.1 291
L 225.85 291
Q 228.15 291 229.9 292.4 231.65 293.8 232.2 296
L 233.3 302.3 234.6 302.3 233.5 296.15 233.5 296
Q 232.95 293.25 230.8 291.5 228.65 289.7 225.85 289.7
L 220.1 289.7 Z"/>
</g>

<g id="Layer0_0_MEMBER_1_MEMBER_10_FILL">
<path fill="#E75C5B" stroke="none" d="
M 294.9 257.1
Q 296.2 257.1 297.25 258.1 298.35 259.15 298.4 260.4
L 298.7 267.55 299.4 267.55 299.65 260.55
Q 299.85 258 298.45 256.55 296.7 254.8 294.35 254.8
L 289.8 254.8 290.65 257.45 294.9 257.1 Z"/>
</g>

<g id="Layer0_0_MEMBER_1_MEMBER_11_FILL">
<path fill="#C44645" stroke="none" d="
M 299.9 260.55
Q 299.4 260.1 298.8 260.1
L 298.65 260.15
Q 298.3 260.15 298.3 260.55
L 298.6 267.7
Q 298.6 268.1 299 268.1 299.7 268.05 300.15 267.55 300.6 267.05 300.55 266.4
L 300.4 261.55
Q 300.35 260.95 299.9 260.55 Z"/>
</g>

<g id="Layer0_0_MEMBER_1_MEMBER_12_FILL">
<path fill="#614F49" stroke="none" d="
M 255.8 253.4
L 255.8 254.8 290.25 254.8 290.25 253.55
Q 290.25 251.75 289 250.5 287.7 249.2 285.9 249.2
L 260 249.2
Q 258.3 249.2 257.05 250.45 255.8 251.7 255.8 253.4 Z"/>
</g>

<g id="Layer0_0_MEMBER_1_MEMBER_13_FILL">
<path fill="#ABEDE3" stroke="none" d="
M 289.75 258.35
Q 289.35 258.75 289.35 259.25
L 289.35 280.4
Q 289.35 280.95 289.75 281.35 290.1 281.7 290.65 281.7
L 294.8 281.7
Q 294.8 276.6 293.35 268.7 292.1 262 290.75 257.95
L 290.65 257.95
Q 290.15 257.95 289.75 258.35 Z"/>
</g>

<g id="Layer0_0_MEMBER_1_MEMBER_14_FILL">
<path fill="#614F49" stroke="none" d="
M 289.4 258
Q 288.85 258.5 288.85 259.25
L 288.85 280.4
Q 288.85 281.15 289.4 281.7 289.9 282.25 290.65 282.25
L 294.85 282.25 294.85 281.9 294.8 281.7 290.65 281.7
Q 290.1 281.7 289.75 281.35 289.35 280.95 289.35 280.4
L 289.35 259.25
Q 289.35 258.75 289.75 258.35 290.15 257.95 290.65 257.95
L 290.75 257.95 290.65 257.45
Q 289.9 257.45 289.4 258 Z"/>
</g>

<g id="Layer0_0_MEMBER_1_MEMBER_15_MEMBER_0_FILL">
<path fill="#F9B659" stroke="none" d="
M 294.85 285
L 293.35 285
Q 292.55 285 292.05 285.55 291.5 286.05 291.5 286.8
L 291.5 287.25
Q 291.5 288 292.05 288.55 292.55 289.05 293.35 289.05
L 294.85 289.05
Q 295.5 286.8 294.85 285 Z"/>
</g>

<g id="Layer0_0_MEMBER_1_MEMBER_15_MEMBER_1_FILL">
<path fill="#5E4A4C" stroke="none" d="
M 292.2 285.7
Q 292.7 285.25 293.35 285.25
L 294.85 285.25 294.85 284.75 293.35 284.75
Q 292.5 284.75 291.85 285.35 291.25 285.95 291.25 286.8
L 291.25 287.25
Q 291.25 288.1 291.85 288.75 292.5 289.35 293.35 289.35
L 294.85 289.35 294.85 288.8 293.35 288.8
Q 292.7 288.8 292.2 288.35 291.75 287.9 291.75 287.25
L 291.75 286.8
Q 291.75 286.15 292.2 285.7 Z"/>
</g>

<g id="Layer0_0_MEMBER_1_MEMBER_16_FILL">
<path fill="#EDDFC8" stroke="none" d="
M 294.85 292.25
L 293.15 292.25
Q 292.7 292.25 292.4 292.55 292.1 292.85 292.1 293.3
L 292.1 293.35
Q 292.1 293.8 292.4 294.1 292.7 294.4 293.15 294.4
L 294.85 294.4
Q 295.3 293.2 294.85 292.25 Z"/>
</g>

<g id="Layer0_0_MEMBER_1_MEMBER_17_FILL">
<path fill="#C44645" stroke="none" d="
M 273.15 292.4
Q 274.9 293.8 275.45 296
L 276.55 302.3 291.85 302.3
Q 293.65 302.3 294.95 301.7 296.35 301.1 296.35 300.05
L 296.35 297.3
Q 296.35 296.8 295.95 296.4 295.6 296 295.05 296
L 276.75 296
Q 276.25 293.25 274.05 291.5 271.9 289.7 269.1 289.7
L 255.8 289.7 255.8 291 269.1 291
Q 271.4 291 273.15 292.4 Z"/>
</g>

<g id="Layer0_0_MEMBER_1_MEMBER_18_FILL">
<path fill="#C44645" stroke="none" d="
M 271.45 288.1
Q 274.8 288.8 276.5 291.3 277.5 292.7 279.1 292.7
L 284.35 292.7
Q 285.35 292.7 286.1 292 286.8 291.25 286.8 290.25
L 286.8 260.8
Q 286.8 259.6 285.95 258.75 285.1 257.9 283.95 257.9
L 271.4 257.9
Q 270.2 257.9 269.4 258.75 268.55 259.6 268.55 260.8
L 268.55 284.45
Q 268.55 285.75 269.35 286.8 270.15 287.8 271.45 288.1 Z"/>
</g>

<g id="Layer0_0_MEMBER_1_MEMBER_19_FILL">
<path fill="#ABEDE3" stroke="none" d="
M 271.4 258.85
Q 270.6 258.85 270 259.4 269.45 260 269.45 260.8
L 269.45 270.35
Q 269.45 271.6 270.25 272.55 271.05 273.55 272.3 273.75
L 283.8 275.85
Q 284.6 276 285.2 275.45 285.85 274.95 285.85 274.1
L 285.85 260.8
Q 285.85 260 285.3 259.4 284.75 258.85 283.95 258.85
L 271.4 258.85 Z"/>
</g>

<g id="Layer0_0_MEMBER_1_MEMBER_20_FILL">
<path fill="#614F49" stroke="none" d="
M 269.25 260.8
L 269.25 270.35
Q 269.25 271.7 270.1 272.7 270.95 273.75 272.3 274
L 284.1 276.1
Q 284.95 276.1 285.5 275.5 286.1 274.95 286.1 274.1
L 286.1 260.8
Q 286.1 259.9 285.45 259.25 284.8 258.6 283.95 258.6
L 271.4 258.6
Q 270.5 258.6 269.9 259.25 269.25 259.9 269.25 260.8
M 270.2 259.6
Q 270.7 259.1 271.4 259.1
L 283.95 259.1
Q 284.65 259.1 285.1 259.6 285.6 260.1 285.6 260.8
L 285.6 274.1
Q 285.6 274.85 285.1 275.3 284.55 275.75 283.85 275.6
L 272.35 273.55
Q 271.2 273.35 270.45 272.4 269.7 271.5 269.7 270.35
L 269.7 260.8
Q 269.7 260.1 270.2 259.6 Z"/>
</g>

<g id="Layer0_0_MEMBER_1_MEMBER_21_FILL">
<path fill="#E75C5B" stroke="none" d="
M 255.8 296.5
L 255.8 291
Q 255.8 290.2 255.25 289.65 254.7 289.05 253.9 289.05
L 238.45 289.05
Q 237.65 289.05 237.1 289.65 236.55 290.2 236.55 291
L 236.55 296.5
Q 236.55 297.3 237.1 297.85 237.65 298.4 238.45 298.4
L 253.9 298.4
Q 254.7 298.4 255.25 297.85 255.8 297.3 255.8 296.5 Z"/>
</g>

<g id="Layer0_0_MEMBER_1_MEMBER_22_FILL">
<path fill="#C44645" stroke="none" d="
M 263.95 289.7
L 263.95 254.8 255.8 254.8 255.8 289.7 263.95 289.7 Z"/>
</g>

<g id="Layer0_0_MEMBER_1_MEMBER_23_FILL">
<path fill="#1D1715" stroke="none" d="
M 273.75 275.85
Q 273.75 275.3 273.2 275.3
L 271.15 275.3
Q 270.6 275.3 270.6 275.85 270.6 276.4 271.15 276.4
L 273.2 276.4
Q 273.75 276.4 273.75 275.85 Z"/>
</g>

<g id="Layer0_0_MEMBER_1_MEMBER_24_FILL">
<path fill="#1D1715" stroke="none" d="
M 261.65 257
Q 261.65 256.5 261.1 256.5
L 257.7 256.5
Q 257.2 256.5 257.2 257 257.2 257.5 257.7 257.5
L 261.1 257.5
Q 261.65 257.5 261.65 257 Z"/>
</g>

<g id="Layer0_0_MEMBER_1_MEMBER_25_FILL">
<path fill="#1D1715" stroke="none" d="
M 261.65 258.85
Q 261.65 258.35 261.1 258.35
L 257.7 258.35
Q 257.2 258.35 257.2 258.85 257.2 259.35 257.7 259.35
L 261.1 259.35
Q 261.65 259.35 261.65 258.85 Z"/>
</g>

<g id="Layer0_0_MEMBER_1_MEMBER_26_FILL">
<path fill="#1D1715" stroke="none" d="
M 261.65 260.75
Q 261.65 260.2 261.1 260.2
L 257.7 260.2
Q 257.2 260.2 257.2 260.75 257.2 261.25 257.7 261.25
L 261.1 261.25
Q 261.65 261.25 261.65 260.75 Z"/>
</g>

<g id="Layer0_0_MEMBER_1_MEMBER_27_FILL">
<path fill="#1D1715" stroke="none" d="
M 261.65 262.6
Q 261.65 262.1 261.1 262.1
L 257.7 262.1
Q 257.2 262.1 257.2 262.6 257.2 263.1 257.7 263.1
L 261.1 263.1
Q 261.65 263.1 261.65 262.6 Z"/>
</g>

<g id="Layer0_0_MEMBER_1_MEMBER_28_FILL">
<path fill="#1D1715" stroke="none" d="
M 261.65 264.5
Q 261.65 263.95 261.1 263.95
L 257.7 263.95
Q 257.2 263.95 257.2 264.5 257.2 265 257.7 265
L 261.1 265
Q 261.65 265 261.65 264.5 Z"/>
</g>

<g id="Layer0_0_MEMBER_1_MEMBER_29_FILL">
<path fill="#1D1715" stroke="none" d="
M 261.65 266.35
Q 261.65 265.85 261.1 265.85
L 257.7 265.85
Q 257.2 265.85 257.2 266.35 257.2 266.85 257.7 266.85
L 261.1 266.85
Q 261.65 266.85 261.65 266.35 Z"/>
</g>

<g id="Layer0_0_MEMBER_1_MEMBER_30_FILL">
<path fill="#1D1715" stroke="none" d="
M 261.65 268.2
Q 261.65 267.7 261.1 267.7
L 257.7 267.7
Q 257.2 267.7 257.2 268.2 257.2 268.75 257.7 268.75
L 261.1 268.75
Q 261.65 268.75 261.65 268.2 Z"/>
</g>

<g id="Layer0_0_MEMBER_1_MEMBER_31_FILL">
<path fill="#000000" fill-opacity="0.09803921568627451" stroke="none" d="
M 110.6 5.4
L 110.35 5.4 110.35 4.45 29.5 1 28.95 1.65 24.6 1.65
Q 24.2 1.1 23.8 0.75
L 6.75 0
Q 5.8 0.8 5.2 1.65
L 2.5 1.65
Q 1 1.65 0.75 1.75 0 1.95 0 2.85
L 0 7.55
Q 0 8.85 0.75 9.95 1.5 11 2.7 11.45
L 3.6 11.65 3.6 11.7 74.55 11.7 74.55 11.55 75.6 11.7 107.4 11.7
Q 109.2 11.7 110.5 11.1 111.9 10.5 111.9 9.45
L 111.9 6.7
Q 111.9 6.2 111.5 5.8 111.15 5.4 110.6 5.4 Z"/>
</g>

<g id="Layer0_0_MEMBER_1_MEMBER_32_MEMBER_0_FILL">
<path fill="#362A2B" stroke="none" d="
M 262.55 297.65
Q 261.35 298.85 261.35 300.55 261.35 302.25 262.55 303.45 263.75 304.65 265.45 304.65 267.15 304.65 268.35 303.45 269.55 302.25 269.55 300.55 269.55 298.85 268.35 297.65 267.15 296.45 265.45 296.45 263.75 296.45 262.55 297.65 Z"/>
</g>

<g id="Layer0_0_MEMBER_1_MEMBER_32_MEMBER_1_FILL">
<path fill="#1D1715" stroke="none" d="
M 265.45 291.75
Q 261.8 291.75 259.25 294.35 256.65 296.9 256.65 300.55 256.65 304.2 259.25 306.8 261.8 309.4 265.45 309.4 269.15 309.4 271.7 306.8 274.3 304.25 274.3 300.55 274.3 296.9 271.7 294.35 269.1 291.75 265.45 291.75
M 265.45 295.15
Q 267.7 295.15 269.3 296.75 270.9 298.3 270.9 300.55 270.9 302.8 269.3 304.4 267.7 306 265.45 306 263.2 306 261.65 304.4 260.05 302.8 260.05 300.55 260 298.3 261.6 296.75 263.2 295.15 265.45 295.15 Z"/>
</g>

<g id="Layer0_0_MEMBER_1_MEMBER_32_MEMBER_2_MEMBER_0_FILL">
<path fill="#DADADA" stroke="none" d="
M 265.45 295.15
Q 263.2 295.15 261.65 296.75 260.05 298.3 260.05 300.55 260.05 302.8 261.65 304.4 263.2 306 265.45 306 267.7 305.95 269.3 304.4 270.9 302.8 270.85 300.55 270.85 298.3 269.3 296.75 267.7 295.15 265.45 295.15
M 268.85 297.15
Q 270.3 298.55 270.3 300.55 270.3 302.55 268.9 303.95 267.45 305.4 265.45 305.4 263.45 305.4 262.05 304 260.65 302.55 260.65 300.55 260.65 298.55 262.05 297.15 263.45 295.75 265.45 295.75 267.45 295.75 268.85 297.15 Z"/>
</g>

<g id="Layer0_0_MEMBER_1_MEMBER_32_MEMBER_2_MEMBER_1_FILL">
<path fill="#EDEDED" stroke="none" d="
M 267.8 298.2
Q 266.85 297.25 265.45 297.25 264.05 297.25 263.1 298.25 262.15 299.2 262.15 300.55 262.15 301.95 263.15 302.9 264.1 303.9 265.45 303.9 266.85 303.9 267.8 302.9 268.8 301.95 268.8 300.55 268.8 299.15 267.8 298.2
M 263.95 299.1
Q 264.6 298.5 265.45 298.45 266.3 298.45 266.95 299.05 267.55 299.7 267.55 300.55 267.55 301.4 266.95 302.05 266.3 302.65 265.45 302.65 264.6 302.65 263.95 302.05 263.35 301.4 263.35 300.55 263.35 299.7 263.95 299.1 Z"/>
</g>

<g id="Layer0_0_MEMBER_1_MEMBER_32_MEMBER_2_MEMBER_2_MEMBER_0_FILL">
<path fill="#C6C6C6" stroke="none" d="
M 265.45 298.45
Q 264.6 298.5 263.95 299.1 263.35 299.7 263.35 300.55 263.35 301.4 263.95 302.05 264.6 302.65 265.45 302.65 266.3 302.65 266.95 302.05 267.55 301.4 267.55 300.55 267.55 299.7 266.95 299.05 266.3 298.45 265.45 298.45
M 266.7 299.35
Q 266.9 299.55 266.7 299.75 266.45 300 266.25 299.75 266.05 299.55 266.25 299.35 266.45 299.1 266.7 299.35
M 264.25 299.75
Q 263.95 299.55 264.25 299.35 264.45 299.05 264.65 299.35 264.95 299.55 264.65 299.75 264.45 300.05 264.25 299.75
M 265.65 299.3
Q 265.65 299.45 265.45 299.45 265.3 299.45 265.3 299.3 265.3 299.1 265.45 299.1 265.65 299.1 265.65 299.3
M 265.45 301.35
Q 264.65 301.35 264.65 300.55 264.65 299.75 265.45 299.75 266.25 299.75 266.25 300.55 266.25 301.35 265.45 301.35
M 264 300.55
Q 264 300.4 264.2 300.4 264.35 300.4 264.35 300.55 264.35 300.75 264.2 300.75 264 300.75 264 300.55
M 265.45 302
Q 265.3 302 265.3 301.85 265.3 301.65 265.45 301.65 265.65 301.65 265.65 301.85 265.65 302 265.45 302
M 264.25 301.8
Q 264.05 301.6 264.25 301.35 264.45 301.15 264.65 301.35 264.9 301.6 264.65 301.8 264.45 302 264.25 301.8
M 266.25 301.35
Q 266.5 301.2 266.7 301.35 266.85 301.6 266.7 301.8 266.5 301.95 266.25 301.8 266.1 301.6 266.25 301.35
M 266.75 300.75
Q 266.55 300.75 266.55 300.55 266.55 300.4 266.75 300.4 266.9 300.4 266.9 300.55 266.9 300.75 266.75 300.75 Z"/>
</g>

<g id="Layer0_0_MEMBER_1_MEMBER_32_MEMBER_2_MEMBER_3_FILL">
<path fill="#C6C6C6" stroke="none" d="
M 270.3 300.55
Q 270.3 298.55 268.85 297.15 267.45 295.75 265.45 295.75 263.45 295.75 262.05 297.15 260.65 298.55 260.65 300.55 260.65 302.55 262.05 304 263.45 305.4 265.45 305.4 267.45 305.4 268.9 303.95 270.3 302.55 270.3 300.55
M 267.1 296.8
Q 267.35 296.35 267.75 296.55 268.15 296.8 267.9 297.25 267.65 297.7 267.25 297.5 266.85 297.25 267.1 296.8
M 265.45 295.95
Q 265.9 295.95 265.9 296.5 265.9 297 265.45 297 265 297 265 296.5 265 295.95 265.45 295.95
M 263.15 296.55
Q 263.55 296.35 263.8 296.8 264.05 297.25 263.7 297.5 263.25 297.7 263 297.25 262.75 296.85 263.15 296.55
M 269.45 298.25
Q 269.7 298.6 269.2 298.9 268.75 299.2 268.55 298.8 268.3 298.4 268.75 298.1 269.25 297.9 269.45 298.25
M 270.05 300.55
Q 270.05 301 269.55 301 269 301 269 300.55 269 300.1 269.55 300.1 270.05 300.1 270.05 300.55
M 269.45 302.85
Q 269.25 303.3 268.75 303 268.3 302.7 268.55 302.35 268.75 301.9 269.2 302.2 269.75 302.45 269.45 302.85
M 265.45 297.25
Q 266.85 297.25 267.8 298.2 268.8 299.15 268.8 300.55 268.8 301.95 267.8 302.9 266.85 303.9 265.45 303.9 264.1 303.9 263.15 302.9 262.15 301.95 262.15 300.55 262.15 299.2 263.1 298.25 264.05 297.25 265.45 297.25
M 267.25 303.65
Q 267.6 303.4 267.9 303.85 268.2 304.35 267.75 304.55 267.4 304.8 267.1 304.3 266.8 303.85 267.25 303.65
M 263.7 303.65
Q 264.1 303.85 263.8 304.3 263.55 304.8 263.15 304.55 262.75 304.35 263.05 303.85 263.3 303.4 263.7 303.65
M 265 304.65
Q 265 304.1 265.45 304.1 265.9 304.1 265.9 304.65 265.9 305.15 265.45 305.15 265 305.15 265 304.65
M 262.4 298.8
Q 262.15 299.15 261.7 298.9 261.3 298.65 261.45 298.25 261.7 297.9 262.15 298.15 262.55 298.4 262.4 298.8
M 261.4 300.1
Q 261.9 300.1 261.9 300.55 261.9 301 261.4 301 260.85 301 260.85 300.55 260.85 300.1 261.4 300.1
M 261.45 302.85
Q 261.25 302.45 261.7 302.2 262.15 301.95 262.4 302.35 262.6 302.75 262.15 303 261.7 303.25 261.45 302.85 Z"/>
</g>

<g id="Layer0_0_MEMBER_1_MEMBER_33_MEMBER_0_FILL">
<path fill="#362A2B" stroke="none" d="
M 196.55 297.65
Q 195.35 298.85 195.35 300.55 195.35 302.25 196.55 303.45 197.75 304.65 199.45 304.65 201.15 304.65 202.3 303.45 203.5 302.25 203.5 300.55 203.5 298.85 202.3 297.65 201.15 296.45 199.45 296.45 197.75 296.45 196.55 297.65 Z"/>
</g>

<g id="Layer0_0_MEMBER_1_MEMBER_33_MEMBER_1_FILL">
<path fill="#1D1715" stroke="none" d="
M 199.4 291.75
Q 195.75 291.75 193.2 294.35 190.6 296.9 190.6 300.55 190.6 304.25 193.2 306.8 195.8 309.4 199.45 309.4 203.1 309.4 205.65 306.8 208.25 304.2 208.25 300.55 208.25 296.9 205.65 294.35 203.05 291.75 199.4 291.75
M 195.6 296.75
Q 197.15 295.15 199.4 295.15 201.65 295.15 203.25 296.75 204.85 298.3 204.85 300.55 204.85 302.8 203.3 304.4 201.7 306 199.45 306 197.2 306 195.6 304.4 194 302.8 194 300.55 194 298.3 195.6 296.75 Z"/>
</g>

<g id="Layer0_0_MEMBER_1_MEMBER_33_MEMBER_2_MEMBER_0_FILL">
<path fill="#DADADA" stroke="none" d="
M 199.4 295.15
Q 197.2 295.15 195.6 296.75 194 298.3 194 300.55 194 302.8 195.6 304.4 197.2 306 199.45 306 201.7 305.95 203.25 304.4 204.85 302.8 204.85 300.55 204.85 298.3 203.25 296.75 201.65 295.15 199.4 295.15
M 204.25 300.55
Q 204.25 302.55 202.85 303.95 201.45 305.4 199.45 305.4 197.45 305.4 196 304 194.6 302.6 194.6 300.55 194.6 298.55 196 297.15 197.4 295.75 199.4 295.75 201.4 295.75 202.85 297.15 204.25 298.55 204.25 300.55 Z"/>
</g>

<g id="Layer0_0_MEMBER_1_MEMBER_33_MEMBER_2_MEMBER_1_FILL">
<path fill="#EDEDED" stroke="none" d="
M 201.8 298.2
Q 200.8 297.25 199.45 297.25 198.05 297.25 197.1 298.25 196.1 299.2 196.1 300.55 196.1 301.95 197.1 302.9 198.05 303.9 199.45 303.9 200.8 303.9 201.8 302.9 202.75 301.95 202.75 300.55 202.75 299.15 201.8 298.2
M 199.45 302.65
Q 198.6 302.65 197.95 302.05 197.35 301.4 197.35 300.55 197.35 299.7 197.95 299.1 198.6 298.5 199.45 298.45 200.3 298.45 200.9 299.05 201.5 299.7 201.5 300.55 201.5 301.4 200.9 302.05 200.3 302.65 199.45 302.65 Z"/>
</g>

<g id="Layer0_0_MEMBER_1_MEMBER_33_MEMBER_2_MEMBER_2_MEMBER_0_FILL">
<path fill="#C6C6C6" stroke="none" d="
M 199.45 298.45
Q 198.6 298.5 197.95 299.1 197.35 299.7 197.35 300.55 197.35 301.4 197.95 302.05 198.6 302.65 199.45 302.65 200.3 302.65 200.9 302.05 201.5 301.4 201.5 300.55 201.5 299.7 200.9 299.05 200.3 298.45 199.45 298.45
M 200.65 299.35
Q 200.85 299.55 200.65 299.75 200.45 300.05 200.25 299.75 199.95 299.55 200.25 299.35 200.45 299.05 200.65 299.35
M 198.65 299.75
Q 198.45 300 198.2 299.75 198 299.55 198.2 299.35 198.4 299.1 198.65 299.35 198.85 299.55 198.65 299.75
M 199.6 299.3
L 199.45 299.45
Q 199.25 299.45 199.25 299.3 199.25 299.1 199.45 299.1 199.6 299.1 199.6 299.3
M 197.95 300.55
Q 197.95 300.4 198.15 300.4 198.3 300.4 198.3 300.55 198.3 300.75 198.15 300.75 197.95 300.75 197.95 300.55
M 198.2 301.35
Q 198.45 301.2 198.65 301.35 198.8 301.6 198.65 301.8 198.45 301.95 198.2 301.8 198.05 301.6 198.2 301.35
M 199.45 302
Q 199.25 302 199.25 301.85 199.25 301.65 199.45 301.65 199.6 301.65 199.6 301.85 199.6 302 199.45 302
M 199.45 301.35
Q 198.65 301.35 198.65 300.55 198.65 299.75 199.45 299.75 199.75 299.75 200 300 200.2 300.2 200.2 300.55 200.2 300.9 200 301.1 199.75 301.35 199.45 301.35
M 200.9 300.55
Q 200.9 300.75 200.7 300.75 200.55 300.75 200.55 300.55 200.55 300.4 200.7 300.4 200.9 300.4 200.9 300.55
M 200.25 301.35
Q 200.45 301.15 200.65 301.35 200.8 301.6 200.65 301.8 200.45 302 200.25 301.8 200.05 301.6 200.25 301.35 Z"/>
</g>

<g id="Layer0_0_MEMBER_1_MEMBER_33_MEMBER_2_MEMBER_3_FILL">
<path fill="#C6C6C6" stroke="none" d="
M 204.25 300.55
Q 204.25 298.55 202.85 297.15 201.4 295.75 199.4 295.75 197.4 295.75 196 297.15 194.6 298.55 194.6 300.55 194.6 302.6 196 304 197.45 305.4 199.45 305.4 201.45 305.4 202.85 303.95 204.25 302.55 204.25 300.55
M 201.05 296.8
Q 201.3 296.35 201.75 296.55 202.1 296.8 201.85 297.25 201.6 297.7 201.2 297.5 200.8 297.2 201.05 296.8
M 199.45 295.95
Q 199.9 295.95 199.9 296.5 199.9 297 199.45 297 198.95 297 198.95 296.5 198.95 295.95 199.45 295.95
M 197.1 296.55
Q 197.55 296.35 197.8 296.8 198.05 297.2 197.65 297.5 197.25 297.7 197 297.25 196.75 296.8 197.1 296.55
M 203.4 298.25
Q 203.7 298.6 203.2 298.9 202.7 299.2 202.5 298.8 202.25 298.4 202.75 298.1 203.25 297.9 203.4 298.25
M 203.45 302.85
Q 203.2 303.25 202.75 303 202.25 302.7 202.5 302.35 202.75 301.95 203.2 302.2 203.65 302.45 203.45 302.85
M 204.05 300.55
Q 204.05 301 203.5 301 202.95 301 202.95 300.55 202.95 300.1 203.5 300.1 204.05 300.1 204.05 300.55
M 199.45 297.25
Q 200.8 297.25 201.8 298.2 202.75 299.15 202.75 300.55 202.75 301.95 201.8 302.9 200.8 303.9 199.45 303.9 198.05 303.9 197.1 302.9 196.1 301.95 196.1 300.55 196.1 299.2 197.1 298.25 198.05 297.25 199.45 297.25
M 196.35 298.8
Q 196.15 299.2 195.65 298.9 195.2 298.65 195.45 298.25 195.65 297.85 196.1 298.15 196.6 298.4 196.35 298.8
M 195.9 300.55
Q 195.9 301 195.35 301 194.8 301 194.8 300.55 194.8 300.1 195.35 300.1 195.9 300.1 195.9 300.55
M 195.45 302.85
Q 195.2 302.5 195.65 302.2 196.2 301.95 196.35 302.35 196.65 302.7 196.15 303 195.6 303.25 195.45 302.85
M 197.15 304.55
Q 196.7 304.35 197 303.85 197.3 303.4 197.65 303.65 198.1 303.85 197.8 304.3 197.55 304.85 197.15 304.55
M 201.2 303.65
Q 201.55 303.4 201.85 303.85 202.15 304.35 201.75 304.55 201.3 304.8 201.1 304.3 200.8 303.85 201.2 303.65
M 199 304.65
Q 199 304.1 199.45 304.1 199.9 304.1 199.9 304.65 199.9 305.15 199.45 305.15 199 305.15 199 304.65 Z"/>
</g>

<g id="Layer0_0_MEMBER_1_MEMBER_34_MEMBER_0_FILL">
<path fill="#362A2B" stroke="none" d="
M 220.3 297.65
Q 219.1 298.85 219.1 300.55 219.1 302.25 220.3 303.45 221.5 304.65 223.2 304.65 224.9 304.65 226.1 303.45 227.3 302.25 227.3 300.55 227.3 298.85 226.1 297.65 224.9 296.45 223.2 296.45 221.5 296.45 220.3 297.65 Z"/>
</g>

<g id="Layer0_0_MEMBER_1_MEMBER_34_MEMBER_1_FILL">
<path fill="#1D1715" stroke="none" d="
M 223.2 291.75
Q 219.55 291.75 216.95 294.35 214.35 296.9 214.35 300.55 214.35 304.25 216.95 306.8 219.55 309.4 223.2 309.4 226.85 309.4 229.4 306.8 232 304.2 232 300.55 232 296.9 229.4 294.35 226.85 291.75 223.2 291.75
M 223.2 295.15
Q 225.45 295.15 227.05 296.75 228.6 298.3 228.6 300.55 228.6 302.8 227.05 304.4 225.45 306 223.2 306 220.95 306 219.35 304.4 217.75 302.8 217.75 300.55 217.75 298.3 219.35 296.75 220.95 295.15 223.2 295.15 Z"/>
</g>

<g id="Layer0_0_MEMBER_1_MEMBER_34_MEMBER_2_MEMBER_0_FILL">
<path fill="#DADADA" stroke="none" d="
M 223.2 295.15
Q 220.95 295.15 219.35 296.75 217.75 298.3 217.75 300.55 217.75 302.8 219.35 304.4 220.95 306 223.2 306 225.45 305.95 227.05 304.4 228.6 302.8 228.6 300.55 228.6 298.3 227 296.75 225.4 295.15 223.2 295.15
M 226.6 297.15
Q 228 298.55 228 300.55 228 302.55 226.6 303.95 225.2 305.4 223.2 305.4 221.2 305.4 219.75 304 218.35 302.6 218.35 300.55 218.35 298.55 219.75 297.15 221.2 295.75 223.2 295.75 225.2 295.75 226.6 297.15 Z"/>
</g>

<g id="Layer0_0_MEMBER_1_MEMBER_34_MEMBER_2_MEMBER_1_FILL">
<path fill="#EDEDED" stroke="none" d="
M 223.2 303.9
Q 224.55 303.9 225.55 302.9 226.5 301.95 226.5 300.55 226.5 299.15 225.55 298.2 224.55 297.25 223.2 297.25 221.8 297.25 220.85 298.25 219.85 299.2 219.85 300.55 219.85 301.95 220.85 302.9 221.8 303.9 223.2 303.9
M 224.65 302.05
Q 224.05 302.65 223.2 302.65 222.35 302.65 221.7 302.05 221.1 301.4 221.1 300.55 221.1 299.7 221.7 299.1 222.35 298.5 223.2 298.45 224.05 298.45 224.65 299.05 225.25 299.7 225.25 300.55 225.25 301.4 224.65 302.05 Z"/>
</g>

<g id="Layer0_0_MEMBER_1_MEMBER_34_MEMBER_2_MEMBER_2_MEMBER_0_FILL">
<path fill="#C6C6C6" stroke="none" d="
M 224.65 299.05
Q 224.05 298.45 223.2 298.45 222.35 298.5 221.7 299.1 221.1 299.7 221.1 300.55 221.1 301.4 221.7 302.05 222.35 302.65 223.2 302.65 224.05 302.65 224.65 302.05 225.25 301.4 225.25 300.55 225.25 299.7 224.65 299.05
M 223.2 299.45
Q 223 299.45 223 299.3 223 299.1 223.2 299.1 223.35 299.1 223.35 299.3 223.35 299.45 223.2 299.45
M 223.2 299.75
Q 223.5 299.75 223.75 300 224 300.2 224 300.55 224 301.35 223.2 301.35 222.4 301.35 222.4 300.55 222.4 299.75 223.2 299.75
M 224 299.75
Q 223.7 299.55 224 299.35 224.2 299.05 224.4 299.35 224.6 299.55 224.4 299.75 224.2 300.05 224 299.75
M 224.45 300.75
Q 224.3 300.75 224.3 300.55 224.3 300.4 224.45 300.4 224.65 300.4 224.65 300.55 224.65 300.75 224.45 300.75
M 223.2 302
Q 223 302 223 301.85 223 301.65 223.2 301.65 223.35 301.65 223.35 301.85 223.35 302 223.2 302
M 224 301.8
Q 223.8 301.6 224 301.35 224.2 301.15 224.4 301.35 224.65 301.6 224.4 301.8 224.2 302 224 301.8
M 222.4 299.75
Q 222.2 300 221.95 299.75 221.75 299.55 221.95 299.35 222.2 299.15 222.4 299.35 222.6 299.55 222.4 299.75
M 222.1 300.55
Q 222.1 300.75 221.9 300.75 221.75 300.75 221.75 300.55 221.75 300.4 221.9 300.4 222.1 300.4 222.1 300.55
M 221.95 301.35
Q 222.2 301.2 222.4 301.35 222.55 301.6 222.4 301.8 222.2 301.95 221.95 301.8 221.8 301.6 221.95 301.35 Z"/>
</g>

<g id="Layer0_0_MEMBER_1_MEMBER_34_MEMBER_2_MEMBER_3_FILL">
<path fill="#C6C6C6" stroke="none" d="
M 223.2 305.4
Q 225.2 305.4 226.6 303.95 228 302.55 228 300.55 228 298.55 226.6 297.15 225.2 295.75 223.2 295.75 221.2 295.75 219.75 297.15 218.35 298.55 218.35 300.55 218.35 302.6 219.75 304 221.2 305.4 223.2 305.4
M 224.85 296.8
Q 225.1 296.4 225.5 296.55 225.85 296.8 225.6 297.25 225.35 297.65 224.95 297.5 224.6 297.25 224.85 296.8
M 223.2 295.95
Q 223.65 295.95 223.65 296.5 223.65 297 223.2 297 222.75 297 222.75 296.5 222.75 295.95 223.2 295.95
M 220.9 296.55
Q 221.3 296.35 221.55 296.8 221.8 297.25 221.4 297.5 221 297.7 220.75 297.25 220.5 296.8 220.9 296.55
M 227.2 298.25
Q 227.4 298.65 226.95 298.9 226.5 299.15 226.25 298.8 226.05 298.35 226.5 298.1 226.95 297.9 227.2 298.25
M 227.8 300.55
Q 227.8 301 227.25 301 226.75 301 226.75 300.55 226.75 300.1 227.25 300.1 227.8 300.1 227.8 300.55
M 226.5 303
Q 226.05 302.75 226.25 302.35 226.5 301.95 226.95 302.2 227.4 302.45 227.2 302.85 226.95 303.25 226.5 303
M 226.5 300.55
Q 226.5 301.95 225.55 302.9 224.55 303.9 223.2 303.9 221.8 303.9 220.85 302.9 219.85 301.95 219.85 300.55 219.85 299.2 220.85 298.25 221.8 297.25 223.2 297.25 224.55 297.25 225.55 298.2 226.5 299.15 226.5 300.55
M 225.65 303.85
Q 225.85 304.35 225.5 304.55 225.15 304.8 224.85 304.3 224.55 303.85 224.95 303.65 225.4 303.4 225.65 303.85
M 222.75 304.65
Q 222.75 304.1 223.2 304.1 223.65 304.1 223.65 304.65 223.65 305.15 223.2 305.15 222.75 305.15 222.75 304.65
M 220.1 298.8
Q 219.9 299.2 219.45 298.9 218.95 298.65 219.2 298.25 219.4 297.85 219.9 298.15 220.35 298.4 220.1 298.8
M 219.1 301
Q 218.6 301 218.6 300.55 218.6 300.1 219.1 300.1 219.65 300.1 219.65 300.55 219.65 301 219.1 301
M 219.2 302.85
Q 218.9 302.45 219.45 302.2 219.95 301.9 220.1 302.35 220.4 302.7 219.9 303 219.4 303.3 219.2 302.85
M 220.9 304.55
Q 220.45 304.35 220.75 303.85 221.05 303.4 221.4 303.65 221.85 303.85 221.55 304.3 221.3 304.85 220.9 304.55 Z"/>
</g>

<g id="Layer0_0_MEMBER_1_MEMBER_35_MEMBER_0_FILL">
<path fill="#FFFFFF" fill-opacity="0.4980392156862745" stroke="none" d="
M 1.2 20.15
L 3.8 12.85
Q 2.95 7.25 2.15 3.8
L 0 10.3 0 19.35
Q 0 20.15 0.8 20.15
L 1.2 20.15 Z"/>
</g>

<g id="Layer0_0_MEMBER_1_MEMBER_35_MEMBER_1_FILL">
<path fill="#FFFFFF" fill-opacity="0.4980392156862745" stroke="none" d="
M 0 8.4
L 1.9 2.65 1.25 0 0 3.8 0 8.4 Z"/>
</g>

<g id="Layer0_0_MEMBER_1_MEMBER_35_MEMBER_2_FILL">
<path fill="#FFFFFF" fill-opacity="0.4980392156862745" stroke="none" d="
M 8 15.25
L 13.1 0.1 12.7 0 6.7 0 2.05 14.15 8 15.25 Z"/>
</g>

<g id="Layer0_0_MEMBER_1_MEMBER_35_MEMBER_3_FILL">
<path fill="#FFFFFF" fill-opacity="0.4980392156862745" stroke="none" d="
M 1.45 14.05
L 6.05 0 4.4 0 0 13.5
Q 0.5 13.85 1.15 14
L 1.45 14.05 Z"/>
</g>
</defs>

<g transform="matrix( 8.099945068359375, 0, 0, 8.099945068359375, 51.1,735.35) ">
<use xlink:href="#Layer0_0_MEMBER_0_FILL"/>
</g>

<g transform="matrix( 8.099945068359375, 0, 0, 8.099945068359375, -1452.2,-1756.95) ">
<use xlink:href="#Layer0_0_MEMBER_1_MEMBER_0_FILL"/>
</g>

<g transform="matrix( 8.099945068359375, 0, 0, 8.099945068359375, -1452.2,-1756.95) ">
<use xlink:href="#Layer0_0_MEMBER_1_MEMBER_1_FILL"/>
</g>

<g transform="matrix( 8.099945068359375, 0, 0, 8.099945068359375, -1452.2,-1756.95) ">
<use xlink:href="#Layer0_0_MEMBER_1_MEMBER_2_FILL"/>
</g>

<g transform="matrix( 8.099945068359375, 0, 0, 8.099945068359375, -1452.2,-1756.95) ">
<use xlink:href="#Layer0_0_MEMBER_1_MEMBER_3_FILL"/>
</g>

<g transform="matrix( 8.099945068359375, 0, 0, 8.099945068359375, -1452.2,-1756.95) ">
<use xlink:href="#Layer0_0_MEMBER_1_MEMBER_4_FILL"/>
</g>

<g transform="matrix( 8.099945068359375, 0, 0, 8.099945068359375, -1452.2,-1756.95) ">
<use xlink:href="#Layer0_0_MEMBER_1_MEMBER_5_FILL"/>
</g>

<g transform="matrix( 8.099945068359375, 0, 0, 8.099945068359375, -1452.2,-1756.95) ">
<use xlink:href="#Layer0_0_MEMBER_1_MEMBER_6_FILL"/>
</g>

<g transform="matrix( 8.099945068359375, 0, 0, 8.099945068359375, -1452.2,-1756.95) ">
<use xlink:href="#Layer0_0_MEMBER_1_MEMBER_7_FILL"/>
</g>

<g transform="matrix( 8.099945068359375, 0, 0, 8.099945068359375, -1452.2,-1756.95) ">
<use xlink:href="#Layer0_0_MEMBER_1_MEMBER_8_FILL"/>
</g>

<g transform="matrix( 8.099945068359375, 0, 0, 8.099945068359375, -1452.2,-1756.95) ">
<use xlink:href="#Layer0_0_MEMBER_1_MEMBER_9_FILL"/>
</g>

<g transform="matrix( 8.099945068359375, 0, 0, 8.099945068359375, -1452.2,-1756.95) ">
<use xlink:href="#Layer0_0_MEMBER_1_MEMBER_10_FILL"/>
</g>

<g transform="matrix( 8.099945068359375, 0, 0, 8.099945068359375, -1452.2,-1756.95) ">
<use xlink:href="#Layer0_0_MEMBER_1_MEMBER_11_FILL"/>
</g>

<g transform="matrix( 8.099945068359375, 0, 0, 8.099945068359375, -1452.2,-1756.95) ">
<use xlink:href="#Layer0_0_MEMBER_1_MEMBER_12_FILL"/>
</g>

<g transform="matrix( 8.099945068359375, 0, 0, 8.099945068359375, -1452.2,-1756.95) ">
<use xlink:href="#Layer0_0_MEMBER_1_MEMBER_13_FILL"/>
</g>

<g transform="matrix( 8.099945068359375, 0, 0, 8.099945068359375, -1452.2,-1756.95) ">
<use xlink:href="#Layer0_0_MEMBER_1_MEMBER_14_FILL"/>
</g>

<g transform="matrix( 8.099945068359375, 0, 0, 8.099945068359375, -1452.2,-1756.95) ">
<use xlink:href="#Layer0_0_MEMBER_1_MEMBER_15_MEMBER_0_FILL"/>
</g>

<g transform="matrix( 8.099945068359375, 0, 0, 8.099945068359375, -1452.2,-1756.95) ">
<use xlink:href="#Layer0_0_MEMBER_1_MEMBER_15_MEMBER_1_FILL"/>
</g>

<g transform="matrix( 8.099945068359375, 0, 0, 8.099945068359375, -1452.2,-1756.95) ">
<use xlink:href="#Layer0_0_MEMBER_1_MEMBER_16_FILL"/>
</g>

<g transform="matrix( 8.099945068359375, 0, 0, 8.099945068359375, -1452.2,-1756.95) ">
<use xlink:href="#Layer0_0_MEMBER_1_MEMBER_17_FILL"/>
</g>

<g transform="matrix( 8.099945068359375, 0, 0, 8.099945068359375, -1452.2,-1756.95) ">
<use xlink:href="#Layer0_0_MEMBER_1_MEMBER_18_FILL"/>
</g>

<g transform="matrix( 8.099945068359375, 0, 0, 8.099945068359375, -1452.2,-1756.95) ">
<use xlink:href="#Layer0_0_MEMBER_1_MEMBER_19_FILL"/>
</g>

<g transform="matrix( 8.099945068359375, 0, 0, 8.099945068359375, -1452.2,-1756.95) ">
<use xlink:href="#Layer0_0_MEMBER_1_MEMBER_20_FILL"/>
</g>

<g transform="matrix( 8.099945068359375, 0, 0, 8.099945068359375, -1452.2,-1756.95) ">
<use xlink:href="#Layer0_0_MEMBER_1_MEMBER_21_FILL"/>
</g>

<g transform="matrix( 8.099945068359375, 0, 0, 8.099945068359375, -1452.2,-1756.95) ">
<use xlink:href="#Layer0_0_MEMBER_1_MEMBER_22_FILL"/>
</g>

<g transform="matrix( 8.099945068359375, 0, 0, 8.099945068359375, -1452.2,-1756.95) ">
<use xlink:href="#Layer0_0_MEMBER_1_MEMBER_23_FILL"/>
</g>

<g transform="matrix( 8.099945068359375, 0, 0, 8.099945068359375, -1452.2,-1756.95) ">
<use xlink:href="#Layer0_0_MEMBER_1_MEMBER_24_FILL"/>
</g>

<g transform="matrix( 8.099945068359375, 0, 0, 8.099945068359375, -1452.2,-1756.95) ">
<use xlink:href="#Layer0_0_MEMBER_1_MEMBER_25_FILL"/>
</g>

<g transform="matrix( 8.099945068359375, 0, 0, 8.099945068359375, -1452.2,-1756.95) ">
<use xlink:href="#Layer0_0_MEMBER_1_MEMBER_26_FILL"/>
</g>

<g transform="matrix( 8.099945068359375, 0, 0, 8.099945068359375, -1452.2,-1756.95) ">
<use xlink:href="#Layer0_0_MEMBER_1_MEMBER_27_FILL"/>
</g>

<g transform="matrix( 8.099945068359375, 0, 0, 8.099945068359375, -1452.2,-1756.95) ">
<use xlink:href="#Layer0_0_MEMBER_1_MEMBER_28_FILL"/>
</g>

<g transform="matrix( 8.099945068359375, 0, 0, 8.099945068359375, -1452.2,-1756.95) ">
<use xlink:href="#Layer0_0_MEMBER_1_MEMBER_29_FILL"/>
</g>

<g transform="matrix( 8.099945068359375, 0, 0, 8.099945068359375, -1452.2,-1756.95) ">
<use xlink:href="#Layer0_0_MEMBER_1_MEMBER_30_FILL"/>
</g>

<g transform="matrix( 8.099945068359375, 0, 0, 8.099945068359375, 41.75,596.85) ">
<use xlink:href="#Layer0_0_MEMBER_1_MEMBER_31_FILL"/>
</g>

<g transform="matrix( 8.099945068359375, 0, 0, 8.099945068359375, -1452.2,-1756.95) ">
<use xlink:href="#Layer0_0_MEMBER_1_MEMBER_32_MEMBER_0_FILL"/>
</g>

<g transform="matrix( 8.099945068359375, 0, 0, 8.099945068359375, -1452.2,-1756.95) ">
<use xlink:href="#Layer0_0_MEMBER_1_MEMBER_32_MEMBER_1_FILL"/>
</g>

<g transform="matrix( 8.099945068359375, 0, 0, 8.099945068359375, -1452.2,-1756.95) ">
<use xlink:href="#Layer0_0_MEMBER_1_MEMBER_32_MEMBER_2_MEMBER_0_FILL"/>
</g>

<g transform="matrix( 8.099945068359375, 0, 0, 8.099945068359375, -1452.2,-1756.95) ">
<use xlink:href="#Layer0_0_MEMBER_1_MEMBER_32_MEMBER_2_MEMBER_1_FILL"/>
</g>

<g transform="matrix( 8.099945068359375, 0, 0, 8.099945068359375, -1452.2,-1756.95) ">
<use xlink:href="#Layer0_0_MEMBER_1_MEMBER_32_MEMBER_2_MEMBER_2_MEMBER_0_FILL"/>
</g>

<g transform="matrix( 8.099945068359375, 0, 0, 8.099945068359375, -1452.2,-1756.95) ">
<use xlink:href="#Layer0_0_MEMBER_1_MEMBER_32_MEMBER_2_MEMBER_3_FILL"/>
</g>

<g transform="matrix( 8.099945068359375, 0, 0, 8.099945068359375, -1452.2,-1756.95) ">
<use xlink:href="#Layer0_0_MEMBER_1_MEMBER_33_MEMBER_0_FILL"/>
</g>

<g transform="matrix( 8.099945068359375, 0, 0, 8.099945068359375, -1452.2,-1756.95) ">
<use xlink:href="#Layer0_0_MEMBER_1_MEMBER_33_MEMBER_1_FILL"/>
</g>

<g transform="matrix( 8.099945068359375, 0, 0, 8.099945068359375, -1452.2,-1756.95) ">
<use xlink:href="#Layer0_0_MEMBER_1_MEMBER_33_MEMBER_2_MEMBER_0_FILL"/>
</g>

<g transform="matrix( 8.099945068359375, 0, 0, 8.099945068359375, -1452.2,-1756.95) ">
<use xlink:href="#Layer0_0_MEMBER_1_MEMBER_33_MEMBER_2_MEMBER_1_FILL"/>
</g>

<g transform="matrix( 8.099945068359375, 0, 0, 8.099945068359375, -1452.2,-1756.95) ">
<use xlink:href="#Layer0_0_MEMBER_1_MEMBER_33_MEMBER_2_MEMBER_2_MEMBER_0_FILL"/>
</g>

<g transform="matrix( 8.099945068359375, 0, 0, 8.099945068359375, -1452.2,-1756.95) ">
<use xlink:href="#Layer0_0_MEMBER_1_MEMBER_33_MEMBER_2_MEMBER_3_FILL"/>
</g>

<g transform="matrix( 8.099945068359375, 0, 0, 8.099945068359375, -1452.2,-1756.95) ">
<use xlink:href="#Layer0_0_MEMBER_1_MEMBER_34_MEMBER_0_FILL"/>
</g>

<g transform="matrix( 8.099945068359375, 0, 0, 8.099945068359375, -1452.2,-1756.95) ">
<use xlink:href="#Layer0_0_MEMBER_1_MEMBER_34_MEMBER_1_FILL"/>
</g>

<g transform="matrix( 8.099945068359375, 0, 0, 8.099945068359375, -1452.2,-1756.95) ">
<use xlink:href="#Layer0_0_MEMBER_1_MEMBER_34_MEMBER_2_MEMBER_0_FILL"/>
</g>

<g transform="matrix( 8.099945068359375, 0, 0, 8.099945068359375, -1452.2,-1756.95) ">
<use xlink:href="#Layer0_0_MEMBER_1_MEMBER_34_MEMBER_2_MEMBER_1_FILL"/>
</g>

<g transform="matrix( 8.099945068359375, 0, 0, 8.099945068359375, -1452.2,-1756.95) ">
<use xlink:href="#Layer0_0_MEMBER_1_MEMBER_34_MEMBER_2_MEMBER_2_MEMBER_0_FILL"/>
</g>

<g transform="matrix( 8.099945068359375, 0, 0, 8.099945068359375, -1452.2,-1756.95) ">
<use xlink:href="#Layer0_0_MEMBER_1_MEMBER_34_MEMBER_2_MEMBER_3_FILL"/>
</g>

<g transform="matrix( 8.099945068359375, 0, 0, 8.099945068359375, 895.5,357.5) ">
<use xlink:href="#Layer0_0_MEMBER_1_MEMBER_35_MEMBER_0_FILL"/>
</g>

<g transform="matrix( 8.099945068359375, 0, 0, 8.099945068359375, 895.5,357.5) ">
<use xlink:href="#Layer0_0_MEMBER_1_MEMBER_35_MEMBER_1_FILL"/>
</g>

<g transform="matrix( 8.099945068359375, 0, 0, 8.099945068359375, 744.85,343.3) ">
<use xlink:href="#Layer0_0_MEMBER_1_MEMBER_35_MEMBER_2_FILL"/>
</g>

<g transform="matrix( 8.099945068359375, 0, 0, 8.099945068359375, 744.85,343.3) ">
<use xlink:href="#Layer0_0_MEMBER_1_MEMBER_35_MEMBER_3_FILL"/>
</g>
</svg>
