
<svg xmlns="http://www.w3.org/2000/svg" version="1.1" xmlns:xlink="http://www.w3.org/1999/xlink" preserveAspectRatio="none" x="0px" y="0px" width="1024px" height="1024px" viewBox="0 0 1024 1024">
<defs>
<g id="Layer0_0_MEMBER_0_FILL">
<path fill="#1D1D1B" fill-opacity="0.09803921568627451" stroke="none" d="
M 42.25 2.55
Q 59.8 2.55 72.15 2.2 84.55 1.8 84.55 1.3 84.55 0.75 72.15 0.35 59.95 0 42.25 0 24.6 0 12.4 0.35 0 0.75 0 1.3 0 1.8 12.4 2.2 24.7 2.55 42.25 2.55 Z"/>
</g>

<g id="Layer0_0_MEMBER_1_FILL">
<path fill="#DAD1D1" stroke="none" d="
M 275.9 173.7
L 217.6 173.7 217.55 208.65 234.85 208.65 235.95 205.05
Q 236.2 204.2 236.95 203.65 237.7 203.1 238.65 203.1
L 243.95 203.1
Q 244.9 203.1 245.65 203.65 246.4 204.2 246.65 205.05
L 247.75 208.65 274.35 208.65
Q 275 208.65 275.45 208.2 275.9 207.75 275.9 207.1
L 275.9 173.7 Z"/>
</g>

<g id="Layer0_0_MEMBER_2_FILL">
<path fill="#E75C5B" stroke="none" d="
M 222.9 169.1
Q 220.9 169.1 219.35 170.45 217.85 171.75 217.6 173.7
L 275.9 173.7 275.9 171.2
Q 275.9 170.35 275.3 169.7 274.7 169.1 273.8 169.1
L 222.9 169.1 Z"/>
</g>

<g id="Layer0_0_MEMBER_3_MEMBER_0_FILL">
<path fill="#E75C5B" stroke="none" d="
M 217.15 200.9
Q 217.25 200.25 217.2 198.6 217.2 196.9 217.1 196.3 216.1 196.3 216.1 198.6 216.1 200.95 217.15 200.9 Z"/>
</g>

<g id="Layer0_0_MEMBER_3_MEMBER_1_FILL">
<path fill="#DAD1D1" stroke="none" d="
M 217.65 196.3
L 217.75 196 217.15 196.2 216.85 196.25
Q 216.6 198.3 216.9 200.95
L 217.15 201 217.8 201.2 217.7 200.9
Q 217.6 200.2 217.55 198.6 217.55 196.95 217.65 196.3 Z"/>
</g>

<g id="Layer0_0_MEMBER_4_FILL">
<path fill="#3E312C" stroke="none" d="
M 300.25 207.05
L 300.25 200.05 282.9 200.05 282.9 207.9 284.8 208.6 298.7 208.25 300.25 207.05 Z"/>
</g>

<g id="Layer0_0_MEMBER_5_FILL">
<path fill="#3E312C" stroke="none" d="
M 250.05 207.05
L 250.05 200.05 232.7 200.05 232.7 207.9 234.85 208.65 247.75 208.65 250.05 207.05 Z"/>
</g>

<g id="Layer0_0_MEMBER_6_FILL">
<path fill="#ABEDE3" stroke="none" d="
M 291.45 180.3
Q 290.7 180.3 290.7 181.05
L 290.7 190.1
Q 290.7 190.8 291.2 191.25 291.7 191.75 292.4 191.75
L 296.6 191.75 296.5 191.4
Q 295.15 185.95 292.8 180.7
L 292.65 180.3 291.45 180.3 Z"/>
</g>

<g id="Layer0_0_MEMBER_7_FILL">
<path fill="#3E312C" stroke="none" d="
M 277.15 178.8
L 275.9 178.8 275.9 207.05 277.15 207.05 277.15 178.8 Z"/>
</g>

<g id="Layer0_0_MEMBER_8_FILL">
<path fill="#E75C5B" stroke="none" d="
M 277.75 177.4
Q 277.15 178 277.15 178.8
L 277.15 207.25
Q 277.15 207.8 277.55 208.25 277.95 208.65 278.55 208.65
L 284.8 208.6 286.05 204.35
Q 286.55 202.35 288.7 202.35
L 294.9 202.35
Q 295.85 202.35 296.55 202.9 297.3 203.45 297.55 204.35
L 298.7 208.25 300.8 207.6
Q 301.6 207.35 301.9 206.65 302.1 206.15 302.1 205.85
L 302.05 196.7
Q 302.05 195.8 301.4 195.05
L 296.6 191.75 292.4 191.75
Q 291.7 191.75 291.2 191.25 290.7 190.8 290.7 190.1
L 290.7 181.05
Q 290.7 180.3 291.45 180.3
L 292.65 180.3
Q 292.8 179.45 291.7 178.55 289.4 176.8 282.95 176.8
L 279.15 176.8
Q 278.35 176.8 277.75 177.4 Z"/>
</g>

<g id="Layer0_0_MEMBER_9_FILL">
<path fill="#F9B659" stroke="none" d="
M 302.4 198.8
Q 302.4 200.35 302.45 201 303.3 200.95 303.3 198.75 303.3 196.55 302.45 196.6 302.4 197.2 302.4 198.8 Z"/>
</g>

<g id="Layer0_0_MEMBER_10_FILL">
<path fill="#C44645" stroke="none" d="
M 302.45 196.8
L 302.5 196.6 301.85 196.6
Q 301.65 198.45 301.9 201
L 302.5 201 302.45 200.75
Q 302.4 200.2 302.4 198.8 302.4 197.35 302.45 196.8 Z"/>
</g>

<g id="Layer0_0_MEMBER_11_FILL">
<path fill="#C44645" stroke="none" d="
M 279.15 180
Q 278.55 180.6 278.55 181.45
L 278.55 204.75
Q 278.55 205.5 279.05 206 279.6 206.5 280.3 206.5
L 282.7 206.5
Q 284.15 206.5 284.55 205.15 285.05 203.1 285.85 202.25 286.65 201.45 288.2 201.3 288.9 201.25 289.4 200.65 289.85 200.1 289.85 199.4
L 289.85 181.7
Q 289.85 180.65 289.25 180.05 288.7 179.4 287.8 179.4
L 280.6 179.4
Q 279.75 179.4 279.15 180 Z"/>
</g>

<g id="Layer0_0_MEMBER_12_FILL">
<path fill="#ABEDE3" stroke="none" d="
M 280.75 180.1
Q 280.15 180.1 279.7 180.6 279.25 181.1 279.25 181.8
L 279.25 190.3
Q 279.25 190.95 279.7 191.45 280.15 191.95 280.75 191.95
L 287.65 191.95
Q 288.25 191.95 288.7 191.45 289.15 190.95 289.15 190.3
L 289.15 181.8
Q 289.15 181.1 288.7 180.6 288.25 180.1 287.65 180.1
L 280.75 180.1 Z"/>
</g>

<g id="Layer0_0_MEMBER_13_FILL">
<path fill="#E75C5B" stroke="none" d="
M 263.55 195.65
Q 259 191.05 252.5 191.05
L 217.55 191.05 217.55 208.65 234.85 208.65 235.95 205.05
Q 236.2 204.2 236.95 203.65 237.7 203.1 238.65 203.1
L 243.95 203.1
Q 244.9 203.1 245.65 203.65 246.4 204.2 246.65 205.05
L 247.75 208.65 268.15 208.65 268.15 206.65
Q 268.15 200.2 263.55 195.65 Z"/>
</g>

<g id="Layer0_0_MEMBER_14_FILL">
<path fill="#C44645" stroke="none" d="
M 252.5 196.6
L 217.55 196.6 217.55 208.65 234.85 208.65 235.95 205.05
Q 236.2 204.2 236.95 203.65 237.7 203.1 238.65 203.1
L 243.95 203.1
Q 244.9 203.1 245.65 203.65 246.4 204.2 246.65 205.05
L 247.75 208.65 262.6 208.65 262.6 206.65
Q 262.6 202.5 259.65 199.55 256.65 196.6 252.5 196.6 Z"/>
</g>

<g id="Layer0_0_MEMBER_15_FILL">
<path fill="#DAD1D1" stroke="none" d="
M 303.2 202.75
L 303 202.65 300.95 202.65
Q 300.15 202.65 299.65 203.2 299.1 203.7 299.1 204.5
L 299.1 205.6
Q 299.1 206 299.35 206.25 299.65 206.5 300 206.5
L 303 206.5 303.2 206.4
Q 303.85 204.5 303.2 202.75 Z"/>
</g>

<g id="Layer0_0_MEMBER_16_FILL">
<path fill="#DAD1D1" stroke="none" d="
M 219.45 203.2
Q 218.95 202.65 218.15 202.65
L 216.05 202.65 215.9 202.75
Q 215.25 204.5 215.9 206.4
L 216.1 206.5 219.1 206.5
Q 219.5 206.5 219.75 206.25 220 206 220 205.6
L 220 204.5
Q 220 203.7 219.45 203.2 Z"/>
</g>

<g id="Layer0_0_MEMBER_17_FILL">
<path fill="#3E312C" stroke="none" d="
M 294.15 195.5
Q 294.3 195.7 294.55 195.7
L 294.8 195.65
Q 295.15 195.4 294.95 195
L 292.1 190.65
Q 291.9 190.3 291.5 190.5 291.05 190.75 291.35 191.15
L 294.15 195.5 Z"/>
</g>

<g id="Layer0_0_MEMBER_18_FILL">
<path fill="#C44645" stroke="none" d="
M 291.1 186.55
L 291.1 194.4
Q 291.75 194.4 292.15 194 292.6 193.65 292.6 193.15
L 292.6 187.8
Q 292.6 187.3 292.15 186.95 291.75 186.55 291.1 186.55 Z"/>
</g>

<g id="Layer0_0_MEMBER_19_FILL">
<path fill="#C44645" stroke="none" d="
M 244.2 203.1
L 244.2 201.95 238.1 201.95 238.1 203.1 244.2 203.1 Z"/>
</g>

<g id="Layer0_0_MEMBER_20_FILL">
<path fill="#FFFFFF" stroke="none" d="
M 280.45 193.1
L 280.45 194.2 283.25 194.2 283.25 193.1 280.45 193.1 Z"/>
</g>

<g id="Layer0_0_MEMBER_21_FILL">
<path fill="#3E312C" stroke="none" d="
M 273.3 170.35
L 273.3 172.45
Q 273.3 172.75 273.55 172.75 273.85 172.75 273.85 172.45
L 273.85 170.35
Q 273.85 170.05 273.55 170.05 273.3 170.05 273.3 170.35 Z"/>
</g>

<g id="Layer0_0_MEMBER_22_FILL">
<path fill="#3E312C" stroke="none" d="
M 272.05 170.35
L 272.05 172.45
Q 272.05 172.75 272.35 172.75 272.6 172.75 272.6 172.45
L 272.6 170.35
Q 272.6 170.05 272.35 170.05 272.05 170.05 272.05 170.35 Z"/>
</g>

<g id="Layer0_0_MEMBER_23_FILL">
<path fill="#3E312C" stroke="none" d="
M 270.85 170.35
L 270.85 172.45
Q 270.85 172.75 271.1 172.75 271.4 172.75 271.4 172.45
L 271.4 170.35
Q 271.4 170.05 271.1 170.05 270.85 170.05 270.85 170.35 Z"/>
</g>

<g id="Layer0_0_MEMBER_24_FILL">
<path fill="#3E312C" stroke="none" d="
M 269.6 170.35
L 269.6 172.45
Q 269.6 172.75 269.85 172.75 270.15 172.75 270.15 172.45
L 270.15 170.35
Q 270.15 170.05 269.85 170.05 269.6 170.05 269.6 170.35 Z"/>
</g>

<g id="Layer0_0_MEMBER_25_FILL">
<path fill="#3E312C" stroke="none" d="
M 268.35 170.35
L 268.35 172.45
Q 268.35 172.75 268.65 172.75 268.9 172.75 268.9 172.45
L 268.9 170.35
Q 268.9 170.05 268.65 170.05 268.35 170.05 268.35 170.35 Z"/>
</g>

<g id="Layer0_0_MEMBER_26_FILL">
<path fill="#3E312C" stroke="none" d="
M 267.15 170.35
L 267.15 172.45
Q 267.15 172.75 267.4 172.75 267.7 172.75 267.7 172.45
L 267.7 170.35
Q 267.7 170.05 267.4 170.05 267.15 170.05 267.15 170.35 Z"/>
</g>

<g id="Layer0_0_MEMBER_27_FILL">
<path fill="#3E312C" stroke="none" d="
M 265.9 170.35
L 265.9 172.45
Q 265.9 172.75 266.15 172.75 266.45 172.75 266.45 172.45
L 266.45 170.35
Q 266.45 170.05 266.15 170.05 265.9 170.05 265.9 170.35 Z"/>
</g>

<g id="Layer0_0_MEMBER_28_MEMBER_0_FILL">
<path fill="#1D1D1B" fill-opacity="0.09803921568627451" stroke="none" d="
M 59.7 0.6
Q 59.1 0 58.2 0
L 7.3 0
Q 5.3 0 3.75 1.35 2.25 2.65 2 4.6
L 60.3 4.6 60.3 2.1
Q 60.3 1.25 59.7 0.6 Z"/>
</g>

<g id="Layer0_0_MEMBER_28_MEMBER_1_FILL">
<path fill="#1D1D1B" fill-opacity="0.09803921568627451" stroke="none" d="
M 87.6 37.3
Q 87.95 36.1 87.9 34.95
L 1.2 27.3
Q 0.45 27.7 0.5 29.55 0.5 31.4 1.3 31.75
L 1.3 31.85 1.95 32 1.95 33.55 0.45 33.55 0.3 33.65
Q -0.35 35.4 0.3 37.3
L 0.5 37.4 1.95 37.4 1.95 39.55 58.75 39.55
Q 59.4 39.55 59.85 39.1 60.3 38.65 60.3 38
L 60.3 37.95 61.55 37.95 61.55 38.15
Q 61.55 38.7 61.95 39.15 62.35 39.55 62.95 39.55
L 83.1 39.15 85.2 38.5
Q 86 38.25 86.3 37.55
L 86.35 37.4 87.4 37.4 87.6 37.3 Z"/>
</g>

<g id="Layer0_0_MEMBER_29_MEMBER_0_FILL">
<path fill="#1D1715" stroke="none" d="
M 289.8 206.25
Q 288.95 207.1 288.95 208.3 288.95 209.55 289.8 210.4 290.65 211.25 291.85 211.25 293.1 211.25 293.95 210.4 294.8 209.55 294.8 208.3 294.8 207.1 293.95 206.25 293.1 205.4 291.85 205.4 290.65 205.4 289.8 206.25 Z"/>
</g>

<g id="Layer0_0_MEMBER_29_MEMBER_1_FILL">
<path fill="#1D1715" stroke="none" d="
M 297.3 208.3
Q 297.3 206.05 295.7 204.45 294.15 202.85 291.85 202.85 289.6 202.85 288 204.45 286.4 206.05 286.4 208.35 286.4 210.6 288 212.2 289.6 213.8 291.85 213.8 294.15 213.8 295.75 212.2 297.35 210.6 297.3 208.3
M 294.25 205.95
Q 295.2 206.9 295.25 208.3 295.25 209.7 294.25 210.7 293.25 211.7 291.85 211.7 290.45 211.7 289.5 210.7 288.5 209.7 288.5 208.3 288.5 206.9 289.5 205.95 290.45 204.95 291.85 204.95 293.25 204.95 294.25 205.95 Z"/>
</g>

<g id="Layer0_0_MEMBER_29_MEMBER_2_MEMBER_0_FILL">
<path fill="#DADADA" stroke="none" d="
M 295.75 208.3
Q 295.75 206.7 294.6 205.6 293.45 204.45 291.85 204.45 290.3 204.45 289.15 205.6 288 206.75 288 208.3 288 209.9 289.15 211.05 290.25 212.2 291.85 212.2 293.45 212.2 294.6 211.05 295.75 209.9 295.75 208.3
M 294.3 205.85
Q 295.3 206.9 295.3 208.3 295.3 209.75 294.3 210.75 293.3 211.75 291.85 211.75 290.4 211.75 289.4 210.75 288.4 209.75 288.4 208.3 288.4 206.9 289.4 205.85 290.45 204.85 291.85 204.85 293.3 204.85 294.3 205.85 Z"/>
</g>

<g id="Layer0_0_MEMBER_29_MEMBER_2_MEMBER_1_FILL">
<path fill="#EDEDED" stroke="none" d="
M 293.55 206.65
Q 292.85 205.95 291.85 205.95 290.9 205.95 290.2 206.65 289.5 207.35 289.5 208.3 289.5 209.3 290.2 210 290.85 210.7 291.85 210.7 292.85 210.7 293.55 210 294.25 209.3 294.25 208.3 294.25 207.35 293.55 206.65
M 290.8 209.35
Q 290.35 208.95 290.35 208.3 290.35 207.7 290.8 207.3 291.25 206.85 291.85 206.85 292.5 206.85 292.9 207.3 293.35 207.7 293.35 208.3 293.35 208.95 292.9 209.35 292.5 209.8 291.85 209.8 291.25 209.8 290.8 209.35 Z"/>
</g>

<g id="Layer0_0_MEMBER_29_MEMBER_2_MEMBER_2_MEMBER_0_MEMBER_0_FILL">
<path fill="#DAD1D1" stroke="none" d="
M 290.8 207.3
Q 290.35 207.7 290.35 208.3 290.35 208.95 290.8 209.35 291.25 209.8 291.85 209.8 292.5 209.8 292.9 209.35 293.35 208.95 293.35 208.3 293.35 207.7 292.9 207.3 292.5 206.85 291.85 206.85 291.25 206.85 290.8 207.3
M 290.95 208.45
Q 290.8 208.45 290.8 208.3
L 290.95 208.2 291.05 208.3
Q 291.05 208.45 290.95 208.45
M 291 209.2
Q 290.85 209.05 291 208.9 291.15 208.75 291.3 208.9 291.45 209.05 291.3 209.2 291.15 209.35 291 209.2
M 291 207.75
Q 290.85 207.6 291 207.45 291.1 207.25 291.3 207.45 291.45 207.6 291.3 207.75 291.15 207.9 291 207.75
M 292.75 207.45
Q 292.85 207.6 292.75 207.75 292.55 207.95 292.45 207.75 292.3 207.6 292.45 207.45 292.55 207.25 292.75 207.45
M 292.8 208.45
Q 292.65 208.45 292.65 208.3 292.65 208.2 292.8 208.2
L 292.9 208.3
Q 292.9 208.45 292.8 208.45
M 291.3 208.3
Q 291.3 207.75 291.85 207.75 292.45 207.75 292.45 208.3 292.45 208.9 291.85 208.9 291.3 208.9 291.3 208.3
M 291.85 207.3
Q 292 207.3 292 207.4 292 207.55 291.85 207.55
L 291.75 207.4 291.85 207.3
M 291.85 209.35
L 291.75 209.25
Q 291.75 209.1 291.85 209.1 292 209.1 292 209.25 292 209.35 291.85 209.35
M 292.75 209.2
Q 292.5 209.3 292.45 209.2 292.25 209 292.45 208.9 292.55 208.7 292.75 208.9 292.85 209 292.75 209.2 Z"/>
</g>

<g id="Layer0_0_MEMBER_29_MEMBER_2_MEMBER_2_MEMBER_1_MEMBER_0_FILL">
<path fill="#C6C6C6" stroke="none" d="
M 290.8 207.3
Q 290.35 207.7 290.35 208.3 290.35 208.95 290.8 209.35 291.25 209.8 291.85 209.8 292.5 209.8 292.9 209.35 293.35 208.95 293.35 208.3 293.35 207.7 292.9 207.3 292.5 206.85 291.85 206.85 291.25 206.85 290.8 207.3
M 290.95 208.45
Q 290.8 208.45 290.8 208.3
L 290.95 208.2 291.05 208.3
Q 291.05 208.45 290.95 208.45
M 291 209.2
Q 290.85 209.05 291 208.9 291.15 208.75 291.3 208.9 291.45 209.05 291.3 209.2 291.15 209.35 291 209.2
M 291 207.75
Q 290.85 207.6 291 207.45 291.1 207.25 291.3 207.45 291.45 207.6 291.3 207.75 291.15 207.9 291 207.75
M 292.75 207.45
Q 292.85 207.6 292.75 207.75 292.55 207.95 292.45 207.75 292.3 207.6 292.45 207.45 292.55 207.25 292.75 207.45
M 292.8 208.45
Q 292.65 208.45 292.65 208.3 292.65 208.2 292.8 208.2
L 292.9 208.3
Q 292.9 208.45 292.8 208.45
M 291.3 208.3
Q 291.3 207.75 291.85 207.75 292.45 207.75 292.45 208.3 292.45 208.9 291.85 208.9 291.3 208.9 291.3 208.3
M 291.85 207.3
Q 292 207.3 292 207.4 292 207.55 291.85 207.55
L 291.75 207.4 291.85 207.3
M 291.85 209.35
L 291.75 209.25
Q 291.75 209.1 291.85 209.1 292 209.1 292 209.25 292 209.35 291.85 209.35
M 292.75 209.2
Q 292.5 209.3 292.45 209.2 292.25 209 292.45 208.9 292.55 208.7 292.75 208.9 292.85 209 292.75 209.2 Z"/>
</g>

<g id="Layer0_0_MEMBER_29_MEMBER_2_MEMBER_3_FILL">
<path fill="#DAD1D1" stroke="none" d="
M 295.3 208.3
Q 295.3 206.9 294.3 205.85 293.3 204.85 291.85 204.85 290.45 204.85 289.4 205.85 288.4 206.9 288.4 208.3 288.4 209.75 289.4 210.75 290.4 211.75 291.85 211.75 293.3 211.75 294.3 210.75 295.3 209.75 295.3 208.3
M 294.7 206.65
Q 294.85 207 294.55 207.15 294.25 207.3 294.05 207.05 293.9 206.8 294.2 206.6 294.55 206.45 294.7 206.65
M 294.2 210.05
Q 293.9 209.85 294.05 209.6 294.25 209.35 294.55 209.5 294.9 209.65 294.7 209.95 294.6 210.25 294.2 210.05
M 295.15 208.3
Q 295.15 208.65 294.8 208.65 294.4 208.65 294.4 208.3 294.4 208 294.8 208 295.15 208 295.15 208.3
M 293.05 205.65
Q 293.2 205.35 293.5 205.45 293.8 205.65 293.6 205.95 293.45 206.25 293.15 206.15 292.85 206 293.05 205.65
M 291.55 205.4
Q 291.55 205.05 291.85 205.05 292.2 205.05 292.2 205.4 292.2 205.8 291.85 205.8 291.55 205.8 291.55 205.4
M 291.85 205.95
Q 292.85 205.95 293.55 206.65 294.25 207.35 294.25 208.3 294.25 209.3 293.55 210 292.85 210.7 291.85 210.7 290.85 210.7 290.2 210 289.5 209.3 289.5 208.3 289.5 207.35 290.2 206.65 290.9 205.95 291.85 205.95
M 290.7 205.65
Q 290.9 205.95 290.6 206.15 290.3 206.25 290.1 205.95 289.9 205.65 290.2 205.45 290.55 205.35 290.7 205.65
M 289.5 206.6
Q 289.85 206.75 289.65 207.05 289.55 207.4 289.2 207.15 288.85 206.95 289 206.7 289.15 206.4 289.5 206.6
M 289.35 208.3
Q 289.35 208.65 288.95 208.65 288.55 208.65 288.55 208.3 288.55 208 288.95 208 289.35 208 289.35 208.3
M 289 209.95
Q 288.85 209.7 289.2 209.5 289.3 209.45 289.45 209.45 289.6 209.5 289.65 209.6 289.85 209.9 289.5 210.05 289.15 210.25 289 209.95
M 291.85 211.6
Q 291.55 211.6 291.55 211.25 291.55 210.85 291.85 210.85 292.2 210.85 292.2 211.25 292.2 211.6 291.85 211.6
M 293.05 211
Q 292.9 210.7 293.15 210.5 293.4 210.35 293.6 210.7 293.85 211.05 293.5 211.15 293.2 211.35 293.05 211
M 290.05 210.95
Q 290.05 210.8 290.15 210.7 290.35 210.35 290.6 210.5 290.85 210.7 290.7 211 290.55 211.3 290.2 211.15 290.1 211.1 290.05 210.95 Z"/>
</g>

<g id="Layer0_0_MEMBER_30_MEMBER_0_FILL">
<path fill="#1D1715" stroke="none" d="
M 244.3 208.3
Q 244.3 207.1 243.45 206.25 242.55 205.4 241.35 205.4 240.15 205.4 239.3 206.25 238.45 207.1 238.45 208.3 238.45 209.55 239.3 210.4 240.15 211.25 241.35 211.25 242.55 211.25 243.45 210.4 244.3 209.55 244.3 208.3 Z"/>
</g>

<g id="Layer0_0_MEMBER_30_MEMBER_1_FILL">
<path fill="#1D1715" stroke="none" d="
M 245.75 205.05
Q 244.7 203.65 243 203.1
L 239.7 203.1
Q 238.05 203.65 237 205.05 235.9 206.55 235.9 208.35 235.9 210.6 237.5 212.2 239.1 213.8 241.35 213.8 243.65 213.8 245.2 212.2 246.8 210.6 246.8 208.3 246.8 206.5 245.75 205.05
M 244.7 208.3
Q 244.7 209.7 243.7 210.7 242.75 211.7 241.35 211.7 239.95 211.7 239 210.7 238 209.7 238 208.3 238 206.9 239 205.95 239.95 204.95 241.35 204.95 242.75 204.95 243.7 205.95 244.7 206.9 244.7 208.3 Z"/>
</g>

<g id="Layer0_0_MEMBER_30_MEMBER_2_MEMBER_0_FILL">
<path fill="#DADADA" stroke="none" d="
M 245.25 208.3
Q 245.2 206.7 244.1 205.6 242.95 204.45 241.35 204.45 239.75 204.45 238.6 205.6 237.5 206.7 237.5 208.3 237.5 209.9 238.65 211.05 239.75 212.2 241.35 212.2 242.95 212.2 244.1 211.05 245.25 209.9 245.25 208.3
M 244.8 208.3
Q 244.8 209.75 243.8 210.75 242.8 211.75 241.35 211.75 239.9 211.75 238.9 210.75 237.9 209.75 237.9 208.3 237.9 206.9 238.9 205.85 239.95 204.85 241.35 204.85 242.8 204.85 243.8 205.85 244.8 206.9 244.8 208.3 Z"/>
</g>

<g id="Layer0_0_MEMBER_30_MEMBER_2_MEMBER_1_FILL">
<path fill="#EDEDED" stroke="none" d="
M 243.75 208.3
Q 243.75 207.35 243.05 206.65 242.35 205.95 241.35 205.95 240.4 205.95 239.7 206.65 239 207.35 239 208.3 239 209.3 239.7 210 240.35 210.7 241.35 210.7 242.35 210.7 243.05 210 243.75 209.3 243.75 208.3
M 240.3 209.35
Q 239.85 208.95 239.85 208.3 239.85 207.7 240.3 207.3 240.75 206.85 241.35 206.85 242 206.85 242.4 207.3 242.85 207.7 242.85 208.3 242.85 208.95 242.4 209.35 242 209.8 241.35 209.8 240.75 209.8 240.3 209.35 Z"/>
</g>

<g id="Layer0_0_MEMBER_30_MEMBER_2_MEMBER_2_MEMBER_0_MEMBER_0_FILL">
<path fill="#DAD1D1" stroke="none" d="
M 240.3 207.3
Q 239.85 207.7 239.85 208.3 239.85 208.95 240.3 209.35 240.75 209.8 241.35 209.8 242 209.8 242.4 209.35 242.85 208.95 242.85 208.3 242.85 207.7 242.4 207.3 242 206.85 241.35 206.85 240.75 206.85 240.3 207.3
M 240.45 208.45
Q 240.3 208.45 240.3 208.3 240.3 208.2 240.45 208.2
L 240.55 208.3
Q 240.55 208.45 240.45 208.45
M 242.25 207.45
Q 242.35 207.6 242.25 207.75 242.05 207.95 241.95 207.75 241.8 207.6 241.95 207.45 242.05 207.25 242.25 207.45
M 242.15 208.3
L 242.25 208.2
Q 242.4 208.2 242.4 208.3 242.4 208.45 242.25 208.45 242.15 208.45 242.15 208.3
M 240.8 208.3
Q 240.8 207.75 241.35 207.75 241.9 207.75 241.9 208.3 241.9 208.9 241.35 208.9 240.8 208.9 240.8 208.3
M 241.35 207.3
Q 241.5 207.3 241.5 207.4 241.5 207.55 241.35 207.55
L 241.25 207.4 241.35 207.3
M 240.8 207.45
Q 240.9 207.6 240.8 207.75 240.6 207.95 240.5 207.75 240.35 207.6 240.5 207.45 240.6 207.25 240.8 207.45
M 240.8 209.2
Q 240.6 209.4 240.5 209.2 240.35 209.05 240.5 208.9 240.6 208.7 240.8 208.9 240.9 209.05 240.8 209.2
M 241.35 209.35
L 241.25 209.25
Q 241.25 209.1 241.35 209.1 241.5 209.1 241.5 209.25 241.5 209.35 241.35 209.35
M 241.95 209.2
Q 241.75 209 241.95 208.9 242.05 208.7 242.25 208.9 242.35 209 242.25 209.2 242 209.3 241.95 209.2 Z"/>
</g>

<g id="Layer0_0_MEMBER_30_MEMBER_2_MEMBER_2_MEMBER_1_MEMBER_0_FILL">
<path fill="#C6C6C6" stroke="none" d="
M 240.3 207.3
Q 239.85 207.7 239.85 208.3 239.85 208.95 240.3 209.35 240.75 209.8 241.35 209.8 242 209.8 242.4 209.35 242.85 208.95 242.85 208.3 242.85 207.7 242.4 207.3 242 206.85 241.35 206.85 240.75 206.85 240.3 207.3
M 240.45 208.45
Q 240.3 208.45 240.3 208.3 240.3 208.2 240.45 208.2
L 240.55 208.3
Q 240.55 208.45 240.45 208.45
M 242.25 207.45
Q 242.35 207.6 242.25 207.75 242.05 207.95 241.95 207.75 241.8 207.6 241.95 207.45 242.05 207.25 242.25 207.45
M 242.15 208.3
L 242.25 208.2
Q 242.4 208.2 242.4 208.3 242.4 208.45 242.25 208.45 242.15 208.45 242.15 208.3
M 240.8 208.3
Q 240.8 207.75 241.35 207.75 241.9 207.75 241.9 208.3 241.9 208.9 241.35 208.9 240.8 208.9 240.8 208.3
M 241.35 207.3
Q 241.5 207.3 241.5 207.4 241.5 207.55 241.35 207.55
L 241.25 207.4 241.35 207.3
M 240.8 207.45
Q 240.9 207.6 240.8 207.75 240.6 207.95 240.5 207.75 240.35 207.6 240.5 207.45 240.6 207.25 240.8 207.45
M 240.8 209.2
Q 240.6 209.4 240.5 209.2 240.35 209.05 240.5 208.9 240.6 208.7 240.8 208.9 240.9 209.05 240.8 209.2
M 241.35 209.35
L 241.25 209.25
Q 241.25 209.1 241.35 209.1 241.5 209.1 241.5 209.25 241.5 209.35 241.35 209.35
M 241.95 209.2
Q 241.75 209 241.95 208.9 242.05 208.7 242.25 208.9 242.35 209 242.25 209.2 242 209.3 241.95 209.2 Z"/>
</g>

<g id="Layer0_0_MEMBER_30_MEMBER_2_MEMBER_3_FILL">
<path fill="#DAD1D1" stroke="none" d="
M 244.8 208.3
Q 244.8 206.9 243.8 205.85 242.8 204.85 241.35 204.85 239.95 204.85 238.9 205.85 237.9 206.9 237.9 208.3 237.9 209.75 238.9 210.75 239.9 211.75 241.35 211.75 242.8 211.75 243.8 210.75 244.8 209.75 244.8 208.3
M 244.2 206.65
Q 244.35 207 244.05 207.15 243.75 207.3 243.55 207.05 243.4 206.8 243.7 206.6 244.05 206.45 244.2 206.65
M 243 205.45
Q 243.3 205.65 243.1 205.95 242.95 206.25 242.6 206.15 242.35 205.95 242.55 205.65 242.7 205.35 243 205.45
M 244.25 208.65
Q 243.9 208.65 243.9 208.3 243.9 208 244.25 208 244.65 208 244.65 208.3 244.65 208.65 244.25 208.65
M 243.55 209.6
Q 243.75 209.35 244.05 209.5 244.4 209.65 244.2 209.95 244.05 210.2 243.7 210.05 243.4 209.85 243.55 209.6
M 243.75 208.3
Q 243.75 209.3 243.05 210 242.35 210.7 241.35 210.7 240.35 210.7 239.7 210 239 209.3 239 208.3 239 207.35 239.7 206.65 240.4 205.95 241.35 205.95 242.35 205.95 243.05 206.65 243.75 207.35 243.75 208.3
M 243.1 210.7
Q 243.35 211.05 243 211.15 242.7 211.35 242.55 211 242.35 210.65 242.65 210.5 242.9 210.35 243.1 210.7
M 241.05 205.4
Q 241.05 205.05 241.35 205.05 241.7 205.05 241.7 205.4 241.7 205.8 241.35 205.8 241.05 205.8 241.05 205.4
M 240.2 205.65
Q 240.4 205.95 240.1 206.15 239.75 206.25 239.6 205.95 239.4 205.65 239.7 205.45 240.05 205.35 240.2 205.65
M 239 206.6
Q 239.35 206.75 239.15 207.05 239.05 207.35 238.65 207.15 238.35 206.95 238.5 206.7 238.65 206.4 239 206.6
M 238.05 208.3
Q 238.05 208 238.45 208 238.85 208 238.85 208.3 238.85 208.65 238.45 208.65 238.05 208.65 238.05 208.3
M 238.65 209.5
Q 239.05 209.3 239.15 209.6 239.35 209.9 239 210.05 238.65 210.25 238.5 209.95 238.35 209.7 238.65 209.5
M 241.35 211.6
Q 241.05 211.6 241.05 211.25 241.05 210.85 241.35 210.85 241.7 210.85 241.7 211.25 241.7 211.6 241.35 211.6
M 239.7 211.15
Q 239.35 211.05 239.6 210.7 239.85 210.35 240.1 210.5 240.35 210.7 240.2 211 240 211.35 239.7 211.15 Z"/>
</g>

<g id="Layer0_0_MEMBER_31_MEMBER_0_FILL">
<path fill="#FFFFFF" fill-opacity="0.4980392156862745" stroke="none" d="
M 0.3 0.35
Q 0 0.65 0 1.1
L 0 2.75 4.9 10.7 7.85 10.7
Q 8.25 10.7 8.5 10.4 8.8 10.05 8.8 9.6
L 8.8 8.5 3.6 0 0.95 0
Q 0.55 0 0.3 0.35 Z"/>
</g>

<g id="Layer0_0_MEMBER_31_MEMBER_1_FILL">
<path fill="#FFFFFF" fill-opacity="0.4980392156862745" stroke="none" d="
M 4.3 0
L 8.8 7.4 8.8 4.6 6 0 4.3 0 Z"/>
</g>

<g id="Layer0_0_MEMBER_31_MEMBER_2_FILL">
<path fill="#FFFFFF" fill-opacity="0.4980392156862745" stroke="none" d="
M 0 1.1
L 0 2.75 4.85 10.7 5.5 10.7
Q 4.15 5.25 1.8 0
L 0.95 0
Q 0.25 0 0.15 0.15 0 0.3 0 1.1 Z"/>
</g>
</defs>

<g transform="matrix( 10, 0, 0, 10, 94.15,716.25) ">
<use xlink:href="#Layer0_0_MEMBER_0_FILL"/>
</g>

<g transform="matrix( 10, 0, 0, 10, -2083.35,-1408.75) ">
<use xlink:href="#Layer0_0_MEMBER_1_FILL"/>
</g>

<g transform="matrix( 10, 0, 0, 10, -2083.35,-1408.75) ">
<use xlink:href="#Layer0_0_MEMBER_2_FILL"/>
</g>

<g transform="matrix( 10, 0, 0, 10, -2083.35,-1408.75) ">
<use xlink:href="#Layer0_0_MEMBER_3_MEMBER_0_FILL"/>
</g>

<g transform="matrix( 10, 0, 0, 10, -2083.35,-1408.75) ">
<use xlink:href="#Layer0_0_MEMBER_3_MEMBER_1_FILL"/>
</g>

<g transform="matrix( 10, 0, 0, 10, -2083.35,-1408.75) ">
<use xlink:href="#Layer0_0_MEMBER_4_FILL"/>
</g>

<g transform="matrix( 10, 0, 0, 10, -2083.35,-1408.75) ">
<use xlink:href="#Layer0_0_MEMBER_5_FILL"/>
</g>

<g transform="matrix( 10, 0, 0, 10, -2083.35,-1408.75) ">
<use xlink:href="#Layer0_0_MEMBER_6_FILL"/>
</g>

<g transform="matrix( 10, 0, 0, 10, -2083.35,-1408.75) ">
<use xlink:href="#Layer0_0_MEMBER_7_FILL"/>
</g>

<g transform="matrix( 10, 0, 0, 10, -2083.35,-1408.75) ">
<use xlink:href="#Layer0_0_MEMBER_8_FILL"/>
</g>

<g transform="matrix( 10, 0, 0, 10, -2083.35,-1408.75) ">
<use xlink:href="#Layer0_0_MEMBER_9_FILL"/>
</g>

<g transform="matrix( 10, 0, 0, 10, -2083.35,-1408.75) ">
<use xlink:href="#Layer0_0_MEMBER_10_FILL"/>
</g>

<g transform="matrix( 10, 0, 0, 10, -2083.35,-1408.75) ">
<use xlink:href="#Layer0_0_MEMBER_11_FILL"/>
</g>

<g transform="matrix( 10, 0, 0, 10, -2083.35,-1408.75) ">
<use xlink:href="#Layer0_0_MEMBER_12_FILL"/>
</g>

<g transform="matrix( 10, 0, 0, 10, -2083.35,-1408.75) ">
<use xlink:href="#Layer0_0_MEMBER_13_FILL"/>
</g>

<g transform="matrix( 10, 0, 0, 10, -2083.35,-1408.75) ">
<use xlink:href="#Layer0_0_MEMBER_14_FILL"/>
</g>

<g transform="matrix( 10, 0, 0, 10, -2083.35,-1408.75) ">
<use xlink:href="#Layer0_0_MEMBER_15_FILL"/>
</g>

<g transform="matrix( 10, 0, 0, 10, -2083.35,-1408.75) ">
<use xlink:href="#Layer0_0_MEMBER_16_FILL"/>
</g>

<g transform="matrix( 10, 0, 0, 10, -2083.35,-1408.75) ">
<use xlink:href="#Layer0_0_MEMBER_17_FILL"/>
</g>

<g transform="matrix( 10, 0, 0, 10, -2083.35,-1408.75) ">
<use xlink:href="#Layer0_0_MEMBER_18_FILL"/>
</g>

<g transform="matrix( 10, 0, 0, 10, -2083.35,-1408.75) ">
<use xlink:href="#Layer0_0_MEMBER_19_FILL"/>
</g>

<g transform="matrix( 10, 0, 0, 10, -2083.35,-1408.75) ">
<use xlink:href="#Layer0_0_MEMBER_20_FILL"/>
</g>

<g transform="matrix( 10, 0, 0, 10, -2083.35,-1408.75) ">
<use xlink:href="#Layer0_0_MEMBER_21_FILL"/>
</g>

<g transform="matrix( 10, 0, 0, 10, -2083.35,-1408.75) ">
<use xlink:href="#Layer0_0_MEMBER_22_FILL"/>
</g>

<g transform="matrix( 10, 0, 0, 10, -2083.35,-1408.75) ">
<use xlink:href="#Layer0_0_MEMBER_23_FILL"/>
</g>

<g transform="matrix( 10, 0, 0, 10, -2083.35,-1408.75) ">
<use xlink:href="#Layer0_0_MEMBER_24_FILL"/>
</g>

<g transform="matrix( 10, 0, 0, 10, -2083.35,-1408.75) ">
<use xlink:href="#Layer0_0_MEMBER_25_FILL"/>
</g>

<g transform="matrix( 10, 0, 0, 10, -2083.35,-1408.75) ">
<use xlink:href="#Layer0_0_MEMBER_26_FILL"/>
</g>

<g transform="matrix( 10, 0, 0, 10, -2083.35,-1408.75) ">
<use xlink:href="#Layer0_0_MEMBER_27_FILL"/>
</g>

<g transform="matrix( 10, 0, 0, 10, 72.65,282.25) ">
<use xlink:href="#Layer0_0_MEMBER_28_MEMBER_0_FILL"/>
</g>

<g transform="matrix( 10, 0, 0, 10, 72.65,282.25) ">
<use xlink:href="#Layer0_0_MEMBER_28_MEMBER_1_FILL"/>
</g>

<g transform="matrix( 10, 0, 0, 10, -2083.35,-1408.75) ">
<use xlink:href="#Layer0_0_MEMBER_29_MEMBER_0_FILL"/>
</g>

<g transform="matrix( 10, 0, 0, 10, -2083.35,-1408.75) ">
<use xlink:href="#Layer0_0_MEMBER_29_MEMBER_1_FILL"/>
</g>

<g transform="matrix( 10, 0, 0, 10, -2083.35,-1408.75) ">
<use xlink:href="#Layer0_0_MEMBER_29_MEMBER_2_MEMBER_0_FILL"/>
</g>

<g transform="matrix( 10, 0, 0, 10, -2083.35,-1408.75) ">
<use xlink:href="#Layer0_0_MEMBER_29_MEMBER_2_MEMBER_1_FILL"/>
</g>

<g transform="matrix( 10, 0, 0, 10, -2083.35,-1408.75) ">
<use xlink:href="#Layer0_0_MEMBER_29_MEMBER_2_MEMBER_2_MEMBER_0_MEMBER_0_FILL"/>
</g>

<g transform="matrix( 10, 0, 0, 10, -2083.35,-1408.75) ">
<use xlink:href="#Layer0_0_MEMBER_29_MEMBER_2_MEMBER_2_MEMBER_1_MEMBER_0_FILL"/>
</g>

<g transform="matrix( 10, 0, 0, 10, -2083.35,-1408.75) ">
<use xlink:href="#Layer0_0_MEMBER_29_MEMBER_2_MEMBER_3_FILL"/>
</g>

<g transform="matrix( 10, 0, 0, 10, -2083.35,-1408.75) ">
<use xlink:href="#Layer0_0_MEMBER_30_MEMBER_0_FILL"/>
</g>

<g transform="matrix( 10, 0, 0, 10, -2083.35,-1408.75) ">
<use xlink:href="#Layer0_0_MEMBER_30_MEMBER_1_FILL"/>
</g>

<g transform="matrix( 10, 0, 0, 10, -2083.35,-1408.75) ">
<use xlink:href="#Layer0_0_MEMBER_30_MEMBER_2_MEMBER_0_FILL"/>
</g>

<g transform="matrix( 10, 0, 0, 10, -2083.35,-1408.75) ">
<use xlink:href="#Layer0_0_MEMBER_30_MEMBER_2_MEMBER_1_FILL"/>
</g>

<g transform="matrix( 10, 0, 0, 10, -2083.35,-1408.75) ">
<use xlink:href="#Layer0_0_MEMBER_30_MEMBER_2_MEMBER_2_MEMBER_0_MEMBER_0_FILL"/>
</g>

<g transform="matrix( 10, 0, 0, 10, -2083.35,-1408.75) ">
<use xlink:href="#Layer0_0_MEMBER_30_MEMBER_2_MEMBER_2_MEMBER_1_MEMBER_0_FILL"/>
</g>

<g transform="matrix( 10, 0, 0, 10, -2083.35,-1408.75) ">
<use xlink:href="#Layer0_0_MEMBER_30_MEMBER_2_MEMBER_3_FILL"/>
</g>

<g transform="matrix( 10, 0, 0, 10, 714.65,398.25) ">
<use xlink:href="#Layer0_0_MEMBER_31_MEMBER_0_FILL"/>
</g>

<g transform="matrix( 10, 0, 0, 10, 714.65,398.25) ">
<use xlink:href="#Layer0_0_MEMBER_31_MEMBER_1_FILL"/>
</g>

<g transform="matrix( 10, 0, 0, 10, 826.65,398.25) ">
<use xlink:href="#Layer0_0_MEMBER_31_MEMBER_2_FILL"/>
</g>
</svg>
